<svg version="1.1" baseProfile="full" xmlns="http://www.w3.org/2000/svg"
width="446.2" height="1024"
viewBox="-111 -256 112 257"
>
<rect x="-111" y="-256" width="100%" height="100%" fill="white" />
<path stroke="green" stroke-width="0.04" stroke-linecap="round" fill="none"
transform="scale(1 -1)"
d="	M 0 0
	L 6.123e-17 1
	L 1.225e-16 2
	L 1.837e-16 3
	L 2.449e-16 4
	L 3.062e-16 5
	L 3.674e-16 6
	L 4.286e-16 7
	L 4.899e-16 8
	L -0.866 8.5
	M 4.899e-16 8
	L 5.511e-16 9
	L -0.866 9.5
	L -1.732 10
	L -2.598 9.5
	M -1.732 10
	L -2.598 10.5
	M 5.511e-16 9
	L 6.123e-16 10
	L 6.736e-16 11
	L -0.866 11.5
	M 6.736e-16 11
	L 7.348e-16 12
	L -0.866 12.5
	L -1.732 13
	L -2.598 13.5
	L -3.464 13
	M -2.598 13.5
	L -3.464 14
	L -4.33 13.5
	L -5.196 13
	L -5.196 12
	M -5.196 13
	L -6.062 12.5
	M -3.464 14
	L -4.33 14.5
	L -5.196 15
	L -6.062 14.5
	M -5.196 15
	L -6.062 15.5
	M 7.348e-16 12
	L 7.96e-16 13
	L 8.573e-16 14
	L 9.185e-16 15
	L -0.866 15.5
	M 9.185e-16 15
	L 9.797e-16 16
	L -0.866 16.5
	L -1.732 17
	L -2.598 16.5
	M -1.732 17
	L -2.598 17.5
	M 9.797e-16 16
	L 1.041e-15 17
	L 1.102e-15 18
	L -0.866 18.5
	M 1.102e-15 18
	L 1.163e-15 19
	L -0.866 19.5
	L -1.732 20
	L -2.598 20.5
	L -3.464 21
	L -4.33 20.5
	M -3.464 21
	L -4.33 21.5
	L -5.196 21
	L -6.062 20.5
	L -6.062 19.5
	M -6.062 20.5
	L -6.928 20
	M -4.33 21.5
	L -5.196 22
	L -6.062 22.5
	L -6.928 22
	M -6.062 22.5
	L -6.928 23
	L -7.794 22.5
	L -8.66 22
	L -9.526 21.5
	L -9.526 20.5
	M -9.526 21.5
	L -10.39 21
	L -10.39 20
	L -10.39 19
	L -9.526 18.5
	M -10.39 19
	L -10.39 18
	M -10.39 21
	L -11.26 20.5
	L -12.12 20
	L -12.12 19
	M -12.12 20
	L -12.99 19.5
	M -6.928 23
	L -7.794 23.5
	L -8.66 24
	L -9.526 24.5
	L -10.39 24
	M -9.526 24.5
	L -10.39 25
	L -11.26 24.5
	L -12.12 24
	L -12.12 23
	M -12.12 24
	L -12.99 23.5
	M -10.39 25
	L -11.26 25.5
	L -12.12 26
	L -12.99 25.5
	M -12.12 26
	L -12.99 26.5
	M 1.163e-15 19
	L 1.225e-15 20
	L 1.286e-15 21
	L 1.347e-15 22
	L 1.408e-15 23
	L -0.866 23.5
	M 1.408e-15 23
	L 1.47e-15 24
	L -0.866 24.5
	L -1.732 25
	L -2.598 24.5
	M -1.732 25
	L -2.598 25.5
	M 1.47e-15 24
	L 1.531e-15 25
	L 1.592e-15 26
	L -0.866 26.5
	M 1.592e-15 26
	L 1.653e-15 27
	L -0.866 27.5
	L -1.732 28
	L -2.598 28.5
	L -3.464 28
	M -2.598 28.5
	L -3.464 29
	L -4.33 28.5
	L -5.196 28
	L -5.196 27
	M -5.196 28
	L -6.062 27.5
	M -3.464 29
	L -4.33 29.5
	L -5.196 30
	L -6.062 29.5
	M -5.196 30
	L -6.062 30.5
	M 1.653e-15 27
	L 1.715e-15 28
	L 1.776e-15 29
	L 1.837e-15 30
	L -0.866 30.5
	M 1.837e-15 30
	L 1.898e-15 31
	L -0.866 31.5
	L -1.732 32
	L -2.598 31.5
	M -1.732 32
	L -2.598 32.5
	M 1.898e-15 31
	L 1.959e-15 32
	L 2.021e-15 33
	L -0.866 33.5
	M 2.021e-15 33
	L 2.082e-15 34
	L -0.866 34.5
	L -1.732 35
	L -2.598 35.5
	L -3.464 36
	L -4.33 36.5
	L -5.196 36
	M -4.33 36.5
	L -5.196 37
	L -6.062 36.5
	L -6.928 36
	L -6.928 35
	M -6.928 36
	L -7.794 35.5
	M -5.196 37
	L -6.062 37.5
	L -6.928 38
	L -7.794 37.5
	M -6.928 38
	L -7.794 38.5
	L -8.66 38
	L -9.526 37.5
	L -10.39 37
	L -10.39 36
	M -10.39 37
	L -11.26 36.5
	L -11.26 35.5
	L -11.26 34.5
	L -10.39 34
	M -11.26 34.5
	L -11.26 33.5
	M -11.26 36.5
	L -12.12 36
	L -12.99 35.5
	L -12.99 34.5
	M -12.99 35.5
	L -13.86 35
	M -7.794 38.5
	L -8.66 39
	L -9.526 39.5
	L -10.39 40
	L -11.26 39.5
	M -10.39 40
	L -11.26 40.5
	L -12.12 40
	L -12.99 39.5
	L -12.99 38.5
	M -12.99 39.5
	L -13.86 39
	M -11.26 40.5
	L -12.12 41
	L -12.99 41.5
	L -13.86 41
	M -12.99 41.5
	L -13.86 42
	L -14.72 41.5
	L -15.59 41
	L -16.45 40.5
	L -17.32 40
	L -17.32 39
	M -17.32 40
	L -18.19 39.5
	L -18.19 38.5
	L -18.19 37.5
	L -17.32 37
	M -18.19 37.5
	L -18.19 36.5
	M -18.19 39.5
	L -19.05 39
	L -19.92 38.5
	L -19.92 37.5
	M -19.92 38.5
	L -20.78 38
	L -20.78 37
	L -20.78 36
	L -20.78 35
	L -19.92 34.5
	M -20.78 35
	L -20.78 34
	L -19.92 33.5
	L -19.05 33
	L -18.19 33.5
	M -19.05 33
	L -18.19 32.5
	M -20.78 34
	L -20.78 33
	L -20.78 32
	L -19.92 31.5
	M -20.78 32
	L -20.78 31
	M -20.78 38
	L -21.65 37.5
	L -22.52 37
	L -23.38 36.5
	L -23.38 35.5
	M -23.38 36.5
	L -24.25 36
	L -24.25 35
	L -24.25 34
	L -23.38 33.5
	M -24.25 34
	L -24.25 33
	M -24.25 36
	L -25.11 35.5
	L -25.98 35
	L -25.98 34
	M -25.98 35
	L -26.85 34.5
	M -13.86 42
	L -14.72 42.5
	L -15.59 43
	L -16.45 43.5
	L -17.32 44
	L -18.19 43.5
	M -17.32 44
	L -18.19 44.5
	L -19.05 44
	L -19.92 43.5
	L -19.92 42.5
	M -19.92 43.5
	L -20.78 43
	M -18.19 44.5
	L -19.05 45
	L -19.92 45.5
	L -20.78 45
	M -19.92 45.5
	L -20.78 46
	L -21.65 45.5
	L -22.52 45
	L -23.38 44.5
	L -23.38 43.5
	M -23.38 44.5
	L -24.25 44
	L -24.25 43
	L -24.25 42
	L -23.38 41.5
	M -24.25 42
	L -24.25 41
	M -24.25 44
	L -25.11 43.5
	L -25.98 43
	L -25.98 42
	M -25.98 43
	L -26.85 42.5
	M -20.78 46
	L -21.65 46.5
	L -22.52 47
	L -23.38 47.5
	L -24.25 47
	M -23.38 47.5
	L -24.25 48
	L -25.11 47.5
	L -25.98 47
	L -25.98 46
	M -25.98 47
	L -26.85 46.5
	M -24.25 48
	L -25.11 48.5
	L -25.98 49
	L -26.85 48.5
	M -25.98 49
	L -26.85 49.5
	M 2.082e-15 34
	L 2.143e-15 35
	L 2.204e-15 36
	L 2.266e-15 37
	L 2.327e-15 38
	L 2.388e-15 39
	L -0.866 39.5
	M 2.388e-15 39
	L 2.449e-15 40
	L -0.866 40.5
	L -1.732 41
	L -2.598 40.5
	M -1.732 41
	L -2.598 41.5
	M 2.449e-15 40
	L 2.511e-15 41
	L 2.572e-15 42
	L -0.866 42.5
	M 2.572e-15 42
	L 2.633e-15 43
	L -0.866 43.5
	L -1.732 44
	L -2.598 44.5
	L -3.464 44
	M -2.598 44.5
	L -3.464 45
	L -4.33 44.5
	L -5.196 44
	L -5.196 43
	M -5.196 44
	L -6.062 43.5
	M -3.464 45
	L -4.33 45.5
	L -5.196 46
	L -6.062 45.5
	M -5.196 46
	L -6.062 46.5
	M 2.633e-15 43
	L 2.694e-15 44
	L 2.755e-15 45
	L 2.817e-15 46
	L -0.866 46.5
	M 2.817e-15 46
	L 2.878e-15 47
	L -0.866 47.5
	L -1.732 48
	L -2.598 47.5
	M -1.732 48
	L -2.598 48.5
	M 2.878e-15 47
	L 2.939e-15 48
	L 3e-15 49
	L -0.866 49.5
	M 3e-15 49
	L 3.062e-15 50
	L -0.866 50.5
	L -1.732 51
	L -2.598 51.5
	L -3.464 52
	L -4.33 51.5
	M -3.464 52
	L -4.33 52.5
	L -5.196 52
	L -6.062 51.5
	L -6.062 50.5
	M -6.062 51.5
	L -6.928 51
	M -4.33 52.5
	L -5.196 53
	L -6.062 53.5
	L -6.928 53
	M -6.062 53.5
	L -6.928 54
	L -7.794 53.5
	L -8.66 53
	L -9.526 52.5
	L -9.526 51.5
	M -9.526 52.5
	L -10.39 52
	L -10.39 51
	L -10.39 50
	L -9.526 49.5
	M -10.39 50
	L -10.39 49
	M -10.39 52
	L -11.26 51.5
	L -12.12 51
	L -12.12 50
	M -12.12 51
	L -12.99 50.5
	M -6.928 54
	L -7.794 54.5
	L -8.66 55
	L -9.526 55.5
	L -10.39 55
	M -9.526 55.5
	L -10.39 56
	L -11.26 55.5
	L -12.12 55
	L -12.12 54
	M -12.12 55
	L -12.99 54.5
	M -10.39 56
	L -11.26 56.5
	L -12.12 57
	L -12.99 56.5
	M -12.12 57
	L -12.99 57.5
	M 3.062e-15 50
	L 3.123e-15 51
	L 3.184e-15 52
	L 3.245e-15 53
	L 3.307e-15 54
	L -0.866 54.5
	M 3.307e-15 54
	L 3.368e-15 55
	L -0.866 55.5
	L -1.732 56
	L -2.598 55.5
	M -1.732 56
	L -2.598 56.5
	M 3.368e-15 55
	L 3.429e-15 56
	L 3.49e-15 57
	L -0.866 57.5
	M 3.49e-15 57
	L 3.551e-15 58
	L -0.866 58.5
	L -1.732 59
	L -2.598 59.5
	L -3.464 59
	M -2.598 59.5
	L -3.464 60
	L -4.33 59.5
	L -5.196 59
	L -5.196 58
	M -5.196 59
	L -6.062 58.5
	M -3.464 60
	L -4.33 60.5
	L -5.196 61
	L -6.062 60.5
	M -5.196 61
	L -6.062 61.5
	M 3.551e-15 58
	L 3.613e-15 59
	L 3.674e-15 60
	L 3.735e-15 61
	L -0.866 61.5
	M 3.735e-15 61
	L 3.796e-15 62
	L -0.866 62.5
	L -1.732 63
	L -2.598 62.5
	M -1.732 63
	L -2.598 63.5
	M 3.796e-15 62
	L 3.858e-15 63
	L 3.919e-15 64
	L -0.866 64.5
	M 3.919e-15 64
	L 3.98e-15 65
	L -0.866 65.5
	L -1.732 66
	L -2.598 66.5
	L -3.464 67
	L -4.33 67.5
	L -5.196 68
	L -6.062 67.5
	M -5.196 68
	L -6.062 68.5
	L -6.928 68
	L -7.794 67.5
	L -7.794 66.5
	M -7.794 67.5
	L -8.66 67
	M -6.062 68.5
	L -6.928 69
	L -7.794 69.5
	L -8.66 69
	M -7.794 69.5
	L -8.66 70
	L -9.526 69.5
	L -10.39 69
	L -11.26 68.5
	L -11.26 67.5
	M -11.26 68.5
	L -12.12 68
	L -12.12 67
	L -12.12 66
	L -11.26 65.5
	M -12.12 66
	L -12.12 65
	M -12.12 68
	L -12.99 67.5
	L -13.86 67
	L -13.86 66
	M -13.86 67
	L -14.72 66.5
	M -8.66 70
	L -9.526 70.5
	L -10.39 71
	L -11.26 71.5
	L -12.12 71
	M -11.26 71.5
	L -12.12 72
	L -12.99 71.5
	L -13.86 71
	L -13.86 70
	M -13.86 71
	L -14.72 70.5
	M -12.12 72
	L -12.99 72.5
	L -13.86 73
	L -14.72 72.5
	M -13.86 73
	L -14.72 73.5
	L -15.59 73
	L -16.45 72.5
	L -17.32 72
	L -18.19 71.5
	L -18.19 70.5
	M -18.19 71.5
	L -19.05 71
	L -19.05 70
	L -19.05 69
	L -18.19 68.5
	M -19.05 69
	L -19.05 68
	M -19.05 71
	L -19.92 70.5
	L -20.78 70
	L -20.78 69
	M -20.78 70
	L -21.65 69.5
	L -21.65 68.5
	L -21.65 67.5
	L -21.65 66.5
	L -20.78 66
	M -21.65 66.5
	L -21.65 65.5
	L -20.78 65
	L -19.92 64.5
	L -19.05 65
	M -19.92 64.5
	L -19.05 64
	M -21.65 65.5
	L -21.65 64.5
	L -21.65 63.5
	L -20.78 63
	M -21.65 63.5
	L -21.65 62.5
	M -21.65 69.5
	L -22.52 69
	L -23.38 68.5
	L -24.25 68
	L -24.25 67
	M -24.25 68
	L -25.11 67.5
	L -25.11 66.5
	L -25.11 65.5
	L -24.25 65
	M -25.11 65.5
	L -25.11 64.5
	M -25.11 67.5
	L -25.98 67
	L -26.85 66.5
	L -26.85 65.5
	M -26.85 66.5
	L -27.71 66
	M -14.72 73.5
	L -15.59 74
	L -16.45 74.5
	L -17.32 75
	L -18.19 75.5
	L -19.05 75
	M -18.19 75.5
	L -19.05 76
	L -19.92 75.5
	L -20.78 75
	L -20.78 74
	M -20.78 75
	L -21.65 74.5
	M -19.05 76
	L -19.92 76.5
	L -20.78 77
	L -21.65 76.5
	M -20.78 77
	L -21.65 77.5
	L -22.52 77
	L -23.38 76.5
	L -24.25 76
	L -24.25 75
	M -24.25 76
	L -25.11 75.5
	L -25.11 74.5
	L -25.11 73.5
	L -24.25 73
	M -25.11 73.5
	L -25.11 72.5
	M -25.11 75.5
	L -25.98 75
	L -26.85 74.5
	L -26.85 73.5
	M -26.85 74.5
	L -27.71 74
	M -21.65 77.5
	L -22.52 78
	L -23.38 78.5
	L -24.25 79
	L -25.11 78.5
	M -24.25 79
	L -25.11 79.5
	L -25.98 79
	L -26.85 78.5
	L -26.85 77.5
	M -26.85 78.5
	L -27.71 78
	M -25.11 79.5
	L -25.98 80
	L -26.85 80.5
	L -27.71 80
	M -26.85 80.5
	L -27.71 81
	L -28.58 80.5
	L -29.44 80
	L -30.31 79.5
	L -31.18 79
	L -32.04 78.5
	L -32.04 77.5
	M -32.04 78.5
	L -32.91 78
	L -32.91 77
	L -32.91 76
	L -32.04 75.5
	M -32.91 76
	L -32.91 75
	M -32.91 78
	L -33.77 77.5
	L -34.64 77
	L -34.64 76
	M -34.64 77
	L -35.51 76.5
	L -35.51 75.5
	L -35.51 74.5
	L -35.51 73.5
	L -34.64 73
	M -35.51 73.5
	L -35.51 72.5
	L -34.64 72
	L -33.77 71.5
	L -32.91 72
	M -33.77 71.5
	L -32.91 71
	M -35.51 72.5
	L -35.51 71.5
	L -35.51 70.5
	L -34.64 70
	M -35.51 70.5
	L -35.51 69.5
	M -35.51 76.5
	L -36.37 76
	L -37.24 75.5
	L -38.11 75
	L -38.11 74
	M -38.11 75
	L -38.97 74.5
	L -38.97 73.5
	L -38.97 72.5
	L -38.11 72
	M -38.97 72.5
	L -38.97 71.5
	M -38.97 74.5
	L -39.84 74
	L -40.7 73.5
	L -40.7 72.5
	M -40.7 73.5
	L -41.57 73
	L -41.57 72
	L -41.57 71
	L -41.57 70
	L -41.57 69
	L -40.7 68.5
	M -41.57 69
	L -41.57 68
	L -40.7 67.5
	L -39.84 67
	L -38.97 67.5
	M -39.84 67
	L -38.97 66.5
	M -41.57 68
	L -41.57 67
	L -41.57 66
	L -40.7 65.5
	M -41.57 66
	L -41.57 65
	L -40.7 64.5
	L -39.84 64
	L -38.97 63.5
	L -38.11 64
	M -38.97 63.5
	L -38.11 63
	L -37.24 63.5
	L -36.37 64
	L -36.37 65
	M -36.37 64
	L -35.51 64.5
	M -38.11 63
	L -37.24 62.5
	L -36.37 62
	L -35.51 62.5
	M -36.37 62
	L -35.51 61.5
	M -41.57 65
	L -41.57 64
	L -41.57 63
	L -41.57 62
	L -40.7 61.5
	M -41.57 62
	L -41.57 61
	L -40.7 60.5
	L -39.84 60
	L -38.97 60.5
	M -39.84 60
	L -38.97 59.5
	M -41.57 61
	L -41.57 60
	L -41.57 59
	L -40.7 58.5
	M -41.57 59
	L -41.57 58
	M -41.57 73
	L -42.44 72.5
	L -43.3 72
	L -44.17 71.5
	L -45.03 71
	L -45.03 70
	M -45.03 71
	L -45.9 70.5
	L -45.9 69.5
	L -45.9 68.5
	L -45.03 68
	M -45.9 68.5
	L -45.9 67.5
	M -45.9 70.5
	L -46.77 70
	L -47.63 69.5
	L -47.63 68.5
	M -47.63 69.5
	L -48.5 69
	L -48.5 68
	L -48.5 67
	L -48.5 66
	L -47.63 65.5
	M -48.5 66
	L -48.5 65
	L -47.63 64.5
	L -46.77 64
	L -45.9 64.5
	M -46.77 64
	L -45.9 63.5
	M -48.5 65
	L -48.5 64
	L -48.5 63
	L -47.63 62.5
	M -48.5 63
	L -48.5 62
	M -48.5 69
	L -49.36 68.5
	L -50.23 68
	L -51.1 67.5
	L -51.1 66.5
	M -51.1 67.5
	L -51.96 67
	L -51.96 66
	L -51.96 65
	L -51.1 64.5
	M -51.96 65
	L -51.96 64
	M -51.96 67
	L -52.83 66.5
	L -53.69 66
	L -53.69 65
	M -53.69 66
	L -54.56 65.5
	M -27.71 81
	L -28.58 81.5
	L -29.44 82
	L -30.31 82.5
	L -31.18 83
	L -32.04 83.5
	L -32.91 83
	M -32.04 83.5
	L -32.91 84
	L -33.77 83.5
	L -34.64 83
	L -34.64 82
	M -34.64 83
	L -35.51 82.5
	M -32.91 84
	L -33.77 84.5
	L -34.64 85
	L -35.51 84.5
	M -34.64 85
	L -35.51 85.5
	L -36.37 85
	L -37.24 84.5
	L -38.11 84
	L -38.11 83
	M -38.11 84
	L -38.97 83.5
	L -38.97 82.5
	L -38.97 81.5
	L -38.11 81
	M -38.97 81.5
	L -38.97 80.5
	M -38.97 83.5
	L -39.84 83
	L -40.7 82.5
	L -40.7 81.5
	M -40.7 82.5
	L -41.57 82
	M -35.51 85.5
	L -36.37 86
	L -37.24 86.5
	L -38.11 87
	L -38.97 86.5
	M -38.11 87
	L -38.97 87.5
	L -39.84 87
	L -40.7 86.5
	L -40.7 85.5
	M -40.7 86.5
	L -41.57 86
	M -38.97 87.5
	L -39.84 88
	L -40.7 88.5
	L -41.57 88
	M -40.7 88.5
	L -41.57 89
	L -42.44 88.5
	L -43.3 88
	L -44.17 87.5
	L -45.03 87
	L -45.03 86
	M -45.03 87
	L -45.9 86.5
	L -45.9 85.5
	L -45.9 84.5
	L -45.03 84
	M -45.9 84.5
	L -45.9 83.5
	M -45.9 86.5
	L -46.77 86
	L -47.63 85.5
	L -47.63 84.5
	M -47.63 85.5
	L -48.5 85
	L -48.5 84
	L -48.5 83
	L -48.5 82
	L -47.63 81.5
	M -48.5 82
	L -48.5 81
	L -47.63 80.5
	L -46.77 80
	L -45.9 80.5
	M -46.77 80
	L -45.9 79.5
	M -48.5 81
	L -48.5 80
	L -48.5 79
	L -47.63 78.5
	M -48.5 79
	L -48.5 78
	M -48.5 85
	L -49.36 84.5
	L -50.23 84
	L -51.1 83.5
	L -51.1 82.5
	M -51.1 83.5
	L -51.96 83
	L -51.96 82
	L -51.96 81
	L -51.1 80.5
	M -51.96 81
	L -51.96 80
	M -51.96 83
	L -52.83 82.5
	L -53.69 82
	L -53.69 81
	M -53.69 82
	L -54.56 81.5
	M -41.57 89
	L -42.44 89.5
	L -43.3 90
	L -44.17 90.5
	L -45.03 91
	L -45.9 90.5
	M -45.03 91
	L -45.9 91.5
	L -46.77 91
	L -47.63 90.5
	L -47.63 89.5
	M -47.63 90.5
	L -48.5 90
	M -45.9 91.5
	L -46.77 92
	L -47.63 92.5
	L -48.5 92
	M -47.63 92.5
	L -48.5 93
	L -49.36 92.5
	L -50.23 92
	L -51.1 91.5
	L -51.1 90.5
	M -51.1 91.5
	L -51.96 91
	L -51.96 90
	L -51.96 89
	L -51.1 88.5
	M -51.96 89
	L -51.96 88
	M -51.96 91
	L -52.83 90.5
	L -53.69 90
	L -53.69 89
	M -53.69 90
	L -54.56 89.5
	M -48.5 93
	L -49.36 93.5
	L -50.23 94
	L -51.1 94.5
	L -51.96 94
	M -51.1 94.5
	L -51.96 95
	L -52.83 94.5
	L -53.69 94
	L -53.69 93
	M -53.69 94
	L -54.56 93.5
	M -51.96 95
	L -52.83 95.5
	L -53.69 96
	L -54.56 95.5
	M -53.69 96
	L -54.56 96.5
	M 3.98e-15 65
	L 4.041e-15 66
	L 4.103e-15 67
	L 4.164e-15 68
	L 4.225e-15 69
	L 4.286e-15 70
	L 4.347e-15 71
	L -0.866 71.5
	M 4.347e-15 71
	L 4.409e-15 72
	L -0.866 72.5
	L -1.732 73
	L -2.598 72.5
	M -1.732 73
	L -2.598 73.5
	M 4.409e-15 72
	L 4.47e-15 73
	L 4.531e-15 74
	L -0.866 74.5
	M 4.531e-15 74
	L 4.592e-15 75
	L -0.866 75.5
	L -1.732 76
	L -2.598 76.5
	L -3.464 76
	M -2.598 76.5
	L -3.464 77
	L -4.33 76.5
	L -5.196 76
	L -5.196 75
	M -5.196 76
	L -6.062 75.5
	M -3.464 77
	L -4.33 77.5
	L -5.196 78
	L -6.062 77.5
	M -5.196 78
	L -6.062 78.5
	M 4.592e-15 75
	L 4.654e-15 76
	L 4.715e-15 77
	L 4.776e-15 78
	L -0.866 78.5
	M 4.776e-15 78
	L 4.837e-15 79
	L -0.866 79.5
	L -1.732 80
	L -2.598 79.5
	M -1.732 80
	L -2.598 80.5
	M 4.837e-15 79
	L 4.899e-15 80
	L 4.96e-15 81
	L -0.866 81.5
	M 4.96e-15 81
	L 5.021e-15 82
	L -0.866 82.5
	L -1.732 83
	L -2.598 83.5
	L -3.464 84
	L -4.33 83.5
	M -3.464 84
	L -4.33 84.5
	L -5.196 84
	L -6.062 83.5
	L -6.062 82.5
	M -6.062 83.5
	L -6.928 83
	M -4.33 84.5
	L -5.196 85
	L -6.062 85.5
	L -6.928 85
	M -6.062 85.5
	L -6.928 86
	L -7.794 85.5
	L -8.66 85
	L -9.526 84.5
	L -9.526 83.5
	M -9.526 84.5
	L -10.39 84
	L -10.39 83
	L -10.39 82
	L -9.526 81.5
	M -10.39 82
	L -10.39 81
	M -10.39 84
	L -11.26 83.5
	L -12.12 83
	L -12.12 82
	M -12.12 83
	L -12.99 82.5
	M -6.928 86
	L -7.794 86.5
	L -8.66 87
	L -9.526 87.5
	L -10.39 87
	M -9.526 87.5
	L -10.39 88
	L -11.26 87.5
	L -12.12 87
	L -12.12 86
	M -12.12 87
	L -12.99 86.5
	M -10.39 88
	L -11.26 88.5
	L -12.12 89
	L -12.99 88.5
	M -12.12 89
	L -12.99 89.5
	M 5.021e-15 82
	L 5.082e-15 83
	L 5.144e-15 84
	L 5.205e-15 85
	L 5.266e-15 86
	L -0.866 86.5
	M 5.266e-15 86
	L 5.327e-15 87
	L -0.866 87.5
	L -1.732 88
	L -2.598 87.5
	M -1.732 88
	L -2.598 88.5
	M 5.327e-15 87
	L 5.388e-15 88
	L 5.45e-15 89
	L -0.866 89.5
	M 5.45e-15 89
	L 5.511e-15 90
	L -0.866 90.5
	L -1.732 91
	L -2.598 91.5
	L -3.464 91
	M -2.598 91.5
	L -3.464 92
	L -4.33 91.5
	L -5.196 91
	L -5.196 90
	M -5.196 91
	L -6.062 90.5
	M -3.464 92
	L -4.33 92.5
	L -5.196 93
	L -6.062 92.5
	M -5.196 93
	L -6.062 93.5
	M 5.511e-15 90
	L 5.572e-15 91
	L 5.633e-15 92
	L 5.695e-15 93
	L -0.866 93.5
	M 5.695e-15 93
	L 5.756e-15 94
	L -0.866 94.5
	L -1.732 95
	L -2.598 94.5
	M -1.732 95
	L -2.598 95.5
	M 5.756e-15 94
	L 5.817e-15 95
	L 5.878e-15 96
	L -0.866 96.5
	M 5.878e-15 96
	L 5.94e-15 97
	L -0.866 97.5
	L -1.732 98
	L -2.598 98.5
	L -3.464 99
	L -4.33 99.5
	L -5.196 99
	M -4.33 99.5
	L -5.196 100
	L -6.062 99.5
	L -6.928 99
	L -6.928 98
	M -6.928 99
	L -7.794 98.5
	M -5.196 100
	L -6.062 100.5
	L -6.928 101
	L -7.794 100.5
	M -6.928 101
	L -7.794 101.5
	L -8.66 101
	L -9.526 100.5
	L -10.39 100
	L -10.39 99
	M -10.39 100
	L -11.26 99.5
	L -11.26 98.5
	L -11.26 97.5
	L -10.39 97
	M -11.26 97.5
	L -11.26 96.5
	M -11.26 99.5
	L -12.12 99
	L -12.99 98.5
	L -12.99 97.5
	M -12.99 98.5
	L -13.86 98
	M -7.794 101.5
	L -8.66 102
	L -9.526 102.5
	L -10.39 103
	L -11.26 102.5
	M -10.39 103
	L -11.26 103.5
	L -12.12 103
	L -12.99 102.5
	L -12.99 101.5
	M -12.99 102.5
	L -13.86 102
	M -11.26 103.5
	L -12.12 104
	L -12.99 104.5
	L -13.86 104
	M -12.99 104.5
	L -13.86 105
	L -14.72 104.5
	L -15.59 104
	L -16.45 103.5
	L -17.32 103
	L -17.32 102
	M -17.32 103
	L -18.19 102.5
	L -18.19 101.5
	L -18.19 100.5
	L -17.32 100
	M -18.19 100.5
	L -18.19 99.5
	M -18.19 102.5
	L -19.05 102
	L -19.92 101.5
	L -19.92 100.5
	M -19.92 101.5
	L -20.78 101
	L -20.78 100
	L -20.78 99
	L -20.78 98
	L -19.92 97.5
	M -20.78 98
	L -20.78 97
	L -19.92 96.5
	L -19.05 96
	L -18.19 96.5
	M -19.05 96
	L -18.19 95.5
	M -20.78 97
	L -20.78 96
	L -20.78 95
	L -19.92 94.5
	M -20.78 95
	L -20.78 94
	M -20.78 101
	L -21.65 100.5
	L -22.52 100
	L -23.38 99.5
	L -23.38 98.5
	M -23.38 99.5
	L -24.25 99
	L -24.25 98
	L -24.25 97
	L -23.38 96.5
	M -24.25 97
	L -24.25 96
	M -24.25 99
	L -25.11 98.5
	L -25.98 98
	L -25.98 97
	M -25.98 98
	L -26.85 97.5
	M -13.86 105
	L -14.72 105.5
	L -15.59 106
	L -16.45 106.5
	L -17.32 107
	L -18.19 106.5
	M -17.32 107
	L -18.19 107.5
	L -19.05 107
	L -19.92 106.5
	L -19.92 105.5
	M -19.92 106.5
	L -20.78 106
	M -18.19 107.5
	L -19.05 108
	L -19.92 108.5
	L -20.78 108
	M -19.92 108.5
	L -20.78 109
	L -21.65 108.5
	L -22.52 108
	L -23.38 107.5
	L -23.38 106.5
	M -23.38 107.5
	L -24.25 107
	L -24.25 106
	L -24.25 105
	L -23.38 104.5
	M -24.25 105
	L -24.25 104
	M -24.25 107
	L -25.11 106.5
	L -25.98 106
	L -25.98 105
	M -25.98 106
	L -26.85 105.5
	M -20.78 109
	L -21.65 109.5
	L -22.52 110
	L -23.38 110.5
	L -24.25 110
	M -23.38 110.5
	L -24.25 111
	L -25.11 110.5
	L -25.98 110
	L -25.98 109
	M -25.98 110
	L -26.85 109.5
	M -24.25 111
	L -25.11 111.5
	L -25.98 112
	L -26.85 111.5
	M -25.98 112
	L -26.85 112.5
	M 5.94e-15 97
	L 6.001e-15 98
	L 6.062e-15 99
	L 6.123e-15 100
	L 6.184e-15 101
	L 6.246e-15 102
	L -0.866 102.5
	M 6.246e-15 102
	L 6.307e-15 103
	L -0.866 103.5
	L -1.732 104
	L -2.598 103.5
	M -1.732 104
	L -2.598 104.5
	M 6.307e-15 103
	L 6.368e-15 104
	L 6.429e-15 105
	L -0.866 105.5
	M 6.429e-15 105
	L 6.491e-15 106
	L -0.866 106.5
	L -1.732 107
	L -2.598 107.5
	L -3.464 107
	M -2.598 107.5
	L -3.464 108
	L -4.33 107.5
	L -5.196 107
	L -5.196 106
	M -5.196 107
	L -6.062 106.5
	M -3.464 108
	L -4.33 108.5
	L -5.196 109
	L -6.062 108.5
	M -5.196 109
	L -6.062 109.5
	M 6.491e-15 106
	L 6.552e-15 107
	L 6.613e-15 108
	L 6.674e-15 109
	L -0.866 109.5
	M 6.674e-15 109
	L 6.736e-15 110
	L -0.866 110.5
	L -1.732 111
	L -2.598 110.5
	M -1.732 111
	L -2.598 111.5
	M 6.736e-15 110
	L 6.797e-15 111
	L 6.858e-15 112
	L -0.866 112.5
	M 6.858e-15 112
	L 6.919e-15 113
	L -0.866 113.5
	L -1.732 114
	L -2.598 114.5
	L -3.464 115
	L -4.33 114.5
	M -3.464 115
	L -4.33 115.5
	L -5.196 115
	L -6.062 114.5
	L -6.062 113.5
	M -6.062 114.5
	L -6.928 114
	M -4.33 115.5
	L -5.196 116
	L -6.062 116.5
	L -6.928 116
	M -6.062 116.5
	L -6.928 117
	L -7.794 116.5
	L -8.66 116
	L -9.526 115.5
	L -9.526 114.5
	M -9.526 115.5
	L -10.39 115
	L -10.39 114
	L -10.39 113
	L -9.526 112.5
	M -10.39 113
	L -10.39 112
	M -10.39 115
	L -11.26 114.5
	L -12.12 114
	L -12.12 113
	M -12.12 114
	L -12.99 113.5
	M -6.928 117
	L -7.794 117.5
	L -8.66 118
	L -9.526 118.5
	L -10.39 118
	M -9.526 118.5
	L -10.39 119
	L -11.26 118.5
	L -12.12 118
	L -12.12 117
	M -12.12 118
	L -12.99 117.5
	M -10.39 119
	L -11.26 119.5
	L -12.12 120
	L -12.99 119.5
	M -12.12 120
	L -12.99 120.5
	M 6.919e-15 113
	L 6.98e-15 114
	L 7.042e-15 115
	L 7.103e-15 116
	L 7.164e-15 117
	L -0.866 117.5
	M 7.164e-15 117
	L 7.225e-15 118
	L -0.866 118.5
	L -1.732 119
	L -2.598 118.5
	M -1.732 119
	L -2.598 119.5
	M 7.225e-15 118
	L 7.287e-15 119
	L 7.348e-15 120
	L -0.866 120.5
	M 7.348e-15 120
	L 7.409e-15 121
	L -0.866 121.5
	L -1.732 122
	L -2.598 122.5
	L -3.464 122
	M -2.598 122.5
	L -3.464 123
	L -4.33 122.5
	L -5.196 122
	L -5.196 121
	M -5.196 122
	L -6.062 121.5
	M -3.464 123
	L -4.33 123.5
	L -5.196 124
	L -6.062 123.5
	M -5.196 124
	L -6.062 124.5
	M 7.409e-15 121
	L 7.47e-15 122
	L 7.532e-15 123
	L 7.593e-15 124
	L -0.866 124.5
	M 7.593e-15 124
	L 7.654e-15 125
	L -0.866 125.5
	L -1.732 126
	L -2.598 125.5
	M -1.732 126
	L -2.598 126.5
	M 7.654e-15 125
	L 7.715e-15 126
	L 7.777e-15 127
	L -0.866 127.5
	M 7.777e-15 127
	L 7.838e-15 128
	L -0.866 128.5
	L -1.732 129
	L -2.598 129.5
	L -3.464 130
	L -4.33 130.5
	L -5.196 131
	L -6.062 131.5
	L -6.928 131
	M -6.062 131.5
	L -6.928 132
	L -7.794 131.5
	L -8.66 131
	L -8.66 130
	M -8.66 131
	L -9.526 130.5
	M -6.928 132
	L -7.794 132.5
	L -8.66 133
	L -9.526 132.5
	M -8.66 133
	L -9.526 133.5
	L -10.39 133
	L -11.26 132.5
	L -12.12 132
	L -12.12 131
	M -12.12 132
	L -12.99 131.5
	L -12.99 130.5
	L -12.99 129.5
	L -12.12 129
	M -12.99 129.5
	L -12.99 128.5
	M -12.99 131.5
	L -13.86 131
	L -14.72 130.5
	L -14.72 129.5
	M -14.72 130.5
	L -15.59 130
	M -9.526 133.5
	L -10.39 134
	L -11.26 134.5
	L -12.12 135
	L -12.99 134.5
	M -12.12 135
	L -12.99 135.5
	L -13.86 135
	L -14.72 134.5
	L -14.72 133.5
	M -14.72 134.5
	L -15.59 134
	M -12.99 135.5
	L -13.86 136
	L -14.72 136.5
	L -15.59 136
	M -14.72 136.5
	L -15.59 137
	L -16.45 136.5
	L -17.32 136
	L -18.19 135.5
	L -19.05 135
	L -19.05 134
	M -19.05 135
	L -19.92 134.5
	L -19.92 133.5
	L -19.92 132.5
	L -19.05 132
	M -19.92 132.5
	L -19.92 131.5
	M -19.92 134.5
	L -20.78 134
	L -21.65 133.5
	L -21.65 132.5
	M -21.65 133.5
	L -22.52 133
	L -22.52 132
	L -22.52 131
	L -22.52 130
	L -21.65 129.5
	M -22.52 130
	L -22.52 129
	L -21.65 128.5
	L -20.78 128
	L -19.92 128.5
	M -20.78 128
	L -19.92 127.5
	M -22.52 129
	L -22.52 128
	L -22.52 127
	L -21.65 126.5
	M -22.52 127
	L -22.52 126
	M -22.52 133
	L -23.38 132.5
	L -24.25 132
	L -25.11 131.5
	L -25.11 130.5
	M -25.11 131.5
	L -25.98 131
	L -25.98 130
	L -25.98 129
	L -25.11 128.5
	M -25.98 129
	L -25.98 128
	M -25.98 131
	L -26.85 130.5
	L -27.71 130
	L -27.71 129
	M -27.71 130
	L -28.58 129.5
	M -15.59 137
	L -16.45 137.5
	L -17.32 138
	L -18.19 138.5
	L -19.05 139
	L -19.92 138.5
	M -19.05 139
	L -19.92 139.5
	L -20.78 139
	L -21.65 138.5
	L -21.65 137.5
	M -21.65 138.5
	L -22.52 138
	M -19.92 139.5
	L -20.78 140
	L -21.65 140.5
	L -22.52 140
	M -21.65 140.5
	L -22.52 141
	L -23.38 140.5
	L -24.25 140
	L -25.11 139.5
	L -25.11 138.5
	M -25.11 139.5
	L -25.98 139
	L -25.98 138
	L -25.98 137
	L -25.11 136.5
	M -25.98 137
	L -25.98 136
	M -25.98 139
	L -26.85 138.5
	L -27.71 138
	L -27.71 137
	M -27.71 138
	L -28.58 137.5
	M -22.52 141
	L -23.38 141.5
	L -24.25 142
	L -25.11 142.5
	L -25.98 142
	M -25.11 142.5
	L -25.98 143
	L -26.85 142.5
	L -27.71 142
	L -27.71 141
	M -27.71 142
	L -28.58 141.5
	M -25.98 143
	L -26.85 143.5
	L -27.71 144
	L -28.58 143.5
	M -27.71 144
	L -28.58 144.5
	L -29.44 144
	L -30.31 143.5
	L -31.18 143
	L -32.04 142.5
	L -32.91 142
	L -32.91 141
	M -32.91 142
	L -33.77 141.5
	L -33.77 140.5
	L -33.77 139.5
	L -32.91 139
	M -33.77 139.5
	L -33.77 138.5
	M -33.77 141.5
	L -34.64 141
	L -35.51 140.5
	L -35.51 139.5
	M -35.51 140.5
	L -36.37 140
	L -36.37 139
	L -36.37 138
	L -36.37 137
	L -35.51 136.5
	M -36.37 137
	L -36.37 136
	L -35.51 135.5
	L -34.64 135
	L -33.77 135.5
	M -34.64 135
	L -33.77 134.5
	M -36.37 136
	L -36.37 135
	L -36.37 134
	L -35.51 133.5
	M -36.37 134
	L -36.37 133
	M -36.37 140
	L -37.24 139.5
	L -38.11 139
	L -38.97 138.5
	L -38.97 137.5
	M -38.97 138.5
	L -39.84 138
	L -39.84 137
	L -39.84 136
	L -38.97 135.5
	M -39.84 136
	L -39.84 135
	M -39.84 138
	L -40.7 137.5
	L -41.57 137
	L -41.57 136
	M -41.57 137
	L -42.44 136.5
	L -42.44 135.5
	L -42.44 134.5
	L -42.44 133.5
	L -42.44 132.5
	L -41.57 132
	M -42.44 132.5
	L -42.44 131.5
	L -41.57 131
	L -40.7 130.5
	L -39.84 131
	M -40.7 130.5
	L -39.84 130
	M -42.44 131.5
	L -42.44 130.5
	L -42.44 129.5
	L -41.57 129
	M -42.44 129.5
	L -42.44 128.5
	L -41.57 128
	L -40.7 127.5
	L -39.84 127
	L -38.97 127.5
	M -39.84 127
	L -38.97 126.5
	L -38.11 127
	L -37.24 127.5
	L -37.24 128.5
	M -37.24 127.5
	L -36.37 128
	M -38.97 126.5
	L -38.11 126
	L -37.24 125.5
	L -36.37 126
	M -37.24 125.5
	L -36.37 125
	M -42.44 128.5
	L -42.44 127.5
	L -42.44 126.5
	L -42.44 125.5
	L -41.57 125
	M -42.44 125.5
	L -42.44 124.5
	L -41.57 124
	L -40.7 123.5
	L -39.84 124
	M -40.7 123.5
	L -39.84 123
	M -42.44 124.5
	L -42.44 123.5
	L -42.44 122.5
	L -41.57 122
	M -42.44 122.5
	L -42.44 121.5
	M -42.44 136.5
	L -43.3 136
	L -44.17 135.5
	L -45.03 135
	L -45.9 134.5
	L -45.9 133.5
	M -45.9 134.5
	L -46.77 134
	L -46.77 133
	L -46.77 132
	L -45.9 131.5
	M -46.77 132
	L -46.77 131
	M -46.77 134
	L -47.63 133.5
	L -48.5 133
	L -48.5 132
	M -48.5 133
	L -49.36 132.5
	L -49.36 131.5
	L -49.36 130.5
	L -49.36 129.5
	L -48.5 129
	M -49.36 129.5
	L -49.36 128.5
	L -48.5 128
	L -47.63 127.5
	L -46.77 128
	M -47.63 127.5
	L -46.77 127
	M -49.36 128.5
	L -49.36 127.5
	L -49.36 126.5
	L -48.5 126
	M -49.36 126.5
	L -49.36 125.5
	M -49.36 132.5
	L -50.23 132
	L -51.1 131.5
	L -51.96 131
	L -51.96 130
	M -51.96 131
	L -52.83 130.5
	L -52.83 129.5
	L -52.83 128.5
	L -51.96 128
	M -52.83 128.5
	L -52.83 127.5
	M -52.83 130.5
	L -53.69 130
	L -54.56 129.5
	L -54.56 128.5
	M -54.56 129.5
	L -55.43 129
	M -28.58 144.5
	L -29.44 145
	L -30.31 145.5
	L -31.18 146
	L -32.04 146.5
	L -32.91 147
	L -33.77 146.5
	M -32.91 147
	L -33.77 147.5
	L -34.64 147
	L -35.51 146.5
	L -35.51 145.5
	M -35.51 146.5
	L -36.37 146
	M -33.77 147.5
	L -34.64 148
	L -35.51 148.5
	L -36.37 148
	M -35.51 148.5
	L -36.37 149
	L -37.24 148.5
	L -38.11 148
	L -38.97 147.5
	L -38.97 146.5
	M -38.97 147.5
	L -39.84 147
	L -39.84 146
	L -39.84 145
	L -38.97 144.5
	M -39.84 145
	L -39.84 144
	M -39.84 147
	L -40.7 146.5
	L -41.57 146
	L -41.57 145
	M -41.57 146
	L -42.44 145.5
	M -36.37 149
	L -37.24 149.5
	L -38.11 150
	L -38.97 150.5
	L -39.84 150
	M -38.97 150.5
	L -39.84 151
	L -40.7 150.5
	L -41.57 150
	L -41.57 149
	M -41.57 150
	L -42.44 149.5
	M -39.84 151
	L -40.7 151.5
	L -41.57 152
	L -42.44 151.5
	M -41.57 152
	L -42.44 152.5
	L -43.3 152
	L -44.17 151.5
	L -45.03 151
	L -45.9 150.5
	L -45.9 149.5
	M -45.9 150.5
	L -46.77 150
	L -46.77 149
	L -46.77 148
	L -45.9 147.5
	M -46.77 148
	L -46.77 147
	M -46.77 150
	L -47.63 149.5
	L -48.5 149
	L -48.5 148
	M -48.5 149
	L -49.36 148.5
	L -49.36 147.5
	L -49.36 146.5
	L -49.36 145.5
	L -48.5 145
	M -49.36 145.5
	L -49.36 144.5
	L -48.5 144
	L -47.63 143.5
	L -46.77 144
	M -47.63 143.5
	L -46.77 143
	M -49.36 144.5
	L -49.36 143.5
	L -49.36 142.5
	L -48.5 142
	M -49.36 142.5
	L -49.36 141.5
	M -49.36 148.5
	L -50.23 148
	L -51.1 147.5
	L -51.96 147
	L -51.96 146
	M -51.96 147
	L -52.83 146.5
	L -52.83 145.5
	L -52.83 144.5
	L -51.96 144
	M -52.83 144.5
	L -52.83 143.5
	M -52.83 146.5
	L -53.69 146
	L -54.56 145.5
	L -54.56 144.5
	M -54.56 145.5
	L -55.43 145
	M -42.44 152.5
	L -43.3 153
	L -44.17 153.5
	L -45.03 154
	L -45.9 154.5
	L -46.77 154
	M -45.9 154.5
	L -46.77 155
	L -47.63 154.5
	L -48.5 154
	L -48.5 153
	M -48.5 154
	L -49.36 153.5
	M -46.77 155
	L -47.63 155.5
	L -48.5 156
	L -49.36 155.5
	M -48.5 156
	L -49.36 156.5
	L -50.23 156
	L -51.1 155.5
	L -51.96 155
	L -51.96 154
	M -51.96 155
	L -52.83 154.5
	L -52.83 153.5
	L -52.83 152.5
	L -51.96 152
	M -52.83 152.5
	L -52.83 151.5
	M -52.83 154.5
	L -53.69 154
	L -54.56 153.5
	L -54.56 152.5
	M -54.56 153.5
	L -55.43 153
	M -49.36 156.5
	L -50.23 157
	L -51.1 157.5
	L -51.96 158
	L -52.83 157.5
	M -51.96 158
	L -52.83 158.5
	L -53.69 158
	L -54.56 157.5
	L -54.56 156.5
	M -54.56 157.5
	L -55.43 157
	M -52.83 158.5
	L -53.69 159
	L -54.56 159.5
	L -55.43 159
	M -54.56 159.5
	L -55.43 160
	L -56.29 159.5
	L -57.16 159
	L -58.02 158.5
	L -58.89 158
	L -59.76 157.5
	L -60.62 157
	L -60.62 156
	M -60.62 157
	L -61.49 156.5
	L -61.49 155.5
	L -61.49 154.5
	L -60.62 154
	M -61.49 154.5
	L -61.49 153.5
	M -61.49 156.5
	L -62.35 156
	L -63.22 155.5
	L -63.22 154.5
	M -63.22 155.5
	L -64.09 155
	L -64.09 154
	L -64.09 153
	L -64.09 152
	L -63.22 151.5
	M -64.09 152
	L -64.09 151
	L -63.22 150.5
	L -62.35 150
	L -61.49 150.5
	M -62.35 150
	L -61.49 149.5
	M -64.09 151
	L -64.09 150
	L -64.09 149
	L -63.22 148.5
	M -64.09 149
	L -64.09 148
	M -64.09 155
	L -64.95 154.5
	L -65.82 154
	L -66.68 153.5
	L -66.68 152.5
	M -66.68 153.5
	L -67.55 153
	L -67.55 152
	L -67.55 151
	L -66.68 150.5
	M -67.55 151
	L -67.55 150
	M -67.55 153
	L -68.42 152.5
	L -69.28 152
	L -69.28 151
	M -69.28 152
	L -70.15 151.5
	L -70.15 150.5
	L -70.15 149.5
	L -70.15 148.5
	L -70.15 147.5
	L -69.28 147
	M -70.15 147.5
	L -70.15 146.5
	L -69.28 146
	L -68.42 145.5
	L -67.55 146
	M -68.42 145.5
	L -67.55 145
	M -70.15 146.5
	L -70.15 145.5
	L -70.15 144.5
	L -69.28 144
	M -70.15 144.5
	L -70.15 143.5
	L -69.28 143
	L -68.42 142.5
	L -67.55 142
	L -66.68 142.5
	M -67.55 142
	L -66.68 141.5
	L -65.82 142
	L -64.95 142.5
	L -64.95 143.5
	M -64.95 142.5
	L -64.09 143
	M -66.68 141.5
	L -65.82 141
	L -64.95 140.5
	L -64.09 141
	M -64.95 140.5
	L -64.09 140
	M -70.15 143.5
	L -70.15 142.5
	L -70.15 141.5
	L -70.15 140.5
	L -69.28 140
	M -70.15 140.5
	L -70.15 139.5
	L -69.28 139
	L -68.42 138.5
	L -67.55 139
	M -68.42 138.5
	L -67.55 138
	M -70.15 139.5
	L -70.15 138.5
	L -70.15 137.5
	L -69.28 137
	M -70.15 137.5
	L -70.15 136.5
	M -70.15 151.5
	L -71.01 151
	L -71.88 150.5
	L -72.75 150
	L -73.61 149.5
	L -73.61 148.5
	M -73.61 149.5
	L -74.48 149
	L -74.48 148
	L -74.48 147
	L -73.61 146.5
	M -74.48 147
	L -74.48 146
	M -74.48 149
	L -75.34 148.5
	L -76.21 148
	L -76.21 147
	M -76.21 148
	L -77.08 147.5
	L -77.08 146.5
	L -77.08 145.5
	L -77.08 144.5
	L -76.21 144
	M -77.08 144.5
	L -77.08 143.5
	L -76.21 143
	L -75.34 142.5
	L -74.48 143
	M -75.34 142.5
	L -74.48 142
	M -77.08 143.5
	L -77.08 142.5
	L -77.08 141.5
	L -76.21 141
	M -77.08 141.5
	L -77.08 140.5
	M -77.08 147.5
	L -77.94 147
	L -78.81 146.5
	L -79.67 146
	L -79.67 145
	M -79.67 146
	L -80.54 145.5
	L -80.54 144.5
	L -80.54 143.5
	L -79.67 143
	M -80.54 143.5
	L -80.54 142.5
	M -80.54 145.5
	L -81.41 145
	L -82.27 144.5
	L -82.27 143.5
	M -82.27 144.5
	L -83.14 144
	L -83.14 143
	L -83.14 142
	L -83.14 141
	L -83.14 140
	L -83.14 139
	L -82.27 138.5
	M -83.14 139
	L -83.14 138
	L -82.27 137.5
	L -81.41 137
	L -80.54 137.5
	M -81.41 137
	L -80.54 136.5
	M -83.14 138
	L -83.14 137
	L -83.14 136
	L -82.27 135.5
	M -83.14 136
	L -83.14 135
	L -82.27 134.5
	L -81.41 134
	L -80.54 133.5
	L -79.67 134
	M -80.54 133.5
	L -79.67 133
	L -78.81 133.5
	L -77.94 134
	L -77.94 135
	M -77.94 134
	L -77.08 134.5
	M -79.67 133
	L -78.81 132.5
	L -77.94 132
	L -77.08 132.5
	M -77.94 132
	L -77.08 131.5
	M -83.14 135
	L -83.14 134
	L -83.14 133
	L -83.14 132
	L -82.27 131.5
	M -83.14 132
	L -83.14 131
	L -82.27 130.5
	L -81.41 130
	L -80.54 130.5
	M -81.41 130
	L -80.54 129.5
	M -83.14 131
	L -83.14 130
	L -83.14 129
	L -82.27 128.5
	M -83.14 129
	L -83.14 128
	L -82.27 127.5
	L -81.41 127
	L -80.54 126.5
	L -79.67 126
	L -78.81 126.5
	M -79.67 126
	L -78.81 125.5
	L -77.94 126
	L -77.08 126.5
	L -77.08 127.5
	M -77.08 126.5
	L -76.21 127
	M -78.81 125.5
	L -77.94 125
	L -77.08 124.5
	L -76.21 125
	M -77.08 124.5
	L -76.21 124
	L -75.34 124.5
	L -74.48 125
	L -73.61 125.5
	L -73.61 126.5
	M -73.61 125.5
	L -72.75 126
	L -72.75 127
	L -72.75 128
	L -73.61 128.5
	M -72.75 128
	L -72.75 129
	M -72.75 126
	L -71.88 126.5
	L -71.01 127
	L -71.01 128
	M -71.01 127
	L -70.15 127.5
	M -76.21 124
	L -75.34 123.5
	L -74.48 123
	L -73.61 122.5
	L -72.75 123
	M -73.61 122.5
	L -72.75 122
	L -71.88 122.5
	L -71.01 123
	L -71.01 124
	M -71.01 123
	L -70.15 123.5
	M -72.75 122
	L -71.88 121.5
	L -71.01 121
	L -70.15 121.5
	M -71.01 121
	L -70.15 120.5
	M -83.14 128
	L -83.14 127
	L -83.14 126
	L -83.14 125
	L -83.14 124
	L -82.27 123.5
	M -83.14 124
	L -83.14 123
	L -82.27 122.5
	L -81.41 122
	L -80.54 122.5
	M -81.41 122
	L -80.54 121.5
	M -83.14 123
	L -83.14 122
	L -83.14 121
	L -82.27 120.5
	M -83.14 121
	L -83.14 120
	L -82.27 119.5
	L -81.41 119
	L -80.54 118.5
	L -79.67 119
	M -80.54 118.5
	L -79.67 118
	L -78.81 118.5
	L -77.94 119
	L -77.94 120
	M -77.94 119
	L -77.08 119.5
	M -79.67 118
	L -78.81 117.5
	L -77.94 117
	L -77.08 117.5
	M -77.94 117
	L -77.08 116.5
	M -83.14 120
	L -83.14 119
	L -83.14 118
	L -83.14 117
	L -82.27 116.5
	M -83.14 117
	L -83.14 116
	L -82.27 115.5
	L -81.41 115
	L -80.54 115.5
	M -81.41 115
	L -80.54 114.5
	M -83.14 116
	L -83.14 115
	L -83.14 114
	L -82.27 113.5
	M -83.14 114
	L -83.14 113
	M -83.14 144
	L -84 143.5
	L -84.87 143
	L -85.74 142.5
	L -86.6 142
	L -87.47 141.5
	L -87.47 140.5
	M -87.47 141.5
	L -88.33 141
	L -88.33 140
	L -88.33 139
	L -87.47 138.5
	M -88.33 139
	L -88.33 138
	M -88.33 141
	L -89.2 140.5
	L -90.07 140
	L -90.07 139
	M -90.07 140
	L -90.93 139.5
	L -90.93 138.5
	L -90.93 137.5
	L -90.93 136.5
	L -90.07 136
	M -90.93 136.5
	L -90.93 135.5
	L -90.07 135
	L -89.2 134.5
	L -88.33 135
	M -89.2 134.5
	L -88.33 134
	M -90.93 135.5
	L -90.93 134.5
	L -90.93 133.5
	L -90.07 133
	M -90.93 133.5
	L -90.93 132.5
	M -90.93 139.5
	L -91.8 139
	L -92.66 138.5
	L -93.53 138
	L -93.53 137
	M -93.53 138
	L -94.4 137.5
	L -94.4 136.5
	L -94.4 135.5
	L -93.53 135
	M -94.4 135.5
	L -94.4 134.5
	M -94.4 137.5
	L -95.26 137
	L -96.13 136.5
	L -96.13 135.5
	M -96.13 136.5
	L -96.99 136
	L -96.99 135
	L -96.99 134
	L -96.99 133
	L -96.99 132
	L -96.13 131.5
	M -96.99 132
	L -96.99 131
	L -96.13 130.5
	L -95.26 130
	L -94.4 130.5
	M -95.26 130
	L -94.4 129.5
	M -96.99 131
	L -96.99 130
	L -96.99 129
	L -96.13 128.5
	M -96.99 129
	L -96.99 128
	L -96.13 127.5
	L -95.26 127
	L -94.4 126.5
	L -93.53 127
	M -94.4 126.5
	L -93.53 126
	L -92.66 126.5
	L -91.8 127
	L -91.8 128
	M -91.8 127
	L -90.93 127.5
	M -93.53 126
	L -92.66 125.5
	L -91.8 125
	L -90.93 125.5
	M -91.8 125
	L -90.93 124.5
	M -96.99 128
	L -96.99 127
	L -96.99 126
	L -96.99 125
	L -96.13 124.5
	M -96.99 125
	L -96.99 124
	L -96.13 123.5
	L -95.26 123
	L -94.4 123.5
	M -95.26 123
	L -94.4 122.5
	M -96.99 124
	L -96.99 123
	L -96.99 122
	L -96.13 121.5
	M -96.99 122
	L -96.99 121
	M -96.99 136
	L -97.86 135.5
	L -98.73 135
	L -99.59 134.5
	L -100.5 134
	L -100.5 133
	M -100.5 134
	L -101.3 133.5
	L -101.3 132.5
	L -101.3 131.5
	L -100.5 131
	M -101.3 131.5
	L -101.3 130.5
	M -101.3 133.5
	L -102.2 133
	L -103.1 132.5
	L -103.1 131.5
	M -103.1 132.5
	L -103.9 132
	L -103.9 131
	L -103.9 130
	L -103.9 129
	L -103.1 128.5
	M -103.9 129
	L -103.9 128
	L -103.1 127.5
	L -102.2 127
	L -101.3 127.5
	M -102.2 127
	L -101.3 126.5
	M -103.9 128
	L -103.9 127
	L -103.9 126
	L -103.1 125.5
	M -103.9 126
	L -103.9 125
	M -103.9 132
	L -104.8 131.5
	L -105.7 131
	L -106.5 130.5
	L -106.5 129.5
	M -106.5 130.5
	L -107.4 130
	L -107.4 129
	L -107.4 128
	L -106.5 127.5
	M -107.4 128
	L -107.4 127
	M -107.4 130
	L -108.3 129.5
	L -109.1 129
	L -109.1 128
	M -109.1 129
	L -110 128.5
	M -55.43 160
	L -56.29 160.5
	L -57.16 161
	L -58.02 161.5
	L -58.89 162
	L -59.76 162.5
	L -60.62 163
	L -61.49 162.5
	M -60.62 163
	L -61.49 163.5
	L -62.35 163
	L -63.22 162.5
	L -63.22 161.5
	M -63.22 162.5
	L -64.09 162
	M -61.49 163.5
	L -62.35 164
	L -63.22 164.5
	L -64.09 164
	M -63.22 164.5
	L -64.09 165
	L -64.95 164.5
	L -65.82 164
	L -66.68 163.5
	L -66.68 162.5
	M -66.68 163.5
	L -67.55 163
	L -67.55 162
	L -67.55 161
	L -66.68 160.5
	M -67.55 161
	L -67.55 160
	M -67.55 163
	L -68.42 162.5
	L -69.28 162
	L -69.28 161
	M -69.28 162
	L -70.15 161.5
	M -64.09 165
	L -64.95 165.5
	L -65.82 166
	L -66.68 166.5
	L -67.55 166
	M -66.68 166.5
	L -67.55 167
	L -68.42 166.5
	L -69.28 166
	L -69.28 165
	M -69.28 166
	L -70.15 165.5
	M -67.55 167
	L -68.42 167.5
	L -69.28 168
	L -70.15 167.5
	M -69.28 168
	L -70.15 168.5
	L -71.01 168
	L -71.88 167.5
	L -72.75 167
	L -73.61 166.5
	L -73.61 165.5
	M -73.61 166.5
	L -74.48 166
	L -74.48 165
	L -74.48 164
	L -73.61 163.5
	M -74.48 164
	L -74.48 163
	M -74.48 166
	L -75.34 165.5
	L -76.21 165
	L -76.21 164
	M -76.21 165
	L -77.08 164.5
	L -77.08 163.5
	L -77.08 162.5
	L -77.08 161.5
	L -76.21 161
	M -77.08 161.5
	L -77.08 160.5
	L -76.21 160
	L -75.34 159.5
	L -74.48 160
	M -75.34 159.5
	L -74.48 159
	M -77.08 160.5
	L -77.08 159.5
	L -77.08 158.5
	L -76.21 158
	M -77.08 158.5
	L -77.08 157.5
	M -77.08 164.5
	L -77.94 164
	L -78.81 163.5
	L -79.67 163
	L -79.67 162
	M -79.67 163
	L -80.54 162.5
	L -80.54 161.5
	L -80.54 160.5
	L -79.67 160
	M -80.54 160.5
	L -80.54 159.5
	M -80.54 162.5
	L -81.41 162
	L -82.27 161.5
	L -82.27 160.5
	M -82.27 161.5
	L -83.14 161
	M -70.15 168.5
	L -71.01 169
	L -71.88 169.5
	L -72.75 170
	L -73.61 170.5
	L -74.48 170
	M -73.61 170.5
	L -74.48 171
	L -75.34 170.5
	L -76.21 170
	L -76.21 169
	M -76.21 170
	L -77.08 169.5
	M -74.48 171
	L -75.34 171.5
	L -76.21 172
	L -77.08 171.5
	M -76.21 172
	L -77.08 172.5
	L -77.94 172
	L -78.81 171.5
	L -79.67 171
	L -79.67 170
	M -79.67 171
	L -80.54 170.5
	L -80.54 169.5
	L -80.54 168.5
	L -79.67 168
	M -80.54 168.5
	L -80.54 167.5
	M -80.54 170.5
	L -81.41 170
	L -82.27 169.5
	L -82.27 168.5
	M -82.27 169.5
	L -83.14 169
	M -77.08 172.5
	L -77.94 173
	L -78.81 173.5
	L -79.67 174
	L -80.54 173.5
	M -79.67 174
	L -80.54 174.5
	L -81.41 174
	L -82.27 173.5
	L -82.27 172.5
	M -82.27 173.5
	L -83.14 173
	M -80.54 174.5
	L -81.41 175
	L -82.27 175.5
	L -83.14 175
	M -82.27 175.5
	L -83.14 176
	L -84 175.5
	L -84.87 175
	L -85.74 174.5
	L -86.6 174
	L -87.47 173.5
	L -87.47 172.5
	M -87.47 173.5
	L -88.33 173
	L -88.33 172
	L -88.33 171
	L -87.47 170.5
	M -88.33 171
	L -88.33 170
	M -88.33 173
	L -89.2 172.5
	L -90.07 172
	L -90.07 171
	M -90.07 172
	L -90.93 171.5
	L -90.93 170.5
	L -90.93 169.5
	L -90.93 168.5
	L -90.07 168
	M -90.93 168.5
	L -90.93 167.5
	L -90.07 167
	L -89.2 166.5
	L -88.33 167
	M -89.2 166.5
	L -88.33 166
	M -90.93 167.5
	L -90.93 166.5
	L -90.93 165.5
	L -90.07 165
	M -90.93 165.5
	L -90.93 164.5
	M -90.93 171.5
	L -91.8 171
	L -92.66 170.5
	L -93.53 170
	L -93.53 169
	M -93.53 170
	L -94.4 169.5
	L -94.4 168.5
	L -94.4 167.5
	L -93.53 167
	M -94.4 167.5
	L -94.4 166.5
	M -94.4 169.5
	L -95.26 169
	L -96.13 168.5
	L -96.13 167.5
	M -96.13 168.5
	L -96.99 168
	L -96.99 167
	L -96.99 166
	L -96.99 165
	L -96.99 164
	L -96.13 163.5
	M -96.99 164
	L -96.99 163
	L -96.13 162.5
	L -95.26 162
	L -94.4 162.5
	M -95.26 162
	L -94.4 161.5
	M -96.99 163
	L -96.99 162
	L -96.99 161
	L -96.13 160.5
	M -96.99 161
	L -96.99 160
	L -96.13 159.5
	L -95.26 159
	L -94.4 158.5
	L -93.53 159
	M -94.4 158.5
	L -93.53 158
	L -92.66 158.5
	L -91.8 159
	L -91.8 160
	M -91.8 159
	L -90.93 159.5
	M -93.53 158
	L -92.66 157.5
	L -91.8 157
	L -90.93 157.5
	M -91.8 157
	L -90.93 156.5
	M -96.99 160
	L -96.99 159
	L -96.99 158
	L -96.99 157
	L -96.13 156.5
	M -96.99 157
	L -96.99 156
	L -96.13 155.5
	L -95.26 155
	L -94.4 155.5
	M -95.26 155
	L -94.4 154.5
	M -96.99 156
	L -96.99 155
	L -96.99 154
	L -96.13 153.5
	M -96.99 154
	L -96.99 153
	M -96.99 168
	L -97.86 167.5
	L -98.73 167
	L -99.59 166.5
	L -100.5 166
	L -100.5 165
	M -100.5 166
	L -101.3 165.5
	L -101.3 164.5
	L -101.3 163.5
	L -100.5 163
	M -101.3 163.5
	L -101.3 162.5
	M -101.3 165.5
	L -102.2 165
	L -103.1 164.5
	L -103.1 163.5
	M -103.1 164.5
	L -103.9 164
	L -103.9 163
	L -103.9 162
	L -103.9 161
	L -103.1 160.5
	M -103.9 161
	L -103.9 160
	L -103.1 159.5
	L -102.2 159
	L -101.3 159.5
	M -102.2 159
	L -101.3 158.5
	M -103.9 160
	L -103.9 159
	L -103.9 158
	L -103.1 157.5
	M -103.9 158
	L -103.9 157
	M -103.9 164
	L -104.8 163.5
	L -105.7 163
	L -106.5 162.5
	L -106.5 161.5
	M -106.5 162.5
	L -107.4 162
	L -107.4 161
	L -107.4 160
	L -106.5 159.5
	M -107.4 160
	L -107.4 159
	M -107.4 162
	L -108.3 161.5
	L -109.1 161
	L -109.1 160
	M -109.1 161
	L -110 160.5
	M -83.14 176
	L -84 176.5
	L -84.87 177
	L -85.74 177.5
	L -86.6 178
	L -87.47 178.5
	L -88.33 178
	M -87.47 178.5
	L -88.33 179
	L -89.2 178.5
	L -90.07 178
	L -90.07 177
	M -90.07 178
	L -90.93 177.5
	M -88.33 179
	L -89.2 179.5
	L -90.07 180
	L -90.93 179.5
	M -90.07 180
	L -90.93 180.5
	L -91.8 180
	L -92.66 179.5
	L -93.53 179
	L -93.53 178
	M -93.53 179
	L -94.4 178.5
	L -94.4 177.5
	L -94.4 176.5
	L -93.53 176
	M -94.4 176.5
	L -94.4 175.5
	M -94.4 178.5
	L -95.26 178
	L -96.13 177.5
	L -96.13 176.5
	M -96.13 177.5
	L -96.99 177
	M -90.93 180.5
	L -91.8 181
	L -92.66 181.5
	L -93.53 182
	L -94.4 181.5
	M -93.53 182
	L -94.4 182.5
	L -95.26 182
	L -96.13 181.5
	L -96.13 180.5
	M -96.13 181.5
	L -96.99 181
	M -94.4 182.5
	L -95.26 183
	L -96.13 183.5
	L -96.99 183
	M -96.13 183.5
	L -96.99 184
	L -97.86 183.5
	L -98.73 183
	L -99.59 182.5
	L -100.5 182
	L -100.5 181
	M -100.5 182
	L -101.3 181.5
	L -101.3 180.5
	L -101.3 179.5
	L -100.5 179
	M -101.3 179.5
	L -101.3 178.5
	M -101.3 181.5
	L -102.2 181
	L -103.1 180.5
	L -103.1 179.5
	M -103.1 180.5
	L -103.9 180
	L -103.9 179
	L -103.9 178
	L -103.9 177
	L -103.1 176.5
	M -103.9 177
	L -103.9 176
	L -103.1 175.5
	L -102.2 175
	L -101.3 175.5
	M -102.2 175
	L -101.3 174.5
	M -103.9 176
	L -103.9 175
	L -103.9 174
	L -103.1 173.5
	M -103.9 174
	L -103.9 173
	M -103.9 180
	L -104.8 179.5
	L -105.7 179
	L -106.5 178.5
	L -106.5 177.5
	M -106.5 178.5
	L -107.4 178
	L -107.4 177
	L -107.4 176
	L -106.5 175.5
	M -107.4 176
	L -107.4 175
	M -107.4 178
	L -108.3 177.5
	L -109.1 177
	L -109.1 176
	M -109.1 177
	L -110 176.5
	M -96.99 184
	L -97.86 184.5
	L -98.73 185
	L -99.59 185.5
	L -100.5 186
	L -101.3 185.5
	M -100.5 186
	L -101.3 186.5
	L -102.2 186
	L -103.1 185.5
	L -103.1 184.5
	M -103.1 185.5
	L -103.9 185
	M -101.3 186.5
	L -102.2 187
	L -103.1 187.5
	L -103.9 187
	M -103.1 187.5
	L -103.9 188
	L -104.8 187.5
	L -105.7 187
	L -106.5 186.5
	L -106.5 185.5
	M -106.5 186.5
	L -107.4 186
	L -107.4 185
	L -107.4 184
	L -106.5 183.5
	M -107.4 184
	L -107.4 183
	M -107.4 186
	L -108.3 185.5
	L -109.1 185
	L -109.1 184
	M -109.1 185
	L -110 184.5
	M -103.9 188
	L -104.8 188.5
	L -105.7 189
	L -106.5 189.5
	L -107.4 189
	M -106.5 189.5
	L -107.4 190
	L -108.3 189.5
	L -109.1 189
	L -109.1 188
	M -109.1 189
	L -110 188.5
	M -107.4 190
	L -108.3 190.5
	L -109.1 191
	L -110 190.5
	M -109.1 191
	L -110 191.5
	M 7.838e-15 128
	L 7.899e-15 129
	L 7.96e-15 130
	L 8.021e-15 131
	L 8.083e-15 132
	L 8.144e-15 133
	L 8.205e-15 134
	L 8.266e-15 135
	L -0.866 135.5
	M 8.266e-15 135
	L 8.328e-15 136
	L -0.866 136.5
	L -1.732 137
	L -2.598 136.5
	M -1.732 137
	L -2.598 137.5
	M 8.328e-15 136
	L 8.389e-15 137
	L 8.45e-15 138
	L -0.866 138.5
	M 8.45e-15 138
	L 8.511e-15 139
	L -0.866 139.5
	L -1.732 140
	L -2.598 140.5
	L -3.464 140
	M -2.598 140.5
	L -3.464 141
	L -4.33 140.5
	L -5.196 140
	L -5.196 139
	M -5.196 140
	L -6.062 139.5
	M -3.464 141
	L -4.33 141.5
	L -5.196 142
	L -6.062 141.5
	M -5.196 142
	L -6.062 142.5
	M 8.511e-15 139
	L 8.573e-15 140
	L 8.634e-15 141
	L 8.695e-15 142
	L -0.866 142.5
	M 8.695e-15 142
	L 8.756e-15 143
	L -0.866 143.5
	L -1.732 144
	L -2.598 143.5
	M -1.732 144
	L -2.598 144.5
	M 8.756e-15 143
	L 8.817e-15 144
	L 8.879e-15 145
	L -0.866 145.5
	M 8.879e-15 145
	L 8.94e-15 146
	L -0.866 146.5
	L -1.732 147
	L -2.598 147.5
	L -3.464 148
	L -4.33 147.5
	M -3.464 148
	L -4.33 148.5
	L -5.196 148
	L -6.062 147.5
	L -6.062 146.5
	M -6.062 147.5
	L -6.928 147
	M -4.33 148.5
	L -5.196 149
	L -6.062 149.5
	L -6.928 149
	M -6.062 149.5
	L -6.928 150
	L -7.794 149.5
	L -8.66 149
	L -9.526 148.5
	L -9.526 147.5
	M -9.526 148.5
	L -10.39 148
	L -10.39 147
	L -10.39 146
	L -9.526 145.5
	M -10.39 146
	L -10.39 145
	M -10.39 148
	L -11.26 147.5
	L -12.12 147
	L -12.12 146
	M -12.12 147
	L -12.99 146.5
	M -6.928 150
	L -7.794 150.5
	L -8.66 151
	L -9.526 151.5
	L -10.39 151
	M -9.526 151.5
	L -10.39 152
	L -11.26 151.5
	L -12.12 151
	L -12.12 150
	M -12.12 151
	L -12.99 150.5
	M -10.39 152
	L -11.26 152.5
	L -12.12 153
	L -12.99 152.5
	M -12.12 153
	L -12.99 153.5
	M 8.94e-15 146
	L 9.001e-15 147
	L 9.062e-15 148
	L 9.124e-15 149
	L 9.185e-15 150
	L -0.866 150.5
	M 9.185e-15 150
	L 9.246e-15 151
	L -0.866 151.5
	L -1.732 152
	L -2.598 151.5
	M -1.732 152
	L -2.598 152.5
	M 9.246e-15 151
	L 9.307e-15 152
	L 9.369e-15 153
	L -0.866 153.5
	M 9.369e-15 153
	L 9.43e-15 154
	L -0.866 154.5
	L -1.732 155
	L -2.598 155.5
	L -3.464 155
	M -2.598 155.5
	L -3.464 156
	L -4.33 155.5
	L -5.196 155
	L -5.196 154
	M -5.196 155
	L -6.062 154.5
	M -3.464 156
	L -4.33 156.5
	L -5.196 157
	L -6.062 156.5
	M -5.196 157
	L -6.062 157.5
	M 9.43e-15 154
	L 9.491e-15 155
	L 9.552e-15 156
	L 9.613e-15 157
	L -0.866 157.5
	M 9.613e-15 157
	L 9.675e-15 158
	L -0.866 158.5
	L -1.732 159
	L -2.598 158.5
	M -1.732 159
	L -2.598 159.5
	M 9.675e-15 158
	L 9.736e-15 159
	L 9.797e-15 160
	L -0.866 160.5
	M 9.797e-15 160
	L 9.858e-15 161
	L -0.866 161.5
	L -1.732 162
	L -2.598 162.5
	L -3.464 163
	L -4.33 163.5
	L -5.196 163
	M -4.33 163.5
	L -5.196 164
	L -6.062 163.5
	L -6.928 163
	L -6.928 162
	M -6.928 163
	L -7.794 162.5
	M -5.196 164
	L -6.062 164.5
	L -6.928 165
	L -7.794 164.5
	M -6.928 165
	L -7.794 165.5
	L -8.66 165
	L -9.526 164.5
	L -10.39 164
	L -10.39 163
	M -10.39 164
	L -11.26 163.5
	L -11.26 162.5
	L -11.26 161.5
	L -10.39 161
	M -11.26 161.5
	L -11.26 160.5
	M -11.26 163.5
	L -12.12 163
	L -12.99 162.5
	L -12.99 161.5
	M -12.99 162.5
	L -13.86 162
	M -7.794 165.5
	L -8.66 166
	L -9.526 166.5
	L -10.39 167
	L -11.26 166.5
	M -10.39 167
	L -11.26 167.5
	L -12.12 167
	L -12.99 166.5
	L -12.99 165.5
	M -12.99 166.5
	L -13.86 166
	M -11.26 167.5
	L -12.12 168
	L -12.99 168.5
	L -13.86 168
	M -12.99 168.5
	L -13.86 169
	L -14.72 168.5
	L -15.59 168
	L -16.45 167.5
	L -17.32 167
	L -17.32 166
	M -17.32 167
	L -18.19 166.5
	L -18.19 165.5
	L -18.19 164.5
	L -17.32 164
	M -18.19 164.5
	L -18.19 163.5
	M -18.19 166.5
	L -19.05 166
	L -19.92 165.5
	L -19.92 164.5
	M -19.92 165.5
	L -20.78 165
	L -20.78 164
	L -20.78 163
	L -20.78 162
	L -19.92 161.5
	M -20.78 162
	L -20.78 161
	L -19.92 160.5
	L -19.05 160
	L -18.19 160.5
	M -19.05 160
	L -18.19 159.5
	M -20.78 161
	L -20.78 160
	L -20.78 159
	L -19.92 158.5
	M -20.78 159
	L -20.78 158
	M -20.78 165
	L -21.65 164.5
	L -22.52 164
	L -23.38 163.5
	L -23.38 162.5
	M -23.38 163.5
	L -24.25 163
	L -24.25 162
	L -24.25 161
	L -23.38 160.5
	M -24.25 161
	L -24.25 160
	M -24.25 163
	L -25.11 162.5
	L -25.98 162
	L -25.98 161
	M -25.98 162
	L -26.85 161.5
	M -13.86 169
	L -14.72 169.5
	L -15.59 170
	L -16.45 170.5
	L -17.32 171
	L -18.19 170.5
	M -17.32 171
	L -18.19 171.5
	L -19.05 171
	L -19.92 170.5
	L -19.92 169.5
	M -19.92 170.5
	L -20.78 170
	M -18.19 171.5
	L -19.05 172
	L -19.92 172.5
	L -20.78 172
	M -19.92 172.5
	L -20.78 173
	L -21.65 172.5
	L -22.52 172
	L -23.38 171.5
	L -23.38 170.5
	M -23.38 171.5
	L -24.25 171
	L -24.25 170
	L -24.25 169
	L -23.38 168.5
	M -24.25 169
	L -24.25 168
	M -24.25 171
	L -25.11 170.5
	L -25.98 170
	L -25.98 169
	M -25.98 170
	L -26.85 169.5
	M -20.78 173
	L -21.65 173.5
	L -22.52 174
	L -23.38 174.5
	L -24.25 174
	M -23.38 174.5
	L -24.25 175
	L -25.11 174.5
	L -25.98 174
	L -25.98 173
	M -25.98 174
	L -26.85 173.5
	M -24.25 175
	L -25.11 175.5
	L -25.98 176
	L -26.85 175.5
	M -25.98 176
	L -26.85 176.5
	M 9.858e-15 161
	L 9.92e-15 162
	L 9.981e-15 163
	L 1.004e-14 164
	L 1.01e-14 165
	L 1.016e-14 166
	L -0.866 166.5
	M 1.016e-14 166
	L 1.023e-14 167
	L -0.866 167.5
	L -1.732 168
	L -2.598 167.5
	M -1.732 168
	L -2.598 168.5
	M 1.023e-14 167
	L 1.029e-14 168
	L 1.035e-14 169
	L -0.866 169.5
	M 1.035e-14 169
	L 1.041e-14 170
	L -0.866 170.5
	L -1.732 171
	L -2.598 171.5
	L -3.464 171
	M -2.598 171.5
	L -3.464 172
	L -4.33 171.5
	L -5.196 171
	L -5.196 170
	M -5.196 171
	L -6.062 170.5
	M -3.464 172
	L -4.33 172.5
	L -5.196 173
	L -6.062 172.5
	M -5.196 173
	L -6.062 173.5
	M 1.041e-14 170
	L 1.047e-14 171
	L 1.053e-14 172
	L 1.059e-14 173
	L -0.866 173.5
	M 1.059e-14 173
	L 1.065e-14 174
	L -0.866 174.5
	L -1.732 175
	L -2.598 174.5
	M -1.732 175
	L -2.598 175.5
	M 1.065e-14 174
	L 1.072e-14 175
	L 1.078e-14 176
	L -0.866 176.5
	M 1.078e-14 176
	L 1.084e-14 177
	L -0.866 177.5
	L -1.732 178
	L -2.598 178.5
	L -3.464 179
	L -4.33 178.5
	M -3.464 179
	L -4.33 179.5
	L -5.196 179
	L -6.062 178.5
	L -6.062 177.5
	M -6.062 178.5
	L -6.928 178
	M -4.33 179.5
	L -5.196 180
	L -6.062 180.5
	L -6.928 180
	M -6.062 180.5
	L -6.928 181
	L -7.794 180.5
	L -8.66 180
	L -9.526 179.5
	L -9.526 178.5
	M -9.526 179.5
	L -10.39 179
	L -10.39 178
	L -10.39 177
	L -9.526 176.5
	M -10.39 177
	L -10.39 176
	M -10.39 179
	L -11.26 178.5
	L -12.12 178
	L -12.12 177
	M -12.12 178
	L -12.99 177.5
	M -6.928 181
	L -7.794 181.5
	L -8.66 182
	L -9.526 182.5
	L -10.39 182
	M -9.526 182.5
	L -10.39 183
	L -11.26 182.5
	L -12.12 182
	L -12.12 181
	M -12.12 182
	L -12.99 181.5
	M -10.39 183
	L -11.26 183.5
	L -12.12 184
	L -12.99 183.5
	M -12.12 184
	L -12.99 184.5
	M 1.084e-14 177
	L 1.09e-14 178
	L 1.096e-14 179
	L 1.102e-14 180
	L 1.108e-14 181
	L -0.866 181.5
	M 1.108e-14 181
	L 1.114e-14 182
	L -0.866 182.5
	L -1.732 183
	L -2.598 182.5
	M -1.732 183
	L -2.598 183.5
	M 1.114e-14 182
	L 1.121e-14 183
	L 1.127e-14 184
	L -0.866 184.5
	M 1.127e-14 184
	L 1.133e-14 185
	L -0.866 185.5
	L -1.732 186
	L -2.598 186.5
	L -3.464 186
	M -2.598 186.5
	L -3.464 187
	L -4.33 186.5
	L -5.196 186
	L -5.196 185
	M -5.196 186
	L -6.062 185.5
	M -3.464 187
	L -4.33 187.5
	L -5.196 188
	L -6.062 187.5
	M -5.196 188
	L -6.062 188.5
	M 1.133e-14 185
	L 1.139e-14 186
	L 1.145e-14 187
	L 1.151e-14 188
	L -0.866 188.5
	M 1.151e-14 188
	L 1.157e-14 189
	L -0.866 189.5
	L -1.732 190
	L -2.598 189.5
	M -1.732 190
	L -2.598 190.5
	M 1.157e-14 189
	L 1.163e-14 190
	L 1.17e-14 191
	L -0.866 191.5
	M 1.17e-14 191
	L 1.176e-14 192
	L -0.866 192.5
	L -1.732 193
	L -2.598 193.5
	L -3.464 194
	L -4.33 194.5
	L -5.196 195
	L -6.062 194.5
	M -5.196 195
	L -6.062 195.5
	L -6.928 195
	L -7.794 194.5
	L -7.794 193.5
	M -7.794 194.5
	L -8.66 194
	M -6.062 195.5
	L -6.928 196
	L -7.794 196.5
	L -8.66 196
	M -7.794 196.5
	L -8.66 197
	L -9.526 196.5
	L -10.39 196
	L -11.26 195.5
	L -11.26 194.5
	M -11.26 195.5
	L -12.12 195
	L -12.12 194
	L -12.12 193
	L -11.26 192.5
	M -12.12 193
	L -12.12 192
	M -12.12 195
	L -12.99 194.5
	L -13.86 194
	L -13.86 193
	M -13.86 194
	L -14.72 193.5
	M -8.66 197
	L -9.526 197.5
	L -10.39 198
	L -11.26 198.5
	L -12.12 198
	M -11.26 198.5
	L -12.12 199
	L -12.99 198.5
	L -13.86 198
	L -13.86 197
	M -13.86 198
	L -14.72 197.5
	M -12.12 199
	L -12.99 199.5
	L -13.86 200
	L -14.72 199.5
	M -13.86 200
	L -14.72 200.5
	L -15.59 200
	L -16.45 199.5
	L -17.32 199
	L -18.19 198.5
	L -18.19 197.5
	M -18.19 198.5
	L -19.05 198
	L -19.05 197
	L -19.05 196
	L -18.19 195.5
	M -19.05 196
	L -19.05 195
	M -19.05 198
	L -19.92 197.5
	L -20.78 197
	L -20.78 196
	M -20.78 197
	L -21.65 196.5
	L -21.65 195.5
	L -21.65 194.5
	L -21.65 193.5
	L -20.78 193
	M -21.65 193.5
	L -21.65 192.5
	L -20.78 192
	L -19.92 191.5
	L -19.05 192
	M -19.92 191.5
	L -19.05 191
	M -21.65 192.5
	L -21.65 191.5
	L -21.65 190.5
	L -20.78 190
	M -21.65 190.5
	L -21.65 189.5
	M -21.65 196.5
	L -22.52 196
	L -23.38 195.5
	L -24.25 195
	L -24.25 194
	M -24.25 195
	L -25.11 194.5
	L -25.11 193.5
	L -25.11 192.5
	L -24.25 192
	M -25.11 192.5
	L -25.11 191.5
	M -25.11 194.5
	L -25.98 194
	L -26.85 193.5
	L -26.85 192.5
	M -26.85 193.5
	L -27.71 193
	M -14.72 200.5
	L -15.59 201
	L -16.45 201.5
	L -17.32 202
	L -18.19 202.5
	L -19.05 202
	M -18.19 202.5
	L -19.05 203
	L -19.92 202.5
	L -20.78 202
	L -20.78 201
	M -20.78 202
	L -21.65 201.5
	M -19.05 203
	L -19.92 203.5
	L -20.78 204
	L -21.65 203.5
	M -20.78 204
	L -21.65 204.5
	L -22.52 204
	L -23.38 203.5
	L -24.25 203
	L -24.25 202
	M -24.25 203
	L -25.11 202.5
	L -25.11 201.5
	L -25.11 200.5
	L -24.25 200
	M -25.11 200.5
	L -25.11 199.5
	M -25.11 202.5
	L -25.98 202
	L -26.85 201.5
	L -26.85 200.5
	M -26.85 201.5
	L -27.71 201
	M -21.65 204.5
	L -22.52 205
	L -23.38 205.5
	L -24.25 206
	L -25.11 205.5
	M -24.25 206
	L -25.11 206.5
	L -25.98 206
	L -26.85 205.5
	L -26.85 204.5
	M -26.85 205.5
	L -27.71 205
	M -25.11 206.5
	L -25.98 207
	L -26.85 207.5
	L -27.71 207
	M -26.85 207.5
	L -27.71 208
	L -28.58 207.5
	L -29.44 207
	L -30.31 206.5
	L -31.18 206
	L -32.04 205.5
	L -32.04 204.5
	M -32.04 205.5
	L -32.91 205
	L -32.91 204
	L -32.91 203
	L -32.04 202.5
	M -32.91 203
	L -32.91 202
	M -32.91 205
	L -33.77 204.5
	L -34.64 204
	L -34.64 203
	M -34.64 204
	L -35.51 203.5
	L -35.51 202.5
	L -35.51 201.5
	L -35.51 200.5
	L -34.64 200
	M -35.51 200.5
	L -35.51 199.5
	L -34.64 199
	L -33.77 198.5
	L -32.91 199
	M -33.77 198.5
	L -32.91 198
	M -35.51 199.5
	L -35.51 198.5
	L -35.51 197.5
	L -34.64 197
	M -35.51 197.5
	L -35.51 196.5
	M -35.51 203.5
	L -36.37 203
	L -37.24 202.5
	L -38.11 202
	L -38.11 201
	M -38.11 202
	L -38.97 201.5
	L -38.97 200.5
	L -38.97 199.5
	L -38.11 199
	M -38.97 199.5
	L -38.97 198.5
	M -38.97 201.5
	L -39.84 201
	L -40.7 200.5
	L -40.7 199.5
	M -40.7 200.5
	L -41.57 200
	L -41.57 199
	L -41.57 198
	L -41.57 197
	L -41.57 196
	L -40.7 195.5
	M -41.57 196
	L -41.57 195
	L -40.7 194.5
	L -39.84 194
	L -38.97 194.5
	M -39.84 194
	L -38.97 193.5
	M -41.57 195
	L -41.57 194
	L -41.57 193
	L -40.7 192.5
	M -41.57 193
	L -41.57 192
	L -40.7 191.5
	L -39.84 191
	L -38.97 190.5
	L -38.11 191
	M -38.97 190.5
	L -38.11 190
	L -37.24 190.5
	L -36.37 191
	L -36.37 192
	M -36.37 191
	L -35.51 191.5
	M -38.11 190
	L -37.24 189.5
	L -36.37 189
	L -35.51 189.5
	M -36.37 189
	L -35.51 188.5
	M -41.57 192
	L -41.57 191
	L -41.57 190
	L -41.57 189
	L -40.7 188.5
	M -41.57 189
	L -41.57 188
	L -40.7 187.5
	L -39.84 187
	L -38.97 187.5
	M -39.84 187
	L -38.97 186.5
	M -41.57 188
	L -41.57 187
	L -41.57 186
	L -40.7 185.5
	M -41.57 186
	L -41.57 185
	M -41.57 200
	L -42.44 199.5
	L -43.3 199
	L -44.17 198.5
	L -45.03 198
	L -45.03 197
	M -45.03 198
	L -45.9 197.5
	L -45.9 196.5
	L -45.9 195.5
	L -45.03 195
	M -45.9 195.5
	L -45.9 194.5
	M -45.9 197.5
	L -46.77 197
	L -47.63 196.5
	L -47.63 195.5
	M -47.63 196.5
	L -48.5 196
	L -48.5 195
	L -48.5 194
	L -48.5 193
	L -47.63 192.5
	M -48.5 193
	L -48.5 192
	L -47.63 191.5
	L -46.77 191
	L -45.9 191.5
	M -46.77 191
	L -45.9 190.5
	M -48.5 192
	L -48.5 191
	L -48.5 190
	L -47.63 189.5
	M -48.5 190
	L -48.5 189
	M -48.5 196
	L -49.36 195.5
	L -50.23 195
	L -51.1 194.5
	L -51.1 193.5
	M -51.1 194.5
	L -51.96 194
	L -51.96 193
	L -51.96 192
	L -51.1 191.5
	M -51.96 192
	L -51.96 191
	M -51.96 194
	L -52.83 193.5
	L -53.69 193
	L -53.69 192
	M -53.69 193
	L -54.56 192.5
	M -27.71 208
	L -28.58 208.5
	L -29.44 209
	L -30.31 209.5
	L -31.18 210
	L -32.04 210.5
	L -32.91 210
	M -32.04 210.5
	L -32.91 211
	L -33.77 210.5
	L -34.64 210
	L -34.64 209
	M -34.64 210
	L -35.51 209.5
	M -32.91 211
	L -33.77 211.5
	L -34.64 212
	L -35.51 211.5
	M -34.64 212
	L -35.51 212.5
	L -36.37 212
	L -37.24 211.5
	L -38.11 211
	L -38.11 210
	M -38.11 211
	L -38.97 210.5
	L -38.97 209.5
	L -38.97 208.5
	L -38.11 208
	M -38.97 208.5
	L -38.97 207.5
	M -38.97 210.5
	L -39.84 210
	L -40.7 209.5
	L -40.7 208.5
	M -40.7 209.5
	L -41.57 209
	M -35.51 212.5
	L -36.37 213
	L -37.24 213.5
	L -38.11 214
	L -38.97 213.5
	M -38.11 214
	L -38.97 214.5
	L -39.84 214
	L -40.7 213.5
	L -40.7 212.5
	M -40.7 213.5
	L -41.57 213
	M -38.97 214.5
	L -39.84 215
	L -40.7 215.5
	L -41.57 215
	M -40.7 215.5
	L -41.57 216
	L -42.44 215.5
	L -43.3 215
	L -44.17 214.5
	L -45.03 214
	L -45.03 213
	M -45.03 214
	L -45.9 213.5
	L -45.9 212.5
	L -45.9 211.5
	L -45.03 211
	M -45.9 211.5
	L -45.9 210.5
	M -45.9 213.5
	L -46.77 213
	L -47.63 212.5
	L -47.63 211.5
	M -47.63 212.5
	L -48.5 212
	L -48.5 211
	L -48.5 210
	L -48.5 209
	L -47.63 208.5
	M -48.5 209
	L -48.5 208
	L -47.63 207.5
	L -46.77 207
	L -45.9 207.5
	M -46.77 207
	L -45.9 206.5
	M -48.5 208
	L -48.5 207
	L -48.5 206
	L -47.63 205.5
	M -48.5 206
	L -48.5 205
	M -48.5 212
	L -49.36 211.5
	L -50.23 211
	L -51.1 210.5
	L -51.1 209.5
	M -51.1 210.5
	L -51.96 210
	L -51.96 209
	L -51.96 208
	L -51.1 207.5
	M -51.96 208
	L -51.96 207
	M -51.96 210
	L -52.83 209.5
	L -53.69 209
	L -53.69 208
	M -53.69 209
	L -54.56 208.5
	M -41.57 216
	L -42.44 216.5
	L -43.3 217
	L -44.17 217.5
	L -45.03 218
	L -45.9 217.5
	M -45.03 218
	L -45.9 218.5
	L -46.77 218
	L -47.63 217.5
	L -47.63 216.5
	M -47.63 217.5
	L -48.5 217
	M -45.9 218.5
	L -46.77 219
	L -47.63 219.5
	L -48.5 219
	M -47.63 219.5
	L -48.5 220
	L -49.36 219.5
	L -50.23 219
	L -51.1 218.5
	L -51.1 217.5
	M -51.1 218.5
	L -51.96 218
	L -51.96 217
	L -51.96 216
	L -51.1 215.5
	M -51.96 216
	L -51.96 215
	M -51.96 218
	L -52.83 217.5
	L -53.69 217
	L -53.69 216
	M -53.69 217
	L -54.56 216.5
	M -48.5 220
	L -49.36 220.5
	L -50.23 221
	L -51.1 221.5
	L -51.96 221
	M -51.1 221.5
	L -51.96 222
	L -52.83 221.5
	L -53.69 221
	L -53.69 220
	M -53.69 221
	L -54.56 220.5
	M -51.96 222
	L -52.83 222.5
	L -53.69 223
	L -54.56 222.5
	M -53.69 223
	L -54.56 223.5
	M 1.176e-14 192
	L 1.182e-14 193
	L 1.188e-14 194
	L 1.194e-14 195
	L 1.2e-14 196
	L 1.206e-14 197
	L 1.212e-14 198
	L -0.866 198.5
	M 1.212e-14 198
	L 1.219e-14 199
	L -0.866 199.5
	L -1.732 200
	L -2.598 199.5
	M -1.732 200
	L -2.598 200.5
	M 1.219e-14 199
	L 1.225e-14 200
	L 1.231e-14 201
	L -0.866 201.5
	M 1.231e-14 201
	L 1.237e-14 202
	L -0.866 202.5
	L -1.732 203
	L -2.598 203.5
	L -3.464 203
	M -2.598 203.5
	L -3.464 204
	L -4.33 203.5
	L -5.196 203
	L -5.196 202
	M -5.196 203
	L -6.062 202.5
	M -3.464 204
	L -4.33 204.5
	L -5.196 205
	L -6.062 204.5
	M -5.196 205
	L -6.062 205.5
	M 1.237e-14 202
	L 1.243e-14 203
	L 1.249e-14 204
	L 1.255e-14 205
	L -0.866 205.5
	M 1.255e-14 205
	L 1.261e-14 206
	L -0.866 206.5
	L -1.732 207
	L -2.598 206.5
	M -1.732 207
	L -2.598 207.5
	M 1.261e-14 206
	L 1.268e-14 207
	L 1.274e-14 208
	L -0.866 208.5
	M 1.274e-14 208
	L 1.28e-14 209
	L -0.866 209.5
	L -1.732 210
	L -2.598 210.5
	L -3.464 211
	L -4.33 210.5
	M -3.464 211
	L -4.33 211.5
	L -5.196 211
	L -6.062 210.5
	L -6.062 209.5
	M -6.062 210.5
	L -6.928 210
	M -4.33 211.5
	L -5.196 212
	L -6.062 212.5
	L -6.928 212
	M -6.062 212.5
	L -6.928 213
	L -7.794 212.5
	L -8.66 212
	L -9.526 211.5
	L -9.526 210.5
	M -9.526 211.5
	L -10.39 211
	L -10.39 210
	L -10.39 209
	L -9.526 208.5
	M -10.39 209
	L -10.39 208
	M -10.39 211
	L -11.26 210.5
	L -12.12 210
	L -12.12 209
	M -12.12 210
	L -12.99 209.5
	M -6.928 213
	L -7.794 213.5
	L -8.66 214
	L -9.526 214.5
	L -10.39 214
	M -9.526 214.5
	L -10.39 215
	L -11.26 214.5
	L -12.12 214
	L -12.12 213
	M -12.12 214
	L -12.99 213.5
	M -10.39 215
	L -11.26 215.5
	L -12.12 216
	L -12.99 215.5
	M -12.12 216
	L -12.99 216.5
	M 1.28e-14 209
	L 1.286e-14 210
	L 1.292e-14 211
	L 1.298e-14 212
	L 1.304e-14 213
	L -0.866 213.5
	M 1.304e-14 213
	L 1.31e-14 214
	L -0.866 214.5
	L -1.732 215
	L -2.598 214.5
	M -1.732 215
	L -2.598 215.5
	M 1.31e-14 214
	L 1.316e-14 215
	L 1.323e-14 216
	L -0.866 216.5
	M 1.323e-14 216
	L 1.329e-14 217
	L -0.866 217.5
	L -1.732 218
	L -2.598 218.5
	L -3.464 218
	M -2.598 218.5
	L -3.464 219
	L -4.33 218.5
	L -5.196 218
	L -5.196 217
	M -5.196 218
	L -6.062 217.5
	M -3.464 219
	L -4.33 219.5
	L -5.196 220
	L -6.062 219.5
	M -5.196 220
	L -6.062 220.5
	M 1.329e-14 217
	L 1.335e-14 218
	L 1.341e-14 219
	L 1.347e-14 220
	L -0.866 220.5
	M 1.347e-14 220
	L 1.353e-14 221
	L -0.866 221.5
	L -1.732 222
	L -2.598 221.5
	M -1.732 222
	L -2.598 222.5
	M 1.353e-14 221
	L 1.359e-14 222
	L 1.365e-14 223
	L -0.866 223.5
	M 1.365e-14 223
	L 1.372e-14 224
	L -0.866 224.5
	L -1.732 225
	L -2.598 225.5
	L -3.464 226
	L -4.33 226.5
	L -5.196 226
	M -4.33 226.5
	L -5.196 227
	L -6.062 226.5
	L -6.928 226
	L -6.928 225
	M -6.928 226
	L -7.794 225.5
	M -5.196 227
	L -6.062 227.5
	L -6.928 228
	L -7.794 227.5
	M -6.928 228
	L -7.794 228.5
	L -8.66 228
	L -9.526 227.5
	L -10.39 227
	L -10.39 226
	M -10.39 227
	L -11.26 226.5
	L -11.26 225.5
	L -11.26 224.5
	L -10.39 224
	M -11.26 224.5
	L -11.26 223.5
	M -11.26 226.5
	L -12.12 226
	L -12.99 225.5
	L -12.99 224.5
	M -12.99 225.5
	L -13.86 225
	M -7.794 228.5
	L -8.66 229
	L -9.526 229.5
	L -10.39 230
	L -11.26 229.5
	M -10.39 230
	L -11.26 230.5
	L -12.12 230
	L -12.99 229.5
	L -12.99 228.5
	M -12.99 229.5
	L -13.86 229
	M -11.26 230.5
	L -12.12 231
	L -12.99 231.5
	L -13.86 231
	M -12.99 231.5
	L -13.86 232
	L -14.72 231.5
	L -15.59 231
	L -16.45 230.5
	L -17.32 230
	L -17.32 229
	M -17.32 230
	L -18.19 229.5
	L -18.19 228.5
	L -18.19 227.5
	L -17.32 227
	M -18.19 227.5
	L -18.19 226.5
	M -18.19 229.5
	L -19.05 229
	L -19.92 228.5
	L -19.92 227.5
	M -19.92 228.5
	L -20.78 228
	L -20.78 227
	L -20.78 226
	L -20.78 225
	L -19.92 224.5
	M -20.78 225
	L -20.78 224
	L -19.92 223.5
	L -19.05 223
	L -18.19 223.5
	M -19.05 223
	L -18.19 222.5
	M -20.78 224
	L -20.78 223
	L -20.78 222
	L -19.92 221.5
	M -20.78 222
	L -20.78 221
	M -20.78 228
	L -21.65 227.5
	L -22.52 227
	L -23.38 226.5
	L -23.38 225.5
	M -23.38 226.5
	L -24.25 226
	L -24.25 225
	L -24.25 224
	L -23.38 223.5
	M -24.25 224
	L -24.25 223
	M -24.25 226
	L -25.11 225.5
	L -25.98 225
	L -25.98 224
	M -25.98 225
	L -26.85 224.5
	M -13.86 232
	L -14.72 232.5
	L -15.59 233
	L -16.45 233.5
	L -17.32 234
	L -18.19 233.5
	M -17.32 234
	L -18.19 234.5
	L -19.05 234
	L -19.92 233.5
	L -19.92 232.5
	M -19.92 233.5
	L -20.78 233
	M -18.19 234.5
	L -19.05 235
	L -19.92 235.5
	L -20.78 235
	M -19.92 235.5
	L -20.78 236
	L -21.65 235.5
	L -22.52 235
	L -23.38 234.5
	L -23.38 233.5
	M -23.38 234.5
	L -24.25 234
	L -24.25 233
	L -24.25 232
	L -23.38 231.5
	M -24.25 232
	L -24.25 231
	M -24.25 234
	L -25.11 233.5
	L -25.98 233
	L -25.98 232
	M -25.98 233
	L -26.85 232.5
	M -20.78 236
	L -21.65 236.5
	L -22.52 237
	L -23.38 237.5
	L -24.25 237
	M -23.38 237.5
	L -24.25 238
	L -25.11 237.5
	L -25.98 237
	L -25.98 236
	M -25.98 237
	L -26.85 236.5
	M -24.25 238
	L -25.11 238.5
	L -25.98 239
	L -26.85 238.5
	M -25.98 239
	L -26.85 239.5
	M 1.372e-14 224
	L 1.378e-14 225
	L 1.384e-14 226
	L 1.39e-14 227
	L 1.396e-14 228
	L 1.402e-14 229
	L -0.866 229.5
	M 1.402e-14 229
	L 1.408e-14 230
	L -0.866 230.5
	L -1.732 231
	L -2.598 230.5
	M -1.732 231
	L -2.598 231.5
	M 1.408e-14 230
	L 1.414e-14 231
	L 1.421e-14 232
	L -0.866 232.5
	M 1.421e-14 232
	L 1.427e-14 233
	L -0.866 233.5
	L -1.732 234
	L -2.598 234.5
	L -3.464 234
	M -2.598 234.5
	L -3.464 235
	L -4.33 234.5
	L -5.196 234
	L -5.196 233
	M -5.196 234
	L -6.062 233.5
	M -3.464 235
	L -4.33 235.5
	L -5.196 236
	L -6.062 235.5
	M -5.196 236
	L -6.062 236.5
	M 1.427e-14 233
	L 1.433e-14 234
	L 1.439e-14 235
	L 1.445e-14 236
	L -0.866 236.5
	M 1.445e-14 236
	L 1.451e-14 237
	L -0.866 237.5
	L -1.732 238
	L -2.598 237.5
	M -1.732 238
	L -2.598 238.5
	M 1.451e-14 237
	L 1.457e-14 238
	L 1.463e-14 239
	L -0.866 239.5
	M 1.463e-14 239
	L 1.47e-14 240
	L -0.866 240.5
	L -1.732 241
	L -2.598 241.5
	L -3.464 242
	L -4.33 241.5
	M -3.464 242
	L -4.33 242.5
	L -5.196 242
	L -6.062 241.5
	L -6.062 240.5
	M -6.062 241.5
	L -6.928 241
	M -4.33 242.5
	L -5.196 243
	L -6.062 243.5
	L -6.928 243
	M -6.062 243.5
	L -6.928 244
	L -7.794 243.5
	L -8.66 243
	L -9.526 242.5
	L -9.526 241.5
	M -9.526 242.5
	L -10.39 242
	L -10.39 241
	L -10.39 240
	L -9.526 239.5
	M -10.39 240
	L -10.39 239
	M -10.39 242
	L -11.26 241.5
	L -12.12 241
	L -12.12 240
	M -12.12 241
	L -12.99 240.5
	M -6.928 244
	L -7.794 244.5
	L -8.66 245
	L -9.526 245.5
	L -10.39 245
	M -9.526 245.5
	L -10.39 246
	L -11.26 245.5
	L -12.12 245
	L -12.12 244
	M -12.12 245
	L -12.99 244.5
	M -10.39 246
	L -11.26 246.5
	L -12.12 247
	L -12.99 246.5
	M -12.12 247
	L -12.99 247.5
	M 1.47e-14 240
	L 1.476e-14 241
	L 1.482e-14 242
	L 1.488e-14 243
	L 1.494e-14 244
	L -0.866 244.5
	M 1.494e-14 244
	L 1.5e-14 245
	L -0.866 245.5
	L -1.732 246
	L -2.598 245.5
	M -1.732 246
	L -2.598 246.5
	M 1.5e-14 245
	L 1.506e-14 246
	L 1.512e-14 247
	L -0.866 247.5
	M 1.512e-14 247
	L 1.519e-14 248
	L -0.866 248.5
	L -1.732 249
	L -2.598 249.5
	L -3.464 249
	M -2.598 249.5
	L -3.464 250
	L -4.33 249.5
	L -5.196 249
	L -5.196 248
	M -5.196 249
	L -6.062 248.5
	M -3.464 250
	L -4.33 250.5
	L -5.196 251
	L -6.062 250.5
	M -5.196 251
	L -6.062 251.5
	M 1.519e-14 248
	L 1.525e-14 249
	L 1.531e-14 250
	L 1.537e-14 251
	L -0.866 251.5
	M 1.537e-14 251
	L 1.543e-14 252
	L -0.866 252.5
	L -1.732 253
	L -2.598 252.5
	M -1.732 253
	L -2.598 253.5
	M 1.543e-14 252
	L 1.549e-14 253
	L 1.555e-14 254
	L -0.866 254.5
	M 1.555e-14 254
	L 1.561e-14 255
"/>
</svg>
