<svg version="1.1" baseProfile="full" xmlns="http://www.w3.org/2000/svg"
width="1024" height="894.7"
viewBox="-4.659 -138.7 159.9 139.7"
>
<rect x="-4.659" y="-138.7" width="100%" height="100%" fill="white" />
<path stroke="green" stroke-width="0.04" stroke-linecap="round" fill="none"
transform="scale(1 -1)"
d="	M 0 0
	L 0.9877 0.1564
	L 1.975 0.3129
	L 2.975 0.3129
	L 3.975 0.3129
	L 4.975 0.3129
	L 5.975 0.3129
	L 6.963 0.4693
	L 7.951 0.6257
	L 8.938 0.7822
	L 9.926 0.9386
	L 10.88 1.248
	L 11.83 1.557
	L 12.78 1.866
	L 13.73 2.175
	L 14.72 2.331
	L 15.71 2.488
	L 16.69 2.644
	L 17.68 2.8
	L 17.52 3.788
	L 17.83 4.739
	M 17.52 3.788
	L 17.37 4.776
	L 16.78 5.585
	L 15.89 6.039
	M 16.78 5.585
	L 16.19 6.394
	L 16.04 7.382
	M 16.19 6.394
	L 15.6 7.203
	M 17.37 4.776
	L 17.21 5.763
	L 17.52 6.715
	M 17.21 5.763
	L 17.06 6.751
	L 17.36 7.702
	L 17.21 8.69
	M 17.36 7.702
	L 17.67 8.653
	L 18.38 9.36
	M 17.67 8.653
	L 17.98 9.604
	M 17.06 6.751
	L 16.9 7.739
	L 17.21 8.69
	M 16.9 7.739
	L 16.74 8.727
	L 17.05 9.678
	L 16.9 10.67
	M 17.05 9.678
	L 17.36 10.63
	L 18.07 11.34
	L 18.38 12.29
	M 18.07 11.34
	L 18.77 12.04
	L 19.73 12.35
	M 18.77 12.04
	L 19.48 12.75
	M 17.36 10.63
	L 17.67 11.58
	L 17.51 12.57
	M 17.67 11.58
	L 17.98 12.53
	M 16.74 8.727
	L 16.59 9.714
	L 16 10.52
	M 16.59 9.714
	L 16.43 10.7
	L 16.74 11.65
	M 16.43 10.7
	L 16.27 11.69
	L 15.69 12.5
	L 14.79 12.95
	M 15.69 12.5
	L 15.1 13.31
	M 16.27 11.69
	L 16.12 12.68
	L 15.53 13.49
	M 16.12 12.68
	L 15.96 13.66
	L 16.27 14.62
	L 16.11 15.6
	M 16.27 14.62
	L 16.58 15.57
	L 17.29 16.27
	M 16.58 15.57
	L 16.89 16.52
	M 15.96 13.66
	L 15.8 14.65
	L 15.22 15.46
	M 15.8 14.65
	L 15.65 15.64
	L 15.06 16.45
	L 14.17 16.9
	M 15.06 16.45
	L 14.47 17.26
	L 13.58 17.71
	L 12.58 17.71
	M 13.58 17.71
	L 12.69 18.17
	M 14.47 17.26
	L 13.88 18.07
	L 12.99 18.52
	M 13.88 18.07
	L 13.3 18.88
	L 13.14 19.86
	L 12.55 20.67
	M 13.14 19.86
	L 12.98 20.85
	L 13.29 21.8
	M 12.98 20.85
	L 12.83 21.84
	M 13.3 18.88
	L 12.71 19.69
	L 11.82 20.14
	M 12.71 19.69
	L 12.12 20.49
	L 11.96 21.48
	M 12.12 20.49
	L 11.53 21.3
	L 11.38 22.29
	L 10.79 23.1
	M 11.38 22.29
	L 11.22 23.28
	L 11.53 24.23
	M 11.22 23.28
	L 11.06 24.27
	L 11.37 25.22
	L 11.22 26.21
	M 11.37 25.22
	L 11.68 26.17
	M 11.06 24.27
	L 10.91 25.25
	L 10.32 26.06
	M 10.91 25.25
	L 10.75 26.24
	L 11.06 27.19
	M 10.75 26.24
	L 10.59 27.23
	M 11.53 21.3
	L 10.95 22.11
	L 10.79 23.1
	M 10.95 22.11
	L 10.36 22.92
	L 9.466 23.38
	L 8.466 23.38
	M 9.466 23.38
	L 8.575 23.83
	M 10.36 22.92
	L 9.77 23.73
	L 9.613 24.72
	M 9.77 23.73
	L 9.182 24.54
	M 15.65 15.64
	L 15.49 16.63
	L 14.9 17.44
	M 15.49 16.63
	L 15.33 17.62
	L 15.64 18.57
	M 15.33 17.62
	L 15.18 18.6
	L 14.59 19.41
	L 13.7 19.87
	M 14.59 19.41
	L 14 20.22
	L 13.85 21.21
	M 14 20.22
	L 13.41 21.03
	M 15.18 18.6
	L 15.02 19.59
	L 15.33 20.54
	M 15.02 19.59
	L 14.87 20.58
	L 15.17 21.53
	L 15.88 22.24
	M 15.17 21.53
	L 15.48 22.48
	M 14.87 20.58
	L 14.71 21.57
	L 15.02 22.52
	M 14.71 21.57
	L 14.55 22.55
	L 13.96 23.36
	L 13.81 24.35
	M 13.96 23.36
	L 13.38 24.17
	L 12.49 24.63
	L 11.49 24.63
	M 12.49 24.63
	L 11.59 25.08
	M 13.38 24.17
	L 12.79 24.98
	L 12.63 25.97
	M 12.79 24.98
	L 12.2 25.79
	M 14.55 22.55
	L 14.4 23.54
	L 13.81 24.35
	M 14.4 23.54
	L 14.24 24.53
	L 14.55 25.48
	M 14.24 24.53
	L 14.08 25.52
	L 13.5 26.33
	L 12.6 26.78
	M 13.5 26.33
	L 12.91 27.14
	L 12.75 28.12
	M 12.91 27.14
	L 12.32 27.94
	M 14.08 25.52
	L 13.93 26.5
	L 13.34 27.31
	M 13.93 26.5
	L 13.77 27.49
	L 14.08 28.44
	M 13.77 27.49
	L 13.61 28.48
	L 13.03 29.29
	L 12.87 30.28
	M 13.03 29.29
	L 12.44 30.1
	L 12.28 31.09
	L 11.69 31.9
	M 12.28 31.09
	L 12.13 32.07
	M 12.44 30.1
	L 11.85 30.91
	L 11.69 31.9
	M 11.85 30.91
	L 11.26 31.72
	L 10.37 32.17
	L 9.372 32.17
	M 10.37 32.17
	L 9.481 32.62
	L 8.893 33.43
	L 8.002 33.89
	M 8.893 33.43
	L 8.305 34.24
	L 8.149 35.23
	M 8.305 34.24
	L 7.717 35.05
	M 9.481 32.62
	L 8.59 33.08
	L 7.59 33.08
	M 8.59 33.08
	L 7.699 33.53
	M 11.26 31.72
	L 10.67 32.53
	L 9.784 32.98
	M 10.67 32.53
	L 10.09 33.33
	L 9.931 34.32
	M 10.09 33.33
	L 9.499 34.14
	L 8.608 34.6
	L 8.021 35.41
	M 8.608 34.6
	L 7.717 35.05
	M 9.499 34.14
	L 8.912 34.95
	L 8.021 35.41
	M 8.912 34.95
	L 8.324 35.76
	L 8.167 36.75
	M 8.324 35.76
	L 7.736 36.57
	L 7.58 37.56
	L 6.992 38.37
	M 7.58 37.56
	L 7.423 38.55
	M 7.736 36.57
	L 7.148 37.38
	L 6.992 38.37
	M 7.148 37.38
	L 6.56 38.19
	L 6.404 39.18
	L 5.816 39.99
	M 6.404 39.18
	L 6.248 40.16
	L 6.557 41.11
	M 6.248 40.16
	L 6.091 41.15
	L 5.503 41.96
	L 5.347 42.95
	M 5.503 41.96
	L 4.916 42.77
	M 6.091 41.15
	L 5.935 42.14
	L 5.347 42.95
	M 5.935 42.14
	L 5.778 43.13
	L 6.087 44.08
	M 5.778 43.13
	L 5.622 44.11
	L 5.931 45.07
	L 5.774 46.05
	M 5.931 45.07
	L 6.24 46.02
	M 5.622 44.11
	L 5.465 45.1
	L 5.774 46.05
	M 5.465 45.1
	L 5.309 46.09
	L 4.721 46.9
	L 3.83 47.35
	M 4.721 46.9
	L 4.133 47.71
	L 3.977 48.7
	M 4.133 47.71
	L 3.546 48.52
	L 3.389 49.5
	L 2.801 50.31
	M 3.389 49.5
	L 3.233 50.49
	M 3.546 48.52
	L 2.958 49.33
	L 2.801 50.31
	M 2.958 49.33
	L 2.37 50.14
	M 5.309 46.09
	L 5.152 47.08
	L 4.565 47.89
	M 5.152 47.08
	L 4.996 48.07
	L 5.305 49.02
	M 4.996 48.07
	L 4.84 49.05
	L 4.252 49.86
	L 4.095 50.85
	M 4.252 49.86
	L 3.664 50.67
	M 4.84 49.05
	L 4.683 50.04
	L 4.095 50.85
	M 4.683 50.04
	L 4.527 51.03
	L 4.836 51.98
	M 4.527 51.03
	L 4.37 52.02
	M 6.56 38.19
	L 5.973 39
	L 5.082 39.45
	M 5.973 39
	L 5.385 39.81
	L 4.494 40.26
	L 3.494 40.26
	M 4.494 40.26
	L 3.603 40.71
	M 5.385 39.81
	L 4.797 40.62
	L 3.906 41.07
	M 4.797 40.62
	L 4.209 41.42
	L 4.053 42.41
	M 4.209 41.42
	L 3.621 42.23
	L 3.465 43.22
	L 2.877 44.03
	M 3.465 43.22
	L 3.309 44.21
	L 3.618 45.16
	M 3.309 44.21
	L 3.152 45.2
	L 2.564 46.01
	L 1.673 46.46
	M 2.564 46.01
	L 1.977 46.81
	L 1.82 47.8
	M 1.977 46.81
	L 1.389 47.62
	M 3.152 45.2
	L 2.996 46.18
	L 2.408 46.99
	M 2.996 46.18
	L 2.839 47.17
	L 3.148 48.12
	M 2.839 47.17
	L 2.683 48.16
	M 3.621 42.23
	L 3.034 43.04
	L 2.143 43.5
	M 3.034 43.04
	L 2.446 43.85
	L 2.289 44.84
	M 2.446 43.85
	L 1.858 44.66
	L 0.9671 45.11
	L -0.0329 45.11
	M 0.9671 45.11
	L 0.0761 45.57
	L -0.5117 46.38
	M 0.0761 45.57
	L -0.8149 46.02
	M 1.858 44.66
	L 1.27 45.47
	L 0.3793 45.92
	M 1.27 45.47
	L 0.6825 46.28
	L 0.5261 47.27
	L -0.06168 48.08
	M 0.5261 47.27
	L 0.3697 48.25
	M 0.6825 46.28
	L 0.09475 47.09
	L -0.7963 47.54
	M 0.09475 47.09
	L -0.493 47.9
	L -0.6495 48.88
	M -0.493 47.9
	L -1.081 48.71
	M 13.61 28.48
	L 13.46 29.47
	L 12.87 30.28
	M 13.46 29.47
	L 13.3 30.46
	L 13.61 31.41
	M 13.3 30.46
	L 13.14 31.44
	L 13.45 32.39
	L 13.3 33.38
	M 13.45 32.39
	L 13.76 33.35
	L 14.47 34.05
	M 13.76 33.35
	L 14.07 34.3
	M 13.14 31.44
	L 12.99 32.43
	L 13.3 33.38
	M 12.99 32.43
	L 12.83 33.42
	L 12.24 34.23
	L 11.35 34.68
	M 12.24 34.23
	L 11.66 35.04
	L 10.77 35.49
	L 10.18 36.3
	M 10.77 35.49
	L 9.874 35.94
	M 11.66 35.04
	L 11.07 35.85
	L 10.18 36.3
	M 11.07 35.85
	L 10.48 36.65
	L 10.32 37.64
	M 10.48 36.65
	L 9.893 37.46
	L 9.736 38.45
	L 10.05 39.4
	M 9.736 38.45
	L 9.58 39.44
	M 9.893 37.46
	L 9.305 38.27
	L 8.414 38.73
	M 9.305 38.27
	L 8.717 39.08
	M 12.83 33.42
	L 12.68 34.41
	L 12.09 35.22
	M 12.68 34.41
	L 12.52 35.39
	L 12.83 36.35
	M 12.52 35.39
	L 12.36 36.38
	L 11.77 37.19
	L 11.62 38.18
	M 11.77 37.19
	L 11.19 38
	M 12.36 36.38
	L 12.21 37.37
	L 11.62 38.18
	M 12.21 37.37
	L 12.05 38.36
	L 12.36 39.31
	M 12.05 38.36
	L 11.89 39.34
	L 12.2 40.3
	L 12.05 41.28
	M 12.2 40.3
	L 12.51 41.25
	L 13.22 41.95
	M 12.51 41.25
	L 12.82 42.2
	L 12.66 43.19
	L 12.97 44.14
	M 12.66 43.19
	L 12.51 44.17
	M 12.82 42.2
	L 13.13 43.15
	L 13.84 43.86
	M 13.13 43.15
	L 13.44 44.1
	M 11.89 39.34
	L 11.74 40.33
	L 11.15 41.14
	M 11.74 40.33
	L 11.58 41.32
	L 11.89 42.27
	M 11.58 41.32
	L 11.42 42.31
	L 11.73 43.26
	L 11.58 44.25
	M 11.73 43.26
	L 12.04 44.21
	L 12.75 44.92
	M 12.04 44.21
	L 12.35 45.16
	M 11.42 42.31
	L 11.27 43.3
	L 10.68 44.1
	M 11.27 43.3
	L 11.11 44.28
	L 10.52 45.09
	L 9.632 45.55
	M 10.52 45.09
	L 9.935 45.9
	L 9.779 46.89
	M 9.935 45.9
	L 9.348 46.71
	L 8.456 47.16
	L 7.456 47.16
	M 8.456 47.16
	L 7.565 47.62
	L 6.978 48.43
	M 7.565 47.62
	L 6.674 48.07
	M 9.348 46.71
	L 8.76 47.52
	L 8.603 48.51
	M 8.76 47.52
	L 8.172 48.33
	L 8.016 49.32
	L 8.325 50.27
	M 8.016 49.32
	L 7.859 50.3
	M 8.172 48.33
	L 7.584 49.14
	L 6.693 49.59
	M 7.584 49.14
	L 6.996 49.95
	L 6.84 50.93
	M 6.996 49.95
	L 6.409 50.76
	L 5.518 51.21
	L 4.518 51.21
	M 5.518 51.21
	L 4.627 51.66
	L 3.627 51.66
	L 2.736 52.12
	M 3.627 51.66
	L 2.627 51.66
	M 4.627 51.66
	L 3.736 52.12
	L 2.736 52.12
	M 3.736 52.12
	L 2.845 52.57
	L 2.257 53.38
	M 2.845 52.57
	L 1.954 53.03
	L 1.366 53.83
	L 0.4748 54.29
	M 1.366 53.83
	L 0.778 54.64
	L 0.6215 55.63
	M 0.778 54.64
	L 0.1902 55.45
	M 1.954 53.03
	L 1.063 53.48
	L 0.4748 54.29
	M 1.063 53.48
	L 0.1715 53.93
	M 6.409 50.76
	L 5.821 51.56
	L 5.664 52.55
	M 5.821 51.56
	L 5.233 52.37
	L 4.342 52.83
	L 3.342 52.83
	M 4.342 52.83
	L 3.451 53.28
	M 5.233 52.37
	L 4.645 53.18
	L 4.489 54.17
	M 4.645 53.18
	L 4.057 53.99
	L 3.901 54.98
	L 3.313 55.79
	M 3.901 54.98
	L 3.745 55.97
	M 4.057 53.99
	L 3.47 54.8
	L 3.313 55.79
	M 3.47 54.8
	L 2.882 55.61
	M 11.11 44.28
	L 10.95 45.27
	L 10.37 46.08
	M 10.95 45.27
	L 10.8 46.26
	L 11.11 47.21
	M 10.8 46.26
	L 10.64 47.25
	L 10.05 48.06
	L 9.163 48.51
	M 10.05 48.06
	L 9.466 48.86
	M 10.64 47.25
	L 10.49 48.23
	L 9.897 49.04
	M 10.49 48.23
	L 10.33 49.22
	L 10.64 50.17
	M 10.33 49.22
	L 10.17 50.21
	L 9.584 51.02
	L 8.693 51.47
	M 9.584 51.02
	L 8.997 51.83
	L 8.84 52.82
	M 8.997 51.83
	L 8.409 52.64
	L 8.252 53.62
	L 7.665 54.43
	M 8.252 53.62
	L 8.096 54.61
	L 8.405 55.56
	M 8.096 54.61
	L 7.94 55.6
	M 8.409 52.64
	L 7.821 53.45
	L 6.93 53.9
	M 7.821 53.45
	L 7.233 54.25
	L 7.077 55.24
	M 7.233 54.25
	L 6.646 55.06
	M 10.17 50.21
	L 10.02 51.2
	L 9.428 52.01
	M 10.02 51.2
	L 9.859 52.18
	L 10.17 53.14
	M 9.859 52.18
	L 9.703 53.17
	L 10.01 54.12
	L 9.856 55.11
	M 10.01 54.12
	L 10.32 55.07
	M 9.703 53.17
	L 9.547 54.16
	L 8.959 54.97
	M 9.547 54.16
	L 9.39 55.15
	L 9.699 56.1
	L 10.41 56.81
	M 9.699 56.1
	L 10.01 57.05
	L 9.852 58.04
	L 10.16 58.99
	M 9.852 58.04
	L 9.695 59.03
	M 10.01 57.05
	L 10.32 58
	L 11.02 58.71
	M 10.32 58
	L 10.63 58.95
	L 11.33 59.66
	L 12.28 59.97
	M 11.33 59.66
	L 12.04 60.37
	M 10.63 58.95
	L 10.94 59.9
	L 10.78 60.89
	M 10.94 59.9
	L 11.24 60.85
	L 11.95 61.56
	M 11.24 60.85
	L 11.55 61.81
	M 9.39 55.15
	L 9.234 56.14
	L 9.543 57.09
	M 9.234 56.14
	L 9.077 57.12
	L 8.489 57.93
	L 7.598 58.39
	M 8.489 57.93
	L 7.902 58.74
	M 9.077 57.12
	L 8.921 58.11
	L 8.333 58.92
	M 8.921 58.11
	L 8.764 59.1
	L 9.073 60.05
	L 8.917 61.04
	M 9.073 60.05
	L 9.382 61
	M 8.764 59.1
	L 8.608 60.09
	L 8.02 60.9
	M 8.608 60.09
	L 8.451 61.07
	L 8.76 62.03
	L 8.604 63.01
	M 8.76 62.03
	L 9.07 62.98
	L 9.777 63.68
	M 9.07 62.98
	L 9.379 63.93
	L 9.222 64.91
	L 8.634 65.72
	M 9.222 64.91
	L 9.066 65.9
	M 9.379 63.93
	L 9.688 64.88
	L 9.531 65.87
	M 9.688 64.88
	L 9.997 65.83
	L 10.7 66.54
	M 9.997 65.83
	L 10.31 66.78
	L 11.01 67.49
	L 11.96 67.8
	M 11.01 67.49
	L 11.72 68.19
	M 10.31 66.78
	L 10.61 67.73
	L 11.32 68.44
	M 10.61 67.73
	L 10.92 68.68
	L 10.77 69.67
	L 11.08 70.62
	M 10.77 69.67
	L 10.61 70.66
	L 10.02 71.47
	L 9.867 72.45
	M 10.02 71.47
	L 9.435 72.28
	M 10.61 70.66
	L 10.45 71.65
	L 9.867 72.45
	M 10.45 71.65
	L 10.3 72.63
	L 10.61 73.58
	M 10.3 72.63
	L 10.14 73.62
	L 10.45 74.57
	L 10.29 75.56
	M 10.45 74.57
	L 10.76 75.52
	L 11.47 76.23
	M 10.76 75.52
	L 11.07 76.47
	M 10.14 73.62
	L 9.985 74.61
	L 9.397 75.42
	M 9.985 74.61
	L 9.829 75.6
	L 10.14 76.55
	M 9.829 75.6
	L 9.672 76.58
	M 10.92 68.68
	L 11.23 69.63
	L 11.08 70.62
	M 11.23 69.63
	L 11.54 70.58
	L 11.39 71.57
	L 11.69 72.52
	M 11.39 71.57
	L 11.23 72.56
	M 11.54 70.58
	L 11.85 71.54
	L 11.69 72.52
	M 11.85 71.54
	L 12.16 72.49
	L 12.87 73.19
	L 13.82 73.5
	M 12.87 73.19
	L 13.57 73.9
	M 12.16 72.49
	L 12.47 73.44
	L 12.31 74.43
	M 12.47 73.44
	L 12.78 74.39
	L 13.48 75.1
	M 12.78 74.39
	L 13.09 75.34
	L 13.79 76.05
	L 14.1 77
	M 13.79 76.05
	L 14.5 76.75
	L 15.45 77.06
	L 16.44 76.91
	M 15.45 77.06
	L 16.4 77.37
	M 14.5 76.75
	L 15.21 77.46
	L 15.52 78.41
	M 15.21 77.46
	L 15.92 78.17
	L 16.87 78.48
	M 15.92 78.17
	L 16.62 78.88
	M 13.09 75.34
	L 13.4 76.29
	L 14.1 77
	M 13.4 76.29
	L 13.7 77.24
	L 13.55 78.23
	L 12.96 79.04
	M 13.55 78.23
	L 13.39 79.22
	L 13.7 80.17
	M 13.39 79.22
	L 13.24 80.21
	M 13.7 77.24
	L 14.01 78.19
	L 13.86 79.18
	M 14.01 78.19
	L 14.32 79.14
	L 15.03 79.85
	M 14.32 79.14
	L 14.63 80.1
	L 15.34 80.8
	L 15.65 81.75
	M 15.34 80.8
	L 16.05 81.51
	L 17 81.82
	M 16.05 81.51
	L 16.75 82.22
	M 14.63 80.1
	L 14.94 81.05
	L 14.78 82.03
	M 14.94 81.05
	L 15.25 82
	L 15.96 82.7
	M 15.25 82
	L 15.56 82.95
	M 8.451 61.07
	L 8.295 62.06
	L 8.604 63.01
	M 8.295 62.06
	L 8.139 63.05
	L 7.551 63.86
	L 6.66 64.31
	M 7.551 63.86
	L 6.963 64.67
	M 8.139 63.05
	L 7.982 64.04
	L 8.291 64.99
	M 7.982 64.04
	L 7.826 65.02
	L 7.238 65.83
	L 6.347 66.29
	M 7.238 65.83
	L 6.65 66.64
	L 5.759 67.1
	L 5.171 67.91
	M 5.759 67.1
	L 4.868 67.55
	M 6.65 66.64
	L 6.062 67.45
	L 5.171 67.91
	M 6.062 67.45
	L 5.475 68.26
	L 5.318 69.25
	L 5.627 70.2
	M 5.318 69.25
	L 5.162 70.24
	M 5.475 68.26
	L 4.887 69.07
	L 3.996 69.52
	M 4.887 69.07
	L 4.299 69.88
	M 7.826 65.02
	L 7.669 66.01
	L 7.082 66.82
	M 7.669 66.01
	L 7.513 67
	L 6.925 67.81
	L 6.769 68.8
	M 6.925 67.81
	L 6.337 68.62
	M 7.513 67
	L 7.356 67.99
	L 7.665 68.94
	M 7.356 67.99
	L 7.2 68.98
	L 7.509 69.93
	L 8.216 70.63
	M 7.509 69.93
	L 7.818 70.88
	L 8.525 71.58
	L 8.834 72.54
	M 8.525 71.58
	L 9.232 72.29
	L 10.18 72.6
	M 9.232 72.29
	L 9.939 73
	M 7.818 70.88
	L 8.127 71.83
	L 8.834 72.54
	M 8.127 71.83
	L 8.436 72.78
	L 8.28 73.77
	L 7.692 74.58
	M 8.28 73.77
	L 8.123 74.76
	L 8.432 75.71
	M 8.123 74.76
	L 7.967 75.74
	L 7.379 76.55
	L 6.488 77.01
	M 7.379 76.55
	L 6.791 77.36
	L 6.635 78.35
	M 6.791 77.36
	L 6.203 78.17
	M 7.967 75.74
	L 7.81 76.73
	L 8.119 77.68
	M 7.81 76.73
	L 7.654 77.72
	M 8.436 72.78
	L 8.745 73.73
	L 8.589 74.72
	M 8.745 73.73
	L 9.054 74.68
	L 8.898 75.67
	L 8.31 76.48
	M 8.898 75.67
	L 8.741 76.66
	M 9.054 74.68
	L 9.363 75.63
	L 10.07 76.34
	M 9.363 75.63
	L 9.672 76.58
	L 10.38 77.29
	L 10.69 78.24
	M 10.38 77.29
	L 11.09 78
	M 9.672 76.58
	L 9.981 77.54
	L 10.69 78.24
	M 9.981 77.54
	L 10.29 78.49
	L 10.13 79.47
	L 10.44 80.42
	M 10.13 79.47
	L 9.977 80.46
	L 9.39 81.27
	L 8.499 81.72
	M 9.39 81.27
	L 8.802 82.08
	M 9.977 80.46
	L 9.821 81.45
	L 9.233 82.26
	M 9.821 81.45
	L 9.664 82.44
	L 9.077 83.25
	L 8.186 83.7
	M 9.077 83.25
	L 8.489 84.05
	L 8.332 85.04
	L 7.745 85.85
	M 8.332 85.04
	L 8.176 86.03
	M 8.489 84.05
	L 7.901 84.86
	L 7.745 85.85
	M 7.901 84.86
	L 7.313 85.67
	M 9.664 82.44
	L 9.508 83.42
	L 9.817 84.38
	M 9.508 83.42
	L 9.352 84.41
	L 8.764 85.22
	L 7.873 85.68
	M 8.764 85.22
	L 8.176 86.03
	M 9.352 84.41
	L 9.195 85.4
	L 8.607 86.21
	M 9.195 85.4
	L 9.039 86.39
	L 9.348 87.34
	L 9.191 88.33
	M 9.348 87.34
	L 9.657 88.29
	M 9.039 86.39
	L 8.882 87.38
	L 8.294 88.18
	M 8.882 87.38
	L 8.726 88.36
	M 10.29 78.49
	L 10.6 79.44
	L 11.31 80.14
	M 10.6 79.44
	L 10.91 80.39
	L 10.75 81.38
	L 10.16 82.18
	M 10.75 81.38
	L 10.6 82.36
	M 10.91 80.39
	L 11.22 81.34
	L 11.92 82.05
	M 11.22 81.34
	L 11.53 82.29
	L 12.23 83
	L 12.54 83.95
	M 12.23 83
	L 12.94 83.7
	L 13.89 84.01
	M 12.94 83.7
	L 13.65 84.41
	M 11.53 82.29
	L 11.84 83.24
	L 11.68 84.23
	M 11.84 83.24
	L 12.14 84.19
	L 12.85 84.9
	M 12.14 84.19
	L 12.45 85.14
	L 13.16 85.85
	L 13.47 86.8
	M 13.16 85.85
	L 13.87 86.56
	L 14.18 87.51
	L 14.02 88.5
	M 14.18 87.51
	L 14.49 88.46
	M 13.87 86.56
	L 14.57 87.26
	L 14.88 88.22
	M 14.57 87.26
	L 15.28 87.97
	L 16.23 88.28
	M 15.28 87.97
	L 15.99 88.68
	L 16.94 88.99
	L 17.65 89.7
	M 16.94 88.99
	L 17.89 89.3
	M 15.99 88.68
	L 16.7 89.39
	L 17.65 89.7
	M 16.7 89.39
	L 17.4 90.09
	M 12.45 85.14
	L 12.76 86.09
	L 12.61 87.08
	M 12.76 86.09
	L 13.07 87.05
	L 13.78 87.75
	M 13.07 87.05
	L 13.38 88
	L 13.22 88.98
	L 12.64 89.79
	M 13.22 88.98
	L 13.07 89.97
	M 13.38 88
	L 13.69 88.95
	L 13.53 89.94
	M 13.69 88.95
	L 14 89.9
	L 14.71 90.61
	M 14 89.9
	L 14.31 90.85
	L 15.01 91.56
	L 15.97 91.87
	M 15.01 91.56
	L 15.72 92.26
	L 16.03 93.22
	L 16.74 93.92
	M 16.03 93.22
	L 16.34 94.17
	M 15.72 92.26
	L 16.43 92.97
	L 16.74 93.92
	M 16.43 92.97
	L 17.14 93.68
	L 18.09 93.99
	M 17.14 93.68
	L 17.84 94.39
	L 18.79 94.69
	L 19.5 95.4
	M 18.79 94.69
	L 19.75 95
	L 20.73 94.85
	M 19.75 95
	L 20.7 95.31
	M 17.84 94.39
	L 18.55 95.09
	L 18.86 96.04
	M 18.55 95.09
	L 19.26 95.8
	L 20.21 96.11
	M 19.26 95.8
	L 19.96 96.51
	L 20.27 97.46
	L 20.12 98.45
	M 20.27 97.46
	L 20.58 98.41
	L 21.29 99.12
	M 20.58 98.41
	L 20.89 99.36
	L 20.73 100.3
	L 20.15 101.2
	M 20.73 100.3
	L 20.58 101.3
	M 20.89 99.36
	L 21.2 100.3
	L 21.04 101.3
	M 21.2 100.3
	L 21.51 101.3
	L 22.22 102
	M 21.51 101.3
	L 21.82 102.2
	L 22.53 102.9
	L 22.83 103.9
	M 22.53 102.9
	L 23.23 103.6
	M 21.82 102.2
	L 22.13 103.2
	L 22.83 103.9
	M 22.13 103.2
	L 22.44 104.1
	M 19.96 96.51
	L 20.67 97.21
	L 20.98 98.16
	M 20.67 97.21
	L 21.38 97.92
	L 22.33 98.23
	L 23.32 98.07
	M 22.33 98.23
	L 23.28 98.54
	M 21.38 97.92
	L 22.09 98.63
	L 22.39 99.58
	M 22.09 98.63
	L 22.79 99.34
	L 23.74 99.64
	M 22.79 99.34
	L 23.5 100
	L 24.45 100.4
	L 25.44 100.2
	M 24.45 100.4
	L 25.4 100.7
	L 26.11 101.4
	L 27.06 101.7
	M 26.11 101.4
	L 26.82 102.1
	M 25.4 100.7
	L 26.35 101
	L 27.34 100.8
	M 26.35 101
	L 27.3 101.3
	L 28.29 101.1
	L 29.24 101.4
	M 28.29 101.1
	L 29.28 101
	M 27.3 101.3
	L 28.26 101.6
	L 29.24 101.4
	M 28.26 101.6
	L 29.21 101.9
	M 23.5 100
	L 24.21 100.7
	L 24.52 101.7
	M 24.21 100.7
	L 24.91 101.5
	L 25.22 102.4
	L 25.07 103.4
	M 25.22 102.4
	L 25.53 103.4
	L 26.24 104.1
	M 25.53 103.4
	L 25.84 104.3
	M 24.91 101.5
	L 25.62 102.2
	L 26.57 102.5
	M 25.62 102.2
	L 26.33 102.9
	M 14.31 90.85
	L 14.62 91.8
	L 15.32 92.51
	M 14.62 91.8
	L 14.93 92.75
	L 15.63 93.46
	L 16.58 93.77
	M 15.63 93.46
	L 16.34 94.17
	M 14.93 92.75
	L 15.23 93.7
	L 15.08 94.69
	M 15.23 93.7
	L 15.54 94.65
	L 16.25 95.36
	M 15.54 94.65
	L 15.85 95.61
	L 15.7 96.59
	L 15.11 97.4
	M 15.7 96.59
	L 15.54 97.58
	L 14.95 98.39
	L 14.8 99.38
	M 14.95 98.39
	L 14.36 99.2
	M 15.54 97.58
	L 15.38 98.57
	L 14.8 99.38
	M 15.38 98.57
	L 15.23 99.56
	L 15.54 100.5
	M 15.23 99.56
	L 15.07 100.5
	M 15.85 95.61
	L 16.16 96.56
	L 16.01 97.54
	M 16.16 96.56
	L 16.47 97.51
	L 17.18 98.21
	L 17.49 99.17
	M 17.18 98.21
	L 17.88 98.92
	M 16.47 97.51
	L 16.78 98.46
	L 16.62 99.45
	M 16.78 98.46
	L 17.09 99.41
	L 17.8 100.1
	L 18.75 100.4
	M 17.8 100.1
	L 18.5 100.8
	L 19.45 101.1
	L 20.44 101
	M 19.45 101.1
	L 20.4 101.4
	M 18.5 100.8
	L 19.21 101.5
	L 19.52 102.5
	M 19.21 101.5
	L 19.92 102.2
	L 20.87 102.5
	M 19.92 102.2
	L 20.62 102.9
	M 17.09 99.41
	L 17.4 100.4
	L 17.24 101.3
	M 17.4 100.4
	L 17.71 101.3
	L 17.55 102.3
	L 16.96 103.1
	M 17.55 102.3
	L 17.39 103.3
	L 17.7 104.2
	M 17.39 103.3
	L 17.24 104.3
	M 17.71 101.3
	L 18.02 102.3
	L 18.72 103
	M 18.02 102.3
	L 18.32 103.2
	L 19.03 103.9
	L 19.34 104.9
	M 19.03 103.9
	L 19.74 104.6
	M 18.32 103.2
	L 18.63 104.2
	L 18.48 105.2
	M 18.63 104.2
	L 18.94 105.1
	L 19.65 105.8
	M 18.94 105.1
	L 19.25 106.1
	M 7.2 68.98
	L 7.044 69.96
	L 6.456 70.77
	M 7.044 69.96
	L 6.887 70.95
	L 7.196 71.9
	M 6.887 70.95
	L 6.731 71.94
	L 6.143 72.75
	L 5.252 73.2
	M 6.143 72.75
	L 5.555 73.56
	M 6.731 71.94
	L 6.574 72.93
	L 5.986 73.74
	M 6.574 72.93
	L 6.418 73.91
	L 6.727 74.87
	L 6.57 75.85
	M 6.727 74.87
	L 7.036 75.82
	L 6.879 76.8
	L 6.292 77.61
	M 6.879 76.8
	L 6.723 77.79
	L 7.032 78.74
	M 6.723 77.79
	L 6.567 78.78
	M 7.036 75.82
	L 7.345 76.77
	L 8.052 77.47
	M 7.345 76.77
	L 7.654 77.72
	M 6.418 73.91
	L 6.261 74.9
	L 5.674 75.71
	M 6.261 74.9
	L 6.105 75.89
	L 5.517 76.7
	L 4.626 77.15
	M 5.517 76.7
	L 4.929 77.51
	M 6.105 75.89
	L 5.949 76.88
	L 6.258 77.83
	M 5.949 76.88
	L 5.792 77.86
	L 6.101 78.82
	L 6.808 79.52
	M 6.101 78.82
	L 6.41 79.77
	M 5.792 77.86
	L 5.636 78.85
	L 5.945 79.8
	M 5.636 78.85
	L 5.479 79.84
	L 4.891 80.65
	L 4.735 81.64
	M 4.891 80.65
	L 4.304 81.46
	L 4.147 82.45
	L 3.559 83.25
	M 4.147 82.45
	L 3.991 83.43
	L 4.3 84.38
	M 3.991 83.43
	L 3.834 84.42
	M 4.304 81.46
	L 3.716 82.27
	L 3.559 83.25
	M 3.716 82.27
	L 3.128 83.08
	L 2.237 83.53
	L 1.649 84.34
	M 2.237 83.53
	L 1.346 83.98
	L 0.3461 83.98
	L -0.5449 83.53
	M 0.3461 83.98
	L -0.6539 83.98
	M 1.346 83.98
	L 0.4551 84.44
	L -0.5449 84.44
	M 0.4551 84.44
	L -0.4359 84.89
	L -1.024 85.7
	L -1.915 86.16
	M -1.024 85.7
	L -1.612 86.51
	L -1.768 87.5
	M -1.612 86.51
	L -2.199 87.32
	M -0.4359 84.89
	L -1.327 85.35
	L -2.327 85.35
	M -1.327 85.35
	L -2.218 85.8
	M 3.128 83.08
	L 2.54 83.89
	L 2.384 84.87
	M 2.54 83.89
	L 1.953 84.69
	L 1.796 85.68
	L 2.105 86.63
	M 1.796 85.68
	L 1.64 86.67
	M 1.953 84.69
	L 1.365 85.5
	L 0.4737 85.96
	M 1.365 85.5
	L 0.7769 86.31
	L 0.6205 87.3
	L 0.9295 88.25
	M 0.6205 87.3
	L 0.4641 88.29
	L -0.1237 89.1
	L -1.015 89.55
	M -0.1237 89.1
	L -0.7115 89.91
	L -0.8679 90.89
	M -0.7115 89.91
	L -1.299 90.71
	M 0.4641 88.29
	L 0.3076 89.28
	L -0.2801 90.08
	M 0.3076 89.28
	L 0.1512 90.26
	M 0.7769 86.31
	L 0.1892 87.12
	L -0.7019 87.58
	M 0.1892 87.12
	L -0.3986 87.93
	L -0.5551 88.92
	M -0.3986 87.93
	L -0.9864 88.74
	L -1.877 89.19
	L -2.877 89.19
	M -1.877 89.19
	L -2.768 89.65
	L -3.356 90.46
	M -2.768 89.65
	L -3.659 90.1
	M -0.9864 88.74
	L -1.574 89.55
	L -1.731 90.54
	M -1.574 89.55
	L -2.162 90.36
	L -2.318 91.35
	L -2.009 92.3
	M -2.318 91.35
	L -2.475 92.33
	M -2.162 90.36
	L -2.75 91.17
	L -3.641 91.62
	M -2.75 91.17
	L -3.338 91.98
	M 5.479 79.84
	L 5.323 80.83
	L 4.735 81.64
	M 5.323 80.83
	L 5.166 81.82
	L 5.475 82.77
	M 5.166 81.82
	L 5.01 82.8
	L 4.422 83.61
	L 3.531 84.07
	M 4.422 83.61
	L 3.834 84.42
	M 5.01 82.8
	L 4.853 83.79
	L 4.266 84.6
	M 4.853 83.79
	L 4.697 84.78
	L 5.006 85.73
	L 5.713 86.44
	M 5.006 85.73
	L 5.315 86.68
	M 4.697 84.78
	L 4.541 85.77
	L 3.953 86.58
	M 4.541 85.77
	L 4.384 86.75
	L 4.693 87.7
	M 4.384 86.75
	L 4.228 87.74
	L 3.64 88.55
	L 2.749 89
	M 3.64 88.55
	L 3.052 89.36
	L 2.161 89.81
	L 1.161 89.81
	M 2.161 89.81
	L 1.27 90.27
	L 0.6824 91.08
	M 1.27 90.27
	L 0.3792 90.72
	M 3.052 89.36
	L 2.464 90.17
	L 1.573 90.62
	M 2.464 90.17
	L 1.877 90.98
	L 1.72 91.97
	M 1.877 90.98
	L 1.289 91.79
	L 1.132 92.77
	L 0.5446 93.58
	M 1.132 92.77
	L 0.976 93.76
	M 1.289 91.79
	L 0.701 92.6
	L 0.5446 93.58
	M 0.701 92.6
	L 0.1132 93.4
	M 4.228 87.74
	L 4.071 88.73
	L 3.484 89.54
	M 4.071 88.73
	L 3.915 89.72
	L 4.224 90.67
	L 4.067 91.66
	M 4.224 90.67
	L 4.533 91.62
	L 5.24 92.33
	M 4.533 91.62
	L 4.842 92.57
	M 3.915 89.72
	L 3.758 90.7
	L 3.171 91.51
	M 3.758 90.7
	L 3.602 91.69
	L 3.911 92.64
	M 3.602 91.69
	L 3.446 92.68
	L 3.755 93.63
	L 4.462 94.34
	M 3.755 93.63
	L 4.064 94.58
	L 3.907 95.57
	L 3.319 96.38
	M 3.907 95.57
	L 3.751 96.56
	M 4.064 94.58
	L 4.373 95.53
	L 5.08 96.24
	M 4.373 95.53
	L 4.682 96.48
	L 4.525 97.47
	L 4.834 98.42
	M 4.525 97.47
	L 4.369 98.46
	L 3.781 99.27
	L 2.89 99.72
	M 3.781 99.27
	L 3.193 100.1
	M 4.369 98.46
	L 4.212 99.45
	L 3.625 100.3
	M 4.212 99.45
	L 4.056 100.4
	L 4.365 101.4
	L 4.208 102.4
	M 4.365 101.4
	L 4.674 102.3
	L 5.381 103
	M 4.674 102.3
	L 4.983 103.3
	M 4.056 100.4
	L 3.899 101.4
	L 3.312 102.2
	M 3.899 101.4
	L 3.743 102.4
	L 4.052 103.4
	M 3.743 102.4
	L 3.587 103.4
	M 4.682 96.48
	L 4.991 97.44
	L 4.834 98.42
	M 4.991 97.44
	L 5.3 98.39
	L 6.007 99.09
	L 6.316 100
	M 6.007 99.09
	L 6.714 99.8
	L 7.665 100.1
	M 6.714 99.8
	L 7.421 100.5
	M 5.3 98.39
	L 5.609 99.34
	L 5.452 100.3
	M 5.609 99.34
	L 5.918 100.3
	L 6.625 101
	M 5.918 100.3
	L 6.227 101.2
	M 3.446 92.68
	L 3.289 93.67
	L 3.598 94.62
	M 3.289 93.67
	L 3.133 94.66
	L 2.545 95.46
	L 1.654 95.92
	M 2.545 95.46
	L 1.957 96.27
	M 3.133 94.66
	L 2.976 95.64
	L 2.388 96.45
	M 2.976 95.64
	L 2.82 96.63
	L 3.129 97.58
	M 2.82 96.63
	L 2.663 97.62
	L 2.972 98.57
	L 3.68 99.28
	M 2.972 98.57
	L 3.281 99.52
	M 2.663 97.62
	L 2.507 98.61
	L 1.919 99.42
	M 2.507 98.61
	L 2.351 99.59
	L 2.66 100.5
	M 2.351 99.59
	L 2.194 100.6
	L 1.606 101.4
	L 1.45 102.4
	M 1.606 101.4
	L 1.019 102.2
	L 0.1275 102.7
	L -0.8725 102.7
	M 0.1275 102.7
	L -0.7635 103.1
	M 1.019 102.2
	L 0.4307 103
	L -0.4603 103.5
	M 0.4307 103
	L -0.157 103.8
	L -0.3135 104.8
	M -0.157 103.8
	L -0.7448 104.6
	L -0.9013 105.6
	L -1.489 106.4
	M -0.9013 105.6
	L -1.058 106.6
	M -0.7448 104.6
	L -1.333 105.4
	L -2.224 105.9
	M -1.333 105.4
	L -1.92 106.2
	L -2.077 107.2
	M -1.92 106.2
	L -2.508 107.1
	M 2.194 100.6
	L 2.038 101.6
	L 2.347 102.5
	M 2.038 101.6
	L 1.881 102.6
	L 1.293 103.4
	L 0.4024 103.8
	M 1.293 103.4
	L 0.7057 104.2
	M 1.881 102.6
	L 1.725 103.5
	L 2.034 104.5
	M 1.725 103.5
	L 1.568 104.5
	L 1.877 105.5
	L 1.721 106.5
	M 1.877 105.5
	L 2.186 106.4
	L 2.894 107.1
	M 2.186 106.4
	L 2.495 107.4
	M 1.568 104.5
	L 1.412 105.5
	L 0.8241 106.3
	M 1.412 105.5
	L 1.255 106.5
	M 17.68 2.8
	L 18.67 2.957
	L 19.66 3.113
	L 20.64 3.27
	L 21.63 3.426
	L 22.58 3.735
	L 23.53 4.044
	L 24.49 4.353
	L 25.44 4.662
	L 26.42 4.819
	L 27.41 4.975
	L 28.4 5.132
	L 29.39 5.288
	L 30.34 5.597
	L 31.29 5.906
	L 32.24 6.215
	L 33.19 6.524
	L 34.08 6.978
	L 34.97 7.432
	L 35.86 7.886
	L 36.76 8.34
	L 37.71 8.649
	L 38.66 8.958
	L 39.61 9.267
	L 40.56 9.576
	L 41.45 10.03
	L 42.34 10.48
	L 43.23 10.94
	L 44.12 11.39
	L 44.93 11.98
	L 45.74 12.57
	L 46.55 13.16
	L 47.36 13.74
	L 48.07 14.45
	L 48.77 15.16
	L 49.48 15.86
	L 50.19 16.57
	L 51 17.16
	L 51.81 17.75
	L 52.61 18.33
	L 53.42 18.92
	L 54.31 19.38
	L 55.21 19.83
	L 56.1 20.28
	L 56.99 20.74
	L 56.53 21.63
	L 55.72 22.22
	M 56.53 21.63
	L 56.08 22.52
	L 55.27 23.11
	L 54.82 24
	M 55.27 23.11
	L 54.46 23.7
	M 56.08 22.52
	L 55.63 23.41
	L 54.82 24
	M 55.63 23.41
	L 55.17 24.3
	L 55.17 25.3
	M 55.17 24.3
	L 54.72 25.19
	L 54.72 26.19
	L 55.17 27.08
	M 54.72 26.19
	L 54.72 27.19
	M 54.72 25.19
	L 54.26 26.08
	L 54.26 27.08
	M 54.26 26.08
	L 53.81 26.98
	L 53 27.56
	L 52.55 28.45
	M 53 27.56
	L 52.19 28.15
	L 51.2 28.31
	L 50.4 28.9
	M 51.2 28.31
	L 50.22 28.46
	M 52.19 28.15
	L 51.38 28.74
	L 50.4 28.9
	M 51.38 28.74
	L 50.57 29.33
	L 50.12 30.22
	M 50.57 29.33
	L 49.76 29.91
	L 49.31 30.81
	L 49.31 31.81
	M 49.31 30.81
	L 48.86 31.7
	M 49.76 29.91
	L 48.96 30.5
	L 47.97 30.66
	M 48.96 30.5
	L 48.15 31.09
	L 47.69 31.98
	M 48.15 31.09
	L 47.34 31.68
	M 53.81 26.98
	L 53.36 27.87
	L 52.55 28.45
	M 53.36 27.87
	L 52.9 28.76
	L 52.9 29.76
	M 52.9 28.76
	L 52.45 29.65
	L 52.45 30.65
	L 51.99 31.54
	M 52.45 30.65
	L 52.45 31.65
	M 52.45 29.65
	L 51.99 30.54
	L 51.99 31.54
	M 51.99 30.54
	L 51.54 31.43
	L 50.73 32.02
	L 49.74 32.17
	M 50.73 32.02
	L 49.92 32.61
	L 48.93 32.76
	L 47.98 32.45
	M 48.93 32.76
	L 47.95 32.92
	M 49.92 32.61
	L 49.11 33.19
	L 48.13 33.35
	M 49.11 33.19
	L 48.3 33.78
	L 47.85 34.67
	L 47.04 35.26
	M 47.85 34.67
	L 47.4 35.56
	M 48.3 33.78
	L 47.49 34.37
	L 46.51 34.53
	M 47.49 34.37
	L 46.69 34.96
	L 45.7 35.11
	L 44.75 34.8
	M 45.7 35.11
	L 44.71 35.27
	L 43.76 34.96
	L 43.05 34.25
	M 43.76 34.96
	L 42.81 34.65
	M 44.71 35.27
	L 43.72 35.43
	L 42.91 36.01
	M 43.72 35.43
	L 42.74 35.58
	M 46.69 34.96
	L 45.88 35.55
	L 44.89 35.7
	M 45.88 35.55
	L 45.07 36.13
	L 44.61 37.02
	M 45.07 36.13
	L 44.26 36.72
	L 43.8 37.61
	L 43 38.2
	M 43.8 37.61
	L 43.35 38.5
	M 44.26 36.72
	L 43.45 37.31
	L 42.46 37.47
	M 43.45 37.31
	L 42.64 37.9
	L 42.19 38.79
	M 42.64 37.9
	L 41.83 38.48
	M 51.54 31.43
	L 51.09 32.32
	L 51.09 33.32
	M 51.09 32.32
	L 50.63 33.21
	L 50.63 34.21
	L 51.09 35.1
	M 50.63 34.21
	L 50.63 35.21
	M 50.63 33.21
	L 50.18 34.1
	L 49.37 34.69
	M 50.18 34.1
	L 49.72 34.99
	L 49.72 35.99
	M 49.72 34.99
	L 49.27 35.89
	L 48.46 36.47
	L 47.47 36.63
	M 48.46 36.47
	L 47.65 37.06
	L 47.2 37.95
	L 46.39 38.54
	M 47.2 37.95
	L 46.74 38.84
	M 47.65 37.06
	L 46.84 37.65
	L 45.86 37.81
	M 46.84 37.65
	L 46.03 38.24
	M 49.27 35.89
	L 48.82 36.78
	L 48.82 37.78
	M 48.82 36.78
	L 48.36 37.67
	L 48.36 38.67
	L 47.91 39.56
	M 48.36 38.67
	L 48.36 39.67
	L 48.82 40.56
	M 48.36 39.67
	L 48.36 40.67
	M 48.36 37.67
	L 47.91 38.56
	L 47.91 39.56
	M 47.91 38.56
	L 47.45 39.45
	L 47.45 40.45
	L 47 41.34
	M 47.45 40.45
	L 47.45 41.45
	L 47.91 42.34
	L 48.72 42.93
	M 47.91 42.34
	L 48.36 43.23
	M 47.45 41.45
	L 47.45 42.45
	L 47.91 43.34
	M 47.45 42.45
	L 47.45 43.45
	M 47.45 39.45
	L 47 40.34
	L 47 41.34
	M 47 40.34
	L 46.55 41.23
	L 45.74 41.82
	L 44.75 41.98
	M 45.74 41.82
	L 44.93 42.41
	L 44.47 43.3
	M 44.93 42.41
	L 44.12 43
	M 46.55 41.23
	L 46.09 42.12
	L 45.28 42.71
	M 46.09 42.12
	L 45.64 43.01
	L 45.64 44.01
	L 45.18 44.9
	M 45.64 44.01
	L 45.64 45.01
	M 45.64 43.01
	L 45.18 43.9
	L 45.18 44.9
	M 45.18 43.9
	L 44.73 44.8
	L 43.92 45.38
	L 42.93 45.54
	M 43.92 45.38
	L 43.11 45.97
	L 42.66 46.86
	M 43.11 45.97
	L 42.3 46.56
	L 41.32 46.72
	L 40.36 46.41
	M 41.32 46.72
	L 40.33 46.87
	L 39.52 47.46
	M 40.33 46.87
	L 39.34 47.03
	M 42.3 46.56
	L 41.49 47.15
	L 40.51 47.3
	M 41.49 47.15
	L 40.69 47.73
	L 40.23 48.63
	M 40.69 47.73
	L 39.88 48.32
	L 39.42 49.21
	L 38.61 49.8
	M 39.42 49.21
	L 38.97 50.1
	L 38.97 51.1
	M 38.97 50.1
	L 38.51 51
	M 39.88 48.32
	L 39.07 48.91
	L 38.08 49.07
	M 39.07 48.91
	L 38.26 49.5
	L 37.8 50.39
	M 38.26 49.5
	L 37.45 50.09
	L 36.46 50.24
	L 35.51 49.93
	M 36.46 50.24
	L 35.47 50.4
	L 34.52 50.09
	L 33.53 50.25
	M 34.52 50.09
	L 33.57 49.78
	M 35.47 50.4
	L 34.49 50.56
	L 33.53 50.25
	M 34.49 50.56
	L 33.5 50.71
	L 32.69 51.3
	M 33.5 50.71
	L 32.51 50.87
	L 31.7 51.46
	L 30.71 51.61
	M 31.7 51.46
	L 30.89 52.04
	M 32.51 50.87
	L 31.52 51.02
	L 30.57 50.72
	M 31.52 51.02
	L 30.54 51.18
	M 37.45 50.09
	L 36.64 50.67
	L 35.65 50.83
	M 36.64 50.67
	L 35.83 51.26
	L 35.38 52.15
	M 35.83 51.26
	L 35.02 51.85
	L 34.03 52.01
	L 33.08 51.7
	M 34.03 52.01
	L 33.05 52.16
	L 32.24 52.75
	M 33.05 52.16
	L 32.06 52.32
	M 35.02 51.85
	L 34.21 52.44
	L 33.76 53.33
	M 34.21 52.44
	L 33.4 53.02
	L 32.95 53.92
	L 32.95 54.92
	M 32.95 53.92
	L 32.5 54.81
	M 33.4 53.02
	L 32.59 53.61
	L 31.61 53.77
	M 32.59 53.61
	L 31.79 54.2
	L 31.33 55.09
	M 31.79 54.2
	L 30.98 54.79
	L 30.52 55.68
	L 30.52 56.68
	M 30.52 55.68
	L 30.07 56.57
	L 29.26 57.16
	L 28.27 57.31
	M 29.26 57.16
	L 28.45 57.75
	M 30.07 56.57
	L 29.61 57.46
	L 28.81 58.05
	M 29.61 57.46
	L 29.16 58.35
	M 30.98 54.79
	L 30.17 55.38
	L 29.18 55.53
	M 30.17 55.38
	L 29.36 55.96
	L 28.9 56.85
	M 29.36 55.96
	L 28.55 56.55
	L 27.56 56.71
	L 26.61 56.4
	M 27.56 56.71
	L 26.57 56.86
	M 28.55 56.55
	L 27.74 57.14
	L 26.75 57.3
	M 27.74 57.14
	L 26.93 57.73
	L 25.94 57.88
	L 25.14 58.47
	M 25.94 57.88
	L 24.96 58.04
	L 24.01 57.73
	L 23.3 57.02
	M 24.01 57.73
	L 23.05 57.42
	L 22.07 57.58
	M 23.05 57.42
	L 22.1 57.11
	M 24.96 58.04
	L 23.97 58.2
	L 23.16 58.78
	M 23.97 58.2
	L 22.98 58.35
	L 22.17 58.94
	L 21.18 59.1
	M 22.17 58.94
	L 21.36 59.53
	L 20.91 60.42
	M 21.36 59.53
	L 20.55 60.12
	L 19.57 60.27
	L 18.62 59.96
	M 19.57 60.27
	L 18.58 60.43
	M 20.55 60.12
	L 19.74 60.7
	L 18.76 60.86
	M 19.74 60.7
	L 18.94 61.29
	L 18.48 62.18
	M 18.94 61.29
	L 18.13 61.88
	L 17.67 62.77
	L 17.67 63.77
	M 17.67 62.77
	L 17.22 63.66
	M 18.13 61.88
	L 17.32 62.47
	L 16.33 62.62
	M 17.32 62.47
	L 16.51 63.06
	L 16.05 63.95
	M 16.51 63.06
	L 15.7 63.64
	M 22.98 58.35
	L 21.99 58.51
	L 21.18 59.1
	M 21.99 58.51
	L 21.01 58.67
	L 20.05 58.36
	L 19.35 57.65
	M 20.05 58.36
	L 19.1 58.05
	M 21.01 58.67
	L 20.02 58.82
	L 19.07 58.51
	M 20.02 58.82
	L 19.03 58.98
	L 18.22 59.57
	M 19.03 58.98
	L 18.04 59.14
	L 17.23 59.72
	L 16.25 59.88
	M 17.23 59.72
	L 16.42 60.31
	L 15.97 61.2
	M 16.42 60.31
	L 15.62 60.9
	M 18.04 59.14
	L 17.05 59.29
	L 16.1 58.98
	M 17.05 59.29
	L 16.07 59.45
	M 26.93 57.73
	L 26.12 58.31
	L 25.14 58.47
	M 26.12 58.31
	L 25.31 58.9
	L 24.86 59.79
	M 25.31 58.9
	L 24.5 59.49
	L 23.52 59.65
	L 22.57 59.34
	M 23.52 59.65
	L 22.53 59.8
	M 24.5 59.49
	L 23.7 60.08
	L 23.24 60.97
	M 23.7 60.08
	L 22.89 60.67
	L 22.43 61.56
	L 22.43 62.56
	M 22.43 61.56
	L 21.98 62.45
	M 22.89 60.67
	L 22.08 61.25
	L 21.62 62.14
	M 22.08 61.25
	L 21.27 61.84
	L 20.28 62
	L 19.47 62.59
	M 20.28 62
	L 19.29 62.15
	L 18.48 62.74
	L 17.5 62.9
	M 18.48 62.74
	L 17.68 63.33
	L 17.22 64.22
	M 17.68 63.33
	L 16.87 63.92
	M 19.29 62.15
	L 18.31 62.31
	L 17.35 62
	M 18.31 62.31
	L 17.32 62.47
	L 16.51 63.06
	M 17.32 62.47
	L 16.33 62.62
	M 21.27 61.84
	L 20.46 62.43
	L 19.47 62.59
	M 20.46 62.43
	L 19.65 63.02
	L 18.66 63.17
	L 17.85 63.76
	M 18.66 63.17
	L 17.68 63.33
	M 19.65 63.02
	L 18.84 63.6
	L 18.39 64.5
	M 18.84 63.6
	L 18.03 64.19
	L 17.58 65.08
	L 16.77 65.67
	M 17.58 65.08
	L 17.12 65.97
	L 17.12 66.97
	M 17.12 65.97
	L 16.67 66.87
	M 18.03 64.19
	L 17.22 64.78
	L 16.24 64.94
	M 17.22 64.78
	L 16.41 65.37
	L 15.96 66.26
	L 15.96 67.26
	M 15.96 66.26
	L 15.51 67.15
	L 14.7 67.74
	L 14.24 68.63
	M 14.7 67.74
	L 13.89 68.33
	M 15.51 67.15
	L 15.05 68.04
	L 14.24 68.63
	M 15.05 68.04
	L 14.6 68.93
	L 13.79 69.52
	L 13.34 70.41
	M 13.79 69.52
	L 12.98 70.11
	L 11.99 70.26
	L 11.04 69.96
	M 11.99 70.26
	L 11.01 70.42
	L 10.2 71.01
	M 11.01 70.42
	L 10.02 70.58
	M 12.98 70.11
	L 12.17 70.7
	L 11.72 71.59
	M 12.17 70.7
	L 11.36 71.28
	L 10.91 72.17
	L 10.91 73.17
	M 10.91 72.17
	L 10.45 73.07
	M 11.36 71.28
	L 10.55 71.87
	L 10.1 72.76
	M 10.55 71.87
	L 9.745 72.46
	M 14.6 68.93
	L 14.14 69.82
	L 13.34 70.41
	M 14.14 69.82
	L 13.69 70.71
	L 13.69 71.71
	M 13.69 70.71
	L 13.24 71.61
	L 13.24 72.61
	L 12.78 73.5
	M 13.24 72.61
	L 13.24 73.61
	L 13.69 74.5
	M 13.24 73.61
	L 13.24 74.61
	M 13.24 71.61
	L 12.78 72.5
	L 12.78 73.5
	M 12.78 72.5
	L 12.33 73.39
	L 12.33 74.39
	L 12.78 75.28
	M 12.33 74.39
	L 12.33 75.39
	L 11.87 76.28
	L 11.87 77.28
	M 11.87 76.28
	L 11.42 77.17
	M 12.33 75.39
	L 12.33 76.39
	L 11.87 77.28
	M 12.33 76.39
	L 12.33 77.39
	M 12.33 73.39
	L 11.87 74.28
	L 11.87 75.28
	M 11.87 74.28
	L 11.42 75.17
	L 11.42 76.17
	L 10.97 77.06
	M 11.42 76.17
	L 11.42 77.17
	M 11.42 75.17
	L 10.97 76.06
	L 10.16 76.65
	M 10.97 76.06
	L 10.51 76.95
	M 16.41 65.37
	L 15.61 65.96
	L 15.15 66.85
	M 15.61 65.96
	L 14.8 66.54
	L 13.81 66.7
	L 12.86 66.39
	M 13.81 66.7
	L 12.82 66.86
	M 14.8 66.54
	L 13.99 67.13
	L 13.53 68.02
	M 13.99 67.13
	L 13.18 67.72
	L 12.72 68.61
	L 11.92 69.2
	M 12.72 68.61
	L 12.27 69.5
	M 13.18 67.72
	L 12.37 68.31
	L 11.92 69.2
	M 12.37 68.31
	L 11.56 68.9
	L 10.57 69.05
	L 9.622 68.74
	M 10.57 69.05
	L 9.585 69.21
	L 8.776 69.8
	M 9.585 69.21
	L 8.597 69.36
	L 7.646 69.06
	L 6.939 68.35
	M 7.646 69.06
	L 6.695 68.75
	M 8.597 69.36
	L 7.61 69.52
	L 6.659 69.21
	M 7.61 69.52
	L 6.622 69.68
	L 5.813 70.27
	M 6.622 69.68
	L 5.634 69.83
	L 4.825 70.42
	L 4.371 71.31
	M 4.825 70.42
	L 4.016 71.01
	M 5.634 69.83
	L 4.647 69.99
	L 3.696 69.68
	M 4.647 69.99
	L 3.659 70.15
	L 2.85 70.73
	M 3.659 70.15
	L 2.671 70.3
	M 11.56 68.9
	L 10.75 69.48
	L 9.764 69.64
	M 10.75 69.48
	L 9.942 70.07
	L 9.488 70.96
	M 9.942 70.07
	L 9.133 70.66
	L 8.146 70.81
	L 7.195 70.51
	M 8.146 70.81
	L 7.158 70.97
	L 6.349 71.56
	M 7.158 70.97
	L 6.17 71.13
	M 9.133 70.66
	L 8.324 71.25
	L 7.87 72.14
	M 8.324 71.25
	L 7.515 71.83
	L 7.061 72.72
	L 6.252 73.31
	M 7.061 72.72
	L 6.607 73.62
	M 7.515 71.83
	L 6.706 72.42
	L 6.252 73.31
	M 6.706 72.42
	L 5.897 73.01
	M 44.73 44.8
	L 44.28 45.69
	L 43.47 46.27
	M 44.28 45.69
	L 43.82 46.58
	L 43.01 47.17
	L 42.56 48.06
	M 43.01 47.17
	L 42.2 47.75
	M 43.82 46.58
	L 43.37 47.47
	L 42.56 48.06
	M 43.37 47.47
	L 42.91 48.36
	L 42.11 48.95
	L 41.65 49.84
	M 42.11 48.95
	L 41.3 49.54
	L 40.84 50.43
	L 40.03 51.01
	M 40.84 50.43
	L 40.39 51.32
	L 40.39 52.32
	M 40.39 51.32
	L 39.93 52.21
	M 41.3 49.54
	L 40.49 50.12
	L 39.5 50.28
	M 40.49 50.12
	L 39.68 50.71
	L 39.22 51.6
	M 39.68 50.71
	L 38.87 51.3
	M 42.91 48.36
	L 42.46 49.25
	L 42.46 50.25
	M 42.46 49.25
	L 42.01 50.14
	L 42.01 51.14
	L 42.46 52.03
	M 42.01 51.14
	L 42.01 52.14
	M 42.01 50.14
	L 41.55 51.03
	L 41.55 52.03
	M 41.55 51.03
	L 41.1 51.92
	L 40.29 52.51
	L 39.3 52.67
	M 40.29 52.51
	L 39.48 53.1
	L 38.49 53.26
	L 37.54 52.95
	M 38.49 53.26
	L 37.5 53.41
	L 36.7 54
	M 37.5 53.41
	L 36.52 53.57
	M 39.48 53.1
	L 38.67 53.69
	L 38.22 54.58
	M 38.67 53.69
	L 37.86 54.28
	L 37.41 55.17
	L 37.41 56.17
	M 37.41 55.17
	L 36.95 56.06
	M 37.86 54.28
	L 37.05 54.86
	L 36.07 55.02
	M 37.05 54.86
	L 36.24 55.45
	L 35.79 56.34
	L 35.79 57.34
	M 35.79 56.34
	L 35.34 57.23
	L 35.34 58.23
	L 35.79 59.12
	M 35.34 58.23
	L 35.34 59.23
	M 35.34 57.23
	L 34.88 58.12
	L 34.07 58.71
	M 34.88 58.12
	L 34.43 59.01
	M 36.24 55.45
	L 35.44 56.04
	L 34.45 56.19
	M 35.44 56.04
	L 34.63 56.63
	L 33.64 56.78
	L 32.83 57.37
	M 33.64 56.78
	L 32.65 56.94
	M 34.63 56.63
	L 33.82 57.21
	L 32.83 57.37
	M 33.82 57.21
	L 33.01 57.8
	M 41.1 51.92
	L 40.64 52.81
	L 40.64 53.81
	M 40.64 52.81
	L 40.19 53.71
	L 40.19 54.71
	L 39.74 55.6
	M 40.19 54.71
	L 40.19 55.71
	L 40.64 56.6
	M 40.19 55.71
	L 40.19 56.71
	M 40.19 53.71
	L 39.74 54.6
	L 39.74 55.6
	M 39.74 54.6
	L 39.28 55.49
	L 38.47 56.08
	L 37.49 56.23
	M 38.47 56.08
	L 37.66 56.66
	L 36.68 56.82
	L 35.73 56.51
	M 36.68 56.82
	L 35.69 56.98
	L 34.88 57.56
	M 35.69 56.98
	L 34.7 57.13
	M 37.66 56.66
	L 36.86 57.25
	L 35.87 57.41
	M 36.86 57.25
	L 36.05 57.84
	L 35.59 58.73
	M 36.05 57.84
	L 35.24 58.43
	L 34.78 59.32
	L 33.97 59.91
	M 34.78 59.32
	L 34.33 60.21
	L 34.33 61.21
	M 34.33 60.21
	L 33.88 61.1
	M 35.24 58.43
	L 34.43 59.01
	L 33.44 59.17
	M 34.43 59.01
	L 33.62 59.6
	L 33.17 60.49
	M 33.62 59.6
	L 32.81 60.19
	M 39.28 55.49
	L 38.83 56.38
	L 38.83 57.38
	M 38.83 56.38
	L 38.37 57.27
	L 38.37 58.27
	L 38.83 59.16
	M 38.37 58.27
	L 38.37 59.27
	M 38.37 57.27
	L 37.92 58.16
	L 37.92 59.16
	M 37.92 58.16
	L 37.47 59.05
	L 37.47 60.05
	L 37.92 60.94
	M 37.47 60.05
	L 37.47 61.05
	L 37.01 61.94
	L 37.01 62.94
	M 37.01 61.94
	L 36.56 62.83
	M 37.47 61.05
	L 37.47 62.05
	L 37.01 62.94
	M 37.47 62.05
	L 37.47 63.05
	L 37.92 63.94
	M 37.47 63.05
	L 37.47 64.05
	L 37.92 64.94
	L 37.92 65.94
	M 37.92 64.94
	L 38.37 65.83
	M 37.47 64.05
	L 37.47 65.05
	L 37.01 65.94
	M 37.47 65.05
	L 37.47 66.05
	L 37.92 66.94
	M 37.47 66.05
	L 37.47 67.05
	L 37.01 67.94
	L 37.01 68.94
	M 37.01 67.94
	L 36.56 68.83
	L 36.56 69.83
	L 37.01 70.72
	M 36.56 69.83
	L 36.56 70.83
	M 36.56 68.83
	L 36.1 69.72
	L 35.3 70.31
	M 36.1 69.72
	L 35.65 70.62
	L 35.65 71.62
	M 35.65 70.62
	L 35.2 71.51
	M 37.47 67.05
	L 37.47 68.05
	L 37.92 68.94
	M 37.47 68.05
	L 37.47 69.05
	L 37.01 69.94
	L 37.01 70.94
	M 37.01 69.94
	L 36.56 70.83
	M 37.47 69.05
	L 37.47 70.05
	L 37.01 70.94
	M 37.47 70.05
	L 37.47 71.05
	L 37.92 71.94
	M 37.47 71.05
	L 37.47 72.05
	L 37.92 72.94
	L 38.73 73.53
	M 37.92 72.94
	L 38.37 73.83
	M 37.47 72.05
	L 37.47 73.05
	L 37.92 73.94
	M 37.47 73.05
	L 37.47 74.05
	M 37.47 59.05
	L 37.01 59.94
	L 36.2 60.53
	M 37.01 59.94
	L 36.56 60.83
	L 36.56 61.83
	M 36.56 60.83
	L 36.1 61.72
	L 35.3 62.31
	L 34.84 63.2
	M 35.3 62.31
	L 34.49 62.9
	M 36.1 61.72
	L 35.65 62.62
	L 34.84 63.2
	M 35.65 62.62
	L 35.2 63.51
	L 35.2 64.51
	M 35.2 63.51
	L 34.74 64.4
	L 34.74 65.4
	L 34.29 66.29
	M 34.74 65.4
	L 34.74 66.4
	L 34.29 67.29
	L 33.48 67.88
	M 34.29 67.29
	L 33.83 68.18
	M 34.74 66.4
	L 34.74 67.4
	L 34.29 68.29
	M 34.74 67.4
	L 34.74 68.4
	L 35.2 69.29
	M 34.74 68.4
	L 34.74 69.4
	L 35.2 70.29
	L 35.2 71.29
	M 35.2 70.29
	L 35.65 71.18
	M 34.74 69.4
	L 34.74 70.4
	L 34.29 71.29
	M 34.74 70.4
	L 34.74 71.4
	L 35.2 72.29
	M 34.74 71.4
	L 34.74 72.4
	M 34.74 64.4
	L 34.29 65.29
	L 33.48 65.88
	M 34.29 65.29
	L 33.83 66.18
	L 33.83 67.18
	M 33.83 66.18
	L 33.38 67.07
	L 33.38 68.07
	L 32.93 68.96
	M 33.38 68.07
	L 33.38 69.07
	M 33.38 67.07
	L 32.93 67.96
	L 32.12 68.55
	M 32.93 67.96
	L 32.47 68.85
	M 56.99 20.74
	L 57.88 21.19
	L 58.77 21.65
	L 59.66 22.1
	L 60.55 22.55
	L 61.5 22.86
	L 62.45 23.17
	L 63.41 23.48
	L 64.36 23.79
	L 65.25 24.24
	L 66.14 24.7
	L 67.03 25.15
	L 67.92 25.61
	L 67.47 26.5
	L 66.66 27.09
	M 67.47 26.5
	L 67.01 27.39
	L 66.2 27.98
	L 65.22 28.13
	M 66.2 27.98
	L 65.39 28.56
	M 67.01 27.39
	L 66.56 28.28
	L 65.75 28.87
	M 66.56 28.28
	L 66.1 29.17
	L 65.3 29.76
	L 64.84 30.65
	M 65.3 29.76
	L 64.49 30.35
	L 63.5 30.5
	L 62.69 31.09
	M 63.5 30.5
	L 62.51 30.66
	M 64.49 30.35
	L 63.68 30.93
	L 62.69 31.09
	M 63.68 30.93
	L 62.87 31.52
	M 66.1 29.17
	L 65.65 30.06
	L 64.84 30.65
	M 65.65 30.06
	L 65.2 30.95
	L 64.39 31.54
	L 63.93 32.43
	M 64.39 31.54
	L 63.58 32.13
	M 65.2 30.95
	L 64.74 31.84
	L 64.74 32.84
	M 64.74 31.84
	L 64.29 32.73
	L 64.29 33.73
	L 64.74 34.63
	M 64.29 33.73
	L 64.29 34.73
	M 64.29 32.73
	L 63.83 33.63
	L 63.03 34.21
	M 63.83 33.63
	L 63.38 34.52
	L 63.38 35.52
	M 63.38 34.52
	L 62.93 35.41
	L 62.93 36.41
	L 62.47 37.3
	M 62.93 36.41
	L 62.93 37.41
	L 63.38 38.3
	M 62.93 37.41
	L 62.93 38.41
	L 63.38 39.3
	L 63.38 40.3
	M 63.38 39.3
	L 63.83 40.19
	M 62.93 38.41
	L 62.93 39.41
	L 62.47 40.3
	M 62.93 39.41
	L 62.93 40.41
	L 62.47 41.3
	L 61.66 41.89
	M 62.47 41.3
	L 62.02 42.19
	L 62.02 43.19
	M 62.02 42.19
	L 61.56 43.08
	L 60.76 43.67
	L 59.77 43.82
	M 60.76 43.67
	L 59.95 44.26
	L 59.49 45.15
	M 59.95 44.26
	L 59.14 44.84
	M 61.56 43.08
	L 61.11 43.97
	L 60.3 44.56
	M 61.11 43.97
	L 60.66 44.86
	L 60.66 45.86
	M 60.66 44.86
	L 60.2 45.75
	L 60.2 46.75
	L 59.75 47.64
	M 60.2 46.75
	L 60.2 47.75
	M 60.2 45.75
	L 59.75 46.64
	L 58.94 47.23
	M 59.75 46.64
	L 59.29 47.54
	M 62.93 40.41
	L 62.93 41.41
	L 62.47 42.3
	M 62.93 41.41
	L 62.93 42.41
	L 63.38 43.3
	M 62.93 42.41
	L 62.93 43.41
	L 63.38 44.3
	L 64.19 44.89
	M 63.38 44.3
	L 63.83 45.19
	M 62.93 43.41
	L 62.93 44.41
	L 62.47 45.3
	M 62.93 44.41
	L 62.93 45.41
	L 63.38 46.3
	L 64.19 46.89
	M 63.38 46.3
	L 63.83 47.19
	L 63.83 48.19
	L 64.29 49.08
	M 63.83 48.19
	L 63.83 49.19
	M 63.83 47.19
	L 64.29 48.08
	L 64.29 49.08
	M 64.29 48.08
	L 64.74 48.97
	M 62.93 45.41
	L 62.93 46.41
	L 63.38 47.3
	M 62.93 46.41
	L 62.93 47.41
	L 62.47 48.3
	L 62.47 49.3
	M 62.47 48.3
	L 62.02 49.19
	M 62.93 47.41
	L 62.93 48.41
	L 63.38 49.3
	M 62.93 48.41
	L 62.93 49.41
	L 63.38 50.3
	L 64.19 50.89
	M 63.38 50.3
	L 63.83 51.19
	M 62.93 49.41
	L 62.93 50.41
	L 62.47 51.3
	M 62.93 50.41
	L 62.93 51.41
	L 63.38 52.3
	M 62.93 51.41
	L 62.93 52.41
	M 62.93 35.41
	L 62.47 36.3
	L 61.66 36.89
	M 62.47 36.3
	L 62.02 37.19
	L 62.02 38.19
	L 61.56 39.08
	M 62.02 38.19
	L 62.02 39.19
	L 62.47 40.08
	M 62.02 39.19
	L 62.02 40.19
	M 62.02 37.19
	L 61.56 38.08
	L 60.76 38.67
	M 61.56 38.08
	L 61.11 38.97
	L 61.11 39.97
	M 61.11 38.97
	L 60.66 39.86
	L 59.85 40.45
	L 58.86 40.61
	M 59.85 40.45
	L 59.04 41.04
	L 58.58 41.93
	M 59.04 41.04
	L 58.23 41.63
	L 57.24 41.78
	L 56.29 41.47
	M 57.24 41.78
	L 56.25 41.94
	L 55.44 42.53
	M 56.25 41.94
	L 55.27 42.1
	M 58.23 41.63
	L 57.42 42.21
	L 56.43 42.37
	M 57.42 42.21
	L 56.61 42.8
	M 60.66 39.86
	L 60.2 40.75
	L 59.39 41.34
	M 60.2 40.75
	L 59.75 41.64
	L 59.75 42.64
	M 59.75 41.64
	L 59.29 42.54
	L 58.49 43.12
	L 57.5 43.28
	M 58.49 43.12
	L 57.68 43.71
	L 57.22 44.6
	M 57.68 43.71
	L 56.87 44.3
	M 59.29 42.54
	L 58.84 43.43
	L 58.03 44.01
	M 58.84 43.43
	L 58.39 44.32
	L 58.39 45.32
	L 58.84 46.21
	M 58.39 45.32
	L 58.39 46.32
	M 58.39 44.32
	L 57.93 45.21
	L 57.12 45.8
	M 57.93 45.21
	L 57.48 46.1
	L 56.67 46.69
	L 55.68 46.84
	M 56.67 46.69
	L 55.86 47.28
	L 55.41 48.17
	M 55.86 47.28
	L 55.05 47.86
	L 54.06 48.02
	L 53.25 48.61
	M 54.06 48.02
	L 53.08 48.18
	M 55.05 47.86
	L 54.24 48.45
	L 53.25 48.61
	M 54.24 48.45
	L 53.43 49.04
	L 52.98 49.93
	M 53.43 49.04
	L 52.62 49.63
	L 52.17 50.52
	L 52.17 51.52
	M 52.17 50.52
	L 51.72 51.41
	L 50.91 52
	L 50.45 52.89
	M 50.91 52
	L 50.1 52.58
	M 51.72 51.41
	L 51.26 52.3
	L 50.45 52.89
	M 51.26 52.3
	L 50.81 53.19
	L 50.81 54.19
	M 50.81 53.19
	L 50.35 54.08
	M 52.62 49.63
	L 51.82 50.21
	L 51.36 51.11
	M 51.82 50.21
	L 51.01 50.8
	L 50.02 50.96
	L 49.21 51.55
	M 50.02 50.96
	L 49.03 51.11
	M 51.01 50.8
	L 50.2 51.39
	L 49.21 51.55
	M 50.2 51.39
	L 49.39 51.98
	L 48.93 52.87
	M 49.39 51.98
	L 48.58 52.57
	L 48.13 53.46
	L 47.32 54.04
	M 48.13 53.46
	L 47.67 54.35
	L 47.67 55.35
	M 47.67 54.35
	L 47.22 55.24
	M 48.58 52.57
	L 47.77 53.15
	L 46.78 53.31
	M 47.77 53.15
	L 46.96 53.74
	L 46.51 54.63
	M 46.96 53.74
	L 46.15 54.33
	L 45.16 54.49
	L 44.21 54.18
	M 45.16 54.49
	L 44.18 54.64
	L 43.23 54.33
	L 42.24 54.49
	M 43.23 54.33
	L 42.27 54.02
	M 44.18 54.64
	L 43.19 54.8
	L 42.24 54.49
	M 43.19 54.8
	L 42.2 54.95
	L 41.39 55.54
	M 42.2 54.95
	L 41.21 55.11
	L 40.4 55.7
	L 39.42 55.86
	M 40.4 55.7
	L 39.6 56.29
	L 38.61 56.44
	L 37.66 56.13
	M 38.61 56.44
	L 37.62 56.6
	L 36.81 57.19
	M 37.62 56.6
	L 36.63 56.76
	M 39.6 56.29
	L 38.79 56.87
	L 37.8 57.03
	M 38.79 56.87
	L 37.98 57.46
	L 37.52 58.35
	M 37.98 57.46
	L 37.17 58.05
	L 36.71 58.94
	L 35.91 59.53
	M 36.71 58.94
	L 36.26 59.83
	M 37.17 58.05
	L 36.36 58.64
	L 35.37 58.79
	M 36.36 58.64
	L 35.55 59.23
	L 35.1 60.12
	M 35.55 59.23
	L 34.74 59.81
	M 41.21 55.11
	L 40.23 55.27
	L 39.28 54.96
	M 40.23 55.27
	L 39.24 55.42
	L 38.43 56.01
	L 37.44 56.17
	M 38.43 56.01
	L 37.62 56.6
	M 39.24 55.42
	L 38.25 55.58
	L 37.44 56.17
	M 38.25 55.58
	L 37.26 55.74
	M 46.15 54.33
	L 45.34 54.92
	L 44.89 55.81
	M 45.34 54.92
	L 44.53 55.5
	L 44.08 56.4
	L 43.27 56.98
	M 44.08 56.4
	L 43.63 57.29
	L 43.63 58.29
	M 43.63 57.29
	L 43.17 58.18
	M 44.53 55.5
	L 43.73 56.09
	L 43.27 56.98
	M 43.73 56.09
	L 42.92 56.68
	L 41.93 56.84
	L 40.98 56.53
	M 41.93 56.84
	L 40.94 56.99
	L 39.99 56.68
	L 39 56.84
	M 39.99 56.68
	L 39.04 56.37
	M 40.94 56.99
	L 39.95 57.15
	L 39.14 57.74
	M 39.95 57.15
	L 38.97 57.31
	M 42.92 56.68
	L 42.11 57.27
	L 41.65 58.16
	M 42.11 57.27
	L 41.3 57.86
	L 40.31 58.01
	L 39.36 57.7
	M 40.31 58.01
	L 39.32 58.17
	L 38.51 58.76
	M 39.32 58.17
	L 38.34 58.32
	M 41.3 57.86
	L 40.49 58.44
	L 39.5 58.6
	M 40.49 58.44
	L 39.68 59.03
	L 39.23 59.92
	M 39.68 59.03
	L 38.87 59.62
	L 38.42 60.51
	L 37.61 61.1
	M 38.42 60.51
	L 37.96 61.4
	L 37.15 61.99
	L 36.17 62.15
	M 37.15 61.99
	L 36.35 62.58
	M 37.96 61.4
	L 37.51 62.29
	L 37.51 63.29
	M 37.51 62.29
	L 37.06 63.18
	L 37.06 64.18
	L 36.6 65.07
	M 37.06 64.18
	L 37.06 65.18
	M 37.06 63.18
	L 36.6 64.07
	L 35.79 64.66
	M 36.6 64.07
	L 36.15 64.96
	L 35.34 65.55
	L 34.88 66.44
	M 35.34 65.55
	L 34.53 66.14
	L 33.54 66.3
	L 32.73 66.88
	M 33.54 66.3
	L 32.55 66.45
	M 34.53 66.14
	L 33.72 66.73
	L 32.73 66.88
	M 33.72 66.73
	L 32.91 67.32
	L 32.46 68.21
	M 32.91 67.32
	L 32.1 67.9
	M 36.15 64.96
	L 35.69 65.86
	L 35.69 66.86
	M 35.69 65.86
	L 35.24 66.75
	L 35.24 67.75
	L 34.79 68.64
	M 35.24 67.75
	L 35.24 68.75
	L 35.69 69.64
	M 35.24 68.75
	L 35.24 69.75
	M 35.24 66.75
	L 34.79 67.64
	L 34.79 68.64
	M 34.79 67.64
	L 34.33 68.53
	L 34.33 69.53
	L 34.79 70.42
	M 34.33 69.53
	L 34.33 70.53
	L 34.79 71.42
	L 35.59 72.01
	M 34.79 71.42
	L 35.24 72.31
	M 34.33 70.53
	L 34.33 71.53
	L 34.79 72.42
	M 34.33 71.53
	L 34.33 72.53
	M 34.33 68.53
	L 33.88 69.42
	L 33.88 70.42
	M 33.88 69.42
	L 33.42 70.31
	L 33.42 71.31
	L 32.97 72.2
	M 33.42 71.31
	L 33.42 72.31
	L 33.88 73.2
	M 33.42 72.31
	L 33.42 73.31
	M 33.42 70.31
	L 32.97 71.2
	L 32.16 71.79
	M 32.97 71.2
	L 32.52 72.09
	M 38.87 59.62
	L 38.06 60.21
	L 37.61 61.1
	M 38.06 60.21
	L 37.25 60.79
	L 36.27 60.95
	L 35.46 61.54
	M 36.27 60.95
	L 35.28 61.11
	M 37.25 60.79
	L 36.44 61.38
	L 35.46 61.54
	M 36.44 61.38
	L 35.63 61.97
	L 35.18 62.86
	M 35.63 61.97
	L 34.83 62.56
	L 34.37 63.45
	L 33.56 64.04
	M 34.37 63.45
	L 33.92 64.34
	L 33.92 65.34
	M 33.92 64.34
	L 33.46 65.23
	M 34.83 62.56
	L 34.02 63.15
	L 33.03 63.3
	M 34.02 63.15
	L 33.21 63.73
	L 32.75 64.62
	M 33.21 63.73
	L 32.4 64.32
	L 31.94 65.21
	L 31.94 66.21
	M 31.94 65.21
	L 31.49 66.1
	L 31.49 67.1
	L 31.04 67.99
	M 31.49 67.1
	L 31.49 68.1
	L 31.94 68.99
	M 31.49 68.1
	L 31.49 69.1
	M 31.49 66.1
	L 31.04 66.99
	L 31.04 67.99
	M 31.04 66.99
	L 30.58 67.89
	M 32.4 64.32
	L 31.59 64.91
	L 30.6 65.07
	M 31.59 64.91
	L 30.78 65.5
	L 29.79 65.65
	L 28.84 65.34
	M 29.79 65.65
	L 28.81 65.81
	L 28 66.4
	M 28.81 65.81
	L 27.82 65.97
	M 30.78 65.5
	L 29.97 66.08
	L 29.52 66.98
	M 29.97 66.08
	L 29.16 66.67
	M 57.48 46.1
	L 57.02 46.99
	L 57.02 47.99
	M 57.02 46.99
	L 56.57 47.88
	L 55.76 48.47
	L 54.77 48.63
	M 55.76 48.47
	L 54.95 49.06
	L 54.5 49.95
	M 54.95 49.06
	L 54.14 49.65
	M 56.57 47.88
	L 56.12 48.77
	L 55.31 49.36
	M 56.12 48.77
	L 55.66 49.66
	L 55.66 50.66
	M 55.66 49.66
	L 55.21 50.55
	L 55.21 51.55
	L 55.66 52.45
	M 55.21 51.55
	L 55.21 52.55
	L 54.75 53.45
	L 54.75 54.45
	M 54.75 53.45
	L 54.3 54.34
	M 55.21 52.55
	L 55.21 53.55
	L 54.75 54.45
	M 55.21 53.55
	L 55.21 54.55
	M 55.21 50.55
	L 54.75 51.45
	L 53.95 52.03
	M 54.75 51.45
	L 54.3 52.34
	L 53.49 52.92
	L 53.04 53.82
	M 53.49 52.92
	L 52.68 53.51
	M 54.3 52.34
	L 53.85 53.23
	L 53.85 54.23
	M 53.85 53.23
	L 53.39 54.12
	L 52.58 54.71
	L 51.6 54.86
	M 52.58 54.71
	L 51.77 55.29
	L 51.32 56.19
	M 51.77 55.29
	L 50.97 55.88
	L 49.98 56.04
	L 49.03 55.73
	M 49.98 56.04
	L 48.99 56.2
	L 48.18 56.78
	M 48.99 56.2
	L 48 56.35
	M 50.97 55.88
	L 50.16 56.47
	L 49.17 56.63
	M 50.16 56.47
	L 49.35 57.06
	L 48.89 57.95
	L 48.08 58.54
	M 48.89 57.95
	L 48.44 58.84
	L 48.44 59.84
	M 48.44 58.84
	L 47.99 59.73
	M 49.35 57.06
	L 48.54 57.65
	L 47.55 57.8
	M 48.54 57.65
	L 47.73 58.23
	L 47.28 59.12
	M 47.73 58.23
	L 46.92 58.82
	L 46.47 59.71
	L 45.66 60.3
	M 46.47 59.71
	L 46.01 60.6
	L 46.01 61.6
	M 46.01 60.6
	L 45.56 61.49
	L 44.75 62.08
	L 43.76 62.24
	M 44.75 62.08
	L 43.94 62.67
	M 45.56 61.49
	L 45.1 62.39
	L 44.3 62.97
	M 45.1 62.39
	L 44.65 63.28
	M 46.92 58.82
	L 46.11 59.41
	L 45.12 59.57
	M 46.11 59.41
	L 45.3 60
	L 44.31 60.15
	L 43.51 60.74
	M 44.31 60.15
	L 43.33 60.31
	M 45.3 60
	L 44.49 60.58
	L 44.04 61.48
	M 44.49 60.58
	L 43.68 61.17
	M 53.39 54.12
	L 52.94 55.01
	L 52.13 55.6
	M 52.94 55.01
	L 52.48 55.9
	L 52.48 56.9
	M 52.48 55.9
	L 52.03 56.79
	L 52.03 57.79
	L 51.58 58.68
	M 52.03 57.79
	L 52.03 58.79
	M 52.03 56.79
	L 51.58 57.68
	L 50.77 58.27
	M 51.58 57.68
	L 51.12 58.57
	L 51.12 59.57
	M 51.12 58.57
	L 50.67 59.46
	L 49.86 60.05
	L 49.41 60.94
	M 49.86 60.05
	L 49.05 60.64
	L 48.6 61.53
	L 47.79 62.12
	M 48.6 61.53
	L 48.14 62.42
	M 49.05 60.64
	L 48.24 61.23
	L 47.25 61.38
	M 48.24 61.23
	L 47.43 61.82
	M 50.67 59.46
	L 50.21 60.36
	L 50.21 61.36
	M 50.21 60.36
	L 49.76 61.25
	L 48.95 61.83
	L 47.96 61.99
	M 48.95 61.83
	L 48.14 62.42
	M 49.76 61.25
	L 49.31 62.14
	L 48.5 62.73
	M 49.31 62.14
	L 48.85 63.03
	L 48.85 64.03
	M 48.85 63.03
	L 48.4 63.92
	L 48.4 64.92
	L 47.94 65.81
	M 48.4 64.92
	L 48.4 65.92
	M 48.4 63.92
	L 47.94 64.81
	L 47.14 65.4
	M 47.94 64.81
	L 47.49 65.7
	L 47.49 66.7
	M 47.49 65.7
	L 47.04 66.59
	L 47.04 67.59
	L 47.49 68.48
	M 47.04 67.59
	L 47.04 68.59
	L 46.58 69.48
	L 46.58 70.48
	M 46.58 69.48
	L 46.13 70.37
	M 47.04 68.59
	L 47.04 69.59
	L 46.58 70.48
	M 47.04 69.59
	L 47.04 70.59
	L 47.49 71.48
	L 48.3 72.07
	M 47.49 71.48
	L 47.94 72.37
	M 47.04 70.59
	L 47.04 71.59
	L 47.49 72.48
	M 47.04 71.59
	L 47.04 72.59
	M 47.04 66.59
	L 46.58 67.48
	L 46.58 68.48
	M 46.58 67.48
	L 46.13 68.37
	L 46.13 69.37
	L 46.58 70.27
	M 46.13 69.37
	L 46.13 70.37
	M 46.13 68.37
	L 45.67 69.27
	L 44.87 69.85
	M 45.67 69.27
	L 45.22 70.16
	L 45.22 71.16
	L 44.77 72.05
	M 45.22 71.16
	L 45.22 72.16
	L 45.67 73.05
	M 45.22 72.16
	L 45.22 73.16
	L 44.77 74.05
	L 43.96 74.64
	M 44.77 74.05
	L 44.31 74.94
	M 45.22 73.16
	L 45.22 74.16
	L 44.77 75.05
	M 45.22 74.16
	L 45.22 75.16
	L 45.67 76.05
	L 46.48 76.64
	M 45.67 76.05
	L 46.13 76.94
	M 45.22 75.16
	L 45.22 76.16
	L 44.77 77.05
	M 45.22 76.16
	L 45.22 77.16
	L 44.77 78.05
	L 43.96 78.64
	M 44.77 78.05
	L 44.31 78.94
	L 44.31 79.94
	M 44.31 78.94
	L 43.86 79.83
	L 43.05 80.42
	L 42.6 81.31
	M 43.05 80.42
	L 42.24 81.01
	M 43.86 79.83
	L 43.4 80.72
	L 43.4 81.72
	M 43.4 80.72
	L 42.95 81.61
	M 45.22 77.16
	L 45.22 78.16
	L 45.67 79.05
	M 45.22 78.16
	L 45.22 79.16
	L 45.67 80.05
	L 46.48 80.64
	M 45.67 80.05
	L 46.13 80.94
	M 45.22 79.16
	L 45.22 80.16
	L 44.77 81.05
	M 45.22 80.16
	L 45.22 81.16
	L 45.67 82.05
	M 45.22 81.16
	L 45.22 82.16
	M 45.22 70.16
	L 44.77 71.05
	L 43.96 71.64
	M 44.77 71.05
	L 44.31 71.94
	L 44.31 72.94
	L 43.86 73.83
	M 44.31 72.94
	L 44.31 73.94
	M 44.31 71.94
	L 43.86 72.83
	L 43.05 73.42
	M 43.86 72.83
	L 43.4 73.72
	L 42.6 74.31
	L 42.14 75.2
	M 42.6 74.31
	L 41.79 74.9
	L 40.8 75.05
	L 39.85 74.74
	M 40.8 75.05
	L 39.81 75.21
	L 39 75.8
	M 39.81 75.21
	L 38.82 75.37
	M 41.79 74.9
	L 40.98 75.48
	L 39.99 75.64
	M 40.98 75.48
	L 40.17 76.07
	L 39.71 76.96
	M 40.17 76.07
	L 39.36 76.66
	M 43.4 73.72
	L 42.95 74.61
	L 42.95 75.61
	M 42.95 74.61
	L 42.5 75.5
	L 41.69 76.09
	L 40.7 76.25
	M 41.69 76.09
	L 40.88 76.68
	L 40.42 77.57
	M 40.88 76.68
	L 40.07 77.27
	M 42.5 75.5
	L 42.04 76.39
	L 41.23 76.98
	M 42.04 76.39
	L 41.59 77.29
	L 41.59 78.29
	L 41.13 79.18
	M 41.59 78.29
	L 41.59 79.29
	L 42.04 80.18
	M 41.59 79.29
	L 41.59 80.29
	L 41.13 81.18
	L 41.13 82.18
	M 41.13 81.18
	L 40.68 82.07
	M 41.59 80.29
	L 41.59 81.29
	L 42.04 82.18
	M 41.59 81.29
	L 41.59 82.29
	L 42.04 83.18
	L 42.85 83.76
	M 42.04 83.18
	L 42.5 84.07
	M 41.59 82.29
	L 41.59 83.29
	L 41.13 84.18
	M 41.59 83.29
	L 41.59 84.29
	L 42.04 85.18
	M 41.59 84.29
	L 41.59 85.29
	M 41.59 77.29
	L 41.13 78.18
	L 40.33 78.76
	M 41.13 78.18
	L 40.68 79.07
	L 39.87 79.65
	L 38.88 79.81
	M 39.87 79.65
	L 39.06 80.24
	L 38.61 81.13
	M 39.06 80.24
	L 38.25 80.83
	M 40.68 79.07
	L 40.23 79.96
	L 40.23 80.96
	M 40.23 79.96
	L 39.77 80.85
	M 67.92 25.61
	L 68.81 26.06
	L 69.7 26.51
	L 70.59 26.97
	L 71.48 27.42
	L 72.29 28.01
	L 73.1 28.6
	L 73.91 29.19
	L 74.72 29.77
	L 75.43 30.48
	L 76.13 31.19
	L 76.84 31.9
	L 77.55 32.6
	L 78.14 33.41
	L 78.72 34.22
	L 79.31 35.03
	L 79.9 35.84
	L 80.35 36.73
	L 80.81 37.62
	L 81.26 38.51
	L 81.72 39.4
	L 80.82 39.86
	L 79.82 39.86
	M 80.82 39.86
	L 79.93 40.31
	L 78.93 40.31
	L 78.04 39.86
	M 78.93 40.31
	L 77.93 40.31
	M 79.93 40.31
	L 79.04 40.76
	L 78.04 40.76
	M 79.04 40.76
	L 78.15 41.22
	L 77.56 42.03
	M 78.15 41.22
	L 77.26 41.67
	L 76.67 42.48
	L 76.52 43.47
	M 76.67 42.48
	L 76.09 43.29
	L 75.19 43.74
	L 74.61 44.55
	M 75.19 43.74
	L 74.3 44.2
	M 76.09 43.29
	L 75.5 44.1
	L 75.34 45.09
	M 75.5 44.1
	L 74.91 44.91
	L 74.75 45.9
	L 75.06 46.85
	M 74.75 45.9
	L 74.6 46.88
	M 74.91 44.91
	L 74.32 45.72
	L 74.17 46.71
	M 74.32 45.72
	L 73.73 46.53
	M 77.26 41.67
	L 76.37 42.13
	L 75.78 42.94
	M 76.37 42.13
	L 75.48 42.58
	L 74.48 42.58
	L 73.59 42.13
	M 74.48 42.58
	L 73.48 42.58
	L 72.59 43.03
	M 73.48 42.58
	L 72.48 42.58
	M 75.48 42.58
	L 74.59 43.03
	L 73.59 43.03
	M 74.59 43.03
	L 73.7 43.49
	L 73.11 44.3
	L 72.22 44.75
	M 73.11 44.3
	L 72.52 45.11
	L 72.36 46.09
	M 72.52 45.11
	L 71.93 45.92
	M 73.7 43.49
	L 72.81 43.94
	L 72.22 44.75
	M 72.81 43.94
	L 71.91 44.4
	L 71.33 45.21
	L 70.44 45.66
	M 71.33 45.21
	L 70.74 46.01
	L 70.58 47
	M 70.74 46.01
	L 70.15 46.82
	L 69.26 47.28
	L 68.67 48.09
	M 69.26 47.28
	L 68.37 47.73
	M 70.15 46.82
	L 69.56 47.63
	L 68.67 48.09
	M 69.56 47.63
	L 68.98 48.44
	L 68.82 49.43
	M 68.98 48.44
	L 68.39 49.25
	L 67.5 49.7
	L 66.5 49.7
	M 67.5 49.7
	L 66.61 50.16
	L 66.02 50.97
	M 66.61 50.16
	L 65.72 50.61
	L 64.72 50.61
	L 63.82 50.16
	M 64.72 50.61
	L 63.72 50.61
	M 65.72 50.61
	L 64.82 51.07
	L 63.82 51.07
	M 64.82 51.07
	L 63.93 51.52
	M 68.39 49.25
	L 67.8 50.06
	L 67.64 51.05
	M 67.8 50.06
	L 67.21 50.87
	L 66.32 51.32
	L 65.32 51.32
	M 66.32 51.32
	L 65.43 51.78
	M 67.21 50.87
	L 66.62 51.68
	L 65.73 52.13
	M 66.62 51.68
	L 66.04 52.49
	L 65.88 53.47
	M 66.04 52.49
	L 65.45 53.3
	L 65.29 54.28
	L 64.7 55.09
	M 65.29 54.28
	L 65.14 55.27
	L 65.45 56.22
	L 65.29 57.21
	M 65.45 56.22
	L 65.75 57.17
	M 65.14 55.27
	L 64.98 56.26
	L 64.39 57.07
	M 64.98 56.26
	L 64.82 57.25
	M 65.45 53.3
	L 64.86 54.1
	L 63.97 54.56
	M 64.86 54.1
	L 64.27 54.91
	L 64.12 55.9
	L 63.53 56.71
	M 64.12 55.9
	L 63.96 56.89
	M 64.27 54.91
	L 63.69 55.72
	L 63.53 56.71
	M 63.69 55.72
	L 63.1 56.53
	M 71.91 44.4
	L 71.02 44.85
	L 70.44 45.66
	M 71.02 44.85
	L 70.13 45.3
	L 69.13 45.3
	L 68.24 45.76
	M 69.13 45.3
	L 68.13 45.3
	M 70.13 45.3
	L 69.24 45.76
	L 68.65 46.57
	M 69.24 45.76
	L 68.35 46.21
	L 67.76 47.02
	L 66.87 47.48
	M 67.76 47.02
	L 67.18 47.83
	L 67.02 48.82
	M 67.18 47.83
	L 66.59 48.64
	M 68.35 46.21
	L 67.46 46.67
	L 66.46 46.67
	M 67.46 46.67
	L 66.57 47.12
	L 65.98 47.93
	M 66.57 47.12
	L 65.68 47.57
	L 64.68 47.57
	L 63.79 48.03
	M 64.68 47.57
	L 63.68 47.57
	L 62.79 47.12
	L 61.79 47.12
	M 62.79 47.12
	L 61.9 46.67
	M 63.68 47.57
	L 62.68 47.57
	L 61.79 48.03
	M 62.68 47.57
	L 61.68 47.57
	L 60.79 48.03
	L 59.79 48.03
	M 60.79 48.03
	L 59.9 48.48
	L 59.31 49.29
	M 59.9 48.48
	L 59 48.94
	M 61.68 47.57
	L 60.68 47.57
	L 59.79 47.12
	M 60.68 47.57
	L 59.68 47.57
	L 58.79 48.03
	M 59.68 47.57
	L 58.68 47.57
	M 65.68 47.57
	L 64.79 48.03
	L 63.79 48.03
	M 64.79 48.03
	L 63.9 48.48
	L 62.9 48.48
	L 62 48.03
	M 62.9 48.48
	L 61.9 48.48
	M 63.9 48.48
	L 63 48.94
	L 62.42 49.75
	M 63 48.94
	L 62.11 49.39
	L 61.53 50.2
	L 60.63 50.65
	M 61.53 50.2
	L 60.94 51.01
	L 60.78 52
	M 60.94 51.01
	L 60.35 51.82
	L 59.46 52.27
	L 58.46 52.27
	M 59.46 52.27
	L 58.57 52.73
	L 57.98 53.53
	M 58.57 52.73
	L 57.68 53.18
	M 60.35 51.82
	L 59.76 52.63
	L 58.87 53.08
	M 59.76 52.63
	L 59.17 53.44
	L 59.02 54.42
	M 59.17 53.44
	L 58.59 54.24
	M 62.11 49.39
	L 61.22 49.84
	L 60.22 49.84
	M 61.22 49.84
	L 60.33 50.3
	L 59.74 51.11
	M 60.33 50.3
	L 59.44 50.75
	L 58.44 50.75
	L 57.55 50.3
	M 58.44 50.75
	L 57.44 50.75
	L 56.55 51.21
	M 57.44 50.75
	L 56.44 50.75
	M 59.44 50.75
	L 58.55 51.21
	L 57.55 51.21
	M 58.55 51.21
	L 57.66 51.66
	L 57.07 52.47
	M 57.66 51.66
	L 56.77 52.11
	L 56.18 52.92
	L 55.29 53.38
	M 56.18 52.92
	L 55.59 53.73
	M 56.77 52.11
	L 55.88 52.57
	L 54.88 52.57
	M 55.88 52.57
	L 54.99 53.02
	L 54.4 53.83
	M 54.99 53.02
	L 54.09 53.48
	L 53.09 53.48
	L 52.2 53.93
	M 53.09 53.48
	L 52.09 53.48
	L 51.2 53.93
	L 50.2 53.93
	M 51.2 53.93
	L 50.31 54.38
	L 49.72 55.19
	M 50.31 54.38
	L 49.42 54.84
	M 52.09 53.48
	L 51.09 53.48
	L 50.2 53.93
	M 51.09 53.48
	L 50.09 53.48
	L 49.2 53.02
	L 48.2 53.02
	M 49.2 53.02
	L 48.31 52.57
	L 47.72 51.76
	L 46.83 51.31
	M 47.72 51.76
	L 47.14 50.95
	M 48.31 52.57
	L 47.42 52.11
	L 46.83 51.31
	M 47.42 52.11
	L 46.53 51.66
	L 45.53 51.66
	M 46.53 51.66
	L 45.64 51.21
	L 44.64 51.21
	L 43.75 51.66
	M 44.64 51.21
	L 43.64 51.21
	M 45.64 51.21
	L 44.75 50.75
	L 43.75 50.75
	M 44.75 50.75
	L 43.86 50.3
	M 50.09 53.48
	L 49.09 53.48
	L 48.2 53.93
	M 49.09 53.48
	L 48.09 53.48
	L 47.2 53.02
	L 46.2 53.02
	M 47.2 53.02
	L 46.31 52.57
	M 48.09 53.48
	L 47.09 53.48
	L 46.2 53.93
	M 47.09 53.48
	L 46.09 53.48
	L 45.2 53.93
	L 44.62 54.74
	M 45.2 53.93
	L 44.31 54.38
	M 46.09 53.48
	L 45.09 53.48
	L 44.2 53.02
	M 45.09 53.48
	L 44.09 53.48
	L 43.2 53.93
	M 44.09 53.48
	L 43.09 53.48
	L 42.2 53.02
	L 41.2 53.02
	M 42.2 53.02
	L 41.31 52.57
	L 40.72 51.76
	L 39.83 51.31
	M 40.72 51.76
	L 40.14 50.95
	M 41.31 52.57
	L 40.42 52.11
	L 39.42 52.11
	M 40.42 52.11
	L 39.53 51.66
	L 38.53 51.66
	L 37.64 51.21
	M 38.53 51.66
	L 37.53 51.66
	L 36.64 52.11
	M 37.53 51.66
	L 36.53 51.66
	M 39.53 51.66
	L 38.64 51.21
	L 38.05 50.4
	M 38.64 51.21
	L 37.75 50.75
	L 36.75 50.75
	L 35.86 51.21
	M 36.75 50.75
	L 35.75 50.75
	L 34.86 51.21
	L 34.27 52.02
	M 34.86 51.21
	L 33.97 51.66
	M 35.75 50.75
	L 34.75 50.75
	L 33.86 50.3
	M 34.75 50.75
	L 33.75 50.75
	M 37.75 50.75
	L 36.86 50.3
	L 35.86 50.3
	M 36.86 50.3
	L 35.97 49.84
	L 34.97 49.84
	L 34.08 50.3
	M 34.97 49.84
	L 33.97 49.84
	M 35.97 49.84
	L 35.08 49.39
	L 34.08 49.39
	M 35.08 49.39
	L 34.18 48.94
	M 43.09 53.48
	L 42.09 53.48
	L 41.2 53.02
	M 42.09 53.48
	L 41.09 53.48
	L 40.2 53.02
	L 39.2 53.02
	M 40.2 53.02
	L 39.31 52.57
	M 41.09 53.48
	L 40.09 53.48
	L 39.2 53.02
	M 40.09 53.48
	L 39.09 53.48
	L 38.2 53.93
	L 37.62 54.74
	M 38.2 53.93
	L 37.31 54.38
	L 36.31 54.38
	L 35.42 54.84
	M 36.31 54.38
	L 35.31 54.38
	M 37.31 54.38
	L 36.42 54.84
	L 35.42 54.84
	M 36.42 54.84
	L 35.53 55.29
	L 34.94 56.1
	M 35.53 55.29
	L 34.64 55.75
	L 34.05 56.55
	L 33.16 57.01
	M 34.05 56.55
	L 33.46 57.36
	L 33.31 58.35
	M 33.46 57.36
	L 32.88 58.17
	M 34.64 55.75
	L 33.75 56.2
	L 32.75 56.2
	M 33.75 56.2
	L 32.86 56.65
	M 39.09 53.48
	L 38.09 53.48
	L 37.2 53.93
	M 38.09 53.48
	L 37.09 53.48
	L 36.2 53.02
	L 35.2 53.02
	M 36.2 53.02
	L 35.31 52.57
	M 37.09 53.48
	L 36.09 53.48
	L 35.2 53.02
	M 36.09 53.48
	L 35.09 53.48
	L 34.2 53.93
	M 35.09 53.48
	L 34.09 53.48
	L 33.2 53.93
	L 32.2 53.93
	M 33.2 53.93
	L 32.31 54.38
	L 31.72 55.19
	M 32.31 54.38
	L 31.42 54.84
	M 34.09 53.48
	L 33.09 53.48
	L 32.2 53.93
	M 33.09 53.48
	L 32.09 53.48
	M 54.09 53.48
	L 53.2 53.93
	L 52.2 53.93
	M 53.2 53.93
	L 52.31 54.38
	L 51.31 54.38
	L 50.42 53.93
	M 51.31 54.38
	L 50.31 54.38
	L 49.42 54.84
	M 50.31 54.38
	L 49.31 54.38
	M 52.31 54.38
	L 51.42 54.84
	L 50.83 55.65
	M 51.42 54.84
	L 50.53 55.29
	L 49.94 56.1
	L 49.79 57.09
	M 49.94 56.1
	L 49.36 56.91
	M 50.53 55.29
	L 49.64 55.75
	L 49.05 56.55
	M 49.64 55.75
	L 48.75 56.2
	L 47.75 56.2
	L 46.86 55.75
	M 47.75 56.2
	L 46.75 56.2
	L 45.86 56.65
	M 46.75 56.2
	L 45.75 56.2
	L 44.86 56.65
	L 43.86 56.65
	M 44.86 56.65
	L 43.97 57.11
	M 45.75 56.2
	L 44.75 56.2
	L 43.86 55.75
	M 44.75 56.2
	L 43.75 56.2
	L 42.86 56.65
	M 43.75 56.2
	L 42.75 56.2
	M 48.75 56.2
	L 47.86 56.65
	L 46.86 56.65
	M 47.86 56.65
	L 46.97 57.11
	L 45.97 57.11
	L 45.08 56.65
	M 45.97 57.11
	L 44.97 57.11
	M 46.97 57.11
	L 46.08 57.56
	L 45.08 57.56
	M 46.08 57.56
	L 45.18 58.02
	L 44.6 58.82
	M 45.18 58.02
	L 44.29 58.47
	L 43.71 59.28
	L 42.81 59.73
	M 43.71 59.28
	L 43.12 60.09
	L 42.96 61.08
	M 43.12 60.09
	L 42.53 60.9
	L 41.64 61.35
	L 41.05 62.16
	M 41.64 61.35
	L 40.75 61.8
	M 42.53 60.9
	L 41.94 61.71
	L 41.05 62.16
	M 41.94 61.71
	L 41.35 62.51
	L 41.2 63.5
	M 41.35 62.51
	L 40.77 63.32
	L 40.61 64.31
	L 40.92 65.26
	M 40.61 64.31
	L 40.45 65.3
	M 40.77 63.32
	L 40.18 64.13
	L 39.29 64.59
	M 40.18 64.13
	L 39.59 64.94
	M 44.29 58.47
	L 43.4 58.92
	L 42.4 58.92
	M 43.4 58.92
	L 42.51 59.38
	L 41.92 60.19
	L 41.03 60.64
	M 41.92 60.19
	L 41.34 61
	M 42.51 59.38
	L 41.62 59.83
	L 40.62 59.83
	M 41.62 59.83
	L 40.73 60.29
	L 40.14 61.09
	M 40.73 60.29
	L 39.84 60.74
	L 38.84 60.74
	L 37.95 60.29
	M 38.84 60.74
	L 37.84 60.74
	L 36.95 61.19
	M 37.84 60.74
	L 36.84 60.74
	L 35.95 60.29
	L 35.36 59.48
	M 35.95 60.29
	L 35.06 59.83
	L 34.06 59.83
	M 35.06 59.83
	L 34.17 59.38
	M 36.84 60.74
	L 35.84 60.74
	L 34.95 60.29
	M 35.84 60.74
	L 34.84 60.74
	L 33.95 61.19
	M 34.84 60.74
	L 33.84 60.74
	L 32.95 61.19
	L 32.36 62
	M 32.95 61.19
	L 32.06 61.65
	M 33.84 60.74
	L 32.84 60.74
	L 31.95 60.29
	M 32.84 60.74
	L 31.84 60.74
	L 30.95 60.29
	L 30.36 59.48
	M 30.95 60.29
	L 30.06 59.83
	L 29.06 59.83
	M 30.06 59.83
	L 29.17 59.38
	L 28.58 58.57
	L 27.69 58.11
	M 28.58 58.57
	L 27.99 57.76
	M 29.17 59.38
	L 28.27 58.92
	L 27.69 58.11
	M 28.27 58.92
	L 27.38 58.47
	L 26.38 58.47
	L 25.49 58.02
	M 26.38 58.47
	L 25.38 58.47
	L 24.49 58.92
	M 25.38 58.47
	L 24.38 58.47
	M 27.38 58.47
	L 26.49 58.02
	L 25.9 57.21
	M 26.49 58.02
	L 25.6 57.56
	M 31.84 60.74
	L 30.84 60.74
	L 29.95 61.19
	M 30.84 60.74
	L 29.84 60.74
	L 28.95 60.29
	L 28.36 59.48
	M 28.95 60.29
	L 28.06 59.83
	M 29.84 60.74
	L 28.84 60.74
	L 27.95 61.19
	M 28.84 60.74
	L 27.84 60.74
	L 26.95 61.19
	L 25.95 61.19
	M 26.95 61.19
	L 26.06 61.65
	L 25.47 62.46
	M 26.06 61.65
	L 25.17 62.1
	M 27.84 60.74
	L 26.84 60.74
	L 25.95 60.29
	M 26.84 60.74
	L 25.84 60.74
	L 24.95 61.19
	M 25.84 60.74
	L 24.84 60.74
	L 23.95 61.19
	L 22.95 61.19
	M 23.95 61.19
	L 23.06 61.65
	L 22.47 62.46
	M 23.06 61.65
	L 22.17 62.1
	L 21.17 62.1
	L 20.27 62.56
	M 21.17 62.1
	L 20.17 62.1
	M 22.17 62.1
	L 21.27 62.56
	L 20.69 63.36
	M 21.27 62.56
	L 20.38 63.01
	L 19.8 63.82
	L 19.64 64.81
	M 19.8 63.82
	L 19.21 64.63
	M 20.38 63.01
	L 19.49 63.46
	L 18.9 64.27
	M 19.49 63.46
	L 18.6 63.92
	M 24.84 60.74
	L 23.84 60.74
	L 22.95 60.29
	M 23.84 60.74
	L 22.84 60.74
	L 21.95 61.19
	M 22.84 60.74
	L 21.84 60.74
	L 20.95 60.29
	L 19.95 60.29
	M 20.95 60.29
	L 20.06 59.83
	M 21.84 60.74
	L 20.84 60.74
	L 19.95 60.29
	M 20.84 60.74
	L 19.84 60.74
	L 18.95 61.19
	L 18.36 62
	M 18.95 61.19
	L 18.06 61.65
	M 19.84 60.74
	L 18.84 60.74
	L 17.95 60.29
	M 18.84 60.74
	L 17.84 60.74
	L 16.95 61.19
	M 17.84 60.74
	L 16.84 60.74
	M 39.84 60.74
	L 38.95 61.19
	L 38.36 62
	M 38.95 61.19
	L 38.06 61.65
	L 37.06 61.65
	L 36.17 61.19
	M 37.06 61.65
	L 36.06 61.65
	L 35.17 62.1
	M 36.06 61.65
	L 35.06 61.65
	M 38.06 61.65
	L 37.17 62.1
	L 36.17 62.1
	M 37.17 62.1
	L 36.27 62.56
	L 35.69 63.36
	M 36.27 62.56
	L 35.38 63.01
	L 34.38 63.01
	L 33.49 62.56
	M 34.38 63.01
	L 33.38 63.01
	L 32.49 63.46
	M 33.38 63.01
	L 32.38 63.01
	L 31.49 63.46
	L 30.49 63.46
	M 31.49 63.46
	L 30.6 63.92
	M 32.38 63.01
	L 31.38 63.01
	L 30.49 62.56
	M 31.38 63.01
	L 30.38 63.01
	M 35.38 63.01
	L 34.49 63.46
	L 33.49 63.46
	M 34.49 63.46
	L 33.6 63.92
	L 32.6 63.92
	L 31.71 64.37
	M 32.6 63.92
	L 31.6 63.92
	M 33.6 63.92
	L 32.71 64.37
	L 31.71 64.37
	M 32.71 64.37
	L 31.82 64.83
	L 31.23 65.63
	L 31.08 66.62
	M 31.23 65.63
	L 30.64 66.44
	M 31.82 64.83
	L 30.93 65.28
	L 29.93 65.28
	M 30.93 65.28
	L 30.04 65.73
	L 29.45 66.54
	M 30.04 65.73
	L 29.15 66.19
	L 28.56 67
	L 27.67 67.45
	M 28.56 67
	L 27.97 67.81
	L 27.81 68.79
	L 27.23 69.6
	M 27.81 68.79
	L 27.66 69.78
	L 27.97 70.73
	M 27.66 69.78
	L 27.5 70.77
	M 27.97 67.81
	L 27.38 68.61
	L 26.49 69.07
	M 27.38 68.61
	L 26.8 69.42
	L 26.64 70.41
	M 26.8 69.42
	L 26.21 70.23
	L 26.05 71.22
	L 26.36 72.17
	M 26.05 71.22
	L 25.89 72.21
	L 26.2 73.16
	L 26.91 73.87
	M 26.2 73.16
	L 26.51 74.11
	M 25.89 72.21
	L 25.74 73.2
	L 25.15 74
	M 25.74 73.2
	L 25.58 74.18
	L 25.89 75.13
	M 25.58 74.18
	L 25.43 75.17
	M 26.21 70.23
	L 25.62 71.04
	L 24.73 71.5
	M 25.62 71.04
	L 25.03 71.85
	L 24.14 72.3
	L 23.55 73.11
	M 24.14 72.3
	L 23.25 72.76
	M 25.03 71.85
	L 24.44 72.66
	L 23.55 73.11
	M 24.44 72.66
	L 23.86 73.47
	L 23.7 74.46
	M 23.86 73.47
	L 23.27 74.28
	L 23.11 75.27
	L 22.52 76.07
	M 23.11 75.27
	L 22.96 76.25
	M 23.27 74.28
	L 22.68 75.09
	L 21.79 75.54
	M 22.68 75.09
	L 22.09 75.9
	L 21.94 76.88
	L 21.35 77.69
	M 21.94 76.88
	L 21.78 77.87
	L 21.19 78.68
	L 20.3 79.13
	M 21.19 78.68
	L 20.6 79.49
	L 20.45 80.48
	M 20.6 79.49
	L 20.02 80.3
	M 21.78 77.87
	L 21.62 78.86
	L 21.93 79.81
	M 21.62 78.86
	L 21.47 79.85
	L 21.78 80.8
	L 22.48 81.5
	M 21.78 80.8
	L 22.09 81.75
	M 21.47 79.85
	L 21.31 80.83
	L 21.62 81.79
	M 21.31 80.83
	L 21.15 81.82
	L 20.57 82.63
	L 19.68 83.09
	M 20.57 82.63
	L 19.98 83.44
	L 19.82 84.43
	L 19.23 85.24
	M 19.82 84.43
	L 19.67 85.42
	M 19.98 83.44
	L 19.39 84.25
	L 19.23 85.24
	M 19.39 84.25
	L 18.8 85.06
	M 21.15 81.82
	L 21 82.81
	L 20.41 83.62
	M 21 82.81
	L 20.84 83.8
	L 20.25 84.61
	L 19.36 85.06
	M 20.25 84.61
	L 19.67 85.42
	L 19.51 86.4
	M 19.67 85.42
	L 19.08 86.22
	M 20.84 83.8
	L 20.69 84.79
	L 20.99 85.74
	M 20.69 84.79
	L 20.53 85.77
	L 20.84 86.72
	L 21.54 87.43
	M 20.84 86.72
	L 21.15 87.67
	M 20.53 85.77
	L 20.37 86.76
	L 20.68 87.71
	M 20.37 86.76
	L 20.22 87.75
	L 20.52 88.7
	L 21.23 89.41
	M 20.52 88.7
	L 20.83 89.65
	L 21.54 90.36
	L 21.85 91.31
	M 21.54 90.36
	L 22.25 91.06
	L 23.2 91.37
	M 22.25 91.06
	L 22.96 91.77
	M 20.83 89.65
	L 21.14 90.6
	L 20.99 91.59
	M 21.14 90.6
	L 21.45 91.55
	M 20.22 87.75
	L 20.06 88.74
	L 19.47 89.54
	M 20.06 88.74
	L 19.9 89.72
	L 19.32 90.53
	L 18.42 90.99
	M 19.32 90.53
	L 18.73 91.34
	M 19.9 89.72
	L 19.75 90.71
	L 20.06 91.66
	M 19.75 90.71
	L 19.59 91.7
	M 22.09 75.9
	L 21.51 76.7
	L 21.35 77.69
	M 21.51 76.7
	L 20.92 77.51
	L 20.76 78.5
	L 20.17 79.31
	M 20.76 78.5
	L 20.6 79.49
	L 20.91 80.44
	M 20.6 79.49
	L 20.45 80.48
	M 20.92 77.51
	L 20.33 78.32
	L 19.44 78.78
	M 20.33 78.32
	L 19.74 79.13
	L 19.59 80.12
	L 19 80.93
	M 19.59 80.12
	L 19.43 81.11
	L 19.74 82.06
	M 19.43 81.11
	L 19.27 82.1
	L 18.68 82.9
	L 18.53 83.89
	M 18.68 82.9
	L 18.1 83.71
	M 19.27 82.1
	L 19.12 83.08
	L 18.53 83.89
	M 19.12 83.08
	L 18.96 84.07
	L 19.27 85.02
	M 18.96 84.07
	L 18.8 85.06
	M 19.74 79.13
	L 19.15 79.94
	L 19 80.93
	M 19.15 79.94
	L 18.57 80.75
	L 17.68 81.2
	L 16.68 81.2
	M 17.68 81.2
	L 16.78 81.66
	M 18.57 80.75
	L 17.98 81.56
	L 17.09 82.01
	M 17.98 81.56
	L 17.39 82.37
	L 17.23 83.36
	L 17.54 84.31
	M 17.23 83.36
	L 17.08 84.34
	M 17.39 82.37
	L 16.8 83.18
	L 16.65 84.16
	M 16.8 83.18
	L 16.22 83.99
	M 29.15 66.19
	L 28.26 66.64
	L 27.26 66.64
	M 28.26 66.64
	L 27.36 67.1
	L 26.36 67.1
	L 25.47 66.64
	M 26.36 67.1
	L 25.36 67.1
	L 24.47 67.55
	M 25.36 67.1
	L 24.36 67.1
	M 27.36 67.1
	L 26.47 67.55
	L 25.89 68.36
	M 26.47 67.55
	L 25.58 68
	L 24.99 68.81
	L 24.1 69.27
	M 24.99 68.81
	L 24.41 69.62
	L 24.25 70.61
	M 24.41 69.62
	L 23.82 70.43
	L 22.93 70.88
	L 22.34 71.69
	M 22.93 70.88
	L 22.04 71.34
	M 23.82 70.43
	L 23.23 71.24
	L 22.34 71.69
	M 23.23 71.24
	L 22.64 72.05
	L 22.49 73.04
	L 21.9 73.85
	M 22.49 73.04
	L 22.33 74.02
	L 22.64 74.98
	M 22.33 74.02
	L 22.17 75.01
	M 22.64 72.05
	L 22.06 72.86
	L 21.9 73.85
	M 22.06 72.86
	L 21.47 73.67
	M 25.58 68
	L 24.69 68.46
	L 23.69 68.46
	M 24.69 68.46
	L 23.8 68.91
	L 23.21 69.72
	L 22.32 70.17
	M 23.21 69.72
	L 22.62 70.53
	L 22.47 71.52
	M 22.62 70.53
	L 22.04 71.34
	M 23.8 68.91
	L 22.91 69.37
	L 21.91 69.37
	M 22.91 69.37
	L 22.02 69.82
	L 21.43 70.63
	M 22.02 69.82
	L 21.13 70.27
	L 20.13 70.27
	L 19.24 69.82
	M 20.13 70.27
	L 19.13 70.27
	L 18.24 69.82
	L 17.24 69.82
	M 18.24 69.82
	L 17.35 69.37
	M 19.13 70.27
	L 18.13 70.27
	L 17.24 70.73
	M 18.13 70.27
	L 17.13 70.27
	L 16.24 70.73
	L 15.24 70.73
	M 16.24 70.73
	L 15.35 71.18
	L 14.76 71.99
	M 15.35 71.18
	L 14.45 71.64
	M 17.13 70.27
	L 16.13 70.27
	L 15.24 69.82
	M 16.13 70.27
	L 15.13 70.27
	L 14.24 70.73
	M 15.13 70.27
	L 14.13 70.27
	L 13.24 69.82
	L 12.65 69.01
	M 13.24 69.82
	L 12.35 69.37
	L 11.35 69.37
	M 12.35 69.37
	L 11.45 68.91
	L 10.45 68.91
	L 9.563 68.46
	M 10.45 68.91
	L 9.454 68.91
	L 8.563 69.37
	M 9.454 68.91
	L 8.454 68.91
	M 11.45 68.91
	L 10.56 68.46
	L 9.976 67.65
	M 10.56 68.46
	L 9.672 68
	M 14.13 70.27
	L 13.13 70.27
	L 12.24 69.82
	M 13.13 70.27
	L 12.13 70.27
	L 11.24 70.73
	L 10.24 70.73
	M 11.24 70.73
	L 10.35 71.18
	M 12.13 70.27
	L 11.13 70.27
	L 10.24 69.82
	M 11.13 70.27
	L 10.13 70.27
	L 9.236 70.73
	M 10.13 70.27
	L 9.127 70.27
	L 8.236 70.73
	L 7.649 71.54
	M 8.236 70.73
	L 7.345 71.18
	L 6.758 71.99
	L 6.601 72.98
	M 6.758 71.99
	L 6.17 72.8
	M 7.345 71.18
	L 6.454 71.64
	L 5.454 71.64
	M 6.454 71.64
	L 5.563 72.09
	L 4.976 72.9
	M 5.563 72.09
	L 4.672 72.54
	M 9.127 70.27
	L 8.127 70.27
	L 7.236 69.82
	M 8.127 70.27
	L 7.127 70.27
	L 6.236 70.73
	M 7.127 70.27
	L 6.127 70.27
	L 5.236 69.82
	L 4.649 69.01
	M 5.236 69.82
	L 4.345 69.37
	L 3.345 69.37
	M 4.345 69.37
	L 3.454 68.91
	M 6.127 70.27
	L 5.127 70.27
	L 4.236 69.82
	M 5.127 70.27
	L 4.127 70.27
	L 3.236 70.73
	L 2.649 71.54
	M 3.236 70.73
	L 2.345 71.18
	M 4.127 70.27
	L 3.127 70.27
	L 2.236 69.82
	M 3.127 70.27
	L 2.127 70.27
	L 1.236 70.73
	M 2.127 70.27
	L 1.127 70.27
	M 21.13 70.27
	L 20.24 70.73
	L 19.24 70.73
	M 20.24 70.73
	L 19.35 71.18
	L 18.35 71.18
	L 17.45 70.73
	M 18.35 71.18
	L 17.35 71.18
	M 19.35 71.18
	L 18.45 71.64
	L 17.45 71.64
	M 18.45 71.64
	L 17.56 72.09
	L 16.56 72.09
	L 15.67 71.64
	M 16.56 72.09
	L 15.56 72.09
	L 14.67 71.64
	L 14.08 70.83
	M 14.67 71.64
	L 13.78 71.18
	M 15.56 72.09
	L 14.56 72.09
	L 13.67 71.64
	M 14.56 72.09
	L 13.56 72.09
	M 17.56 72.09
	L 16.67 72.54
	L 16.08 73.35
	M 16.67 72.54
	L 15.78 73
	L 15.19 73.81
	L 14.3 74.26
	M 15.19 73.81
	L 14.61 74.62
	L 14.45 75.6
	M 14.61 74.62
	L 14.02 75.42
	M 15.78 73
	L 14.89 73.45
	L 13.89 73.45
	M 14.89 73.45
	L 14 73.91
	L 13.41 74.71
	L 13.26 75.7
	M 13.41 74.71
	L 12.82 75.52
	L 12.67 76.51
	L 12.98 77.46
	M 12.67 76.51
	L 12.51 77.5
	M 12.82 75.52
	L 12.24 76.33
	L 12.08 77.32
	M 12.24 76.33
	L 11.65 77.14
	M 14 73.91
	L 13.11 74.36
	L 12.11 74.36
	M 13.11 74.36
	L 12.22 74.81
	L 11.22 74.81
	L 10.33 74.36
	M 11.22 74.81
	L 10.22 74.81
	L 9.326 75.27
	M 10.22 74.81
	L 9.217 74.81
	M 12.22 74.81
	L 11.33 75.27
	L 10.33 75.27
	M 11.33 75.27
	L 10.44 75.72
	L 9.848 76.53
	M 10.44 75.72
	L 9.544 76.18
	M 81.72 39.4
	L 82.17 40.29
	L 82.62 41.18
	L 83.08 42.08
	L 83.53 42.97
	L 83.84 43.92
	L 84.15 44.87
	L 84.46 45.82
	L 84.77 46.77
	L 85.22 47.66
	L 85.68 48.55
	L 86.13 49.44
	L 86.58 50.33
	L 86.89 51.29
	L 87.2 52.24
	L 87.51 53.19
	L 87.82 54.14
	L 88.27 55.03
	L 88.73 55.92
	L 89.18 56.81
	L 89.64 57.7
	L 90.22 58.51
	L 90.81 59.32
	L 91.4 60.13
	L 91.99 60.94
	L 92.69 61.65
	L 93.4 62.35
	L 94.11 63.06
	L 94.82 63.77
	L 95.4 64.58
	L 95.99 65.39
	L 96.58 66.19
	L 97.17 67
	L 96.36 67.59
	L 95.9 68.48
	M 96.36 67.59
	L 95.55 68.18
	L 94.56 68.34
	L 93.61 68.03
	M 94.56 68.34
	L 93.57 68.49
	L 92.76 69.08
	M 93.57 68.49
	L 92.59 68.65
	M 95.55 68.18
	L 94.74 68.77
	L 93.75 68.92
	M 94.74 68.77
	L 93.93 69.35
	L 93.48 70.25
	M 93.93 69.35
	L 93.12 69.94
	L 92.67 70.83
	L 91.86 71.42
	M 92.67 70.83
	L 92.21 71.72
	L 92.21 72.72
	M 92.21 71.72
	L 91.76 72.62
	M 93.12 69.94
	L 92.31 70.53
	L 91.86 71.42
	M 92.31 70.53
	L 91.5 71.12
	L 91.05 72.01
	L 91.05 73.01
	M 91.05 72.01
	L 90.6 72.9
	L 89.79 73.49
	L 88.8 73.64
	M 89.79 73.49
	L 88.98 74.08
	L 88.52 74.97
	M 88.98 74.08
	L 88.17 74.66
	M 90.6 72.9
	L 90.14 73.79
	L 89.33 74.38
	M 90.14 73.79
	L 89.69 74.68
	M 91.5 71.12
	L 90.69 71.71
	L 90.24 72.6
	M 90.69 71.71
	L 89.89 72.29
	L 88.9 72.45
	L 87.95 72.14
	M 88.9 72.45
	L 87.91 72.61
	L 87.1 73.19
	M 87.91 72.61
	L 86.92 72.76
	M 89.89 72.29
	L 89.08 72.88
	L 88.09 73.04
	M 89.08 72.88
	L 88.27 73.47
	L 87.81 74.36
	L 87.81 75.36
	M 87.81 74.36
	L 87.36 75.25
	L 87.36 76.25
	L 87.81 77.14
	M 87.36 76.25
	L 87.36 77.25
	M 87.36 75.25
	L 86.91 76.14
	L 86.1 76.73
	M 86.91 76.14
	L 86.45 77.03
	L 86.45 78.03
	L 86 78.92
	M 86.45 78.03
	L 86.45 79.03
	L 86.91 79.92
	M 86.45 79.03
	L 86.45 80.03
	L 86 80.92
	L 86 81.92
	M 86 80.92
	L 85.54 81.82
	M 86.45 80.03
	L 86.45 81.03
	L 86 81.92
	M 86.45 81.03
	L 86.45 82.03
	L 86.91 82.92
	M 86.45 82.03
	L 86.45 83.03
	M 86.45 77.03
	L 86 77.92
	L 85.19 78.51
	M 86 77.92
	L 85.54 78.82
	L 84.73 79.4
	L 84.28 80.29
	M 84.73 79.4
	L 83.93 79.99
	M 85.54 78.82
	L 85.09 79.71
	L 85.09 80.71
	M 85.09 79.71
	L 84.64 80.6
	L 84.64 81.6
	L 84.18 82.49
	M 84.64 81.6
	L 84.64 82.6
	L 85.09 83.49
	M 84.64 82.6
	L 84.64 83.6
	M 84.64 80.6
	L 84.18 81.49
	L 84.18 82.49
	M 84.18 81.49
	L 83.73 82.38
	M 88.27 73.47
	L 87.46 74.06
	L 87 74.95
	M 87.46 74.06
	L 86.65 74.64
	L 85.66 74.8
	L 84.85 75.39
	M 85.66 74.8
	L 84.67 74.96
	M 86.65 74.64
	L 85.84 75.23
	L 84.85 75.39
	M 85.84 75.23
	L 85.03 75.82
	L 84.58 76.71
	L 84.58 77.71
	M 84.58 76.71
	L 84.12 77.6
	M 85.03 75.82
	L 84.22 76.41
	L 83.77 77.3
	M 84.22 76.41
	L 83.41 77
	L 82.43 77.15
	L 81.47 76.84
	M 82.43 77.15
	L 81.44 77.31
	L 80.63 77.9
	M 81.44 77.31
	L 80.45 77.47
	L 79.5 77.16
	L 78.79 76.45
	M 79.5 77.16
	L 78.55 76.85
	M 80.45 77.47
	L 79.46 77.62
	L 78.51 77.31
	M 79.46 77.62
	L 78.47 77.78
	L 77.67 78.37
	M 78.47 77.78
	L 77.49 77.93
	L 76.68 78.52
	L 75.69 78.68
	M 76.68 78.52
	L 75.87 79.11
	L 75.42 80
	M 75.87 79.11
	L 75.06 79.7
	M 77.49 77.93
	L 76.5 78.09
	L 75.55 77.78
	M 76.5 78.09
	L 75.51 78.25
	L 74.7 78.84
	M 75.51 78.25
	L 74.52 78.4
	M 83.41 77
	L 82.6 77.58
	L 81.62 77.74
	M 82.6 77.58
	L 81.8 78.17
	L 80.81 78.33
	L 80 78.92
	M 80.81 78.33
	L 79.82 78.48
	M 81.8 78.17
	L 80.99 78.76
	L 80 78.92
	M 80.99 78.76
	L 80.18 79.35
	L 79.72 80.24
	L 78.91 80.83
	M 79.72 80.24
	L 79.27 81.13
	L 79.27 82.13
	M 79.27 81.13
	L 78.82 82.02
	M 80.18 79.35
	L 79.37 79.93
	L 78.38 80.09
	M 79.37 79.93
	L 78.56 80.52
	L 77.57 80.68
	L 76.76 81.27
	M 77.57 80.68
	L 76.58 80.84
	L 75.63 80.53
	L 74.93 79.82
	M 75.63 80.53
	L 74.68 80.22
	L 73.69 80.37
	M 74.68 80.22
	L 73.73 79.91
	M 76.58 80.84
	L 75.6 80.99
	L 74.79 81.58
	M 75.6 80.99
	L 74.61 81.15
	L 73.8 81.74
	L 72.81 81.89
	M 73.8 81.74
	L 72.99 82.32
	L 72.54 83.21
	M 72.99 82.32
	L 72.18 82.91
	L 71.19 83.07
	L 70.38 83.66
	M 71.19 83.07
	L 70.21 83.22
	M 72.18 82.91
	L 71.37 83.5
	L 70.92 84.39
	M 71.37 83.5
	L 70.56 84.09
	M 74.61 81.15
	L 73.62 81.3
	L 72.67 81
	M 73.62 81.3
	L 72.63 81.46
	L 71.68 81.15
	L 70.97 80.44
	M 71.68 81.15
	L 70.73 80.84
	L 69.74 81
	M 70.73 80.84
	L 69.78 80.53
	M 72.63 81.46
	L 71.65 81.62
	L 70.69 81.31
	M 71.65 81.62
	L 70.66 81.77
	L 69.71 81.46
	L 68.72 81.62
	M 69.71 81.46
	L 68.76 81.16
	L 67.77 81.31
	L 66.96 81.9
	M 67.77 81.31
	L 66.78 81.47
	M 68.76 81.16
	L 67.8 80.85
	L 66.82 81
	M 67.8 80.85
	L 66.85 80.54
	L 66.15 79.83
	L 65.84 78.88
	M 66.15 79.83
	L 65.44 79.12
	L 65.13 78.17
	L 64.42 77.47
	M 65.13 78.17
	L 64.82 77.22
	M 65.44 79.12
	L 64.73 78.42
	L 64.42 77.47
	M 64.73 78.42
	L 64.03 77.71
	M 66.85 80.54
	L 65.9 80.23
	L 64.91 80.39
	M 65.9 80.23
	L 64.95 79.92
	L 64.24 79.21
	L 63.94 78.26
	M 64.24 79.21
	L 63.54 78.51
	L 62.59 78.2
	M 63.54 78.51
	L 62.83 77.8
	M 64.95 79.92
	L 64 79.61
	L 63.01 79.77
	M 64 79.61
	L 63.05 79.3
	L 62.06 79.46
	L 61.11 79.15
	M 62.06 79.46
	L 61.07 79.61
	L 60.26 80.2
	M 61.07 79.61
	L 60.09 79.77
	L 59.14 79.46
	L 58.43 78.75
	M 59.14 79.46
	L 58.18 79.15
	M 60.09 79.77
	L 59.1 79.93
	L 58.15 79.62
	M 59.1 79.93
	L 58.11 80.08
	M 63.05 79.3
	L 62.1 78.99
	L 61.39 78.29
	M 62.1 78.99
	L 61.15 78.68
	L 60.16 78.84
	M 61.15 78.68
	L 60.2 78.37
	L 59.21 78.53
	L 58.26 78.22
	M 59.21 78.53
	L 58.22 78.69
	M 60.2 78.37
	L 59.24 78.07
	L 58.54 77.36
	M 59.24 78.07
	L 58.29 77.76
	L 57.31 77.91
	M 58.29 77.76
	L 57.34 77.45
	M 70.66 81.77
	L 69.67 81.93
	L 68.86 82.52
	M 69.67 81.93
	L 68.68 82.09
	L 67.73 81.78
	L 67.02 81.07
	M 67.73 81.78
	L 66.78 81.47
	M 68.68 82.09
	L 67.69 82.24
	L 66.74 81.93
	M 67.69 82.24
	L 66.71 82.4
	L 65.9 82.99
	M 66.71 82.4
	L 65.72 82.56
	L 64.91 83.14
	L 64.46 84.03
	M 64.91 83.14
	L 64.1 83.73
	M 65.72 82.56
	L 64.73 82.71
	L 63.92 83.3
	M 64.73 82.71
	L 63.74 82.87
	L 62.79 82.56
	L 61.81 82.72
	M 62.79 82.56
	L 61.84 82.25
	L 60.85 82.41
	L 60.05 83
	M 60.85 82.41
	L 59.87 82.56
	M 61.84 82.25
	L 60.89 81.94
	L 60.18 81.23
	M 60.89 81.94
	L 59.94 81.63
	M 63.74 82.87
	L 62.76 83.03
	L 61.81 82.72
	M 62.76 83.03
	L 61.77 83.18
	L 60.82 82.87
	L 60.11 82.17
	M 60.82 82.87
	L 59.87 82.56
	L 58.88 82.72
	M 59.87 82.56
	L 58.92 82.25
	M 61.77 83.18
	L 60.78 83.34
	L 59.83 83.03
	M 60.78 83.34
	L 59.79 83.49
	L 58.98 84.08
	L 58 84.24
	M 58.98 84.08
	L 58.18 84.67
	M 59.79 83.49
	L 58.81 83.65
	L 57.85 83.34
	M 58.81 83.65
	L 57.82 83.81
	L 57.01 84.4
	M 57.82 83.81
	L 56.83 83.96
	L 56.02 84.55
	L 55.57 85.44
	M 56.02 84.55
	L 55.21 85.14
	L 54.22 85.3
	L 53.27 84.99
	M 54.22 85.3
	L 53.24 85.45
	M 55.21 85.14
	L 54.4 85.73
	L 53.42 85.88
	M 54.4 85.73
	L 53.59 86.32
	L 53.14 87.21
	L 53.14 88.21
	M 53.14 87.21
	L 52.69 88.1
	M 53.59 86.32
	L 52.78 86.9
	L 52.33 87.79
	M 52.78 86.9
	L 51.98 87.49
	M 56.83 83.96
	L 55.84 84.12
	L 54.89 83.81
	M 55.84 84.12
	L 54.85 84.28
	L 53.9 83.97
	L 53.2 83.26
	M 53.9 83.97
	L 52.95 83.66
	L 51.96 83.82
	M 52.95 83.66
	L 52 83.35
	M 54.85 84.28
	L 53.87 84.43
	L 53.06 85.02
	M 53.87 84.43
	L 52.88 84.59
	L 52.07 85.18
	L 51.62 86.07
	M 52.07 85.18
	L 51.26 85.77
	M 52.88 84.59
	L 51.89 84.75
	L 50.94 84.44
	M 51.89 84.75
	L 50.9 84.9
	L 50.09 85.49
	L 49.11 85.65
	M 50.09 85.49
	L 49.29 86.08
	L 48.3 86.23
	L 47.35 85.93
	M 48.3 86.23
	L 47.31 86.39
	M 49.29 86.08
	L 48.48 86.67
	L 48.02 87.56
	M 48.48 86.67
	L 47.67 87.25
	L 47.21 88.14
	L 47.21 89.14
	M 47.21 88.14
	L 46.76 89.04
	M 47.67 87.25
	L 46.86 87.84
	L 45.87 88
	M 46.86 87.84
	L 46.05 88.43
	L 45.6 89.32
	M 46.05 88.43
	L 45.24 89.02
	L 44.25 89.17
	L 43.3 88.86
	M 44.25 89.17
	L 43.27 89.33
	L 42.46 89.92
	L 42 90.81
	M 42.46 89.92
	L 41.65 90.51
	M 43.27 89.33
	L 42.28 89.49
	L 41.47 90.07
	M 42.28 89.49
	L 41.29 89.64
	M 45.24 89.02
	L 44.43 89.6
	L 43.44 89.76
	M 44.43 89.6
	L 43.62 90.19
	L 42.64 90.35
	L 41.68 90.04
	M 42.64 90.35
	L 41.65 90.51
	M 43.62 90.19
	L 42.81 90.78
	L 41.83 90.94
	M 42.81 90.78
	L 42 91.37
	M 50.9 84.9
	L 49.92 85.06
	L 49.11 85.65
	M 49.92 85.06
	L 48.93 85.22
	L 48.12 85.8
	L 47.13 85.96
	M 48.12 85.8
	L 47.31 86.39
	M 48.93 85.22
	L 47.94 85.37
	L 47.13 85.96
	M 47.94 85.37
	L 46.95 85.53
	L 46 85.22
	L 45.29 84.51
	M 46 85.22
	L 45.05 84.91
	L 44.06 85.07
	M 45.05 84.91
	L 44.1 84.6
	L 43.39 83.89
	L 43.08 82.94
	M 43.39 83.89
	L 42.69 83.19
	M 44.1 84.6
	L 43.15 84.29
	L 42.16 84.45
	M 43.15 84.29
	L 42.2 83.98
	L 41.21 84.14
	L 40.26 83.83
	M 41.21 84.14
	L 40.22 84.3
	L 39.41 84.88
	M 40.22 84.3
	L 39.23 84.45
	M 42.2 83.98
	L 41.25 83.67
	L 40.54 82.97
	M 41.25 83.67
	L 40.3 83.37
	L 39.31 83.52
	M 40.3 83.37
	L 39.34 83.06
	M 46.95 85.53
	L 45.97 85.68
	L 45.16 86.27
	M 45.97 85.68
	L 44.98 85.84
	L 44.03 85.53
	L 43.32 84.83
	M 44.03 85.53
	L 43.08 85.22
	L 42.09 85.38
	M 43.08 85.22
	L 42.12 84.91
	M 44.98 85.84
	L 43.99 86
	L 43.04 85.69
	M 43.99 86
	L 43 86.15
	L 42.19 86.74
	L 41.21 86.9
	M 42.19 86.74
	L 41.38 87.33
	L 40.93 88.22
	M 41.38 87.33
	L 40.58 87.92
	M 43 86.15
	L 42.01 86.31
	L 41.06 86
	M 42.01 86.31
	L 41.03 86.47
	L 40.22 87.05
	M 41.03 86.47
	L 40.04 86.62
	L 39.23 87.21
	L 38.78 88.1
	M 39.23 87.21
	L 38.42 87.8
	L 37.97 88.69
	L 37.16 89.28
	M 37.97 88.69
	L 37.51 89.58
	M 38.42 87.8
	L 37.61 88.39
	L 37.16 89.28
	M 37.61 88.39
	L 36.8 88.97
	M 40.04 86.62
	L 39.05 86.78
	L 38.1 86.47
	M 39.05 86.78
	L 38.06 86.94
	L 37.25 87.52
	M 38.06 86.94
	L 37.08 87.09
	L 36.13 86.78
	L 35.42 86.08
	M 36.13 86.78
	L 35.17 86.47
	M 37.08 87.09
	L 36.09 87.25
	L 35.28 87.84
	M 36.09 87.25
	L 35.1 87.41
	M 78.56 80.52
	L 77.75 81.11
	L 76.76 81.27
	M 77.75 81.11
	L 76.94 81.7
	L 76.49 82.59
	M 76.94 81.7
	L 76.13 82.29
	L 75.68 83.18
	L 75.68 84.18
	M 75.68 83.18
	L 75.22 84.07
	M 76.13 82.29
	L 75.32 82.87
	L 74.34 83.03
	M 75.32 82.87
	L 74.51 83.46
	L 74.06 84.35
	M 74.51 83.46
	L 73.71 84.05
	L 72.72 84.21
	L 71.77 83.9
	M 72.72 84.21
	L 71.73 84.36
	L 70.92 84.95
	L 69.93 85.11
	M 70.92 84.95
	L 70.11 85.54
	M 71.73 84.36
	L 70.74 84.52
	L 69.93 85.11
	M 70.74 84.52
	L 69.75 84.67
	M 73.71 84.05
	L 72.9 84.64
	L 71.91 84.79
	M 72.9 84.64
	L 72.09 85.22
	L 71.63 86.12
	M 72.09 85.22
	L 71.28 85.81
	L 70.82 86.7
	L 70.02 87.29
	M 70.82 86.7
	L 70.37 87.59
	L 70.37 88.59
	M 70.37 87.59
	L 69.92 88.49
	M 71.28 85.81
	L 70.47 86.4
	L 70.02 87.29
	M 70.47 86.4
	L 69.66 86.99
	L 68.67 87.14
	L 67.86 87.73
	M 68.67 87.14
	L 67.68 87.3
	L 66.73 86.99
	L 66.03 86.28
	M 66.73 86.99
	L 65.78 86.68
	L 64.79 86.84
	M 65.78 86.68
	L 64.83 86.37
	M 67.68 87.3
	L 66.7 87.46
	L 65.89 88.05
	M 66.7 87.46
	L 65.71 87.61
	L 64.9 88.2
	L 63.91 88.36
	M 64.9 88.2
	L 64.09 88.79
	M 65.71 87.61
	L 64.72 87.77
	L 63.91 88.36
	M 64.72 87.77
	L 63.73 87.93
	L 62.78 87.62
	L 62.08 86.91
	M 62.78 87.62
	L 61.83 87.31
	L 60.84 87.47
	M 61.83 87.31
	L 60.88 87
	L 60.17 86.29
	L 59.86 85.34
	M 60.17 86.29
	L 59.47 85.59
	M 60.88 87
	L 59.93 86.69
	L 59.22 85.98
	M 59.93 86.69
	L 58.98 86.38
	L 57.99 86.54
	L 57.04 86.23
	M 57.99 86.54
	L 57 86.69
	L 56.19 87.28
	M 57 86.69
	L 56.02 86.85
	M 58.98 86.38
	L 58.03 86.07
	L 57.32 85.37
	M 58.03 86.07
	L 57.08 85.76
	L 56.09 85.92
	M 57.08 85.76
	L 56.13 85.45
	M 63.73 87.93
	L 62.75 88.08
	L 61.8 87.77
	M 62.75 88.08
	L 61.76 88.24
	L 60.95 88.83
	M 61.76 88.24
	L 60.77 88.4
	L 59.82 88.09
	L 58.83 88.24
	M 59.82 88.09
	L 58.87 87.78
	M 60.77 88.4
	L 59.78 88.55
	L 58.83 88.24
	M 59.78 88.55
	L 58.8 88.71
	L 57.99 89.3
	M 58.8 88.71
	L 57.81 88.87
	L 57 89.45
	L 56.01 89.61
	M 57 89.45
	L 56.19 90.04
	L 55.74 90.93
	M 56.19 90.04
	L 55.38 90.63
	M 57.81 88.87
	L 56.82 89.02
	L 56.01 89.61
	M 56.82 89.02
	L 55.83 89.18
	L 55.02 89.77
	L 54.04 89.92
	M 55.02 89.77
	L 54.21 90.35
	L 53.76 91.24
	M 54.21 90.35
	L 53.41 90.94
	L 52.42 91.1
	L 51.47 90.79
	M 52.42 91.1
	L 51.43 91.25
	L 50.62 91.84
	M 51.43 91.25
	L 50.44 91.41
	M 53.41 90.94
	L 52.6 91.53
	L 52.14 92.42
	M 52.6 91.53
	L 51.79 92.12
	L 51.33 93.01
	L 51.33 94.01
	M 51.33 93.01
	L 50.88 93.9
	M 51.79 92.12
	L 50.98 92.7
	L 49.99 92.86
	M 50.98 92.7
	L 50.17 93.29
	M 55.83 89.18
	L 54.84 89.33
	L 53.89 89.03
	M 54.84 89.33
	L 53.86 89.49
	L 53.05 90.08
	M 53.86 89.49
	L 52.87 89.65
	L 52.06 90.24
	L 51.61 91.13
	M 52.06 90.24
	L 51.25 90.82
	M 52.87 89.65
	L 51.88 89.8
	L 50.93 89.49
	M 51.88 89.8
	L 50.89 89.96
	M 69.66 86.99
	L 68.85 87.58
	L 67.86 87.73
	M 68.85 87.58
	L 68.04 88.16
	L 67.05 88.32
	L 66.25 88.91
	M 67.05 88.32
	L 66.07 88.48
	M 68.04 88.16
	L 67.23 88.75
	L 66.25 88.91
	M 67.23 88.75
	L 66.42 89.34
	L 65.97 90.23
	M 66.42 89.34
	L 65.61 89.93
	L 65.16 90.82
	L 64.35 91.41
	M 65.16 90.82
	L 64.71 91.71
	L 64.71 92.71
	M 64.71 91.71
	L 64.25 92.6
	M 65.61 89.93
	L 64.81 90.51
	L 64.35 91.41
	M 64.81 90.51
	L 64 91.1
	L 63.01 91.26
	L 62.06 90.95
	M 63.01 91.26
	L 62.02 91.42
	L 61.07 91.11
	L 60.36 90.4
	M 61.07 91.11
	L 60.12 90.8
	L 59.13 90.95
	M 60.12 90.8
	L 59.17 90.49
	M 62.02 91.42
	L 61.03 91.57
	L 60.08 91.26
	M 61.03 91.57
	L 60.05 91.73
	L 59.24 92.32
	L 58.25 92.47
	M 59.24 92.32
	L 58.43 92.9
	L 57.97 93.79
	M 58.43 92.9
	L 57.62 93.49
	M 60.05 91.73
	L 59.06 91.88
	L 58.25 92.47
	M 59.06 91.88
	L 58.07 92.04
	M 64 91.1
	L 63.19 91.69
	L 62.2 91.85
	M 63.19 91.69
	L 62.38 92.28
	L 61.39 92.43
	L 60.44 92.13
	M 61.39 92.43
	L 60.4 92.59
	L 59.59 93.18
	M 60.4 92.59
	L 59.42 92.75
	M 62.38 92.28
	L 61.57 92.87
	L 61.12 93.76
	M 61.57 92.87
	L 60.76 93.45
	L 60.31 94.34
	L 59.5 94.93
	M 60.31 94.34
	L 59.85 95.24
	L 59.85 96.24
	M 59.85 95.24
	L 59.4 96.13
	M 60.76 93.45
	L 59.95 94.04
	L 58.96 94.2
	M 59.95 94.04
	L 59.14 94.63
	L 58.69 95.52
	L 58.69 96.52
	M 58.69 95.52
	L 58.23 96.41
	L 57.43 97
	L 56.97 97.89
	M 57.43 97
	L 56.62 97.59
	M 58.23 96.41
	L 57.78 97.3
	L 56.97 97.89
	M 57.78 97.3
	L 57.33 98.19
	L 57.33 99.19
	M 57.33 98.19
	L 56.87 99.08
	L 56.87 100.1
	L 56.42 101
	M 56.87 100.1
	L 56.87 101.1
	M 56.87 99.08
	L 56.42 99.98
	L 56.42 101
	M 56.42 99.98
	L 55.96 100.9
	M 59.14 94.63
	L 58.33 95.22
	L 57.88 96.11
	M 58.33 95.22
	L 57.52 95.8
	L 56.54 95.96
	L 55.59 95.65
	M 56.54 95.96
	L 55.55 96.12
	L 54.74 96.71
	M 55.55 96.12
	L 54.56 96.27
	M 57.52 95.8
	L 56.72 96.39
	L 55.73 96.55
	M 56.72 96.39
	L 55.91 96.98
	L 55.45 97.87
	M 55.91 96.98
	L 55.1 97.57
	L 54.64 98.46
	L 53.83 99.05
	M 54.64 98.46
	L 54.19 99.35
	L 54.19 100.4
	L 54.64 101.2
	M 54.19 100.4
	L 54.19 101.4
	M 54.19 99.35
	L 53.74 100.2
	L 53.74 101.2
	M 53.74 100.2
	L 53.28 101.1
	L 52.47 101.7
	L 52.02 102.6
	M 52.47 101.7
	L 51.66 102.3
	L 51.21 103.2
	L 51.21 104.2
	M 51.21 103.2
	L 50.76 104.1
	M 51.66 102.3
	L 50.85 102.9
	L 50.4 103.8
	M 50.85 102.9
	L 50.05 103.5
	M 53.28 101.1
	L 52.83 102
	L 52.83 103
	M 52.83 102
	L 52.37 102.9
	L 51.56 103.5
	L 50.58 103.7
	M 51.56 103.5
	L 50.76 104.1
	M 52.37 102.9
	L 51.92 103.8
	L 51.92 104.8
	M 51.92 103.8
	L 51.47 104.7
	L 51.47 105.7
	L 51.01 106.6
	M 51.47 105.7
	L 51.47 106.7
	M 51.47 104.7
	L 51.01 105.6
	L 51.01 106.6
	M 51.01 105.6
	L 50.56 106.5
	L 50.56 107.5
	L 50.1 108.4
	M 50.56 107.5
	L 50.56 108.5
	L 51.01 109.4
	L 51.01 110.4
	M 51.01 109.4
	L 51.47 110.3
	M 50.56 108.5
	L 50.56 109.5
	L 51.01 110.4
	M 50.56 109.5
	L 50.56 110.5
	M 50.56 106.5
	L 50.1 107.4
	L 49.29 108
	M 50.1 107.4
	L 49.65 108.3
	L 49.65 109.3
	L 50.1 110.2
	M 49.65 109.3
	L 49.65 110.3
	M 49.65 108.3
	L 49.2 109.2
	L 48.39 109.7
	M 49.2 109.2
	L 48.74 110
	M 55.1 97.57
	L 54.29 98.16
	L 53.3 98.31
	M 54.29 98.16
	L 53.48 98.74
	L 53.03 99.63
	L 52.22 100.2
	M 53.03 99.63
	L 52.57 100.5
	L 52.57 101.5
	M 52.57 100.5
	L 52.12 101.4
	M 53.48 98.74
	L 52.67 99.33
	L 51.68 99.49
	M 52.67 99.33
	L 51.86 99.92
	L 51.41 100.8
	M 51.86 99.92
	L 51.05 100.5
	L 50.06 100.7
	L 49.26 101.3
	M 50.06 100.7
	L 49.08 100.8
	L 48.27 101.4
	L 47.81 102.3
	M 48.27 101.4
	L 47.46 102
	M 49.08 100.8
	L 48.09 101
	L 47.14 100.7
	M 48.09 101
	L 47.1 101.1
	M 51.05 100.5
	L 50.24 101.1
	L 49.26 101.3
	M 50.24 101.1
	L 49.43 101.7
	L 48.98 102.6
	M 49.43 101.7
	L 48.63 102.3
	L 47.64 102.4
	L 46.69 102.1
	M 47.64 102.4
	L 46.65 102.6
	M 48.63 102.3
	L 47.82 102.9
	L 47.36 103.7
	M 47.82 102.9
	L 47.01 103.4
	M 97.17 67
	L 97.75 67.81
	L 98.34 68.62
	L 98.93 69.43
	L 99.52 70.24
	L 100.2 70.95
	L 100.9 71.65
	L 101.6 72.36
	L 102.3 73.07
	L 103.2 73.66
	L 104 74.24
	L 104.8 74.83
	L 105.6 75.42
	L 106.3 76.13
	L 107 76.83
	L 107.7 77.54
	L 108.4 78.25
	L 109.2 78.84
	L 110 79.42
	L 110.8 80.01
	L 111.6 80.6
	L 112.5 81.05
	L 113.4 81.51
	L 114.3 81.96
	L 115.2 82.41
	L 116 83
	L 116.8 83.59
	L 117.6 84.18
	L 118.4 84.77
	L 119.3 85.22
	L 120.2 85.67
	L 121.1 86.13
	L 122 86.58
	L 122.8 87.17
	L 123.6 87.76
	L 124.4 88.35
	L 125.2 88.93
	L 126 89.64
	L 126.7 90.35
	L 127.4 91.05
	L 128.1 91.76
	L 128.7 92.57
	L 129.3 93.38
	L 129.8 94.19
	L 130.4 95
	L 130.9 95.89
	L 131.3 96.78
	L 131.8 97.67
	L 132.2 98.56
	L 132.8 99.37
	L 133.4 100.2
	L 134 101
	L 134.6 101.8
	L 135 102.7
	L 135.5 103.6
	L 136 104.5
	L 136.4 105.4
	L 136.7 106.3
	L 137 107.3
	L 137.3 108.2
	L 137.6 109.2
	L 137.8 110.2
	L 138 111.1
	L 138.1 112.1
	L 138.3 113.1
	L 138.6 114.1
	L 138.9 115
	L 139.2 116
	L 139.5 116.9
	L 140 117.8
	L 140.4 118.7
	L 140.9 119.6
	L 141.3 120.5
	L 141.6 121.4
	L 141.9 122.4
	L 142.3 123.3
	L 142.6 124.3
	L 143 125.2
	L 143.5 126.1
	L 143.9 127
	L 144.4 127.9
	L 145 128.7
	L 145.6 129.5
	L 146.1 130.3
	L 146.7 131.1
	L 147.4 131.8
	L 148.1 132.5
	L 148.8 133.2
	L 149.6 133.9
	L 150.4 134.5
	L 151.2 135.1
	L 152 135.7
	L 152.8 136.3
	L 153.5 137
	L 154.2 137.7
"/>
</svg>
