<svg version="1.1" baseProfile="full" xmlns="http://www.w3.org/2000/svg"
width="536.7" height="1024"
viewBox="-2.327 -7.879 4.654 8.879"
>
<rect x="-2.327" y="-7.879" width="100%" height="100%" fill="white" />
<path stroke="green" stroke-width="0.04" stroke-linecap="round" fill="none"
transform="scale(1 -1)"
d="	M 0 0
	L 6.123e-17 1
	L 1.225e-16 2
	L -0.342 2.94
	L -0.9848 3.706
	M -0.342 2.94
	L -0.684 3.879
	L -0.684 4.879
	M -0.684 3.879
	L -1.327 4.645
	M 1.225e-16 2
	L 1.837e-16 3
	L 2.449e-16 4
	L 0.342 4.94
	L 0.342 5.94
	M 0.342 4.94
	L 0.684 5.879
	L 1.327 6.645
	M 0.684 5.879
	L 0.684 6.879
	M 2.449e-16 4
	L -0.342 4.94
	L -0.9848 5.706
	M -0.342 4.94
	L -0.684 5.879
	L -0.684 6.879
	M -0.684 5.879
	L -1.327 6.645
"/>
</svg>
