<svg version="1.1" baseProfile="full" xmlns="http://www.w3.org/2000/svg"
width="1024" height="1024"
viewBox="-1 -82 83 83"
>
<rect x="-1" y="-82" width="100%" height="100%" fill="white" />
<path stroke="green" stroke-width="0.04" stroke-linecap="round" fill="none"
transform="scale(1 -1)"
d="	M 0 0
	L 6.123e-17 1
	L 1.225e-16 2
	L 1 2
	L 1 1
	L 2.22e-16 1
	L 3.835e-17 2
	L -1.453e-16 3
	L -3.29e-16 4
	L -5.127e-16 5
	L 1 5
	L 1 4
	L -2.22e-16 4
	L -6.507e-16 5
	L -1.079e-15 6
	L 1 6
	L 2 6
	L 2 5
	L 1 5
	L 1 6
	L 2 6
	L 3 6
	L 3 5
	L 3 4
	L 2 4
	L 2 5
	L 3 5
	L 3 4
	L 3 3
	L 2 3
	L 1 3
	L 1 4
	L 2 4
	L 2 3
	L 1 3
	L 1.465e-14 3
	L 1.147e-14 4
	L 8.286e-15 5
	L 1 5
	L 1 4
	L 7.994e-15 4
	L 4.564e-15 5
	L 1.134e-15 6
	L -2.295e-15 7
	L -5.725e-15 8
	L 1 8
	L 1 7
	L -5.773e-15 7
	L -9.448e-15 8
	L -1.312e-14 9
	L -1.68e-14 10
	L -2.047e-14 11
	L 1 11
	L 1 10
	L -2.021e-14 10
	L -2.413e-14 11
	L -2.805e-14 12
	L -3.196e-14 13
	L -3.588e-14 14
	L 1 14
	L 1 13
	L -3.542e-14 13
	L -3.958e-14 14
	L -4.374e-14 15
	L 1 15
	L 2 15
	L 2 14
	L 1 14
	L 1 15
	L 2 15
	L 3 15
	L 3 14
	L 3 13
	L 2 13
	L 2 14
	L 3 14
	L 3 13
	L 3 12
	L 2 12
	L 1 12
	L 1 13
	L 2 13
	L 2 12
	L 1 12
	L -3.708e-14 12
	L -3.512e-14 13
	L -3.316e-14 14
	L 1 14
	L 1 13
	L -2.442e-14 13
	L -2.981e-14 14
	L -3.52e-14 15
	L -4.059e-14 16
	L -4.598e-14 17
	L 1 17
	L 1 16
	L -2.975e-14 16
	L -2.828e-14 17
	L -2.681e-14 18
	L 1 18
	L 2 18
	L 2 17
	L 1 17
	L 1 18
	L 2 18
	L 3 18
	L 4 18
	L 5 18
	L 5 17
	L 4 17
	L 4 18
	L 5 18
	L 6 18
	L 6 17
	L 6 16
	L 5 16
	L 5 17
	L 6 17
	L 6 16
	L 6 15
	L 5 15
	L 4 15
	L 4 16
	L 5 16
	L 5 15
	L 4 15
	L 3 15
	L 3 16
	L 3 17
	L 4 17
	L 4 16
	L 3 16
	L 3 17
	L 3 18
	L 4 18
	L 5 18
	L 5 17
	L 4 17
	L 4 18
	L 5 18
	L 6 18
	L 7 18
	L 8 18
	L 8 17
	L 7 17
	L 7 18
	L 8 18
	L 9 18
	L 9 17
	L 9 16
	L 8 16
	L 8 17
	L 9 17
	L 9 16
	L 9 15
	L 9 14
	L 9 13
	L 8 13
	L 8 14
	L 9 14
	L 9 13
	L 9 12
	L 8 12
	L 7 12
	L 7 13
	L 8 13
	L 8 12
	L 7 12
	L 6 12
	L 6 13
	L 6 14
	L 7 14
	L 7 13
	L 6 13
	L 6 14
	L 6 15
	L 7 15
	L 8 15
	L 8 14
	L 7 14
	L 7 15
	L 8 15
	L 9 15
	L 9 14
	L 9 13
	L 8 13
	L 8 14
	L 9 14
	L 9 13
	L 9 12
	L 9 11
	L 9 10
	L 8 10
	L 8 11
	L 9 11
	L 9 10
	L 9 9
	L 8 9
	L 7 9
	L 7 10
	L 8 10
	L 8 9
	L 7 9
	L 6 9
	L 5 9
	L 4 9
	L 4 10
	L 5 10
	L 5 9
	L 4 9
	L 3 9
	L 3 10
	L 3 11
	L 4 11
	L 4 10
	L 3 10
	L 3 11
	L 3 12
	L 4 12
	L 5 12
	L 5 11
	L 4 11
	L 4 12
	L 5 12
	L 6 12
	L 6 11
	L 6 10
	L 5 10
	L 5 11
	L 6 11
	L 6 10
	L 6 9
	L 5 9
	L 4 9
	L 4 10
	L 5 10
	L 5 9
	L 4 9
	L 3 9
	L 2 9
	L 1 9
	L 1 10
	L 2 10
	L 2 9
	L 1 9
	L -1.465e-13 9
	L -1.725e-13 10
	L -1.985e-13 11
	L 1 11
	L 1 10
	L -1.618e-13 10
	L -1.524e-13 11
	L -1.431e-13 12
	L -1.338e-13 13
	L -1.245e-13 14
	L 1 14
	L 1 13
	L -1.23e-13 13
	L -1.353e-13 14
	L -1.475e-13 15
	L 1 15
	L 2 15
	L 2 14
	L 1 14
	L 1 15
	L 2 15
	L 3 15
	L 3 14
	L 3 13
	L 2 13
	L 2 14
	L 3 14
	L 3 13
	L 3 12
	L 2 12
	L 1 12
	L 1 13
	L 2 13
	L 2 12
	L 1 12
	L -1.517e-13 12
	L -1.933e-13 13
	L -2.35e-13 14
	L 1 14
	L 1 13
	L -2.394e-13 13
	L -2.457e-13 14
	L -2.521e-13 15
	L -2.585e-13 16
	L -2.648e-13 17
	L 1 17
	L 1 16
	L -2.477e-13 16
	L -2.188e-13 17
	L -1.899e-13 18
	L -1.609e-13 19
	L -1.32e-13 20
	L 1 20
	L 1 19
	L -9.326e-14 19
	L -8.59e-14 20
	L -7.855e-14 21
	L -7.119e-14 22
	L -6.384e-14 23
	L 1 23
	L 1 22
	L -6.04e-14 22
	L -7.46e-14 23
	L -8.881e-14 24
	L 1 24
	L 2 24
	L 2 23
	L 1 23
	L 1 24
	L 2 24
	L 3 24
	L 3 23
	L 3 22
	L 2 22
	L 2 23
	L 3 23
	L 3 22
	L 3 21
	L 2 21
	L 1 21
	L 1 22
	L 2 22
	L 2 21
	L 1 21
	L 2.665e-14 21
	L -1.696e-14 22
	L -6.057e-14 23
	L 1 23
	L 1 22
	L -6.306e-14 22
	L -7.139e-14 23
	L -7.971e-14 24
	L -8.804e-14 25
	L -9.636e-14 26
	L 1 26
	L 1 25
	L -7.727e-14 25
	L -1.072e-13 26
	L -1.37e-13 27
	L -1.669e-13 28
	L -1.968e-13 29
	L 1 29
	L 1 28
	L -2.131e-13 28
	L -2.645e-13 29
	L -3.159e-13 30
	L -3.674e-13 31
	L -4.188e-13 32
	L 1 32
	L 1 31
	L -4.134e-13 31
	L -4.296e-13 32
	L -4.458e-13 33
	L 1 33
	L 2 33
	L 2 32
	L 1 32
	L 1 33
	L 2 33
	L 3 33
	L 3 32
	L 3 31
	L 2 31
	L 2 32
	L 3 32
	L 3 31
	L 3 30
	L 2 30
	L 1 30
	L 1 31
	L 2 31
	L 2 30
	L 1 30
	L -2.112e-13 30
	L -2.567e-13 31
	L -3.023e-13 32
	L 1 32
	L 1 31
	L -3.028e-13 31
	L -3.13e-13 32
	L -3.233e-13 33
	L -3.336e-13 34
	L -3.439e-13 35
	L 1 35
	L 1 34
	L -3.797e-13 34
	L -4.115e-13 35
	L -4.434e-13 36
	L -4.752e-13 37
	L -5.071e-13 38
	L 1 38
	L 1 37
	L -4.644e-13 37
	L -4.61e-13 38
	L -4.575e-13 39
	L -4.541e-13 40
	L -4.507e-13 41
	L 1 41
	L 1 40
	L -4.433e-13 40
	L -4.046e-13 41
	L -3.659e-13 42
	L 1 42
	L 2 42
	L 2 41
	L 1 41
	L 1 42
	L 2 42
	L 3 42
	L 3 41
	L 3 40
	L 2 40
	L 2 41
	L 3 41
	L 3 40
	L 3 39
	L 2 39
	L 1 39
	L 1 40
	L 2 40
	L 2 39
	L 1 39
	L -4.663e-13 39
	L -4.57e-13 40
	L -4.477e-13 41
	L 1 41
	L 1 40
	L -3.894e-13 40
	L -4.016e-13 41
	L -4.138e-13 42
	L -4.261e-13 43
	L -4.383e-13 44
	L 1 44
	L 1 43
	L -4.153e-13 43
	L -3.923e-13 44
	L -3.693e-13 45
	L 1 45
	L 2 45
	L 2 44
	L 1 44
	L 1 45
	L 2 45
	L 3 45
	L 4 45
	L 5 45
	L 5 44
	L 4 44
	L 4 45
	L 5 45
	L 6 45
	L 6 44
	L 6 43
	L 5 43
	L 5 44
	L 6 44
	L 6 43
	L 6 42
	L 5 42
	L 4 42
	L 4 43
	L 5 43
	L 5 42
	L 4 42
	L 3 42
	L 3 43
	L 3 44
	L 4 44
	L 4 43
	L 3 43
	L 3 44
	L 3 45
	L 4 45
	L 5 45
	L 5 44
	L 4 44
	L 4 45
	L 5 45
	L 6 45
	L 7 45
	L 8 45
	L 8 44
	L 7 44
	L 7 45
	L 8 45
	L 9 45
	L 9 44
	L 9 43
	L 8 43
	L 8 44
	L 9 44
	L 9 43
	L 9 42
	L 9 41
	L 9 40
	L 8 40
	L 8 41
	L 9 41
	L 9 40
	L 9 39
	L 8 39
	L 7 39
	L 7 40
	L 8 40
	L 8 39
	L 7 39
	L 6 39
	L 6 40
	L 6 41
	L 7 41
	L 7 40
	L 6 40
	L 6 41
	L 6 42
	L 7 42
	L 8 42
	L 8 41
	L 7 41
	L 7 42
	L 8 42
	L 9 42
	L 9 41
	L 9 40
	L 8 40
	L 8 41
	L 9 41
	L 9 40
	L 9 39
	L 9 38
	L 9 37
	L 8 37
	L 8 38
	L 9 38
	L 9 37
	L 9 36
	L 8 36
	L 7 36
	L 7 37
	L 8 37
	L 8 36
	L 7 36
	L 6 36
	L 5 36
	L 4 36
	L 4 37
	L 5 37
	L 5 36
	L 4 36
	L 3 36
	L 3 37
	L 3 38
	L 4 38
	L 4 37
	L 3 37
	L 3 38
	L 3 39
	L 4 39
	L 5 39
	L 5 38
	L 4 38
	L 4 39
	L 5 39
	L 6 39
	L 6 38
	L 6 37
	L 5 37
	L 5 38
	L 6 38
	L 6 37
	L 6 36
	L 5 36
	L 4 36
	L 4 37
	L 5 37
	L 5 36
	L 4 36
	L 3 36
	L 2 36
	L 1 36
	L 1 37
	L 2 37
	L 2 36
	L 1 36
	L -3.737e-13 36
	L -3.781e-13 37
	L -3.825e-13 38
	L 1 38
	L 1 37
	L -3.673e-13 37
	L -3.932e-13 38
	L -4.192e-13 39
	L -4.452e-13 40
	L -4.711e-13 41
	L 1 41
	L 1 40
	L -4.343e-13 40
	L -4.818e-13 41
	L -5.294e-13 42
	L 1 42
	L 2 42
	L 2 41
	L 1 41
	L 1 42
	L 2 42
	L 3 42
	L 3 41
	L 3 40
	L 2 40
	L 2 41
	L 3 41
	L 3 40
	L 3 39
	L 2 39
	L 1 39
	L 1 40
	L 2 40
	L 2 39
	L 1 39
	L -3.713e-13 39
	L -3.913e-13 40
	L -4.114e-13 41
	L 1 41
	L 1 40
	L -3.806e-13 40
	L -4.222e-13 41
	L -4.639e-13 42
	L -5.055e-13 43
	L -5.472e-13 44
	L 1 44
	L 1 43
	L -4.947e-13 43
	L -5.579e-13 44
	L -6.211e-13 45
	L -6.843e-13 46
	L -7.475e-13 47
	L 1 47
	L 1 46
	L -6.736e-13 46
	L -6.447e-13 47
	L -6.157e-13 48
	L -5.868e-13 49
	L -5.579e-13 50
	L 1 50
	L 1 49
	L -5.76e-13 49
	L -5.686e-13 50
	L -5.613e-13 51
	L 1 51
	L 2 51
	L 2 50
	L 1 50
	L 1 51
	L 2 51
	L 3 51
	L 3 50
	L 3 49
	L 2 49
	L 2 50
	L 3 50
	L 3 49
	L 3 48
	L 2 48
	L 1 48
	L 1 49
	L 2 49
	L 2 48
	L 1 48
	L -4.536e-13 48
	L -4.188e-13 49
	L -3.84e-13 50
	L 1 50
	L 1 49
	L -2.943e-13 49
	L -2.811e-13 50
	L -2.678e-13 51
	L -2.546e-13 52
	L -2.414e-13 53
	L 1 53
	L 1 52
	L -2.438e-13 52
	L -3.658e-13 53
	L -4.878e-13 54
	L 1 54
	L 2 54
	L 2 53
	L 1 53
	L 1 54
	L 2 54
	L 3 54
	L 4 54
	L 5 54
	L 5 53
	L 4 53
	L 4 54
	L 5 54
	L 6 54
	L 6 53
	L 6 52
	L 5 52
	L 5 53
	L 6 53
	L 6 52
	L 6 51
	L 5 51
	L 4 51
	L 4 52
	L 5 52
	L 5 51
	L 4 51
	L 3 51
	L 3 52
	L 3 53
	L 4 53
	L 4 52
	L 3 52
	L 3 53
	L 3 54
	L 4 54
	L 5 54
	L 5 53
	L 4 53
	L 4 54
	L 5 54
	L 6 54
	L 7 54
	L 8 54
	L 8 53
	L 7 53
	L 7 54
	L 8 54
	L 9 54
	L 10 54
	L 11 54
	L 11 53
	L 10 53
	L 10 54
	L 11 54
	L 12 54
	L 13 54
	L 14 54
	L 14 53
	L 13 53
	L 13 54
	L 14 54
	L 15 54
	L 15 53
	L 15 52
	L 14 52
	L 14 53
	L 15 53
	L 15 52
	L 15 51
	L 14 51
	L 13 51
	L 13 52
	L 14 52
	L 14 51
	L 13 51
	L 12 51
	L 12 52
	L 12 53
	L 13 53
	L 13 52
	L 12 52
	L 12 53
	L 12 54
	L 13 54
	L 14 54
	L 14 53
	L 13 53
	L 13 54
	L 14 54
	L 15 54
	L 16 54
	L 17 54
	L 17 53
	L 16 53
	L 16 54
	L 17 54
	L 18 54
	L 18 53
	L 18 52
	L 17 52
	L 17 53
	L 18 53
	L 18 52
	L 18 51
	L 18 50
	L 18 49
	L 17 49
	L 17 50
	L 18 50
	L 18 49
	L 18 48
	L 17 48
	L 16 48
	L 16 49
	L 17 49
	L 17 48
	L 16 48
	L 15 48
	L 15 49
	L 15 50
	L 16 50
	L 16 49
	L 15 49
	L 15 50
	L 15 51
	L 16 51
	L 17 51
	L 17 50
	L 16 50
	L 16 51
	L 17 51
	L 18 51
	L 18 50
	L 18 49
	L 17 49
	L 17 50
	L 18 50
	L 18 49
	L 18 48
	L 18 47
	L 18 46
	L 17 46
	L 17 47
	L 18 47
	L 18 46
	L 18 45
	L 17 45
	L 16 45
	L 16 46
	L 17 46
	L 17 45
	L 16 45
	L 15 45
	L 14 45
	L 13 45
	L 13 46
	L 14 46
	L 14 45
	L 13 45
	L 12 45
	L 12 46
	L 12 47
	L 13 47
	L 13 46
	L 12 46
	L 12 47
	L 12 48
	L 13 48
	L 14 48
	L 14 47
	L 13 47
	L 13 48
	L 14 48
	L 15 48
	L 15 47
	L 15 46
	L 14 46
	L 14 47
	L 15 47
	L 15 46
	L 15 45
	L 14 45
	L 13 45
	L 13 46
	L 14 46
	L 14 45
	L 13 45
	L 12 45
	L 11 45
	L 10 45
	L 10 46
	L 11 46
	L 11 45
	L 10 45
	L 9 45
	L 9 46
	L 9 47
	L 10 47
	L 10 46
	L 9 46
	L 9 47
	L 9 48
	L 9 49
	L 9 50
	L 10 50
	L 10 49
	L 9 49
	L 9 50
	L 9 51
	L 10 51
	L 11 51
	L 11 50
	L 10 50
	L 10 51
	L 11 51
	L 12 51
	L 12 50
	L 12 49
	L 11 49
	L 11 50
	L 12 50
	L 12 49
	L 12 48
	L 11 48
	L 10 48
	L 10 49
	L 11 49
	L 11 48
	L 10 48
	L 9 48
	L 9 49
	L 9 50
	L 10 50
	L 10 49
	L 9 49
	L 9 50
	L 9 51
	L 9 52
	L 9 53
	L 10 53
	L 10 52
	L 9 52
	L 9 53
	L 9 54
	L 10 54
	L 11 54
	L 11 53
	L 10 53
	L 10 54
	L 11 54
	L 12 54
	L 13 54
	L 14 54
	L 14 53
	L 13 53
	L 13 54
	L 14 54
	L 15 54
	L 15 53
	L 15 52
	L 14 52
	L 14 53
	L 15 53
	L 15 52
	L 15 51
	L 14 51
	L 13 51
	L 13 52
	L 14 52
	L 14 51
	L 13 51
	L 12 51
	L 12 52
	L 12 53
	L 13 53
	L 13 52
	L 12 52
	L 12 53
	L 12 54
	L 13 54
	L 14 54
	L 14 53
	L 13 53
	L 13 54
	L 14 54
	L 15 54
	L 16 54
	L 17 54
	L 17 53
	L 16 53
	L 16 54
	L 17 54
	L 18 54
	L 19 54
	L 20 54
	L 20 53
	L 19 53
	L 19 54
	L 20 54
	L 21 54
	L 22 54
	L 23 54
	L 23 53
	L 22 53
	L 22 54
	L 23 54
	L 24 54
	L 24 53
	L 24 52
	L 23 52
	L 23 53
	L 24 53
	L 24 52
	L 24 51
	L 23 51
	L 22 51
	L 22 52
	L 23 52
	L 23 51
	L 22 51
	L 21 51
	L 21 52
	L 21 53
	L 22 53
	L 22 52
	L 21 52
	L 21 53
	L 21 54
	L 22 54
	L 23 54
	L 23 53
	L 22 53
	L 22 54
	L 23 54
	L 24 54
	L 25 54
	L 26 54
	L 26 53
	L 25 53
	L 25 54
	L 26 54
	L 27 54
	L 27 53
	L 27 52
	L 26 52
	L 26 53
	L 27 53
	L 27 52
	L 27 51
	L 27 50
	L 27 49
	L 26 49
	L 26 50
	L 27 50
	L 27 49
	L 27 48
	L 26 48
	L 25 48
	L 25 49
	L 26 49
	L 26 48
	L 25 48
	L 24 48
	L 24 49
	L 24 50
	L 25 50
	L 25 49
	L 24 49
	L 24 50
	L 24 51
	L 25 51
	L 26 51
	L 26 50
	L 25 50
	L 25 51
	L 26 51
	L 27 51
	L 27 50
	L 27 49
	L 26 49
	L 26 50
	L 27 50
	L 27 49
	L 27 48
	L 27 47
	L 27 46
	L 26 46
	L 26 47
	L 27 47
	L 27 46
	L 27 45
	L 27 44
	L 27 43
	L 26 43
	L 26 44
	L 27 44
	L 27 43
	L 27 42
	L 27 41
	L 27 40
	L 26 40
	L 26 41
	L 27 41
	L 27 40
	L 27 39
	L 26 39
	L 25 39
	L 25 40
	L 26 40
	L 26 39
	L 25 39
	L 24 39
	L 24 40
	L 24 41
	L 25 41
	L 25 40
	L 24 40
	L 24 41
	L 24 42
	L 25 42
	L 26 42
	L 26 41
	L 25 41
	L 25 42
	L 26 42
	L 27 42
	L 27 41
	L 27 40
	L 26 40
	L 26 41
	L 27 41
	L 27 40
	L 27 39
	L 27 38
	L 27 37
	L 26 37
	L 26 38
	L 27 38
	L 27 37
	L 27 36
	L 26 36
	L 25 36
	L 25 37
	L 26 37
	L 26 36
	L 25 36
	L 24 36
	L 23 36
	L 22 36
	L 22 37
	L 23 37
	L 23 36
	L 22 36
	L 21 36
	L 21 37
	L 21 38
	L 22 38
	L 22 37
	L 21 37
	L 21 38
	L 21 39
	L 22 39
	L 23 39
	L 23 38
	L 22 38
	L 22 39
	L 23 39
	L 24 39
	L 24 38
	L 24 37
	L 23 37
	L 23 38
	L 24 38
	L 24 37
	L 24 36
	L 23 36
	L 22 36
	L 22 37
	L 23 37
	L 23 36
	L 22 36
	L 21 36
	L 20 36
	L 19 36
	L 19 37
	L 20 37
	L 20 36
	L 19 36
	L 18 36
	L 18 37
	L 18 38
	L 19 38
	L 19 37
	L 18 37
	L 18 38
	L 18 39
	L 18 40
	L 18 41
	L 19 41
	L 19 40
	L 18 40
	L 18 41
	L 18 42
	L 19 42
	L 20 42
	L 20 41
	L 19 41
	L 19 42
	L 20 42
	L 21 42
	L 21 41
	L 21 40
	L 20 40
	L 20 41
	L 21 41
	L 21 40
	L 21 39
	L 20 39
	L 19 39
	L 19 40
	L 20 40
	L 20 39
	L 19 39
	L 18 39
	L 18 40
	L 18 41
	L 19 41
	L 19 40
	L 18 40
	L 18 41
	L 18 42
	L 18 43
	L 18 44
	L 19 44
	L 19 43
	L 18 43
	L 18 44
	L 18 45
	L 19 45
	L 20 45
	L 20 44
	L 19 44
	L 19 45
	L 20 45
	L 21 45
	L 22 45
	L 23 45
	L 23 44
	L 22 44
	L 22 45
	L 23 45
	L 24 45
	L 24 44
	L 24 43
	L 23 43
	L 23 44
	L 24 44
	L 24 43
	L 24 42
	L 23 42
	L 22 42
	L 22 43
	L 23 43
	L 23 42
	L 22 42
	L 21 42
	L 21 43
	L 21 44
	L 22 44
	L 22 43
	L 21 43
	L 21 44
	L 21 45
	L 22 45
	L 23 45
	L 23 44
	L 22 44
	L 22 45
	L 23 45
	L 24 45
	L 25 45
	L 26 45
	L 26 44
	L 25 44
	L 25 45
	L 26 45
	L 27 45
	L 27 44
	L 27 43
	L 26 43
	L 26 44
	L 27 44
	L 27 43
	L 27 42
	L 27 41
	L 27 40
	L 26 40
	L 26 41
	L 27 41
	L 27 40
	L 27 39
	L 26 39
	L 25 39
	L 25 40
	L 26 40
	L 26 39
	L 25 39
	L 24 39
	L 24 40
	L 24 41
	L 25 41
	L 25 40
	L 24 40
	L 24 41
	L 24 42
	L 25 42
	L 26 42
	L 26 41
	L 25 41
	L 25 42
	L 26 42
	L 27 42
	L 27 41
	L 27 40
	L 26 40
	L 26 41
	L 27 41
	L 27 40
	L 27 39
	L 27 38
	L 27 37
	L 26 37
	L 26 38
	L 27 38
	L 27 37
	L 27 36
	L 27 35
	L 27 34
	L 26 34
	L 26 35
	L 27 35
	L 27 34
	L 27 33
	L 27 32
	L 27 31
	L 26 31
	L 26 32
	L 27 32
	L 27 31
	L 27 30
	L 26 30
	L 25 30
	L 25 31
	L 26 31
	L 26 30
	L 25 30
	L 24 30
	L 24 31
	L 24 32
	L 25 32
	L 25 31
	L 24 31
	L 24 32
	L 24 33
	L 25 33
	L 26 33
	L 26 32
	L 25 32
	L 25 33
	L 26 33
	L 27 33
	L 27 32
	L 27 31
	L 26 31
	L 26 32
	L 27 32
	L 27 31
	L 27 30
	L 27 29
	L 27 28
	L 26 28
	L 26 29
	L 27 29
	L 27 28
	L 27 27
	L 26 27
	L 25 27
	L 25 28
	L 26 28
	L 26 27
	L 25 27
	L 24 27
	L 23 27
	L 22 27
	L 22 28
	L 23 28
	L 23 27
	L 22 27
	L 21 27
	L 21 28
	L 21 29
	L 22 29
	L 22 28
	L 21 28
	L 21 29
	L 21 30
	L 22 30
	L 23 30
	L 23 29
	L 22 29
	L 22 30
	L 23 30
	L 24 30
	L 24 29
	L 24 28
	L 23 28
	L 23 29
	L 24 29
	L 24 28
	L 24 27
	L 23 27
	L 22 27
	L 22 28
	L 23 28
	L 23 27
	L 22 27
	L 21 27
	L 20 27
	L 19 27
	L 19 28
	L 20 28
	L 20 27
	L 19 27
	L 18 27
	L 17 27
	L 16 27
	L 16 28
	L 17 28
	L 17 27
	L 16 27
	L 15 27
	L 14 27
	L 13 27
	L 13 28
	L 14 28
	L 14 27
	L 13 27
	L 12 27
	L 12 28
	L 12 29
	L 13 29
	L 13 28
	L 12 28
	L 12 29
	L 12 30
	L 13 30
	L 14 30
	L 14 29
	L 13 29
	L 13 30
	L 14 30
	L 15 30
	L 15 29
	L 15 28
	L 14 28
	L 14 29
	L 15 29
	L 15 28
	L 15 27
	L 14 27
	L 13 27
	L 13 28
	L 14 28
	L 14 27
	L 13 27
	L 12 27
	L 11 27
	L 10 27
	L 10 28
	L 11 28
	L 11 27
	L 10 27
	L 9 27
	L 9 28
	L 9 29
	L 10 29
	L 10 28
	L 9 28
	L 9 29
	L 9 30
	L 9 31
	L 9 32
	L 10 32
	L 10 31
	L 9 31
	L 9 32
	L 9 33
	L 10 33
	L 11 33
	L 11 32
	L 10 32
	L 10 33
	L 11 33
	L 12 33
	L 12 32
	L 12 31
	L 11 31
	L 11 32
	L 12 32
	L 12 31
	L 12 30
	L 11 30
	L 10 30
	L 10 31
	L 11 31
	L 11 30
	L 10 30
	L 9 30
	L 9 31
	L 9 32
	L 10 32
	L 10 31
	L 9 31
	L 9 32
	L 9 33
	L 9 34
	L 9 35
	L 10 35
	L 10 34
	L 9 34
	L 9 35
	L 9 36
	L 10 36
	L 11 36
	L 11 35
	L 10 35
	L 10 36
	L 11 36
	L 12 36
	L 13 36
	L 14 36
	L 14 35
	L 13 35
	L 13 36
	L 14 36
	L 15 36
	L 15 35
	L 15 34
	L 14 34
	L 14 35
	L 15 35
	L 15 34
	L 15 33
	L 14 33
	L 13 33
	L 13 34
	L 14 34
	L 14 33
	L 13 33
	L 12 33
	L 12 34
	L 12 35
	L 13 35
	L 13 34
	L 12 34
	L 12 35
	L 12 36
	L 13 36
	L 14 36
	L 14 35
	L 13 35
	L 13 36
	L 14 36
	L 15 36
	L 16 36
	L 17 36
	L 17 35
	L 16 35
	L 16 36
	L 17 36
	L 18 36
	L 18 35
	L 18 34
	L 17 34
	L 17 35
	L 18 35
	L 18 34
	L 18 33
	L 18 32
	L 18 31
	L 17 31
	L 17 32
	L 18 32
	L 18 31
	L 18 30
	L 17 30
	L 16 30
	L 16 31
	L 17 31
	L 17 30
	L 16 30
	L 15 30
	L 15 31
	L 15 32
	L 16 32
	L 16 31
	L 15 31
	L 15 32
	L 15 33
	L 16 33
	L 17 33
	L 17 32
	L 16 32
	L 16 33
	L 17 33
	L 18 33
	L 18 32
	L 18 31
	L 17 31
	L 17 32
	L 18 32
	L 18 31
	L 18 30
	L 18 29
	L 18 28
	L 17 28
	L 17 29
	L 18 29
	L 18 28
	L 18 27
	L 17 27
	L 16 27
	L 16 28
	L 17 28
	L 17 27
	L 16 27
	L 15 27
	L 14 27
	L 13 27
	L 13 28
	L 14 28
	L 14 27
	L 13 27
	L 12 27
	L 12 28
	L 12 29
	L 13 29
	L 13 28
	L 12 28
	L 12 29
	L 12 30
	L 13 30
	L 14 30
	L 14 29
	L 13 29
	L 13 30
	L 14 30
	L 15 30
	L 15 29
	L 15 28
	L 14 28
	L 14 29
	L 15 29
	L 15 28
	L 15 27
	L 14 27
	L 13 27
	L 13 28
	L 14 28
	L 14 27
	L 13 27
	L 12 27
	L 11 27
	L 10 27
	L 10 28
	L 11 28
	L 11 27
	L 10 27
	L 9 27
	L 8 27
	L 7 27
	L 7 28
	L 8 28
	L 8 27
	L 7 27
	L 6 27
	L 5 27
	L 4 27
	L 4 28
	L 5 28
	L 5 27
	L 4 27
	L 3 27
	L 3 28
	L 3 29
	L 4 29
	L 4 28
	L 3 28
	L 3 29
	L 3 30
	L 4 30
	L 5 30
	L 5 29
	L 4 29
	L 4 30
	L 5 30
	L 6 30
	L 6 29
	L 6 28
	L 5 28
	L 5 29
	L 6 29
	L 6 28
	L 6 27
	L 5 27
	L 4 27
	L 4 28
	L 5 28
	L 5 27
	L 4 27
	L 3 27
	L 2 27
	L 1 27
	L 1 28
	L 2 28
	L 2 27
	L 1 27
	L 1.048e-12 27
	L 8.555e-13 28
	L 6.629e-13 29
	L 1 29
	L 1 28
	L 7.527e-13 28
	L 7.66e-13 29
	L 7.792e-13 30
	L 7.925e-13 31
	L 8.058e-13 32
	L 1 32
	L 1 31
	L 6.897e-13 31
	L 6.814e-13 32
	L 6.731e-13 33
	L 1 33
	L 2 33
	L 2 32
	L 1 32
	L 1 33
	L 2 33
	L 3 33
	L 3 32
	L 3 31
	L 2 31
	L 2 32
	L 3 32
	L 3 31
	L 3 30
	L 2 30
	L 1 30
	L 1 31
	L 2 31
	L 2 30
	L 1 30
	L 6.009e-13 30
	L 5.063e-13 31
	L 4.118e-13 32
	L 1 32
	L 1 31
	L 6.306e-13 31
	L 5.145e-13 32
	L 3.984e-13 33
	L 2.823e-13 34
	L 1.662e-13 35
	L 1 35
	L 1 34
	L 1.792e-13 34
	L 2.689e-13 35
	L 3.586e-13 36
	L 4.483e-13 37
	L 5.38e-13 38
	L 1 38
	L 1 37
	L 5.729e-13 37
	L 6.41e-13 38
	L 7.092e-13 39
	L 7.773e-13 40
	L 8.454e-13 41
	L 1 41
	L 1 40
	L 1.129e-12 40
	L 9.483e-13 41
	L 7.675e-13 42
	L 1 42
	L 2 42
	L 2 41
	L 1 41
	L 1 42
	L 2 42
	L 3 42
	L 3 41
	L 3 40
	L 2 40
	L 2 41
	L 3 41
	L 3 40
	L 3 39
	L 2 39
	L 1 39
	L 1 40
	L 2 40
	L 2 39
	L 1 39
	L 1.211e-12 39
	L 1.172e-12 40
	L 1.132e-12 41
	L 1 41
	L 1 40
	L 1.069e-12 40
	L 1.008e-12 41
	L 9.465e-13 42
	L 8.852e-13 43
	L 8.24e-13 44
	L 1 44
	L 1 43
	L 7.823e-13 43
	L 4.721e-13 44
	L 1.619e-13 45
	L 1 45
	L 2 45
	L 2 44
	L 1 44
	L 1 45
	L 2 45
	L 3 45
	L 4 45
	L 5 45
	L 5 44
	L 4 44
	L 4 45
	L 5 45
	L 6 45
	L 6 44
	L 6 43
	L 5 43
	L 5 44
	L 6 44
	L 6 43
	L 6 42
	L 5 42
	L 4 42
	L 4 43
	L 5 43
	L 5 42
	L 4 42
	L 3 42
	L 3 43
	L 3 44
	L 4 44
	L 4 43
	L 3 43
	L 3 44
	L 3 45
	L 4 45
	L 5 45
	L 5 44
	L 4 44
	L 4 45
	L 5 45
	L 6 45
	L 7 45
	L 8 45
	L 8 44
	L 7 44
	L 7 45
	L 8 45
	L 9 45
	L 9 44
	L 9 43
	L 8 43
	L 8 44
	L 9 44
	L 9 43
	L 9 42
	L 9 41
	L 9 40
	L 8 40
	L 8 41
	L 9 41
	L 9 40
	L 9 39
	L 8 39
	L 7 39
	L 7 40
	L 8 40
	L 8 39
	L 7 39
	L 6 39
	L 6 40
	L 6 41
	L 7 41
	L 7 40
	L 6 40
	L 6 41
	L 6 42
	L 7 42
	L 8 42
	L 8 41
	L 7 41
	L 7 42
	L 8 42
	L 9 42
	L 9 41
	L 9 40
	L 8 40
	L 8 41
	L 9 41
	L 9 40
	L 9 39
	L 9 38
	L 9 37
	L 8 37
	L 8 38
	L 9 38
	L 9 37
	L 9 36
	L 8 36
	L 7 36
	L 7 37
	L 8 37
	L 8 36
	L 7 36
	L 6 36
	L 5 36
	L 4 36
	L 4 37
	L 5 37
	L 5 36
	L 4 36
	L 3 36
	L 3 37
	L 3 38
	L 4 38
	L 4 37
	L 3 37
	L 3 38
	L 3 39
	L 4 39
	L 5 39
	L 5 38
	L 4 38
	L 4 39
	L 5 39
	L 6 39
	L 6 38
	L 6 37
	L 5 37
	L 5 38
	L 6 38
	L 6 37
	L 6 36
	L 5 36
	L 4 36
	L 4 37
	L 5 37
	L 5 36
	L 4 36
	L 3 36
	L 2 36
	L 1 36
	L 1 37
	L 2 37
	L 2 36
	L 1 36
	L 1.629e-12 36
	L 1.462e-12 37
	L 1.295e-12 38
	L 1 38
	L 1 37
	L 1.586e-12 37
	L 1.625e-12 38
	L 1.664e-12 39
	L 1.703e-12 40
	L 1.741e-12 41
	L 1 41
	L 1 40
	L 1.827e-12 40
	L 2.072e-12 41
	L 2.316e-12 42
	L 1 42
	L 2 42
	L 2 41
	L 1 41
	L 1 42
	L 2 42
	L 3 42
	L 3 41
	L 3 40
	L 2 40
	L 2 41
	L 3 41
	L 3 40
	L 3 39
	L 2 39
	L 1 39
	L 1 40
	L 2 40
	L 2 39
	L 1 39
	L 2.622e-12 39
	L 2.325e-12 40
	L 2.029e-12 41
	L 1 41
	L 1 40
	L 1.995e-12 40
	L 1.905e-12 41
	L 1.814e-12 42
	L 1.723e-12 43
	L 1.633e-12 44
	L 1 44
	L 1 43
	L 1.848e-12 43
	L 1.963e-12 44
	L 2.078e-12 45
	L 2.193e-12 46
	L 2.309e-12 47
	L 1 47
	L 1 46
	L 2.318e-12 46
	L 2.184e-12 47
	L 2.05e-12 48
	L 1.917e-12 49
	L 1.783e-12 50
	L 1 50
	L 1 49
	L 2.041e-12 49
	L 2.113e-12 50
	L 2.185e-12 51
	L 1 51
	L 2 51
	L 2 50
	L 1 50
	L 1 51
	L 2 51
	L 3 51
	L 3 50
	L 3 49
	L 2 49
	L 2 50
	L 3 50
	L 3 49
	L 3 48
	L 2 48
	L 1 48
	L 1 49
	L 2 49
	L 2 48
	L 1 48
	L 2.099e-12 48
	L 2.085e-12 49
	L 2.07e-12 50
	L 1 50
	L 1 49
	L 2.209e-12 49
	L 2.401e-12 50
	L 2.592e-12 51
	L 2.784e-12 52
	L 2.975e-12 53
	L 1 53
	L 1 52
	L 2.908e-12 52
	L 2.851e-12 53
	L 2.794e-12 54
	L 2.736e-12 55
	L 2.679e-12 56
	L 1 56
	L 1 55
	L 2.861e-12 55
	L 2.555e-12 56
	L 2.249e-12 57
	L 1.942e-12 58
	L 1.636e-12 59
	L 1 59
	L 1 58
	L 1.612e-12 58
	L 1.512e-12 59
	L 1.411e-12 60
	L 1 60
	L 2 60
	L 2 59
	L 1 59
	L 1 60
	L 2 60
	L 3 60
	L 3 59
	L 3 58
	L 2 58
	L 2 59
	L 3 59
	L 3 58
	L 3 57
	L 2 57
	L 1 57
	L 1 58
	L 2 58
	L 2 57
	L 1 57
	L 1.843e-12 57
	L 1.656e-12 58
	L 1.469e-12 59
	L 1 59
	L 1 58
	L 1.326e-12 58
	L 1.345e-12 59
	L 1.364e-12 60
	L 1.383e-12 61
	L 1.402e-12 62
	L 1 62
	L 1 61
	L 1.507e-12 61
	L 1.278e-12 62
	L 1.048e-12 63
	L 8.181e-13 64
	L 5.883e-13 65
	L 1 65
	L 1 64
	L 4.876e-13 64
	L 4.636e-13 65
	L 4.396e-13 66
	L 4.157e-13 67
	L 3.917e-13 68
	L 1 68
	L 1 67
	L 5.402e-13 67
	L 2.673e-13 68
	L -5.598e-15 69
	L 1 69
	L 2 69
	L 2 68
	L 1 68
	L 1 69
	L 2 69
	L 3 69
	L 3 68
	L 3 67
	L 2 67
	L 2 68
	L 3 68
	L 3 67
	L 3 66
	L 2 66
	L 1 66
	L 1 67
	L 2 67
	L 2 66
	L 1 66
	L 9.419e-13 66
	L 5.828e-13 67
	L 2.236e-13 68
	L 1 68
	L 1 67
	L 2.525e-13 67
	L 9.912e-14 68
	L -5.423e-14 69
	L -2.076e-13 70
	L -3.609e-13 71
	L 1 71
	L 1 70
	L -5.379e-13 70
	L -4.854e-13 71
	L -4.33e-13 72
	L 1 72
	L 2 72
	L 2 71
	L 1 71
	L 1 72
	L 2 72
	L 3 72
	L 4 72
	L 5 72
	L 5 71
	L 4 71
	L 4 72
	L 5 72
	L 6 72
	L 6 71
	L 6 70
	L 5 70
	L 5 71
	L 6 71
	L 6 70
	L 6 69
	L 5 69
	L 4 69
	L 4 70
	L 5 70
	L 5 69
	L 4 69
	L 3 69
	L 3 70
	L 3 71
	L 4 71
	L 4 70
	L 3 70
	L 3 71
	L 3 72
	L 4 72
	L 5 72
	L 5 71
	L 4 71
	L 4 72
	L 5 72
	L 6 72
	L 7 72
	L 8 72
	L 8 71
	L 7 71
	L 7 72
	L 8 72
	L 9 72
	L 9 71
	L 9 70
	L 8 70
	L 8 71
	L 9 71
	L 9 70
	L 9 69
	L 9 68
	L 9 67
	L 8 67
	L 8 68
	L 9 68
	L 9 67
	L 9 66
	L 8 66
	L 7 66
	L 7 67
	L 8 67
	L 8 66
	L 7 66
	L 6 66
	L 6 67
	L 6 68
	L 7 68
	L 7 67
	L 6 67
	L 6 68
	L 6 69
	L 7 69
	L 8 69
	L 8 68
	L 7 68
	L 7 69
	L 8 69
	L 9 69
	L 9 68
	L 9 67
	L 8 67
	L 8 68
	L 9 68
	L 9 67
	L 9 66
	L 9 65
	L 9 64
	L 8 64
	L 8 65
	L 9 65
	L 9 64
	L 9 63
	L 8 63
	L 7 63
	L 7 64
	L 8 64
	L 8 63
	L 7 63
	L 6 63
	L 5 63
	L 4 63
	L 4 64
	L 5 64
	L 5 63
	L 4 63
	L 3 63
	L 3 64
	L 3 65
	L 4 65
	L 4 64
	L 3 64
	L 3 65
	L 3 66
	L 4 66
	L 5 66
	L 5 65
	L 4 65
	L 4 66
	L 5 66
	L 6 66
	L 6 65
	L 6 64
	L 5 64
	L 5 65
	L 6 65
	L 6 64
	L 6 63
	L 5 63
	L 4 63
	L 4 64
	L 5 64
	L 5 63
	L 4 63
	L 3 63
	L 2 63
	L 1 63
	L 1 64
	L 2 64
	L 2 63
	L 1 63
	L 2.744e-13 63
	L 1.525e-14 64
	L -2.439e-13 65
	L 1 65
	L 1 64
	L 1.397e-13 64
	L 8.629e-14 65
	L 3.291e-14 66
	L -2.048e-14 67
	L -7.386e-14 68
	L 1 68
	L 1 67
	L 1.039e-13 67
	L 2.563e-13 68
	L 4.088e-13 69
	L 1 69
	L 2 69
	L 2 68
	L 1 68
	L 1 69
	L 2 69
	L 3 69
	L 3 68
	L 3 67
	L 2 67
	L 2 68
	L 3 68
	L 3 67
	L 3 66
	L 2 66
	L 1 66
	L 1 67
	L 2 67
	L 2 66
	L 1 66
	L 8.127e-14 66
	L 1.475e-13 67
	L 2.136e-13 68
	L 1 68
	L 1 67
	L 2.718e-13 67
	L 8.903e-14 68
	L -9.371e-14 69
	L -2.765e-13 70
	L -4.592e-13 71
	L 1 71
	L 1 70
	L -1.52e-13 70
	L -1.289e-13 71
	L -1.059e-13 72
	L -8.28e-14 73
	L -5.973e-14 74
	L 1 74
	L 1 73
	L 4.174e-14 73
	L -1.841e-13 74
	L -4.1e-13 75
	L -6.359e-13 76
	L -8.617e-13 77
	L 1 77
	L 1 76
	L -9.661e-13 76
	L -9.862e-13 77
	L -1.006e-12 78
	L 1 78
	L 2 78
	L 2 77
	L 1 77
	L 1 78
	L 2 78
	L 3 78
	L 3 77
	L 3 76
	L 2 76
	L 2 77
	L 3 77
	L 3 76
	L 3 75
	L 2 75
	L 1 75
	L 1 76
	L 2 76
	L 2 75
	L 1 75
	L -3.615e-13 75
	L -4.678e-13 76
	L -5.741e-13 77
	L 1 77
	L 1 76
	L -3.433e-13 76
	L -2.438e-13 77
	L -1.443e-13 78
	L -4.475e-14 79
	L 5.476e-14 80
	L 1 80
	L 1 79
	L 7.971e-14 79
	L -6.971e-14 80
	L -2.191e-13 81
	L 1 81
	L 2 81
	L 2 80
	L 1 80
	L 1 81
	L 2 81
	L 3 81
	L 4 81
	L 5 81
	L 5 80
	L 4 80
	L 4 81
	L 5 81
	L 6 81
	L 6 80
	L 6 79
	L 5 79
	L 5 80
	L 6 80
	L 6 79
	L 6 78
	L 5 78
	L 4 78
	L 4 79
	L 5 79
	L 5 78
	L 4 78
	L 3 78
	L 3 79
	L 3 80
	L 4 80
	L 4 79
	L 3 79
	L 3 80
	L 3 81
	L 4 81
	L 5 81
	L 5 80
	L 4 80
	L 4 81
	L 5 81
	L 6 81
	L 7 81
	L 8 81
	L 8 80
	L 7 80
	L 7 81
	L 8 81
	L 9 81
	L 10 81
	L 11 81
	L 11 80
	L 10 80
	L 10 81
	L 11 81
	L 12 81
	L 13 81
	L 14 81
	L 14 80
	L 13 80
	L 13 81
	L 14 81
	L 15 81
	L 15 80
	L 15 79
	L 14 79
	L 14 80
	L 15 80
	L 15 79
	L 15 78
	L 14 78
	L 13 78
	L 13 79
	L 14 79
	L 14 78
	L 13 78
	L 12 78
	L 12 79
	L 12 80
	L 13 80
	L 13 79
	L 12 79
	L 12 80
	L 12 81
	L 13 81
	L 14 81
	L 14 80
	L 13 80
	L 13 81
	L 14 81
	L 15 81
	L 16 81
	L 17 81
	L 17 80
	L 16 80
	L 16 81
	L 17 81
	L 18 81
	L 18 80
	L 18 79
	L 17 79
	L 17 80
	L 18 80
	L 18 79
	L 18 78
	L 18 77
	L 18 76
	L 17 76
	L 17 77
	L 18 77
	L 18 76
	L 18 75
	L 17 75
	L 16 75
	L 16 76
	L 17 76
	L 17 75
	L 16 75
	L 15 75
	L 15 76
	L 15 77
	L 16 77
	L 16 76
	L 15 76
	L 15 77
	L 15 78
	L 16 78
	L 17 78
	L 17 77
	L 16 77
	L 16 78
	L 17 78
	L 18 78
	L 18 77
	L 18 76
	L 17 76
	L 17 77
	L 18 77
	L 18 76
	L 18 75
	L 18 74
	L 18 73
	L 17 73
	L 17 74
	L 18 74
	L 18 73
	L 18 72
	L 17 72
	L 16 72
	L 16 73
	L 17 73
	L 17 72
	L 16 72
	L 15 72
	L 14 72
	L 13 72
	L 13 73
	L 14 73
	L 14 72
	L 13 72
	L 12 72
	L 12 73
	L 12 74
	L 13 74
	L 13 73
	L 12 73
	L 12 74
	L 12 75
	L 13 75
	L 14 75
	L 14 74
	L 13 74
	L 13 75
	L 14 75
	L 15 75
	L 15 74
	L 15 73
	L 14 73
	L 14 74
	L 15 74
	L 15 73
	L 15 72
	L 14 72
	L 13 72
	L 13 73
	L 14 73
	L 14 72
	L 13 72
	L 12 72
	L 11 72
	L 10 72
	L 10 73
	L 11 73
	L 11 72
	L 10 72
	L 9 72
	L 9 73
	L 9 74
	L 10 74
	L 10 73
	L 9 73
	L 9 74
	L 9 75
	L 9 76
	L 9 77
	L 10 77
	L 10 76
	L 9 76
	L 9 77
	L 9 78
	L 10 78
	L 11 78
	L 11 77
	L 10 77
	L 10 78
	L 11 78
	L 12 78
	L 12 77
	L 12 76
	L 11 76
	L 11 77
	L 12 77
	L 12 76
	L 12 75
	L 11 75
	L 10 75
	L 10 76
	L 11 76
	L 11 75
	L 10 75
	L 9 75
	L 9 76
	L 9 77
	L 10 77
	L 10 76
	L 9 76
	L 9 77
	L 9 78
	L 9 79
	L 9 80
	L 10 80
	L 10 79
	L 9 79
	L 9 80
	L 9 81
	L 10 81
	L 11 81
	L 11 80
	L 10 80
	L 10 81
	L 11 81
	L 12 81
	L 13 81
	L 14 81
	L 14 80
	L 13 80
	L 13 81
	L 14 81
	L 15 81
	L 15 80
	L 15 79
	L 14 79
	L 14 80
	L 15 80
	L 15 79
	L 15 78
	L 14 78
	L 13 78
	L 13 79
	L 14 79
	L 14 78
	L 13 78
	L 12 78
	L 12 79
	L 12 80
	L 13 80
	L 13 79
	L 12 79
	L 12 80
	L 12 81
	L 13 81
	L 14 81
	L 14 80
	L 13 80
	L 13 81
	L 14 81
	L 15 81
	L 16 81
	L 17 81
	L 17 80
	L 16 80
	L 16 81
	L 17 81
	L 18 81
	L 19 81
	L 20 81
	L 20 80
	L 19 80
	L 19 81
	L 20 81
	L 21 81
	L 22 81
	L 23 81
	L 23 80
	L 22 80
	L 22 81
	L 23 81
	L 24 81
	L 24 80
	L 24 79
	L 23 79
	L 23 80
	L 24 80
	L 24 79
	L 24 78
	L 23 78
	L 22 78
	L 22 79
	L 23 79
	L 23 78
	L 22 78
	L 21 78
	L 21 79
	L 21 80
	L 22 80
	L 22 79
	L 21 79
	L 21 80
	L 21 81
	L 22 81
	L 23 81
	L 23 80
	L 22 80
	L 22 81
	L 23 81
	L 24 81
	L 25 81
	L 26 81
	L 26 80
	L 25 80
	L 25 81
	L 26 81
	L 27 81
	L 28 81
	L 29 81
	L 29 80
	L 28 80
	L 28 81
	L 29 81
	L 30 81
	L 31 81
	L 32 81
	L 32 80
	L 31 80
	L 31 81
	L 32 81
	L 33 81
	L 33 80
	L 33 79
	L 32 79
	L 32 80
	L 33 80
	L 33 79
	L 33 78
	L 32 78
	L 31 78
	L 31 79
	L 32 79
	L 32 78
	L 31 78
	L 30 78
	L 30 79
	L 30 80
	L 31 80
	L 31 79
	L 30 79
	L 30 80
	L 30 81
	L 31 81
	L 32 81
	L 32 80
	L 31 80
	L 31 81
	L 32 81
	L 33 81
	L 34 81
	L 35 81
	L 35 80
	L 34 80
	L 34 81
	L 35 81
	L 36 81
	L 37 81
	L 38 81
	L 38 80
	L 37 80
	L 37 81
	L 38 81
	L 39 81
	L 40 81
	L 41 81
	L 41 80
	L 40 80
	L 40 81
	L 41 81
	L 42 81
	L 42 80
	L 42 79
	L 41 79
	L 41 80
	L 42 80
	L 42 79
	L 42 78
	L 41 78
	L 40 78
	L 40 79
	L 41 79
	L 41 78
	L 40 78
	L 39 78
	L 39 79
	L 39 80
	L 40 80
	L 40 79
	L 39 79
	L 39 80
	L 39 81
	L 40 81
	L 41 81
	L 41 80
	L 40 80
	L 40 81
	L 41 81
	L 42 81
	L 43 81
	L 44 81
	L 44 80
	L 43 80
	L 43 81
	L 44 81
	L 45 81
	L 45 80
	L 45 79
	L 44 79
	L 44 80
	L 45 80
	L 45 79
	L 45 78
	L 45 77
	L 45 76
	L 44 76
	L 44 77
	L 45 77
	L 45 76
	L 45 75
	L 44 75
	L 43 75
	L 43 76
	L 44 76
	L 44 75
	L 43 75
	L 42 75
	L 42 76
	L 42 77
	L 43 77
	L 43 76
	L 42 76
	L 42 77
	L 42 78
	L 43 78
	L 44 78
	L 44 77
	L 43 77
	L 43 78
	L 44 78
	L 45 78
	L 45 77
	L 45 76
	L 44 76
	L 44 77
	L 45 77
	L 45 76
	L 45 75
	L 45 74
	L 45 73
	L 44 73
	L 44 74
	L 45 74
	L 45 73
	L 45 72
	L 44 72
	L 43 72
	L 43 73
	L 44 73
	L 44 72
	L 43 72
	L 42 72
	L 41 72
	L 40 72
	L 40 73
	L 41 73
	L 41 72
	L 40 72
	L 39 72
	L 39 73
	L 39 74
	L 40 74
	L 40 73
	L 39 73
	L 39 74
	L 39 75
	L 40 75
	L 41 75
	L 41 74
	L 40 74
	L 40 75
	L 41 75
	L 42 75
	L 42 74
	L 42 73
	L 41 73
	L 41 74
	L 42 74
	L 42 73
	L 42 72
	L 41 72
	L 40 72
	L 40 73
	L 41 73
	L 41 72
	L 40 72
	L 39 72
	L 38 72
	L 37 72
	L 37 73
	L 38 73
	L 38 72
	L 37 72
	L 36 72
	L 36 73
	L 36 74
	L 37 74
	L 37 73
	L 36 73
	L 36 74
	L 36 75
	L 36 76
	L 36 77
	L 37 77
	L 37 76
	L 36 76
	L 36 77
	L 36 78
	L 37 78
	L 38 78
	L 38 77
	L 37 77
	L 37 78
	L 38 78
	L 39 78
	L 39 77
	L 39 76
	L 38 76
	L 38 77
	L 39 77
	L 39 76
	L 39 75
	L 38 75
	L 37 75
	L 37 76
	L 38 76
	L 38 75
	L 37 75
	L 36 75
	L 36 76
	L 36 77
	L 37 77
	L 37 76
	L 36 76
	L 36 77
	L 36 78
	L 36 79
	L 36 80
	L 37 80
	L 37 79
	L 36 79
	L 36 80
	L 36 81
	L 37 81
	L 38 81
	L 38 80
	L 37 80
	L 37 81
	L 38 81
	L 39 81
	L 40 81
	L 41 81
	L 41 80
	L 40 80
	L 40 81
	L 41 81
	L 42 81
	L 42 80
	L 42 79
	L 41 79
	L 41 80
	L 42 80
	L 42 79
	L 42 78
	L 41 78
	L 40 78
	L 40 79
	L 41 79
	L 41 78
	L 40 78
	L 39 78
	L 39 79
	L 39 80
	L 40 80
	L 40 79
	L 39 79
	L 39 80
	L 39 81
	L 40 81
	L 41 81
	L 41 80
	L 40 80
	L 40 81
	L 41 81
	L 42 81
	L 43 81
	L 44 81
	L 44 80
	L 43 80
	L 43 81
	L 44 81
	L 45 81
	L 46 81
	L 47 81
	L 47 80
	L 46 80
	L 46 81
	L 47 81
	L 48 81
	L 49 81
	L 50 81
	L 50 80
	L 49 80
	L 49 81
	L 50 81
	L 51 81
	L 51 80
	L 51 79
	L 50 79
	L 50 80
	L 51 80
	L 51 79
	L 51 78
	L 50 78
	L 49 78
	L 49 79
	L 50 79
	L 50 78
	L 49 78
	L 48 78
	L 48 79
	L 48 80
	L 49 80
	L 49 79
	L 48 79
	L 48 80
	L 48 81
	L 49 81
	L 50 81
	L 50 80
	L 49 80
	L 49 81
	L 50 81
	L 51 81
	L 52 81
	L 53 81
	L 53 80
	L 52 80
	L 52 81
	L 53 81
	L 54 81
	L 54 80
	L 54 79
	L 53 79
	L 53 80
	L 54 80
	L 54 79
	L 54 78
	L 54 77
	L 54 76
	L 53 76
	L 53 77
	L 54 77
	L 54 76
	L 54 75
	L 53 75
	L 52 75
	L 52 76
	L 53 76
	L 53 75
	L 52 75
	L 51 75
	L 51 76
	L 51 77
	L 52 77
	L 52 76
	L 51 76
	L 51 77
	L 51 78
	L 52 78
	L 53 78
	L 53 77
	L 52 77
	L 52 78
	L 53 78
	L 54 78
	L 54 77
	L 54 76
	L 53 76
	L 53 77
	L 54 77
	L 54 76
	L 54 75
	L 54 74
	L 54 73
	L 53 73
	L 53 74
	L 54 74
	L 54 73
	L 54 72
	L 54 71
	L 54 70
	L 53 70
	L 53 71
	L 54 71
	L 54 70
	L 54 69
	L 54 68
	L 54 67
	L 53 67
	L 53 68
	L 54 68
	L 54 67
	L 54 66
	L 53 66
	L 52 66
	L 52 67
	L 53 67
	L 53 66
	L 52 66
	L 51 66
	L 51 67
	L 51 68
	L 52 68
	L 52 67
	L 51 67
	L 51 68
	L 51 69
	L 52 69
	L 53 69
	L 53 68
	L 52 68
	L 52 69
	L 53 69
	L 54 69
	L 54 68
	L 54 67
	L 53 67
	L 53 68
	L 54 68
	L 54 67
	L 54 66
	L 54 65
	L 54 64
	L 53 64
	L 53 65
	L 54 65
	L 54 64
	L 54 63
	L 53 63
	L 52 63
	L 52 64
	L 53 64
	L 53 63
	L 52 63
	L 51 63
	L 50 63
	L 49 63
	L 49 64
	L 50 64
	L 50 63
	L 49 63
	L 48 63
	L 48 64
	L 48 65
	L 49 65
	L 49 64
	L 48 64
	L 48 65
	L 48 66
	L 49 66
	L 50 66
	L 50 65
	L 49 65
	L 49 66
	L 50 66
	L 51 66
	L 51 65
	L 51 64
	L 50 64
	L 50 65
	L 51 65
	L 51 64
	L 51 63
	L 50 63
	L 49 63
	L 49 64
	L 50 64
	L 50 63
	L 49 63
	L 48 63
	L 47 63
	L 46 63
	L 46 64
	L 47 64
	L 47 63
	L 46 63
	L 45 63
	L 45 64
	L 45 65
	L 46 65
	L 46 64
	L 45 64
	L 45 65
	L 45 66
	L 45 67
	L 45 68
	L 46 68
	L 46 67
	L 45 67
	L 45 68
	L 45 69
	L 46 69
	L 47 69
	L 47 68
	L 46 68
	L 46 69
	L 47 69
	L 48 69
	L 48 68
	L 48 67
	L 47 67
	L 47 68
	L 48 68
	L 48 67
	L 48 66
	L 47 66
	L 46 66
	L 46 67
	L 47 67
	L 47 66
	L 46 66
	L 45 66
	L 45 67
	L 45 68
	L 46 68
	L 46 67
	L 45 67
	L 45 68
	L 45 69
	L 45 70
	L 45 71
	L 46 71
	L 46 70
	L 45 70
	L 45 71
	L 45 72
	L 46 72
	L 47 72
	L 47 71
	L 46 71
	L 46 72
	L 47 72
	L 48 72
	L 49 72
	L 50 72
	L 50 71
	L 49 71
	L 49 72
	L 50 72
	L 51 72
	L 51 71
	L 51 70
	L 50 70
	L 50 71
	L 51 71
	L 51 70
	L 51 69
	L 50 69
	L 49 69
	L 49 70
	L 50 70
	L 50 69
	L 49 69
	L 48 69
	L 48 70
	L 48 71
	L 49 71
	L 49 70
	L 48 70
	L 48 71
	L 48 72
	L 49 72
	L 50 72
	L 50 71
	L 49 71
	L 49 72
	L 50 72
	L 51 72
	L 52 72
	L 53 72
	L 53 71
	L 52 71
	L 52 72
	L 53 72
	L 54 72
	L 54 71
	L 54 70
	L 53 70
	L 53 71
	L 54 71
	L 54 70
	L 54 69
	L 54 68
	L 54 67
	L 53 67
	L 53 68
	L 54 68
	L 54 67
	L 54 66
	L 53 66
	L 52 66
	L 52 67
	L 53 67
	L 53 66
	L 52 66
	L 51 66
	L 51 67
	L 51 68
	L 52 68
	L 52 67
	L 51 67
	L 51 68
	L 51 69
	L 52 69
	L 53 69
	L 53 68
	L 52 68
	L 52 69
	L 53 69
	L 54 69
	L 54 68
	L 54 67
	L 53 67
	L 53 68
	L 54 68
	L 54 67
	L 54 66
	L 54 65
	L 54 64
	L 53 64
	L 53 65
	L 54 65
	L 54 64
	L 54 63
	L 54 62
	L 54 61
	L 53 61
	L 53 62
	L 54 62
	L 54 61
	L 54 60
	L 54 59
	L 54 58
	L 53 58
	L 53 59
	L 54 59
	L 54 58
	L 54 57
	L 53 57
	L 52 57
	L 52 58
	L 53 58
	L 53 57
	L 52 57
	L 51 57
	L 51 58
	L 51 59
	L 52 59
	L 52 58
	L 51 58
	L 51 59
	L 51 60
	L 52 60
	L 53 60
	L 53 59
	L 52 59
	L 52 60
	L 53 60
	L 54 60
	L 54 59
	L 54 58
	L 53 58
	L 53 59
	L 54 59
	L 54 58
	L 54 57
	L 54 56
	L 54 55
	L 53 55
	L 53 56
	L 54 56
	L 54 55
	L 54 54
	L 53 54
	L 52 54
	L 52 55
	L 53 55
	L 53 54
	L 52 54
	L 51 54
	L 50 54
	L 49 54
	L 49 55
	L 50 55
	L 50 54
	L 49 54
	L 48 54
	L 48 55
	L 48 56
	L 49 56
	L 49 55
	L 48 55
	L 48 56
	L 48 57
	L 49 57
	L 50 57
	L 50 56
	L 49 56
	L 49 57
	L 50 57
	L 51 57
	L 51 56
	L 51 55
	L 50 55
	L 50 56
	L 51 56
	L 51 55
	L 51 54
	L 50 54
	L 49 54
	L 49 55
	L 50 55
	L 50 54
	L 49 54
	L 48 54
	L 47 54
	L 46 54
	L 46 55
	L 47 55
	L 47 54
	L 46 54
	L 45 54
	L 44 54
	L 43 54
	L 43 55
	L 44 55
	L 44 54
	L 43 54
	L 42 54
	L 41 54
	L 40 54
	L 40 55
	L 41 55
	L 41 54
	L 40 54
	L 39 54
	L 39 55
	L 39 56
	L 40 56
	L 40 55
	L 39 55
	L 39 56
	L 39 57
	L 40 57
	L 41 57
	L 41 56
	L 40 56
	L 40 57
	L 41 57
	L 42 57
	L 42 56
	L 42 55
	L 41 55
	L 41 56
	L 42 56
	L 42 55
	L 42 54
	L 41 54
	L 40 54
	L 40 55
	L 41 55
	L 41 54
	L 40 54
	L 39 54
	L 38 54
	L 37 54
	L 37 55
	L 38 55
	L 38 54
	L 37 54
	L 36 54
	L 36 55
	L 36 56
	L 37 56
	L 37 55
	L 36 55
	L 36 56
	L 36 57
	L 36 58
	L 36 59
	L 37 59
	L 37 58
	L 36 58
	L 36 59
	L 36 60
	L 37 60
	L 38 60
	L 38 59
	L 37 59
	L 37 60
	L 38 60
	L 39 60
	L 39 59
	L 39 58
	L 38 58
	L 38 59
	L 39 59
	L 39 58
	L 39 57
	L 38 57
	L 37 57
	L 37 58
	L 38 58
	L 38 57
	L 37 57
	L 36 57
	L 36 58
	L 36 59
	L 37 59
	L 37 58
	L 36 58
	L 36 59
	L 36 60
	L 36 61
	L 36 62
	L 37 62
	L 37 61
	L 36 61
	L 36 62
	L 36 63
	L 37 63
	L 38 63
	L 38 62
	L 37 62
	L 37 63
	L 38 63
	L 39 63
	L 40 63
	L 41 63
	L 41 62
	L 40 62
	L 40 63
	L 41 63
	L 42 63
	L 42 62
	L 42 61
	L 41 61
	L 41 62
	L 42 62
	L 42 61
	L 42 60
	L 41 60
	L 40 60
	L 40 61
	L 41 61
	L 41 60
	L 40 60
	L 39 60
	L 39 61
	L 39 62
	L 40 62
	L 40 61
	L 39 61
	L 39 62
	L 39 63
	L 40 63
	L 41 63
	L 41 62
	L 40 62
	L 40 63
	L 41 63
	L 42 63
	L 43 63
	L 44 63
	L 44 62
	L 43 62
	L 43 63
	L 44 63
	L 45 63
	L 45 62
	L 45 61
	L 44 61
	L 44 62
	L 45 62
	L 45 61
	L 45 60
	L 45 59
	L 45 58
	L 44 58
	L 44 59
	L 45 59
	L 45 58
	L 45 57
	L 44 57
	L 43 57
	L 43 58
	L 44 58
	L 44 57
	L 43 57
	L 42 57
	L 42 58
	L 42 59
	L 43 59
	L 43 58
	L 42 58
	L 42 59
	L 42 60
	L 43 60
	L 44 60
	L 44 59
	L 43 59
	L 43 60
	L 44 60
	L 45 60
	L 45 59
	L 45 58
	L 44 58
	L 44 59
	L 45 59
	L 45 58
	L 45 57
	L 45 56
	L 45 55
	L 44 55
	L 44 56
	L 45 56
	L 45 55
	L 45 54
	L 44 54
	L 43 54
	L 43 55
	L 44 55
	L 44 54
	L 43 54
	L 42 54
	L 41 54
	L 40 54
	L 40 55
	L 41 55
	L 41 54
	L 40 54
	L 39 54
	L 39 55
	L 39 56
	L 40 56
	L 40 55
	L 39 55
	L 39 56
	L 39 57
	L 40 57
	L 41 57
	L 41 56
	L 40 56
	L 40 57
	L 41 57
	L 42 57
	L 42 56
	L 42 55
	L 41 55
	L 41 56
	L 42 56
	L 42 55
	L 42 54
	L 41 54
	L 40 54
	L 40 55
	L 41 55
	L 41 54
	L 40 54
	L 39 54
	L 38 54
	L 37 54
	L 37 55
	L 38 55
	L 38 54
	L 37 54
	L 36 54
	L 35 54
	L 34 54
	L 34 55
	L 35 55
	L 35 54
	L 34 54
	L 33 54
	L 32 54
	L 31 54
	L 31 55
	L 32 55
	L 32 54
	L 31 54
	L 30 54
	L 30 55
	L 30 56
	L 31 56
	L 31 55
	L 30 55
	L 30 56
	L 30 57
	L 31 57
	L 32 57
	L 32 56
	L 31 56
	L 31 57
	L 32 57
	L 33 57
	L 33 56
	L 33 55
	L 32 55
	L 32 56
	L 33 56
	L 33 55
	L 33 54
	L 32 54
	L 31 54
	L 31 55
	L 32 55
	L 32 54
	L 31 54
	L 30 54
	L 29 54
	L 28 54
	L 28 55
	L 29 55
	L 29 54
	L 28 54
	L 27 54
	L 27 55
	L 27 56
	L 28 56
	L 28 55
	L 27 55
	L 27 56
	L 27 57
	L 27 58
	L 27 59
	L 28 59
	L 28 58
	L 27 58
	L 27 59
	L 27 60
	L 28 60
	L 29 60
	L 29 59
	L 28 59
	L 28 60
	L 29 60
	L 30 60
	L 30 59
	L 30 58
	L 29 58
	L 29 59
	L 30 59
	L 30 58
	L 30 57
	L 29 57
	L 28 57
	L 28 58
	L 29 58
	L 29 57
	L 28 57
	L 27 57
	L 27 58
	L 27 59
	L 28 59
	L 28 58
	L 27 58
	L 27 59
	L 27 60
	L 27 61
	L 27 62
	L 28 62
	L 28 61
	L 27 61
	L 27 62
	L 27 63
	L 27 64
	L 27 65
	L 28 65
	L 28 64
	L 27 64
	L 27 65
	L 27 66
	L 27 67
	L 27 68
	L 28 68
	L 28 67
	L 27 67
	L 27 68
	L 27 69
	L 28 69
	L 29 69
	L 29 68
	L 28 68
	L 28 69
	L 29 69
	L 30 69
	L 30 68
	L 30 67
	L 29 67
	L 29 68
	L 30 68
	L 30 67
	L 30 66
	L 29 66
	L 28 66
	L 28 67
	L 29 67
	L 29 66
	L 28 66
	L 27 66
	L 27 67
	L 27 68
	L 28 68
	L 28 67
	L 27 67
	L 27 68
	L 27 69
	L 27 70
	L 27 71
	L 28 71
	L 28 70
	L 27 70
	L 27 71
	L 27 72
	L 28 72
	L 29 72
	L 29 71
	L 28 71
	L 28 72
	L 29 72
	L 30 72
	L 31 72
	L 32 72
	L 32 71
	L 31 71
	L 31 72
	L 32 72
	L 33 72
	L 33 71
	L 33 70
	L 32 70
	L 32 71
	L 33 71
	L 33 70
	L 33 69
	L 32 69
	L 31 69
	L 31 70
	L 32 70
	L 32 69
	L 31 69
	L 30 69
	L 30 70
	L 30 71
	L 31 71
	L 31 70
	L 30 70
	L 30 71
	L 30 72
	L 31 72
	L 32 72
	L 32 71
	L 31 71
	L 31 72
	L 32 72
	L 33 72
	L 34 72
	L 35 72
	L 35 71
	L 34 71
	L 34 72
	L 35 72
	L 36 72
	L 36 71
	L 36 70
	L 35 70
	L 35 71
	L 36 71
	L 36 70
	L 36 69
	L 36 68
	L 36 67
	L 35 67
	L 35 68
	L 36 68
	L 36 67
	L 36 66
	L 35 66
	L 34 66
	L 34 67
	L 35 67
	L 35 66
	L 34 66
	L 33 66
	L 33 67
	L 33 68
	L 34 68
	L 34 67
	L 33 67
	L 33 68
	L 33 69
	L 34 69
	L 35 69
	L 35 68
	L 34 68
	L 34 69
	L 35 69
	L 36 69
	L 36 68
	L 36 67
	L 35 67
	L 35 68
	L 36 68
	L 36 67
	L 36 66
	L 36 65
	L 36 64
	L 35 64
	L 35 65
	L 36 65
	L 36 64
	L 36 63
	L 35 63
	L 34 63
	L 34 64
	L 35 64
	L 35 63
	L 34 63
	L 33 63
	L 32 63
	L 31 63
	L 31 64
	L 32 64
	L 32 63
	L 31 63
	L 30 63
	L 30 64
	L 30 65
	L 31 65
	L 31 64
	L 30 64
	L 30 65
	L 30 66
	L 31 66
	L 32 66
	L 32 65
	L 31 65
	L 31 66
	L 32 66
	L 33 66
	L 33 65
	L 33 64
	L 32 64
	L 32 65
	L 33 65
	L 33 64
	L 33 63
	L 32 63
	L 31 63
	L 31 64
	L 32 64
	L 32 63
	L 31 63
	L 30 63
	L 29 63
	L 28 63
	L 28 64
	L 29 64
	L 29 63
	L 28 63
	L 27 63
	L 27 64
	L 27 65
	L 28 65
	L 28 64
	L 27 64
	L 27 65
	L 27 66
	L 27 67
	L 27 68
	L 28 68
	L 28 67
	L 27 67
	L 27 68
	L 27 69
	L 28 69
	L 29 69
	L 29 68
	L 28 68
	L 28 69
	L 29 69
	L 30 69
	L 30 68
	L 30 67
	L 29 67
	L 29 68
	L 30 68
	L 30 67
	L 30 66
	L 29 66
	L 28 66
	L 28 67
	L 29 67
	L 29 66
	L 28 66
	L 27 66
	L 27 67
	L 27 68
	L 28 68
	L 28 67
	L 27 67
	L 27 68
	L 27 69
	L 27 70
	L 27 71
	L 28 71
	L 28 70
	L 27 70
	L 27 71
	L 27 72
	L 27 73
	L 27 74
	L 28 74
	L 28 73
	L 27 73
	L 27 74
	L 27 75
	L 27 76
	L 27 77
	L 28 77
	L 28 76
	L 27 76
	L 27 77
	L 27 78
	L 28 78
	L 29 78
	L 29 77
	L 28 77
	L 28 78
	L 29 78
	L 30 78
	L 30 77
	L 30 76
	L 29 76
	L 29 77
	L 30 77
	L 30 76
	L 30 75
	L 29 75
	L 28 75
	L 28 76
	L 29 76
	L 29 75
	L 28 75
	L 27 75
	L 27 76
	L 27 77
	L 28 77
	L 28 76
	L 27 76
	L 27 77
	L 27 78
	L 27 79
	L 27 80
	L 28 80
	L 28 79
	L 27 79
	L 27 80
	L 27 81
	L 28 81
	L 29 81
	L 29 80
	L 28 80
	L 28 81
	L 29 81
	L 30 81
	L 31 81
	L 32 81
	L 32 80
	L 31 80
	L 31 81
	L 32 81
	L 33 81
	L 33 80
	L 33 79
	L 32 79
	L 32 80
	L 33 80
	L 33 79
	L 33 78
	L 32 78
	L 31 78
	L 31 79
	L 32 79
	L 32 78
	L 31 78
	L 30 78
	L 30 79
	L 30 80
	L 31 80
	L 31 79
	L 30 79
	L 30 80
	L 30 81
	L 31 81
	L 32 81
	L 32 80
	L 31 80
	L 31 81
	L 32 81
	L 33 81
	L 34 81
	L 35 81
	L 35 80
	L 34 80
	L 34 81
	L 35 81
	L 36 81
	L 37 81
	L 38 81
	L 38 80
	L 37 80
	L 37 81
	L 38 81
	L 39 81
	L 40 81
	L 41 81
	L 41 80
	L 40 80
	L 40 81
	L 41 81
	L 42 81
	L 42 80
	L 42 79
	L 41 79
	L 41 80
	L 42 80
	L 42 79
	L 42 78
	L 41 78
	L 40 78
	L 40 79
	L 41 79
	L 41 78
	L 40 78
	L 39 78
	L 39 79
	L 39 80
	L 40 80
	L 40 79
	L 39 79
	L 39 80
	L 39 81
	L 40 81
	L 41 81
	L 41 80
	L 40 80
	L 40 81
	L 41 81
	L 42 81
	L 43 81
	L 44 81
	L 44 80
	L 43 80
	L 43 81
	L 44 81
	L 45 81
	L 45 80
	L 45 79
	L 44 79
	L 44 80
	L 45 80
	L 45 79
	L 45 78
	L 45 77
	L 45 76
	L 44 76
	L 44 77
	L 45 77
	L 45 76
	L 45 75
	L 44 75
	L 43 75
	L 43 76
	L 44 76
	L 44 75
	L 43 75
	L 42 75
	L 42 76
	L 42 77
	L 43 77
	L 43 76
	L 42 76
	L 42 77
	L 42 78
	L 43 78
	L 44 78
	L 44 77
	L 43 77
	L 43 78
	L 44 78
	L 45 78
	L 45 77
	L 45 76
	L 44 76
	L 44 77
	L 45 77
	L 45 76
	L 45 75
	L 45 74
	L 45 73
	L 44 73
	L 44 74
	L 45 74
	L 45 73
	L 45 72
	L 44 72
	L 43 72
	L 43 73
	L 44 73
	L 44 72
	L 43 72
	L 42 72
	L 41 72
	L 40 72
	L 40 73
	L 41 73
	L 41 72
	L 40 72
	L 39 72
	L 39 73
	L 39 74
	L 40 74
	L 40 73
	L 39 73
	L 39 74
	L 39 75
	L 40 75
	L 41 75
	L 41 74
	L 40 74
	L 40 75
	L 41 75
	L 42 75
	L 42 74
	L 42 73
	L 41 73
	L 41 74
	L 42 74
	L 42 73
	L 42 72
	L 41 72
	L 40 72
	L 40 73
	L 41 73
	L 41 72
	L 40 72
	L 39 72
	L 38 72
	L 37 72
	L 37 73
	L 38 73
	L 38 72
	L 37 72
	L 36 72
	L 36 73
	L 36 74
	L 37 74
	L 37 73
	L 36 73
	L 36 74
	L 36 75
	L 36 76
	L 36 77
	L 37 77
	L 37 76
	L 36 76
	L 36 77
	L 36 78
	L 37 78
	L 38 78
	L 38 77
	L 37 77
	L 37 78
	L 38 78
	L 39 78
	L 39 77
	L 39 76
	L 38 76
	L 38 77
	L 39 77
	L 39 76
	L 39 75
	L 38 75
	L 37 75
	L 37 76
	L 38 76
	L 38 75
	L 37 75
	L 36 75
	L 36 76
	L 36 77
	L 37 77
	L 37 76
	L 36 76
	L 36 77
	L 36 78
	L 36 79
	L 36 80
	L 37 80
	L 37 79
	L 36 79
	L 36 80
	L 36 81
	L 37 81
	L 38 81
	L 38 80
	L 37 80
	L 37 81
	L 38 81
	L 39 81
	L 40 81
	L 41 81
	L 41 80
	L 40 80
	L 40 81
	L 41 81
	L 42 81
	L 42 80
	L 42 79
	L 41 79
	L 41 80
	L 42 80
	L 42 79
	L 42 78
	L 41 78
	L 40 78
	L 40 79
	L 41 79
	L 41 78
	L 40 78
	L 39 78
	L 39 79
	L 39 80
	L 40 80
	L 40 79
	L 39 79
	L 39 80
	L 39 81
	L 40 81
	L 41 81
	L 41 80
	L 40 80
	L 40 81
	L 41 81
	L 42 81
	L 43 81
	L 44 81
	L 44 80
	L 43 80
	L 43 81
	L 44 81
	L 45 81
	L 46 81
	L 47 81
	L 47 80
	L 46 80
	L 46 81
	L 47 81
	L 48 81
	L 49 81
	L 50 81
	L 50 80
	L 49 80
	L 49 81
	L 50 81
	L 51 81
	L 51 80
	L 51 79
	L 50 79
	L 50 80
	L 51 80
	L 51 79
	L 51 78
	L 50 78
	L 49 78
	L 49 79
	L 50 79
	L 50 78
	L 49 78
	L 48 78
	L 48 79
	L 48 80
	L 49 80
	L 49 79
	L 48 79
	L 48 80
	L 48 81
	L 49 81
	L 50 81
	L 50 80
	L 49 80
	L 49 81
	L 50 81
	L 51 81
	L 52 81
	L 53 81
	L 53 80
	L 52 80
	L 52 81
	L 53 81
	L 54 81
	L 55 81
	L 56 81
	L 56 80
	L 55 80
	L 55 81
	L 56 81
	L 57 81
	L 58 81
	L 59 81
	L 59 80
	L 58 80
	L 58 81
	L 59 81
	L 60 81
	L 60 80
	L 60 79
	L 59 79
	L 59 80
	L 60 80
	L 60 79
	L 60 78
	L 59 78
	L 58 78
	L 58 79
	L 59 79
	L 59 78
	L 58 78
	L 57 78
	L 57 79
	L 57 80
	L 58 80
	L 58 79
	L 57 79
	L 57 80
	L 57 81
	L 58 81
	L 59 81
	L 59 80
	L 58 80
	L 58 81
	L 59 81
	L 60 81
	L 61 81
	L 62 81
	L 62 80
	L 61 80
	L 61 81
	L 62 81
	L 63 81
	L 64 81
	L 65 81
	L 65 80
	L 64 80
	L 64 81
	L 65 81
	L 66 81
	L 67 81
	L 68 81
	L 68 80
	L 67 80
	L 67 81
	L 68 81
	L 69 81
	L 69 80
	L 69 79
	L 68 79
	L 68 80
	L 69 80
	L 69 79
	L 69 78
	L 68 78
	L 67 78
	L 67 79
	L 68 79
	L 68 78
	L 67 78
	L 66 78
	L 66 79
	L 66 80
	L 67 80
	L 67 79
	L 66 79
	L 66 80
	L 66 81
	L 67 81
	L 68 81
	L 68 80
	L 67 80
	L 67 81
	L 68 81
	L 69 81
	L 70 81
	L 71 81
	L 71 80
	L 70 80
	L 70 81
	L 71 81
	L 72 81
	L 72 80
	L 72 79
	L 71 79
	L 71 80
	L 72 80
	L 72 79
	L 72 78
	L 72 77
	L 72 76
	L 71 76
	L 71 77
	L 72 77
	L 72 76
	L 72 75
	L 71 75
	L 70 75
	L 70 76
	L 71 76
	L 71 75
	L 70 75
	L 69 75
	L 69 76
	L 69 77
	L 70 77
	L 70 76
	L 69 76
	L 69 77
	L 69 78
	L 70 78
	L 71 78
	L 71 77
	L 70 77
	L 70 78
	L 71 78
	L 72 78
	L 72 77
	L 72 76
	L 71 76
	L 71 77
	L 72 77
	L 72 76
	L 72 75
	L 72 74
	L 72 73
	L 71 73
	L 71 74
	L 72 74
	L 72 73
	L 72 72
	L 71 72
	L 70 72
	L 70 73
	L 71 73
	L 71 72
	L 70 72
	L 69 72
	L 68 72
	L 67 72
	L 67 73
	L 68 73
	L 68 72
	L 67 72
	L 66 72
	L 66 73
	L 66 74
	L 67 74
	L 67 73
	L 66 73
	L 66 74
	L 66 75
	L 67 75
	L 68 75
	L 68 74
	L 67 74
	L 67 75
	L 68 75
	L 69 75
	L 69 74
	L 69 73
	L 68 73
	L 68 74
	L 69 74
	L 69 73
	L 69 72
	L 68 72
	L 67 72
	L 67 73
	L 68 73
	L 68 72
	L 67 72
	L 66 72
	L 65 72
	L 64 72
	L 64 73
	L 65 73
	L 65 72
	L 64 72
	L 63 72
	L 63 73
	L 63 74
	L 64 74
	L 64 73
	L 63 73
	L 63 74
	L 63 75
	L 63 76
	L 63 77
	L 64 77
	L 64 76
	L 63 76
	L 63 77
	L 63 78
	L 64 78
	L 65 78
	L 65 77
	L 64 77
	L 64 78
	L 65 78
	L 66 78
	L 66 77
	L 66 76
	L 65 76
	L 65 77
	L 66 77
	L 66 76
	L 66 75
	L 65 75
	L 64 75
	L 64 76
	L 65 76
	L 65 75
	L 64 75
	L 63 75
	L 63 76
	L 63 77
	L 64 77
	L 64 76
	L 63 76
	L 63 77
	L 63 78
	L 63 79
	L 63 80
	L 64 80
	L 64 79
	L 63 79
	L 63 80
	L 63 81
	L 64 81
	L 65 81
	L 65 80
	L 64 80
	L 64 81
	L 65 81
	L 66 81
	L 67 81
	L 68 81
	L 68 80
	L 67 80
	L 67 81
	L 68 81
	L 69 81
	L 69 80
	L 69 79
	L 68 79
	L 68 80
	L 69 80
	L 69 79
	L 69 78
	L 68 78
	L 67 78
	L 67 79
	L 68 79
	L 68 78
	L 67 78
	L 66 78
	L 66 79
	L 66 80
	L 67 80
	L 67 79
	L 66 79
	L 66 80
	L 66 81
	L 67 81
	L 68 81
	L 68 80
	L 67 80
	L 67 81
	L 68 81
	L 69 81
	L 70 81
	L 71 81
	L 71 80
	L 70 80
	L 70 81
	L 71 81
	L 72 81
	L 73 81
	L 74 81
	L 74 80
	L 73 80
	L 73 81
	L 74 81
	L 75 81
	L 76 81
	L 77 81
	L 77 80
	L 76 80
	L 76 81
	L 77 81
	L 78 81
	L 78 80
	L 78 79
	L 77 79
	L 77 80
	L 78 80
	L 78 79
	L 78 78
	L 77 78
	L 76 78
	L 76 79
	L 77 79
	L 77 78
	L 76 78
	L 75 78
	L 75 79
	L 75 80
	L 76 80
	L 76 79
	L 75 79
	L 75 80
	L 75 81
	L 76 81
	L 77 81
	L 77 80
	L 76 80
	L 76 81
	L 77 81
	L 78 81
	L 79 81
	L 80 81
	L 80 80
	L 79 80
	L 79 81
	L 80 81
	L 81 81
	L 81 80
	L 81 79
	L 80 79
	L 80 80
	L 81 80
	L 81 79
	L 81 78
	L 81 77
	L 81 76
	L 80 76
	L 80 77
	L 81 77
	L 81 76
	L 81 75
	L 80 75
	L 79 75
	L 79 76
	L 80 76
	L 80 75
	L 79 75
	L 78 75
	L 78 76
	L 78 77
	L 79 77
	L 79 76
	L 78 76
	L 78 77
	L 78 78
	L 79 78
	L 80 78
	L 80 77
	L 79 77
	L 79 78
	L 80 78
	L 81 78
	L 81 77
	L 81 76
	L 80 76
	L 80 77
	L 81 77
	L 81 76
	L 81 75
	L 81 74
	L 81 73
	L 80 73
	L 80 74
	L 81 74
	L 81 73
	L 81 72
	L 81 71
	L 81 70
	L 80 70
	L 80 71
	L 81 71
	L 81 70
	L 81 69
	L 81 68
	L 81 67
	L 80 67
	L 80 68
	L 81 68
	L 81 67
	L 81 66
	L 80 66
	L 79 66
	L 79 67
	L 80 67
	L 80 66
	L 79 66
	L 78 66
	L 78 67
	L 78 68
	L 79 68
	L 79 67
	L 78 67
	L 78 68
	L 78 69
	L 79 69
	L 80 69
	L 80 68
	L 79 68
	L 79 69
	L 80 69
	L 81 69
	L 81 68
	L 81 67
	L 80 67
	L 80 68
	L 81 68
	L 81 67
	L 81 66
	L 81 65
	L 81 64
	L 80 64
	L 80 65
	L 81 65
	L 81 64
	L 81 63
	L 80 63
	L 79 63
	L 79 64
	L 80 64
	L 80 63
	L 79 63
	L 78 63
	L 77 63
	L 76 63
	L 76 64
	L 77 64
	L 77 63
	L 76 63
	L 75 63
	L 75 64
	L 75 65
	L 76 65
	L 76 64
	L 75 64
	L 75 65
	L 75 66
	L 76 66
	L 77 66
	L 77 65
	L 76 65
	L 76 66
	L 77 66
	L 78 66
	L 78 65
	L 78 64
	L 77 64
	L 77 65
	L 78 65
	L 78 64
	L 78 63
	L 77 63
	L 76 63
	L 76 64
	L 77 64
	L 77 63
	L 76 63
	L 75 63
	L 74 63
	L 73 63
	L 73 64
	L 74 64
	L 74 63
	L 73 63
	L 72 63
	L 72 64
	L 72 65
	L 73 65
	L 73 64
	L 72 64
	L 72 65
	L 72 66
	L 72 67
	L 72 68
	L 73 68
	L 73 67
	L 72 67
	L 72 68
	L 72 69
	L 73 69
	L 74 69
	L 74 68
	L 73 68
	L 73 69
	L 74 69
	L 75 69
	L 75 68
	L 75 67
	L 74 67
	L 74 68
	L 75 68
	L 75 67
	L 75 66
	L 74 66
	L 73 66
	L 73 67
	L 74 67
	L 74 66
	L 73 66
	L 72 66
	L 72 67
	L 72 68
	L 73 68
	L 73 67
	L 72 67
	L 72 68
	L 72 69
	L 72 70
	L 72 71
	L 73 71
	L 73 70
	L 72 70
	L 72 71
	L 72 72
	L 73 72
	L 74 72
	L 74 71
	L 73 71
	L 73 72
	L 74 72
	L 75 72
	L 76 72
	L 77 72
	L 77 71
	L 76 71
	L 76 72
	L 77 72
	L 78 72
	L 78 71
	L 78 70
	L 77 70
	L 77 71
	L 78 71
	L 78 70
	L 78 69
	L 77 69
	L 76 69
	L 76 70
	L 77 70
	L 77 69
	L 76 69
	L 75 69
	L 75 70
	L 75 71
	L 76 71
	L 76 70
	L 75 70
	L 75 71
	L 75 72
	L 76 72
	L 77 72
	L 77 71
	L 76 71
	L 76 72
	L 77 72
	L 78 72
	L 79 72
	L 80 72
	L 80 71
	L 79 71
	L 79 72
	L 80 72
	L 81 72
	L 81 71
	L 81 70
	L 80 70
	L 80 71
	L 81 71
	L 81 70
	L 81 69
	L 81 68
	L 81 67
	L 80 67
	L 80 68
	L 81 68
	L 81 67
	L 81 66
	L 80 66
	L 79 66
	L 79 67
	L 80 67
	L 80 66
	L 79 66
	L 78 66
	L 78 67
	L 78 68
	L 79 68
	L 79 67
	L 78 67
	L 78 68
	L 78 69
	L 79 69
	L 80 69
	L 80 68
	L 79 68
	L 79 69
	L 80 69
	L 81 69
	L 81 68
	L 81 67
	L 80 67
	L 80 68
	L 81 68
	L 81 67
	L 81 66
	L 81 65
	L 81 64
	L 80 64
	L 80 65
	L 81 65
	L 81 64
	L 81 63
	L 81 62
	L 81 61
	L 80 61
	L 80 62
	L 81 62
	L 81 61
	L 81 60
	L 81 59
	L 81 58
	L 80 58
	L 80 59
	L 81 59
	L 81 58
	L 81 57
	L 80 57
	L 79 57
	L 79 58
	L 80 58
	L 80 57
	L 79 57
	L 78 57
	L 78 58
	L 78 59
	L 79 59
	L 79 58
	L 78 58
	L 78 59
	L 78 60
	L 79 60
	L 80 60
	L 80 59
	L 79 59
	L 79 60
	L 80 60
	L 81 60
	L 81 59
	L 81 58
	L 80 58
	L 80 59
	L 81 59
	L 81 58
	L 81 57
	L 81 56
	L 81 55
	L 80 55
	L 80 56
	L 81 56
	L 81 55
	L 81 54
	L 81 53
	L 81 52
	L 80 52
	L 80 53
	L 81 53
	L 81 52
	L 81 51
	L 81 50
	L 81 49
	L 80 49
	L 80 50
	L 81 50
	L 81 49
	L 81 48
	L 80 48
	L 79 48
	L 79 49
	L 80 49
	L 80 48
	L 79 48
	L 78 48
	L 78 49
	L 78 50
	L 79 50
	L 79 49
	L 78 49
	L 78 50
	L 78 51
	L 79 51
	L 80 51
	L 80 50
	L 79 50
	L 79 51
	L 80 51
	L 81 51
	L 81 50
	L 81 49
	L 80 49
	L 80 50
	L 81 50
	L 81 49
	L 81 48
	L 81 47
	L 81 46
	L 80 46
	L 80 47
	L 81 47
	L 81 46
	L 81 45
	L 81 44
	L 81 43
	L 80 43
	L 80 44
	L 81 44
	L 81 43
	L 81 42
	L 81 41
	L 81 40
	L 80 40
	L 80 41
	L 81 41
	L 81 40
	L 81 39
	L 80 39
	L 79 39
	L 79 40
	L 80 40
	L 80 39
	L 79 39
	L 78 39
	L 78 40
	L 78 41
	L 79 41
	L 79 40
	L 78 40
	L 78 41
	L 78 42
	L 79 42
	L 80 42
	L 80 41
	L 79 41
	L 79 42
	L 80 42
	L 81 42
	L 81 41
	L 81 40
	L 80 40
	L 80 41
	L 81 41
	L 81 40
	L 81 39
	L 81 38
	L 81 37
	L 80 37
	L 80 38
	L 81 38
	L 81 37
	L 81 36
	L 80 36
	L 79 36
	L 79 37
	L 80 37
	L 80 36
	L 79 36
	L 78 36
	L 77 36
	L 76 36
	L 76 37
	L 77 37
	L 77 36
	L 76 36
	L 75 36
	L 75 37
	L 75 38
	L 76 38
	L 76 37
	L 75 37
	L 75 38
	L 75 39
	L 76 39
	L 77 39
	L 77 38
	L 76 38
	L 76 39
	L 77 39
	L 78 39
	L 78 38
	L 78 37
	L 77 37
	L 77 38
	L 78 38
	L 78 37
	L 78 36
	L 77 36
	L 76 36
	L 76 37
	L 77 37
	L 77 36
	L 76 36
	L 75 36
	L 74 36
	L 73 36
	L 73 37
	L 74 37
	L 74 36
	L 73 36
	L 72 36
	L 72 37
	L 72 38
	L 73 38
	L 73 37
	L 72 37
	L 72 38
	L 72 39
	L 72 40
	L 72 41
	L 73 41
	L 73 40
	L 72 40
	L 72 41
	L 72 42
	L 73 42
	L 74 42
	L 74 41
	L 73 41
	L 73 42
	L 74 42
	L 75 42
	L 75 41
	L 75 40
	L 74 40
	L 74 41
	L 75 41
	L 75 40
	L 75 39
	L 74 39
	L 73 39
	L 73 40
	L 74 40
	L 74 39
	L 73 39
	L 72 39
	L 72 40
	L 72 41
	L 73 41
	L 73 40
	L 72 40
	L 72 41
	L 72 42
	L 72 43
	L 72 44
	L 73 44
	L 73 43
	L 72 43
	L 72 44
	L 72 45
	L 73 45
	L 74 45
	L 74 44
	L 73 44
	L 73 45
	L 74 45
	L 75 45
	L 76 45
	L 77 45
	L 77 44
	L 76 44
	L 76 45
	L 77 45
	L 78 45
	L 78 44
	L 78 43
	L 77 43
	L 77 44
	L 78 44
	L 78 43
	L 78 42
	L 77 42
	L 76 42
	L 76 43
	L 77 43
	L 77 42
	L 76 42
	L 75 42
	L 75 43
	L 75 44
	L 76 44
	L 76 43
	L 75 43
	L 75 44
	L 75 45
	L 76 45
	L 77 45
	L 77 44
	L 76 44
	L 76 45
	L 77 45
	L 78 45
	L 79 45
	L 80 45
	L 80 44
	L 79 44
	L 79 45
	L 80 45
	L 81 45
	L 81 44
	L 81 43
	L 80 43
	L 80 44
	L 81 44
	L 81 43
	L 81 42
	L 81 41
	L 81 40
	L 80 40
	L 80 41
	L 81 41
	L 81 40
	L 81 39
	L 80 39
	L 79 39
	L 79 40
	L 80 40
	L 80 39
	L 79 39
	L 78 39
	L 78 40
	L 78 41
	L 79 41
	L 79 40
	L 78 40
	L 78 41
	L 78 42
	L 79 42
	L 80 42
	L 80 41
	L 79 41
	L 79 42
	L 80 42
	L 81 42
	L 81 41
	L 81 40
	L 80 40
	L 80 41
	L 81 41
	L 81 40
	L 81 39
	L 81 38
	L 81 37
	L 80 37
	L 80 38
	L 81 38
	L 81 37
	L 81 36
	L 81 35
	L 81 34
	L 80 34
	L 80 35
	L 81 35
	L 81 34
	L 81 33
	L 81 32
	L 81 31
	L 80 31
	L 80 32
	L 81 32
	L 81 31
	L 81 30
	L 80 30
	L 79 30
	L 79 31
	L 80 31
	L 80 30
	L 79 30
	L 78 30
	L 78 31
	L 78 32
	L 79 32
	L 79 31
	L 78 31
	L 78 32
	L 78 33
	L 79 33
	L 80 33
	L 80 32
	L 79 32
	L 79 33
	L 80 33
	L 81 33
	L 81 32
	L 81 31
	L 80 31
	L 80 32
	L 81 32
	L 81 31
	L 81 30
	L 81 29
	L 81 28
	L 80 28
	L 80 29
	L 81 29
	L 81 28
	L 81 27
	L 80 27
	L 79 27
	L 79 28
	L 80 28
	L 80 27
	L 79 27
	L 78 27
	L 77 27
	L 76 27
	L 76 28
	L 77 28
	L 77 27
	L 76 27
	L 75 27
	L 75 28
	L 75 29
	L 76 29
	L 76 28
	L 75 28
	L 75 29
	L 75 30
	L 76 30
	L 77 30
	L 77 29
	L 76 29
	L 76 30
	L 77 30
	L 78 30
	L 78 29
	L 78 28
	L 77 28
	L 77 29
	L 78 29
	L 78 28
	L 78 27
	L 77 27
	L 76 27
	L 76 28
	L 77 28
	L 77 27
	L 76 27
	L 75 27
	L 74 27
	L 73 27
	L 73 28
	L 74 28
	L 74 27
	L 73 27
	L 72 27
	L 71 27
	L 70 27
	L 70 28
	L 71 28
	L 71 27
	L 70 27
	L 69 27
	L 68 27
	L 67 27
	L 67 28
	L 68 28
	L 68 27
	L 67 27
	L 66 27
	L 66 28
	L 66 29
	L 67 29
	L 67 28
	L 66 28
	L 66 29
	L 66 30
	L 67 30
	L 68 30
	L 68 29
	L 67 29
	L 67 30
	L 68 30
	L 69 30
	L 69 29
	L 69 28
	L 68 28
	L 68 29
	L 69 29
	L 69 28
	L 69 27
	L 68 27
	L 67 27
	L 67 28
	L 68 28
	L 68 27
	L 67 27
	L 66 27
	L 65 27
	L 64 27
	L 64 28
	L 65 28
	L 65 27
	L 64 27
	L 63 27
	L 63 28
	L 63 29
	L 64 29
	L 64 28
	L 63 28
	L 63 29
	L 63 30
	L 63 31
	L 63 32
	L 64 32
	L 64 31
	L 63 31
	L 63 32
	L 63 33
	L 64 33
	L 65 33
	L 65 32
	L 64 32
	L 64 33
	L 65 33
	L 66 33
	L 66 32
	L 66 31
	L 65 31
	L 65 32
	L 66 32
	L 66 31
	L 66 30
	L 65 30
	L 64 30
	L 64 31
	L 65 31
	L 65 30
	L 64 30
	L 63 30
	L 63 31
	L 63 32
	L 64 32
	L 64 31
	L 63 31
	L 63 32
	L 63 33
	L 63 34
	L 63 35
	L 64 35
	L 64 34
	L 63 34
	L 63 35
	L 63 36
	L 64 36
	L 65 36
	L 65 35
	L 64 35
	L 64 36
	L 65 36
	L 66 36
	L 67 36
	L 68 36
	L 68 35
	L 67 35
	L 67 36
	L 68 36
	L 69 36
	L 69 35
	L 69 34
	L 68 34
	L 68 35
	L 69 35
	L 69 34
	L 69 33
	L 68 33
	L 67 33
	L 67 34
	L 68 34
	L 68 33
	L 67 33
	L 66 33
	L 66 34
	L 66 35
	L 67 35
	L 67 34
	L 66 34
	L 66 35
	L 66 36
	L 67 36
	L 68 36
	L 68 35
	L 67 35
	L 67 36
	L 68 36
	L 69 36
	L 70 36
	L 71 36
	L 71 35
	L 70 35
	L 70 36
	L 71 36
	L 72 36
	L 72 35
	L 72 34
	L 71 34
	L 71 35
	L 72 35
	L 72 34
	L 72 33
	L 72 32
	L 72 31
	L 71 31
	L 71 32
	L 72 32
	L 72 31
	L 72 30
	L 71 30
	L 70 30
	L 70 31
	L 71 31
	L 71 30
	L 70 30
	L 69 30
	L 69 31
	L 69 32
	L 70 32
	L 70 31
	L 69 31
	L 69 32
	L 69 33
	L 70 33
	L 71 33
	L 71 32
	L 70 32
	L 70 33
	L 71 33
	L 72 33
	L 72 32
	L 72 31
	L 71 31
	L 71 32
	L 72 32
	L 72 31
	L 72 30
	L 72 29
	L 72 28
	L 71 28
	L 71 29
	L 72 29
	L 72 28
	L 72 27
	L 71 27
	L 70 27
	L 70 28
	L 71 28
	L 71 27
	L 70 27
	L 69 27
	L 68 27
	L 67 27
	L 67 28
	L 68 28
	L 68 27
	L 67 27
	L 66 27
	L 66 28
	L 66 29
	L 67 29
	L 67 28
	L 66 28
	L 66 29
	L 66 30
	L 67 30
	L 68 30
	L 68 29
	L 67 29
	L 67 30
	L 68 30
	L 69 30
	L 69 29
	L 69 28
	L 68 28
	L 68 29
	L 69 29
	L 69 28
	L 69 27
	L 68 27
	L 67 27
	L 67 28
	L 68 28
	L 68 27
	L 67 27
	L 66 27
	L 65 27
	L 64 27
	L 64 28
	L 65 28
	L 65 27
	L 64 27
	L 63 27
	L 62 27
	L 61 27
	L 61 28
	L 62 28
	L 62 27
	L 61 27
	L 60 27
	L 59 27
	L 58 27
	L 58 28
	L 59 28
	L 59 27
	L 58 27
	L 57 27
	L 57 28
	L 57 29
	L 58 29
	L 58 28
	L 57 28
	L 57 29
	L 57 30
	L 58 30
	L 59 30
	L 59 29
	L 58 29
	L 58 30
	L 59 30
	L 60 30
	L 60 29
	L 60 28
	L 59 28
	L 59 29
	L 60 29
	L 60 28
	L 60 27
	L 59 27
	L 58 27
	L 58 28
	L 59 28
	L 59 27
	L 58 27
	L 57 27
	L 56 27
	L 55 27
	L 55 28
	L 56 28
	L 56 27
	L 55 27
	L 54 27
	L 54 28
	L 54 29
	L 55 29
	L 55 28
	L 54 28
	L 54 29
	L 54 30
	L 54 31
	L 54 32
	L 55 32
	L 55 31
	L 54 31
	L 54 32
	L 54 33
	L 55 33
	L 56 33
	L 56 32
	L 55 32
	L 55 33
	L 56 33
	L 57 33
	L 57 32
	L 57 31
	L 56 31
	L 56 32
	L 57 32
	L 57 31
	L 57 30
	L 56 30
	L 55 30
	L 55 31
	L 56 31
	L 56 30
	L 55 30
	L 54 30
	L 54 31
	L 54 32
	L 55 32
	L 55 31
	L 54 31
	L 54 32
	L 54 33
	L 54 34
	L 54 35
	L 55 35
	L 55 34
	L 54 34
	L 54 35
	L 54 36
	L 54 37
	L 54 38
	L 55 38
	L 55 37
	L 54 37
	L 54 38
	L 54 39
	L 54 40
	L 54 41
	L 55 41
	L 55 40
	L 54 40
	L 54 41
	L 54 42
	L 55 42
	L 56 42
	L 56 41
	L 55 41
	L 55 42
	L 56 42
	L 57 42
	L 57 41
	L 57 40
	L 56 40
	L 56 41
	L 57 41
	L 57 40
	L 57 39
	L 56 39
	L 55 39
	L 55 40
	L 56 40
	L 56 39
	L 55 39
	L 54 39
	L 54 40
	L 54 41
	L 55 41
	L 55 40
	L 54 40
	L 54 41
	L 54 42
	L 54 43
	L 54 44
	L 55 44
	L 55 43
	L 54 43
	L 54 44
	L 54 45
	L 55 45
	L 56 45
	L 56 44
	L 55 44
	L 55 45
	L 56 45
	L 57 45
	L 58 45
	L 59 45
	L 59 44
	L 58 44
	L 58 45
	L 59 45
	L 60 45
	L 60 44
	L 60 43
	L 59 43
	L 59 44
	L 60 44
	L 60 43
	L 60 42
	L 59 42
	L 58 42
	L 58 43
	L 59 43
	L 59 42
	L 58 42
	L 57 42
	L 57 43
	L 57 44
	L 58 44
	L 58 43
	L 57 43
	L 57 44
	L 57 45
	L 58 45
	L 59 45
	L 59 44
	L 58 44
	L 58 45
	L 59 45
	L 60 45
	L 61 45
	L 62 45
	L 62 44
	L 61 44
	L 61 45
	L 62 45
	L 63 45
	L 63 44
	L 63 43
	L 62 43
	L 62 44
	L 63 44
	L 63 43
	L 63 42
	L 63 41
	L 63 40
	L 62 40
	L 62 41
	L 63 41
	L 63 40
	L 63 39
	L 62 39
	L 61 39
	L 61 40
	L 62 40
	L 62 39
	L 61 39
	L 60 39
	L 60 40
	L 60 41
	L 61 41
	L 61 40
	L 60 40
	L 60 41
	L 60 42
	L 61 42
	L 62 42
	L 62 41
	L 61 41
	L 61 42
	L 62 42
	L 63 42
	L 63 41
	L 63 40
	L 62 40
	L 62 41
	L 63 41
	L 63 40
	L 63 39
	L 63 38
	L 63 37
	L 62 37
	L 62 38
	L 63 38
	L 63 37
	L 63 36
	L 62 36
	L 61 36
	L 61 37
	L 62 37
	L 62 36
	L 61 36
	L 60 36
	L 59 36
	L 58 36
	L 58 37
	L 59 37
	L 59 36
	L 58 36
	L 57 36
	L 57 37
	L 57 38
	L 58 38
	L 58 37
	L 57 37
	L 57 38
	L 57 39
	L 58 39
	L 59 39
	L 59 38
	L 58 38
	L 58 39
	L 59 39
	L 60 39
	L 60 38
	L 60 37
	L 59 37
	L 59 38
	L 60 38
	L 60 37
	L 60 36
	L 59 36
	L 58 36
	L 58 37
	L 59 37
	L 59 36
	L 58 36
	L 57 36
	L 56 36
	L 55 36
	L 55 37
	L 56 37
	L 56 36
	L 55 36
	L 54 36
	L 54 37
	L 54 38
	L 55 38
	L 55 37
	L 54 37
	L 54 38
	L 54 39
	L 54 40
	L 54 41
	L 55 41
	L 55 40
	L 54 40
	L 54 41
	L 54 42
	L 55 42
	L 56 42
	L 56 41
	L 55 41
	L 55 42
	L 56 42
	L 57 42
	L 57 41
	L 57 40
	L 56 40
	L 56 41
	L 57 41
	L 57 40
	L 57 39
	L 56 39
	L 55 39
	L 55 40
	L 56 40
	L 56 39
	L 55 39
	L 54 39
	L 54 40
	L 54 41
	L 55 41
	L 55 40
	L 54 40
	L 54 41
	L 54 42
	L 54 43
	L 54 44
	L 55 44
	L 55 43
	L 54 43
	L 54 44
	L 54 45
	L 54 46
	L 54 47
	L 55 47
	L 55 46
	L 54 46
	L 54 47
	L 54 48
	L 54 49
	L 54 50
	L 55 50
	L 55 49
	L 54 49
	L 54 50
	L 54 51
	L 55 51
	L 56 51
	L 56 50
	L 55 50
	L 55 51
	L 56 51
	L 57 51
	L 57 50
	L 57 49
	L 56 49
	L 56 50
	L 57 50
	L 57 49
	L 57 48
	L 56 48
	L 55 48
	L 55 49
	L 56 49
	L 56 48
	L 55 48
	L 54 48
	L 54 49
	L 54 50
	L 55 50
	L 55 49
	L 54 49
	L 54 50
	L 54 51
	L 54 52
	L 54 53
	L 55 53
	L 55 52
	L 54 52
	L 54 53
	L 54 54
	L 55 54
	L 56 54
	L 56 53
	L 55 53
	L 55 54
	L 56 54
	L 57 54
	L 58 54
	L 59 54
	L 59 53
	L 58 53
	L 58 54
	L 59 54
	L 60 54
	L 60 53
	L 60 52
	L 59 52
	L 59 53
	L 60 53
	L 60 52
	L 60 51
	L 59 51
	L 58 51
	L 58 52
	L 59 52
	L 59 51
	L 58 51
	L 57 51
	L 57 52
	L 57 53
	L 58 53
	L 58 52
	L 57 52
	L 57 53
	L 57 54
	L 58 54
	L 59 54
	L 59 53
	L 58 53
	L 58 54
	L 59 54
	L 60 54
	L 61 54
	L 62 54
	L 62 53
	L 61 53
	L 61 54
	L 62 54
	L 63 54
	L 64 54
	L 65 54
	L 65 53
	L 64 53
	L 64 54
	L 65 54
	L 66 54
	L 67 54
	L 68 54
	L 68 53
	L 67 53
	L 67 54
	L 68 54
	L 69 54
	L 69 53
	L 69 52
	L 68 52
	L 68 53
	L 69 53
	L 69 52
	L 69 51
	L 68 51
	L 67 51
	L 67 52
	L 68 52
	L 68 51
	L 67 51
	L 66 51
	L 66 52
	L 66 53
	L 67 53
	L 67 52
	L 66 52
	L 66 53
	L 66 54
	L 67 54
	L 68 54
	L 68 53
	L 67 53
	L 67 54
	L 68 54
	L 69 54
	L 70 54
	L 71 54
	L 71 53
	L 70 53
	L 70 54
	L 71 54
	L 72 54
	L 72 53
	L 72 52
	L 71 52
	L 71 53
	L 72 53
	L 72 52
	L 72 51
	L 72 50
	L 72 49
	L 71 49
	L 71 50
	L 72 50
	L 72 49
	L 72 48
	L 71 48
	L 70 48
	L 70 49
	L 71 49
	L 71 48
	L 70 48
	L 69 48
	L 69 49
	L 69 50
	L 70 50
	L 70 49
	L 69 49
	L 69 50
	L 69 51
	L 70 51
	L 71 51
	L 71 50
	L 70 50
	L 70 51
	L 71 51
	L 72 51
	L 72 50
	L 72 49
	L 71 49
	L 71 50
	L 72 50
	L 72 49
	L 72 48
	L 72 47
	L 72 46
	L 71 46
	L 71 47
	L 72 47
	L 72 46
	L 72 45
	L 71 45
	L 70 45
	L 70 46
	L 71 46
	L 71 45
	L 70 45
	L 69 45
	L 68 45
	L 67 45
	L 67 46
	L 68 46
	L 68 45
	L 67 45
	L 66 45
	L 66 46
	L 66 47
	L 67 47
	L 67 46
	L 66 46
	L 66 47
	L 66 48
	L 67 48
	L 68 48
	L 68 47
	L 67 47
	L 67 48
	L 68 48
	L 69 48
	L 69 47
	L 69 46
	L 68 46
	L 68 47
	L 69 47
	L 69 46
	L 69 45
	L 68 45
	L 67 45
	L 67 46
	L 68 46
	L 68 45
	L 67 45
	L 66 45
	L 65 45
	L 64 45
	L 64 46
	L 65 46
	L 65 45
	L 64 45
	L 63 45
	L 63 46
	L 63 47
	L 64 47
	L 64 46
	L 63 46
	L 63 47
	L 63 48
	L 63 49
	L 63 50
	L 64 50
	L 64 49
	L 63 49
	L 63 50
	L 63 51
	L 64 51
	L 65 51
	L 65 50
	L 64 50
	L 64 51
	L 65 51
	L 66 51
	L 66 50
	L 66 49
	L 65 49
	L 65 50
	L 66 50
	L 66 49
	L 66 48
	L 65 48
	L 64 48
	L 64 49
	L 65 49
	L 65 48
	L 64 48
	L 63 48
	L 63 49
	L 63 50
	L 64 50
	L 64 49
	L 63 49
	L 63 50
	L 63 51
	L 63 52
	L 63 53
	L 64 53
	L 64 52
	L 63 52
	L 63 53
	L 63 54
	L 64 54
	L 65 54
	L 65 53
	L 64 53
	L 64 54
	L 65 54
	L 66 54
	L 67 54
	L 68 54
	L 68 53
	L 67 53
	L 67 54
	L 68 54
	L 69 54
	L 69 53
	L 69 52
	L 68 52
	L 68 53
	L 69 53
	L 69 52
	L 69 51
	L 68 51
	L 67 51
	L 67 52
	L 68 52
	L 68 51
	L 67 51
	L 66 51
	L 66 52
	L 66 53
	L 67 53
	L 67 52
	L 66 52
	L 66 53
	L 66 54
	L 67 54
	L 68 54
	L 68 53
	L 67 53
	L 67 54
	L 68 54
	L 69 54
	L 70 54
	L 71 54
	L 71 53
	L 70 53
	L 70 54
	L 71 54
	L 72 54
	L 73 54
	L 74 54
	L 74 53
	L 73 53
	L 73 54
	L 74 54
	L 75 54
	L 76 54
	L 77 54
	L 77 53
	L 76 53
	L 76 54
	L 77 54
	L 78 54
	L 78 53
	L 78 52
	L 77 52
	L 77 53
	L 78 53
	L 78 52
	L 78 51
	L 77 51
	L 76 51
	L 76 52
	L 77 52
	L 77 51
	L 76 51
	L 75 51
	L 75 52
	L 75 53
	L 76 53
	L 76 52
	L 75 52
	L 75 53
	L 75 54
	L 76 54
	L 77 54
	L 77 53
	L 76 53
	L 76 54
	L 77 54
	L 78 54
	L 79 54
	L 80 54
	L 80 53
	L 79 53
	L 79 54
	L 80 54
	L 81 54
	L 81 53
	L 81 52
	L 80 52
	L 80 53
	L 81 53
	L 81 52
	L 81 51
	L 81 50
	L 81 49
	L 80 49
	L 80 50
	L 81 50
	L 81 49
	L 81 48
	L 80 48
	L 79 48
	L 79 49
	L 80 49
	L 80 48
	L 79 48
	L 78 48
	L 78 49
	L 78 50
	L 79 50
	L 79 49
	L 78 49
	L 78 50
	L 78 51
	L 79 51
	L 80 51
	L 80 50
	L 79 50
	L 79 51
	L 80 51
	L 81 51
	L 81 50
	L 81 49
	L 80 49
	L 80 50
	L 81 50
	L 81 49
	L 81 48
	L 81 47
	L 81 46
	L 80 46
	L 80 47
	L 81 47
	L 81 46
	L 81 45
	L 81 44
	L 81 43
	L 80 43
	L 80 44
	L 81 44
	L 81 43
	L 81 42
	L 81 41
	L 81 40
	L 80 40
	L 80 41
	L 81 41
	L 81 40
	L 81 39
	L 80 39
	L 79 39
	L 79 40
	L 80 40
	L 80 39
	L 79 39
	L 78 39
	L 78 40
	L 78 41
	L 79 41
	L 79 40
	L 78 40
	L 78 41
	L 78 42
	L 79 42
	L 80 42
	L 80 41
	L 79 41
	L 79 42
	L 80 42
	L 81 42
	L 81 41
	L 81 40
	L 80 40
	L 80 41
	L 81 41
	L 81 40
	L 81 39
	L 81 38
	L 81 37
	L 80 37
	L 80 38
	L 81 38
	L 81 37
	L 81 36
	L 80 36
	L 79 36
	L 79 37
	L 80 37
	L 80 36
	L 79 36
	L 78 36
	L 77 36
	L 76 36
	L 76 37
	L 77 37
	L 77 36
	L 76 36
	L 75 36
	L 75 37
	L 75 38
	L 76 38
	L 76 37
	L 75 37
	L 75 38
	L 75 39
	L 76 39
	L 77 39
	L 77 38
	L 76 38
	L 76 39
	L 77 39
	L 78 39
	L 78 38
	L 78 37
	L 77 37
	L 77 38
	L 78 38
	L 78 37
	L 78 36
	L 77 36
	L 76 36
	L 76 37
	L 77 37
	L 77 36
	L 76 36
	L 75 36
	L 74 36
	L 73 36
	L 73 37
	L 74 37
	L 74 36
	L 73 36
	L 72 36
	L 72 37
	L 72 38
	L 73 38
	L 73 37
	L 72 37
	L 72 38
	L 72 39
	L 72 40
	L 72 41
	L 73 41
	L 73 40
	L 72 40
	L 72 41
	L 72 42
	L 73 42
	L 74 42
	L 74 41
	L 73 41
	L 73 42
	L 74 42
	L 75 42
	L 75 41
	L 75 40
	L 74 40
	L 74 41
	L 75 41
	L 75 40
	L 75 39
	L 74 39
	L 73 39
	L 73 40
	L 74 40
	L 74 39
	L 73 39
	L 72 39
	L 72 40
	L 72 41
	L 73 41
	L 73 40
	L 72 40
	L 72 41
	L 72 42
	L 72 43
	L 72 44
	L 73 44
	L 73 43
	L 72 43
	L 72 44
	L 72 45
	L 73 45
	L 74 45
	L 74 44
	L 73 44
	L 73 45
	L 74 45
	L 75 45
	L 76 45
	L 77 45
	L 77 44
	L 76 44
	L 76 45
	L 77 45
	L 78 45
	L 78 44
	L 78 43
	L 77 43
	L 77 44
	L 78 44
	L 78 43
	L 78 42
	L 77 42
	L 76 42
	L 76 43
	L 77 43
	L 77 42
	L 76 42
	L 75 42
	L 75 43
	L 75 44
	L 76 44
	L 76 43
	L 75 43
	L 75 44
	L 75 45
	L 76 45
	L 77 45
	L 77 44
	L 76 44
	L 76 45
	L 77 45
	L 78 45
	L 79 45
	L 80 45
	L 80 44
	L 79 44
	L 79 45
	L 80 45
	L 81 45
	L 81 44
	L 81 43
	L 80 43
	L 80 44
	L 81 44
	L 81 43
	L 81 42
	L 81 41
	L 81 40
	L 80 40
	L 80 41
	L 81 41
	L 81 40
	L 81 39
	L 80 39
	L 79 39
	L 79 40
	L 80 40
	L 80 39
	L 79 39
	L 78 39
	L 78 40
	L 78 41
	L 79 41
	L 79 40
	L 78 40
	L 78 41
	L 78 42
	L 79 42
	L 80 42
	L 80 41
	L 79 41
	L 79 42
	L 80 42
	L 81 42
	L 81 41
	L 81 40
	L 80 40
	L 80 41
	L 81 41
	L 81 40
	L 81 39
	L 81 38
	L 81 37
	L 80 37
	L 80 38
	L 81 38
	L 81 37
	L 81 36
	L 81 35
	L 81 34
	L 80 34
	L 80 35
	L 81 35
	L 81 34
	L 81 33
	L 81 32
	L 81 31
	L 80 31
	L 80 32
	L 81 32
	L 81 31
	L 81 30
	L 80 30
	L 79 30
	L 79 31
	L 80 31
	L 80 30
	L 79 30
	L 78 30
	L 78 31
	L 78 32
	L 79 32
	L 79 31
	L 78 31
	L 78 32
	L 78 33
	L 79 33
	L 80 33
	L 80 32
	L 79 32
	L 79 33
	L 80 33
	L 81 33
	L 81 32
	L 81 31
	L 80 31
	L 80 32
	L 81 32
	L 81 31
	L 81 30
	L 81 29
	L 81 28
	L 80 28
	L 80 29
	L 81 29
	L 81 28
	L 81 27
	L 81 26
	L 81 25
	L 80 25
	L 80 26
	L 81 26
	L 81 25
	L 81 24
	L 81 23
	L 81 22
	L 80 22
	L 80 23
	L 81 23
	L 81 22
	L 81 21
	L 80 21
	L 79 21
	L 79 22
	L 80 22
	L 80 21
	L 79 21
	L 78 21
	L 78 22
	L 78 23
	L 79 23
	L 79 22
	L 78 22
	L 78 23
	L 78 24
	L 79 24
	L 80 24
	L 80 23
	L 79 23
	L 79 24
	L 80 24
	L 81 24
	L 81 23
	L 81 22
	L 80 22
	L 80 23
	L 81 23
	L 81 22
	L 81 21
	L 81 20
	L 81 19
	L 80 19
	L 80 20
	L 81 20
	L 81 19
	L 81 18
	L 81 17
	L 81 16
	L 80 16
	L 80 17
	L 81 17
	L 81 16
	L 81 15
	L 81 14
	L 81 13
	L 80 13
	L 80 14
	L 81 14
	L 81 13
	L 81 12
	L 80 12
	L 79 12
	L 79 13
	L 80 13
	L 80 12
	L 79 12
	L 78 12
	L 78 13
	L 78 14
	L 79 14
	L 79 13
	L 78 13
	L 78 14
	L 78 15
	L 79 15
	L 80 15
	L 80 14
	L 79 14
	L 79 15
	L 80 15
	L 81 15
	L 81 14
	L 81 13
	L 80 13
	L 80 14
	L 81 14
	L 81 13
	L 81 12
	L 81 11
	L 81 10
	L 80 10
	L 80 11
	L 81 11
	L 81 10
	L 81 9
	L 80 9
	L 79 9
	L 79 10
	L 80 10
	L 80 9
	L 79 9
	L 78 9
	L 77 9
	L 76 9
	L 76 10
	L 77 10
	L 77 9
	L 76 9
	L 75 9
	L 75 10
	L 75 11
	L 76 11
	L 76 10
	L 75 10
	L 75 11
	L 75 12
	L 76 12
	L 77 12
	L 77 11
	L 76 11
	L 76 12
	L 77 12
	L 78 12
	L 78 11
	L 78 10
	L 77 10
	L 77 11
	L 78 11
	L 78 10
	L 78 9
	L 77 9
	L 76 9
	L 76 10
	L 77 10
	L 77 9
	L 76 9
	L 75 9
	L 74 9
	L 73 9
	L 73 10
	L 74 10
	L 74 9
	L 73 9
	L 72 9
	L 72 10
	L 72 11
	L 73 11
	L 73 10
	L 72 10
	L 72 11
	L 72 12
	L 72 13
	L 72 14
	L 73 14
	L 73 13
	L 72 13
	L 72 14
	L 72 15
	L 73 15
	L 74 15
	L 74 14
	L 73 14
	L 73 15
	L 74 15
	L 75 15
	L 75 14
	L 75 13
	L 74 13
	L 74 14
	L 75 14
	L 75 13
	L 75 12
	L 74 12
	L 73 12
	L 73 13
	L 74 13
	L 74 12
	L 73 12
	L 72 12
	L 72 13
	L 72 14
	L 73 14
	L 73 13
	L 72 13
	L 72 14
	L 72 15
	L 72 16
	L 72 17
	L 73 17
	L 73 16
	L 72 16
	L 72 17
	L 72 18
	L 73 18
	L 74 18
	L 74 17
	L 73 17
	L 73 18
	L 74 18
	L 75 18
	L 76 18
	L 77 18
	L 77 17
	L 76 17
	L 76 18
	L 77 18
	L 78 18
	L 78 17
	L 78 16
	L 77 16
	L 77 17
	L 78 17
	L 78 16
	L 78 15
	L 77 15
	L 76 15
	L 76 16
	L 77 16
	L 77 15
	L 76 15
	L 75 15
	L 75 16
	L 75 17
	L 76 17
	L 76 16
	L 75 16
	L 75 17
	L 75 18
	L 76 18
	L 77 18
	L 77 17
	L 76 17
	L 76 18
	L 77 18
	L 78 18
	L 79 18
	L 80 18
	L 80 17
	L 79 17
	L 79 18
	L 80 18
	L 81 18
	L 81 17
	L 81 16
	L 80 16
	L 80 17
	L 81 17
	L 81 16
	L 81 15
	L 81 14
	L 81 13
	L 80 13
	L 80 14
	L 81 14
	L 81 13
	L 81 12
	L 80 12
	L 79 12
	L 79 13
	L 80 13
	L 80 12
	L 79 12
	L 78 12
	L 78 13
	L 78 14
	L 79 14
	L 79 13
	L 78 13
	L 78 14
	L 78 15
	L 79 15
	L 80 15
	L 80 14
	L 79 14
	L 79 15
	L 80 15
	L 81 15
	L 81 14
	L 81 13
	L 80 13
	L 80 14
	L 81 14
	L 81 13
	L 81 12
	L 81 11
	L 81 10
	L 80 10
	L 80 11
	L 81 11
	L 81 10
	L 81 9
	L 81 8
	L 81 7
	L 80 7
	L 80 8
	L 81 8
	L 81 7
	L 81 6
	L 81 5
	L 81 4
	L 80 4
	L 80 5
	L 81 5
	L 81 4
	L 81 3
	L 80 3
	L 79 3
	L 79 4
	L 80 4
	L 80 3
	L 79 3
	L 78 3
	L 78 4
	L 78 5
	L 79 5
	L 79 4
	L 78 4
	L 78 5
	L 78 6
	L 79 6
	L 80 6
	L 80 5
	L 79 5
	L 79 6
	L 80 6
	L 81 6
	L 81 5
	L 81 4
	L 80 4
	L 80 5
	L 81 5
	L 81 4
	L 81 3
	L 81 2
	L 81 1
	L 80 1
	L 80 2
	L 81 2
	L 81 1
	L 81 2.086e-11
	L 80 2.078e-11
	L 79 2.07e-11
	L 79 1
	L 80 1
	L 80 2.045e-11
	L 79 2.012e-11
	L 78 1.98e-11
	L 77 1.947e-11
	L 76 1.914e-11
	L 76 1
	L 77 1
	L 77 1.914e-11
	L 76 1.947e-11
	L 75 1.981e-11
	L 75 1
	L 75 2
	L 76 2
	L 76 1
	L 75 1
	L 75 2
	L 75 3
	L 76 3
	L 77 3
	L 77 2
	L 76 2
	L 76 3
	L 77 3
	L 78 3
	L 78 2
	L 78 1
	L 77 1
	L 77 2
	L 78 2
	L 78 1
	L 78 1.939e-11
	L 77 1.873e-11
	L 76 1.807e-11
	L 76 1
	L 77 1
	L 77 1.931e-11
	L 76 1.84e-11
	L 75 1.749e-11
	L 74 1.658e-11
	L 73 1.567e-11
	L 73 1
	L 74 1
	L 74 1.625e-11
	L 73 1.509e-11
	L 72 1.393e-11
	L 71 1.277e-11
	L 70 1.161e-11
	L 70 1
	L 71 1
	L 71 1.244e-11
	L 70 1.194e-11
	L 69 1.144e-11
	L 68 1.094e-11
	L 67 1.044e-11
	L 67 1
	L 68 1
	L 68 1.061e-11
	L 67 9.863e-12
	L 66 9.116e-12
	L 66 1
	L 66 2
	L 67 2
	L 67 1
	L 66 1
	L 66 2
	L 66 3
	L 67 3
	L 68 3
	L 68 2
	L 67 2
	L 67 3
	L 68 3
	L 69 3
	L 69 2
	L 69 1
	L 68 1
	L 68 2
	L 69 2
	L 69 1
	L 69 1.012e-11
	L 68 1.02e-11
	L 67 1.027e-11
	L 67 1
	L 68 1
	L 68 1.078e-11
	L 67 1.06e-11
	L 66 1.043e-11
	L 65 1.026e-11
	L 64 1.008e-11
	L 64 1
	L 65 1
	L 65 9.928e-12
	L 64 9.506e-12
	L 63 9.083e-12
	L 63 1
	L 63 2
	L 64 2
	L 64 1
	L 63 1
	L 63 2
	L 63 3
	L 63 4
	L 63 5
	L 64 5
	L 64 4
	L 63 4
	L 63 5
	L 63 6
	L 64 6
	L 65 6
	L 65 5
	L 64 5
	L 64 6
	L 65 6
	L 66 6
	L 66 5
	L 66 4
	L 65 4
	L 65 5
	L 66 5
	L 66 4
	L 66 3
	L 65 3
	L 64 3
	L 64 4
	L 65 4
	L 65 3
	L 64 3
	L 63 3
	L 63 4
	L 63 5
	L 64 5
	L 64 4
	L 63 4
	L 63 5
	L 63 6
	L 63 7
	L 63 8
	L 64 8
	L 64 7
	L 63 7
	L 63 8
	L 63 9
	L 64 9
	L 65 9
	L 65 8
	L 64 8
	L 64 9
	L 65 9
	L 66 9
	L 67 9
	L 68 9
	L 68 8
	L 67 8
	L 67 9
	L 68 9
	L 69 9
	L 69 8
	L 69 7
	L 68 7
	L 68 8
	L 69 8
	L 69 7
	L 69 6
	L 68 6
	L 67 6
	L 67 7
	L 68 7
	L 68 6
	L 67 6
	L 66 6
	L 66 7
	L 66 8
	L 67 8
	L 67 7
	L 66 7
	L 66 8
	L 66 9
	L 67 9
	L 68 9
	L 68 8
	L 67 8
	L 67 9
	L 68 9
	L 69 9
	L 70 9
	L 71 9
	L 71 8
	L 70 8
	L 70 9
	L 71 9
	L 72 9
	L 72 8
	L 72 7
	L 71 7
	L 71 8
	L 72 8
	L 72 7
	L 72 6
	L 72 5
	L 72 4
	L 71 4
	L 71 5
	L 72 5
	L 72 4
	L 72 3
	L 71 3
	L 70 3
	L 70 4
	L 71 4
	L 71 3
	L 70 3
	L 69 3
	L 69 4
	L 69 5
	L 70 5
	L 70 4
	L 69 4
	L 69 5
	L 69 6
	L 70 6
	L 71 6
	L 71 5
	L 70 5
	L 70 6
	L 71 6
	L 72 6
	L 72 5
	L 72 4
	L 71 4
	L 71 5
	L 72 5
	L 72 4
	L 72 3
	L 72 2
	L 72 1
	L 71 1
	L 71 2
	L 72 2
	L 72 1
	L 72 9.51e-12
	L 71 9.231e-12
	L 70 8.951e-12
	L 70 1
	L 71 1
	L 71 8.9e-12
	L 70 8.372e-12
	L 69 7.844e-12
	L 68 7.316e-12
	L 67 6.788e-12
	L 67 1
	L 68 1
	L 68 6.986e-12
	L 67 7.118e-12
	L 66 7.25e-12
	L 66 1
	L 66 2
	L 67 2
	L 67 1
	L 66 1
	L 66 2
	L 66 3
	L 67 3
	L 68 3
	L 68 2
	L 67 2
	L 67 3
	L 68 3
	L 69 3
	L 69 2
	L 69 1
	L 68 1
	L 68 2
	L 69 2
	L 69 1
	L 69 6.528e-12
	L 68 5.665e-12
	L 67 4.801e-12
	L 67 1
	L 68 1
	L 68 5.335e-12
	L 67 4.222e-12
	L 66 3.11e-12
	L 65 1.998e-12
	L 64 8.856e-13
	L 64 1
	L 65 1
	L 65 1.668e-12
	L 64 1.216e-12
	L 63 7.642e-13
	L 62 3.125e-13
	L 61 -1.392e-13
	L 61 1
	L 62 1
	L 62 8.917e-13
	L 61 1.911e-13
	L 60 -5.095e-13
	L 59 -1.21e-12
	L 58 -1.911e-12
	L 58 1
	L 59 1
	L 59 -1.54e-12
	L 58 -2.49e-12
	L 57 -3.44e-12
	L 57 1
	L 57 2
	L 58 2
	L 58 1
	L 57 1
	L 57 2
	L 57 3
	L 58 3
	L 59 3
	L 59 2
	L 58 2
	L 58 3
	L 59 3
	L 60 3
	L 60 2
	L 60 1
	L 59 1
	L 59 2
	L 60 2
	L 60 1
	L 60 -2.735e-12
	L 59 -2.861e-12
	L 58 -2.987e-12
	L 58 1
	L 59 1
	L 59 -3.191e-12
	L 58 -3.567e-12
	L 57 -3.942e-12
	L 56 -4.317e-12
	L 55 -4.692e-12
	L 55 1
	L 56 1
	L 56 -4.647e-12
	L 55 -4.362e-12
	L 54 -4.077e-12
	L 53 -3.791e-12
	L 52 -3.506e-12
	L 52 1
	L 53 1
	L 53 -3.212e-12
	L 52 -3.176e-12
	L 51 -3.14e-12
	L 50 -3.103e-12
	L 49 -3.067e-12
	L 49 1
	L 50 1
	L 50 -3.433e-12
	L 49 -3.646e-12
	L 48 -3.859e-12
	L 48 1
	L 48 2
	L 49 2
	L 49 1
	L 48 1
	L 48 2
	L 48 3
	L 49 3
	L 50 3
	L 50 2
	L 49 2
	L 49 3
	L 50 3
	L 51 3
	L 51 2
	L 51 1
	L 50 1
	L 50 2
	L 51 2
	L 51 1
	L 51 9.148e-14
	L 50 -2.073e-13
	L 49 -5.061e-13
	L 49 1
	L 50 1
	L 50 3.719e-13
	L 49 -1.758e-13
	L 48 -7.236e-13
	L 47 -1.271e-12
	L 46 -1.819e-12
	L 46 1
	L 47 1
	L 47 -1.602e-12
	L 46 -2.398e-12
	L 45 -3.195e-12
	L 44 -3.992e-12
	L 43 -4.788e-12
	L 43 1
	L 44 1
	L 44 -4.322e-12
	L 43 -4.458e-12
	L 42 -4.594e-12
	L 41 -4.73e-12
	L 40 -4.866e-12
	L 40 1
	L 41 1
	L 41 -4.151e-12
	L 40 -4.536e-12
	L 39 -4.921e-12
	L 39 1
	L 39 2
	L 40 2
	L 40 1
	L 39 1
	L 39 2
	L 39 3
	L 40 3
	L 41 3
	L 41 2
	L 40 2
	L 40 3
	L 41 3
	L 42 3
	L 42 2
	L 42 1
	L 41 1
	L 41 2
	L 42 2
	L 42 1
	L 42 -5.911e-12
	L 41 -5.473e-12
	L 40 -5.034e-12
	L 40 1
	L 41 1
	L 41 -4.893e-12
	L 40 -4.704e-12
	L 39 -4.515e-12
	L 38 -4.326e-12
	L 37 -4.136e-12
	L 37 1
	L 38 1
	L 38 -4.656e-12
	L 37 -4.716e-12
	L 36 -4.775e-12
	L 36 1
	L 36 2
	L 37 2
	L 37 1
	L 36 1
	L 36 2
	L 36 3
	L 36 4
	L 36 5
	L 37 5
	L 37 4
	L 36 4
	L 36 5
	L 36 6
	L 37 6
	L 38 6
	L 38 5
	L 37 5
	L 37 6
	L 38 6
	L 39 6
	L 39 5
	L 39 4
	L 38 4
	L 38 5
	L 39 5
	L 39 4
	L 39 3
	L 38 3
	L 37 3
	L 37 4
	L 38 4
	L 38 3
	L 37 3
	L 36 3
	L 36 4
	L 36 5
	L 37 5
	L 37 4
	L 36 4
	L 36 5
	L 36 6
	L 36 7
	L 36 8
	L 37 8
	L 37 7
	L 36 7
	L 36 8
	L 36 9
	L 37 9
	L 38 9
	L 38 8
	L 37 8
	L 37 9
	L 38 9
	L 39 9
	L 40 9
	L 41 9
	L 41 8
	L 40 8
	L 40 9
	L 41 9
	L 42 9
	L 42 8
	L 42 7
	L 41 7
	L 41 8
	L 42 8
	L 42 7
	L 42 6
	L 41 6
	L 40 6
	L 40 7
	L 41 7
	L 41 6
	L 40 6
	L 39 6
	L 39 7
	L 39 8
	L 40 8
	L 40 7
	L 39 7
	L 39 8
	L 39 9
	L 40 9
	L 41 9
	L 41 8
	L 40 8
	L 40 9
	L 41 9
	L 42 9
	L 43 9
	L 44 9
	L 44 8
	L 43 8
	L 43 9
	L 44 9
	L 45 9
	L 45 8
	L 45 7
	L 44 7
	L 44 8
	L 45 8
	L 45 7
	L 45 6
	L 45 5
	L 45 4
	L 44 4
	L 44 5
	L 45 5
	L 45 4
	L 45 3
	L 44 3
	L 43 3
	L 43 4
	L 44 4
	L 44 3
	L 43 3
	L 42 3
	L 42 4
	L 42 5
	L 43 5
	L 43 4
	L 42 4
	L 42 5
	L 42 6
	L 43 6
	L 44 6
	L 44 5
	L 43 5
	L 43 6
	L 44 6
	L 45 6
	L 45 5
	L 45 4
	L 44 4
	L 44 5
	L 45 5
	L 45 4
	L 45 3
	L 45 2
	L 45 1
	L 44 1
	L 44 2
	L 45 2
	L 45 1
	L 45 -1.238e-12
	L 44 -1.154e-12
	L 43 -1.071e-12
	L 43 1
	L 44 1
	L 44 -1.485e-12
	L 43 -1.65e-12
	L 42 -1.816e-12
	L 41 -1.981e-12
	L 40 -2.147e-12
	L 40 1
	L 41 1
	L 41 -2.311e-12
	L 40 -1.816e-12
	L 39 -1.321e-12
	L 39 1
	L 39 2
	L 40 2
	L 40 1
	L 39 1
	L 39 2
	L 39 3
	L 40 3
	L 41 3
	L 41 2
	L 40 2
	L 40 3
	L 41 3
	L 42 3
	L 42 2
	L 42 1
	L 41 1
	L 41 2
	L 42 2
	L 42 1
	L 42 1.416e-12
	L 41 9.151e-13
	L 40 4.144e-13
	L 40 1
	L 41 1
	L 41 5.846e-13
	L 40 7.445e-13
	L 39 9.044e-13
	L 38 1.064e-12
	L 37 1.224e-12
	L 37 1
	L 38 1
	L 38 2.553e-12
	L 37 1.555e-12
	L 36 5.559e-13
	L 35 -4.426e-13
	L 34 -1.441e-12
	L 34 1
	L 35 1
	L 35 -7.729e-13
	L 34 -1.111e-12
	L 33 -1.449e-12
	L 32 -1.787e-12
	L 31 -2.125e-12
	L 31 1
	L 32 1
	L 32 -2.117e-12
	L 31 -1.795e-12
	L 30 -1.472e-12
	L 30 1
	L 30 2
	L 31 2
	L 31 1
	L 30 1
	L 30 2
	L 30 3
	L 31 3
	L 32 3
	L 32 2
	L 31 2
	L 31 3
	L 32 3
	L 33 3
	L 33 2
	L 33 1
	L 32 1
	L 32 2
	L 33 2
	L 33 1
	L 33 -9.457e-13
	L 32 -1.619e-12
	L 31 -2.292e-12
	L 31 1
	L 32 1
	L 32 -1.949e-12
	L 31 -1.962e-12
	L 30 -1.974e-12
	L 29 -1.987e-12
	L 28 -2e-12
	L 28 1
	L 29 1
	L 29 -2.317e-12
	L 28 -1.669e-12
	L 27 -1.021e-12
	L 27 1
	L 27 2
	L 28 2
	L 28 1
	L 27 1
	L 27 2
	L 27 3
	L 27 4
	L 27 5
	L 28 5
	L 28 4
	L 27 4
	L 27 5
	L 27 6
	L 28 6
	L 29 6
	L 29 5
	L 28 5
	L 28 6
	L 29 6
	L 30 6
	L 30 5
	L 30 4
	L 29 4
	L 29 5
	L 30 5
	L 30 4
	L 30 3
	L 29 3
	L 28 3
	L 28 4
	L 29 4
	L 29 3
	L 28 3
	L 27 3
	L 27 4
	L 27 5
	L 28 5
	L 28 4
	L 27 4
	L 27 5
	L 27 6
	L 27 7
	L 27 8
	L 28 8
	L 28 7
	L 27 7
	L 27 8
	L 27 9
	L 27 10
	L 27 11
	L 28 11
	L 28 10
	L 27 10
	L 27 11
	L 27 12
	L 27 13
	L 27 14
	L 28 14
	L 28 13
	L 27 13
	L 27 14
	L 27 15
	L 28 15
	L 29 15
	L 29 14
	L 28 14
	L 28 15
	L 29 15
	L 30 15
	L 30 14
	L 30 13
	L 29 13
	L 29 14
	L 30 14
	L 30 13
	L 30 12
	L 29 12
	L 28 12
	L 28 13
	L 29 13
	L 29 12
	L 28 12
	L 27 12
	L 27 13
	L 27 14
	L 28 14
	L 28 13
	L 27 13
	L 27 14
	L 27 15
	L 27 16
	L 27 17
	L 28 17
	L 28 16
	L 27 16
	L 27 17
	L 27 18
	L 28 18
	L 29 18
	L 29 17
	L 28 17
	L 28 18
	L 29 18
	L 30 18
	L 31 18
	L 32 18
	L 32 17
	L 31 17
	L 31 18
	L 32 18
	L 33 18
	L 33 17
	L 33 16
	L 32 16
	L 32 17
	L 33 17
	L 33 16
	L 33 15
	L 32 15
	L 31 15
	L 31 16
	L 32 16
	L 32 15
	L 31 15
	L 30 15
	L 30 16
	L 30 17
	L 31 17
	L 31 16
	L 30 16
	L 30 17
	L 30 18
	L 31 18
	L 32 18
	L 32 17
	L 31 17
	L 31 18
	L 32 18
	L 33 18
	L 34 18
	L 35 18
	L 35 17
	L 34 17
	L 34 18
	L 35 18
	L 36 18
	L 36 17
	L 36 16
	L 35 16
	L 35 17
	L 36 17
	L 36 16
	L 36 15
	L 36 14
	L 36 13
	L 35 13
	L 35 14
	L 36 14
	L 36 13
	L 36 12
	L 35 12
	L 34 12
	L 34 13
	L 35 13
	L 35 12
	L 34 12
	L 33 12
	L 33 13
	L 33 14
	L 34 14
	L 34 13
	L 33 13
	L 33 14
	L 33 15
	L 34 15
	L 35 15
	L 35 14
	L 34 14
	L 34 15
	L 35 15
	L 36 15
	L 36 14
	L 36 13
	L 35 13
	L 35 14
	L 36 14
	L 36 13
	L 36 12
	L 36 11
	L 36 10
	L 35 10
	L 35 11
	L 36 11
	L 36 10
	L 36 9
	L 35 9
	L 34 9
	L 34 10
	L 35 10
	L 35 9
	L 34 9
	L 33 9
	L 32 9
	L 31 9
	L 31 10
	L 32 10
	L 32 9
	L 31 9
	L 30 9
	L 30 10
	L 30 11
	L 31 11
	L 31 10
	L 30 10
	L 30 11
	L 30 12
	L 31 12
	L 32 12
	L 32 11
	L 31 11
	L 31 12
	L 32 12
	L 33 12
	L 33 11
	L 33 10
	L 32 10
	L 32 11
	L 33 11
	L 33 10
	L 33 9
	L 32 9
	L 31 9
	L 31 10
	L 32 10
	L 32 9
	L 31 9
	L 30 9
	L 29 9
	L 28 9
	L 28 10
	L 29 10
	L 29 9
	L 28 9
	L 27 9
	L 27 10
	L 27 11
	L 28 11
	L 28 10
	L 27 10
	L 27 11
	L 27 12
	L 27 13
	L 27 14
	L 28 14
	L 28 13
	L 27 13
	L 27 14
	L 27 15
	L 28 15
	L 29 15
	L 29 14
	L 28 14
	L 28 15
	L 29 15
	L 30 15
	L 30 14
	L 30 13
	L 29 13
	L 29 14
	L 30 14
	L 30 13
	L 30 12
	L 29 12
	L 28 12
	L 28 13
	L 29 13
	L 29 12
	L 28 12
	L 27 12
	L 27 13
	L 27 14
	L 28 14
	L 28 13
	L 27 13
	L 27 14
	L 27 15
	L 27 16
	L 27 17
	L 28 17
	L 28 16
	L 27 16
	L 27 17
	L 27 18
	L 27 19
	L 27 20
	L 28 20
	L 28 19
	L 27 19
	L 27 20
	L 27 21
	L 27 22
	L 27 23
	L 28 23
	L 28 22
	L 27 22
	L 27 23
	L 27 24
	L 28 24
	L 29 24
	L 29 23
	L 28 23
	L 28 24
	L 29 24
	L 30 24
	L 30 23
	L 30 22
	L 29 22
	L 29 23
	L 30 23
	L 30 22
	L 30 21
	L 29 21
	L 28 21
	L 28 22
	L 29 22
	L 29 21
	L 28 21
	L 27 21
	L 27 22
	L 27 23
	L 28 23
	L 28 22
	L 27 22
	L 27 23
	L 27 24
	L 27 25
	L 27 26
	L 28 26
	L 28 25
	L 27 25
	L 27 26
	L 27 27
	L 28 27
	L 29 27
	L 29 26
	L 28 26
	L 28 27
	L 29 27
	L 30 27
	L 31 27
	L 32 27
	L 32 26
	L 31 26
	L 31 27
	L 32 27
	L 33 27
	L 33 26
	L 33 25
	L 32 25
	L 32 26
	L 33 26
	L 33 25
	L 33 24
	L 32 24
	L 31 24
	L 31 25
	L 32 25
	L 32 24
	L 31 24
	L 30 24
	L 30 25
	L 30 26
	L 31 26
	L 31 25
	L 30 25
	L 30 26
	L 30 27
	L 31 27
	L 32 27
	L 32 26
	L 31 26
	L 31 27
	L 32 27
	L 33 27
	L 34 27
	L 35 27
	L 35 26
	L 34 26
	L 34 27
	L 35 27
	L 36 27
	L 37 27
	L 38 27
	L 38 26
	L 37 26
	L 37 27
	L 38 27
	L 39 27
	L 40 27
	L 41 27
	L 41 26
	L 40 26
	L 40 27
	L 41 27
	L 42 27
	L 42 26
	L 42 25
	L 41 25
	L 41 26
	L 42 26
	L 42 25
	L 42 24
	L 41 24
	L 40 24
	L 40 25
	L 41 25
	L 41 24
	L 40 24
	L 39 24
	L 39 25
	L 39 26
	L 40 26
	L 40 25
	L 39 25
	L 39 26
	L 39 27
	L 40 27
	L 41 27
	L 41 26
	L 40 26
	L 40 27
	L 41 27
	L 42 27
	L 43 27
	L 44 27
	L 44 26
	L 43 26
	L 43 27
	L 44 27
	L 45 27
	L 45 26
	L 45 25
	L 44 25
	L 44 26
	L 45 26
	L 45 25
	L 45 24
	L 45 23
	L 45 22
	L 44 22
	L 44 23
	L 45 23
	L 45 22
	L 45 21
	L 44 21
	L 43 21
	L 43 22
	L 44 22
	L 44 21
	L 43 21
	L 42 21
	L 42 22
	L 42 23
	L 43 23
	L 43 22
	L 42 22
	L 42 23
	L 42 24
	L 43 24
	L 44 24
	L 44 23
	L 43 23
	L 43 24
	L 44 24
	L 45 24
	L 45 23
	L 45 22
	L 44 22
	L 44 23
	L 45 23
	L 45 22
	L 45 21
	L 45 20
	L 45 19
	L 44 19
	L 44 20
	L 45 20
	L 45 19
	L 45 18
	L 44 18
	L 43 18
	L 43 19
	L 44 19
	L 44 18
	L 43 18
	L 42 18
	L 41 18
	L 40 18
	L 40 19
	L 41 19
	L 41 18
	L 40 18
	L 39 18
	L 39 19
	L 39 20
	L 40 20
	L 40 19
	L 39 19
	L 39 20
	L 39 21
	L 40 21
	L 41 21
	L 41 20
	L 40 20
	L 40 21
	L 41 21
	L 42 21
	L 42 20
	L 42 19
	L 41 19
	L 41 20
	L 42 20
	L 42 19
	L 42 18
	L 41 18
	L 40 18
	L 40 19
	L 41 19
	L 41 18
	L 40 18
	L 39 18
	L 38 18
	L 37 18
	L 37 19
	L 38 19
	L 38 18
	L 37 18
	L 36 18
	L 36 19
	L 36 20
	L 37 20
	L 37 19
	L 36 19
	L 36 20
	L 36 21
	L 36 22
	L 36 23
	L 37 23
	L 37 22
	L 36 22
	L 36 23
	L 36 24
	L 37 24
	L 38 24
	L 38 23
	L 37 23
	L 37 24
	L 38 24
	L 39 24
	L 39 23
	L 39 22
	L 38 22
	L 38 23
	L 39 23
	L 39 22
	L 39 21
	L 38 21
	L 37 21
	L 37 22
	L 38 22
	L 38 21
	L 37 21
	L 36 21
	L 36 22
	L 36 23
	L 37 23
	L 37 22
	L 36 22
	L 36 23
	L 36 24
	L 36 25
	L 36 26
	L 37 26
	L 37 25
	L 36 25
	L 36 26
	L 36 27
	L 37 27
	L 38 27
	L 38 26
	L 37 26
	L 37 27
	L 38 27
	L 39 27
	L 40 27
	L 41 27
	L 41 26
	L 40 26
	L 40 27
	L 41 27
	L 42 27
	L 42 26
	L 42 25
	L 41 25
	L 41 26
	L 42 26
	L 42 25
	L 42 24
	L 41 24
	L 40 24
	L 40 25
	L 41 25
	L 41 24
	L 40 24
	L 39 24
	L 39 25
	L 39 26
	L 40 26
	L 40 25
	L 39 25
	L 39 26
	L 39 27
	L 40 27
	L 41 27
	L 41 26
	L 40 26
	L 40 27
	L 41 27
	L 42 27
	L 43 27
	L 44 27
	L 44 26
	L 43 26
	L 43 27
	L 44 27
	L 45 27
	L 46 27
	L 47 27
	L 47 26
	L 46 26
	L 46 27
	L 47 27
	L 48 27
	L 49 27
	L 50 27
	L 50 26
	L 49 26
	L 49 27
	L 50 27
	L 51 27
	L 51 26
	L 51 25
	L 50 25
	L 50 26
	L 51 26
	L 51 25
	L 51 24
	L 50 24
	L 49 24
	L 49 25
	L 50 25
	L 50 24
	L 49 24
	L 48 24
	L 48 25
	L 48 26
	L 49 26
	L 49 25
	L 48 25
	L 48 26
	L 48 27
	L 49 27
	L 50 27
	L 50 26
	L 49 26
	L 49 27
	L 50 27
	L 51 27
	L 52 27
	L 53 27
	L 53 26
	L 52 26
	L 52 27
	L 53 27
	L 54 27
	L 54 26
	L 54 25
	L 53 25
	L 53 26
	L 54 26
	L 54 25
	L 54 24
	L 54 23
	L 54 22
	L 53 22
	L 53 23
	L 54 23
	L 54 22
	L 54 21
	L 53 21
	L 52 21
	L 52 22
	L 53 22
	L 53 21
	L 52 21
	L 51 21
	L 51 22
	L 51 23
	L 52 23
	L 52 22
	L 51 22
	L 51 23
	L 51 24
	L 52 24
	L 53 24
	L 53 23
	L 52 23
	L 52 24
	L 53 24
	L 54 24
	L 54 23
	L 54 22
	L 53 22
	L 53 23
	L 54 23
	L 54 22
	L 54 21
	L 54 20
	L 54 19
	L 53 19
	L 53 20
	L 54 20
	L 54 19
	L 54 18
	L 54 17
	L 54 16
	L 53 16
	L 53 17
	L 54 17
	L 54 16
	L 54 15
	L 54 14
	L 54 13
	L 53 13
	L 53 14
	L 54 14
	L 54 13
	L 54 12
	L 53 12
	L 52 12
	L 52 13
	L 53 13
	L 53 12
	L 52 12
	L 51 12
	L 51 13
	L 51 14
	L 52 14
	L 52 13
	L 51 13
	L 51 14
	L 51 15
	L 52 15
	L 53 15
	L 53 14
	L 52 14
	L 52 15
	L 53 15
	L 54 15
	L 54 14
	L 54 13
	L 53 13
	L 53 14
	L 54 14
	L 54 13
	L 54 12
	L 54 11
	L 54 10
	L 53 10
	L 53 11
	L 54 11
	L 54 10
	L 54 9
	L 53 9
	L 52 9
	L 52 10
	L 53 10
	L 53 9
	L 52 9
	L 51 9
	L 50 9
	L 49 9
	L 49 10
	L 50 10
	L 50 9
	L 49 9
	L 48 9
	L 48 10
	L 48 11
	L 49 11
	L 49 10
	L 48 10
	L 48 11
	L 48 12
	L 49 12
	L 50 12
	L 50 11
	L 49 11
	L 49 12
	L 50 12
	L 51 12
	L 51 11
	L 51 10
	L 50 10
	L 50 11
	L 51 11
	L 51 10
	L 51 9
	L 50 9
	L 49 9
	L 49 10
	L 50 10
	L 50 9
	L 49 9
	L 48 9
	L 47 9
	L 46 9
	L 46 10
	L 47 10
	L 47 9
	L 46 9
	L 45 9
	L 45 10
	L 45 11
	L 46 11
	L 46 10
	L 45 10
	L 45 11
	L 45 12
	L 45 13
	L 45 14
	L 46 14
	L 46 13
	L 45 13
	L 45 14
	L 45 15
	L 46 15
	L 47 15
	L 47 14
	L 46 14
	L 46 15
	L 47 15
	L 48 15
	L 48 14
	L 48 13
	L 47 13
	L 47 14
	L 48 14
	L 48 13
	L 48 12
	L 47 12
	L 46 12
	L 46 13
	L 47 13
	L 47 12
	L 46 12
	L 45 12
	L 45 13
	L 45 14
	L 46 14
	L 46 13
	L 45 13
	L 45 14
	L 45 15
	L 45 16
	L 45 17
	L 46 17
	L 46 16
	L 45 16
	L 45 17
	L 45 18
	L 46 18
	L 47 18
	L 47 17
	L 46 17
	L 46 18
	L 47 18
	L 48 18
	L 49 18
	L 50 18
	L 50 17
	L 49 17
	L 49 18
	L 50 18
	L 51 18
	L 51 17
	L 51 16
	L 50 16
	L 50 17
	L 51 17
	L 51 16
	L 51 15
	L 50 15
	L 49 15
	L 49 16
	L 50 16
	L 50 15
	L 49 15
	L 48 15
	L 48 16
	L 48 17
	L 49 17
	L 49 16
	L 48 16
	L 48 17
	L 48 18
	L 49 18
	L 50 18
	L 50 17
	L 49 17
	L 49 18
	L 50 18
	L 51 18
	L 52 18
	L 53 18
	L 53 17
	L 52 17
	L 52 18
	L 53 18
	L 54 18
	L 54 17
	L 54 16
	L 53 16
	L 53 17
	L 54 17
	L 54 16
	L 54 15
	L 54 14
	L 54 13
	L 53 13
	L 53 14
	L 54 14
	L 54 13
	L 54 12
	L 53 12
	L 52 12
	L 52 13
	L 53 13
	L 53 12
	L 52 12
	L 51 12
	L 51 13
	L 51 14
	L 52 14
	L 52 13
	L 51 13
	L 51 14
	L 51 15
	L 52 15
	L 53 15
	L 53 14
	L 52 14
	L 52 15
	L 53 15
	L 54 15
	L 54 14
	L 54 13
	L 53 13
	L 53 14
	L 54 14
	L 54 13
	L 54 12
	L 54 11
	L 54 10
	L 53 10
	L 53 11
	L 54 11
	L 54 10
	L 54 9
	L 54 8
	L 54 7
	L 53 7
	L 53 8
	L 54 8
	L 54 7
	L 54 6
	L 54 5
	L 54 4
	L 53 4
	L 53 5
	L 54 5
	L 54 4
	L 54 3
	L 53 3
	L 52 3
	L 52 4
	L 53 4
	L 53 3
	L 52 3
	L 51 3
	L 51 4
	L 51 5
	L 52 5
	L 52 4
	L 51 4
	L 51 5
	L 51 6
	L 52 6
	L 53 6
	L 53 5
	L 52 5
	L 52 6
	L 53 6
	L 54 6
	L 54 5
	L 54 4
	L 53 4
	L 53 5
	L 54 5
	L 54 4
	L 54 3
	L 54 2
	L 54 1
	L 53 1
	L 53 2
	L 54 2
	L 54 1
	L 54 1.201e-11
	L 53 1.167e-11
	L 52 1.134e-11
	L 52 1
	L 53 1
	L 53 1.134e-11
	L 52 1.167e-11
	L 51 1.2e-11
	L 50 1.233e-11
	L 49 1.266e-11
	L 49 1
	L 50 1
	L 50 1.2e-11
	L 49 1.117e-11
	L 48 1.034e-11
	L 48 1
	L 48 2
	L 49 2
	L 49 1
	L 48 1
	L 48 2
	L 48 3
	L 49 3
	L 50 3
	L 50 2
	L 49 2
	L 49 3
	L 50 3
	L 51 3
	L 51 2
	L 51 1
	L 50 1
	L 50 2
	L 51 2
	L 51 1
	L 51 8.866e-12
	L 50 8.86e-12
	L 49 8.853e-12
	L 49 1
	L 50 1
	L 50 1.035e-11
	L 49 9.183e-12
	L 48 8.018e-12
	L 47 6.853e-12
	L 46 5.688e-12
	L 46 1
	L 47 1
	L 47 6.522e-12
	L 46 6.018e-12
	L 45 5.513e-12
	L 44 5.009e-12
	L 43 4.504e-12
	L 43 1
	L 44 1
	L 44 4.678e-12
	L 43 4.834e-12
	L 42 4.99e-12
	L 41 5.146e-12
	L 40 5.302e-12
	L 40 1
	L 41 1
	L 41 6.635e-12
	L 40 5.632e-12
	L 39 4.63e-12
	L 39 1
	L 39 2
	L 40 2
	L 40 1
	L 39 1
	L 39 2
	L 39 3
	L 40 3
	L 41 3
	L 41 2
	L 40 2
	L 40 3
	L 41 3
	L 42 3
	L 42 2
	L 42 1
	L 41 1
	L 41 2
	L 42 2
	L 42 1
	L 42 7.312e-12
	L 41 7.133e-12
	L 40 6.954e-12
	L 40 1
	L 41 1
	L 41 6.803e-12
	L 40 7.284e-12
	L 39 7.766e-12
	L 38 8.247e-12
	L 37 8.728e-12
	L 37 1
	L 38 1
	L 38 9.736e-12
	L 37 9.059e-12
	L 36 8.382e-12
	L 36 1
	L 36 2
	L 37 2
	L 37 1
	L 36 1
	L 36 2
	L 36 3
	L 36 4
	L 36 5
	L 37 5
	L 37 4
	L 36 4
	L 36 5
	L 36 6
	L 37 6
	L 38 6
	L 38 5
	L 37 5
	L 37 6
	L 38 6
	L 39 6
	L 39 5
	L 39 4
	L 38 4
	L 38 5
	L 39 5
	L 39 4
	L 39 3
	L 38 3
	L 37 3
	L 37 4
	L 38 4
	L 38 3
	L 37 3
	L 36 3
	L 36 4
	L 36 5
	L 37 5
	L 37 4
	L 36 4
	L 36 5
	L 36 6
	L 36 7
	L 36 8
	L 37 8
	L 37 7
	L 36 7
	L 36 8
	L 36 9
	L 37 9
	L 38 9
	L 38 8
	L 37 8
	L 37 9
	L 38 9
	L 39 9
	L 40 9
	L 41 9
	L 41 8
	L 40 8
	L 40 9
	L 41 9
	L 42 9
	L 42 8
	L 42 7
	L 41 7
	L 41 8
	L 42 8
	L 42 7
	L 42 6
	L 41 6
	L 40 6
	L 40 7
	L 41 7
	L 41 6
	L 40 6
	L 39 6
	L 39 7
	L 39 8
	L 40 8
	L 40 7
	L 39 7
	L 39 8
	L 39 9
	L 40 9
	L 41 9
	L 41 8
	L 40 8
	L 40 9
	L 41 9
	L 42 9
	L 43 9
	L 44 9
	L 44 8
	L 43 8
	L 43 9
	L 44 9
	L 45 9
	L 45 8
	L 45 7
	L 44 7
	L 44 8
	L 45 8
	L 45 7
	L 45 6
	L 45 5
	L 45 4
	L 44 4
	L 44 5
	L 45 5
	L 45 4
	L 45 3
	L 44 3
	L 43 3
	L 43 4
	L 44 4
	L 44 3
	L 43 3
	L 42 3
	L 42 4
	L 42 5
	L 43 5
	L 43 4
	L 42 4
	L 42 5
	L 42 6
	L 43 6
	L 44 6
	L 44 5
	L 43 5
	L 43 6
	L 44 6
	L 45 6
	L 45 5
	L 45 4
	L 44 4
	L 44 5
	L 45 5
	L 45 4
	L 45 3
	L 45 2
	L 45 1
	L 44 1
	L 44 2
	L 45 2
	L 45 1
	L 45 7.46e-12
	L 44 6.926e-12
	L 43 6.392e-12
	L 43 1
	L 44 1
	L 44 6.595e-12
	L 43 6.722e-12
	L 42 6.849e-12
	L 41 6.975e-12
	L 40 7.102e-12
	L 40 1
	L 41 1
	L 41 6.645e-12
	L 40 7.432e-12
	L 39 8.219e-12
	L 39 1
	L 39 2
	L 40 2
	L 40 1
	L 39 1
	L 39 2
	L 39 3
	L 40 3
	L 41 3
	L 41 2
	L 40 2
	L 40 3
	L 41 3
	L 42 3
	L 42 2
	L 42 1
	L 41 1
	L 41 2
	L 42 2
	L 42 1
	L 42 9.17e-12
	L 41 8.961e-12
	L 40 8.753e-12
	L 40 1
	L 41 1
	L 41 1.045e-11
	L 40 9.083e-12
	L 39 7.716e-12
	L 38 6.349e-12
	L 37 4.982e-12
	L 37 1
	L 38 1
	L 38 6.019e-12
	L 37 5.312e-12
	L 36 4.606e-12
	L 35 3.899e-12
	L 34 3.193e-12
	L 34 1
	L 35 1
	L 35 3.569e-12
	L 34 3.523e-12
	L 33 3.477e-12
	L 32 3.431e-12
	L 31 3.385e-12
	L 31 1
	L 32 1
	L 32 4.92e-12
	L 31 3.715e-12
	L 30 2.511e-12
	L 30 1
	L 30 2
	L 31 2
	L 31 1
	L 30 1
	L 30 2
	L 30 3
	L 31 3
	L 32 3
	L 32 2
	L 31 2
	L 31 3
	L 32 3
	L 33 3
	L 33 2
	L 33 1
	L 32 1
	L 32 2
	L 33 2
	L 33 1
	L 33 2.161e-12
	L 32 1.78e-12
	L 31 1.399e-12
	L 31 1
	L 32 1
	L 32 1.45e-12
	L 31 1.729e-12
	L 30 2.008e-12
	L 29 2.288e-12
	L 28 2.567e-12
	L 28 1
	L 29 1
	L 29 1.958e-12
	L 28 1.079e-12
	L 27 1.996e-13
	L 26 -6.794e-13
	L 25 -1.558e-12
	L 25 1
	L 26 1
	L 26 -1.01e-12
	L 25 -1.228e-12
	L 24 -1.447e-12
	L 23 -1.665e-12
	L 22 -1.883e-12
	L 22 1
	L 23 1
	L 23 -1.995e-12
	L 22 -1.553e-12
	L 21 -1.111e-12
	L 21 1
	L 21 2
	L 22 2
	L 22 1
	L 21 1
	L 21 2
	L 21 3
	L 22 3
	L 23 3
	L 23 2
	L 22 2
	L 22 3
	L 23 3
	L 24 3
	L 24 2
	L 24 1
	L 23 1
	L 23 2
	L 24 2
	L 24 1
	L 24 8.749e-13
	L 23 3.213e-13
	L 22 -2.323e-13
	L 22 1
	L 23 1
	L 23 -9.104e-15
	L 22 9.785e-14
	L 21 2.048e-13
	L 20 3.118e-13
	L 19 4.187e-13
	L 19 1
	L 20 1
	L 20 1.801e-12
	L 19 7.491e-13
	L 18 -3.024e-13
	L 17 -1.354e-12
	L 16 -2.405e-12
	L 16 1
	L 17 1
	L 17 -1.684e-12
	L 16 -2.075e-12
	L 15 -2.466e-12
	L 14 -2.857e-12
	L 13 -3.248e-12
	L 13 1
	L 14 1
	L 14 -3.187e-12
	L 13 -2.917e-12
	L 12 -2.648e-12
	L 12 1
	L 12 2
	L 13 2
	L 13 1
	L 12 1
	L 12 2
	L 12 3
	L 13 3
	L 14 3
	L 14 2
	L 13 2
	L 13 3
	L 14 3
	L 15 3
	L 15 2
	L 15 1
	L 14 1
	L 14 2
	L 15 2
	L 15 1
	L 15 -1.963e-12
	L 14 -2.689e-12
	L 13 -3.415e-12
	L 13 1
	L 14 1
	L 14 -3.019e-12
	L 13 -3.085e-12
	L 12 -3.15e-12
	L 11 -3.216e-12
	L 10 -3.281e-12
	L 10 1
	L 11 1
	L 11 -3.546e-12
	L 10 -2.951e-12
	L 9 -2.356e-12
	L 9 1
	L 9 2
	L 10 2
	L 10 1
	L 9 1
	L 9 2
	L 9 3
	L 9 4
	L 9 5
	L 10 5
	L 10 4
	L 9 4
	L 9 5
	L 9 6
	L 10 6
	L 11 6
	L 11 5
	L 10 5
	L 10 6
	L 11 6
	L 12 6
	L 12 5
	L 12 4
	L 11 4
	L 11 5
	L 12 5
	L 12 4
	L 12 3
	L 11 3
	L 10 3
	L 10 4
	L 11 4
	L 11 3
	L 10 3
	L 9 3
	L 9 4
	L 9 5
	L 10 5
	L 10 4
	L 9 4
	L 9 5
	L 9 6
	L 9 7
	L 9 8
	L 10 8
	L 10 7
	L 9 7
	L 9 8
	L 9 9
	L 10 9
	L 11 9
	L 11 8
	L 10 8
	L 10 9
	L 11 9
	L 12 9
	L 13 9
	L 14 9
	L 14 8
	L 13 8
	L 13 9
	L 14 9
	L 15 9
	L 15 8
	L 15 7
	L 14 7
	L 14 8
	L 15 8
	L 15 7
	L 15 6
	L 14 6
	L 13 6
	L 13 7
	L 14 7
	L 14 6
	L 13 6
	L 12 6
	L 12 7
	L 12 8
	L 13 8
	L 13 7
	L 12 7
	L 12 8
	L 12 9
	L 13 9
	L 14 9
	L 14 8
	L 13 8
	L 13 9
	L 14 9
	L 15 9
	L 16 9
	L 17 9
	L 17 8
	L 16 8
	L 16 9
	L 17 9
	L 18 9
	L 18 8
	L 18 7
	L 17 7
	L 17 8
	L 18 8
	L 18 7
	L 18 6
	L 18 5
	L 18 4
	L 17 4
	L 17 5
	L 18 5
	L 18 4
	L 18 3
	L 17 3
	L 16 3
	L 16 4
	L 17 4
	L 17 3
	L 16 3
	L 15 3
	L 15 4
	L 15 5
	L 16 5
	L 16 4
	L 15 4
	L 15 5
	L 15 6
	L 16 6
	L 17 6
	L 17 5
	L 16 5
	L 16 6
	L 17 6
	L 18 6
	L 18 5
	L 18 4
	L 17 4
	L 17 5
	L 18 5
	L 18 4
	L 18 3
	L 18 2
	L 18 1
	L 17 1
	L 17 2
	L 18 2
	L 18 1
	L 18 -7.451e-12
	L 17 -6.713e-12
	L 16 -5.974e-12
	L 16 1
	L 17 1
	L 17 -5.224e-12
	L 16 -5.644e-12
	L 15 -6.064e-12
	L 14 -6.485e-12
	L 13 -6.905e-12
	L 13 1
	L 14 1
	L 14 -6.815e-12
	L 13 -6.575e-12
	L 12 -6.334e-12
	L 12 1
	L 12 2
	L 13 2
	L 13 1
	L 12 1
	L 12 2
	L 12 3
	L 13 3
	L 14 3
	L 14 2
	L 13 2
	L 13 3
	L 14 3
	L 15 3
	L 15 2
	L 15 1
	L 14 1
	L 14 2
	L 15 2
	L 15 1
	L 15 -1.924e-12
	L 14 -2.679e-12
	L 13 -3.435e-12
	L 13 1
	L 14 1
	L 14 -3.01e-12
	L 13 -3.105e-12
	L 12 -3.199e-12
	L 11 -3.294e-12
	L 10 -3.389e-12
	L 10 1
	L 11 1
	L 11 -3.625e-12
	L 10 -4.878e-12
	L 9 -6.131e-12
	L 8 -7.385e-12
	L 7 -8.638e-12
	L 7 1
	L 8 1
	L 8 -7.715e-12
	L 7 -8.308e-12
	L 6 -8.901e-12
	L 5 -9.493e-12
	L 4 -1.009e-11
	L 4 1
	L 5 1
	L 5 -9.824e-12
	L 4 -9.756e-12
	L 3 -9.688e-12
	L 3 1
	L 3 2
	L 4 2
	L 4 1
	L 3 1
	L 3 2
	L 3 3
	L 4 3
	L 5 3
	L 5 2
	L 4 2
	L 4 3
	L 5 3
	L 6 3
	L 6 2
	L 6 1
	L 5 1
	L 5 2
	L 6 2
	L 6 1
	L 6 -1.022e-11
	L 5 -1.114e-11
	L 4 -1.207e-11
	L 4 1
	L 5 1
	L 5 -1.147e-11
	L 4 -1.174e-11
	L 3 -1.201e-11
	L 2 -1.228e-11
	L 1 -1.254e-11
	L 1 1
	L 2 1
	L 2 -1.261e-11
	L 1 -1.221e-11
	L 2.203e-11 -1.182e-11
"/>
</svg>
