<svg version="1.1" baseProfile="full" xmlns="http://www.w3.org/2000/svg"
width="1024" height="1024"
viewBox="-14 -4 23 23"
>
<rect x="-14" y="-4" width="100%" height="100%" fill="white" />
<path stroke="green" stroke-width="0.04" stroke-linecap="round" fill="none"
transform="scale(1 -1)"
d="	M 0 0
	L 6.123e-17 1
	L 1.225e-16 2
	L 1 2
	L 1 3
	L 2 3
	L 2 2
	L 2 1
	L 2 0
	L 2 -1
	L 1 -1
	L 1 -2
	L 0 -2
	L -1.837e-16 -1
	L -3.674e-16 0
	L 1 2.449e-16
	L 2 4.899e-16
	L 2 -1
	L 3 -1
	L 3 -2
	L 2 -2
	L 1 -2
	L 1 -3
	L 1 -4
	L 8.882e-16 -4
	L 1.194e-15 -5
	L -1 -5
	L -1 -4
	L -1 -3
	L 3.331e-16 -3
	L 1 -3
	L 1 -4
	L 2 -4
	L 2 -5
	L 1 -5
	L 4.885e-15 -5
	L 5.988e-15 -4
	L 7.091e-15 -3
	L 1 -3
	L 1 -2
	L 2 -2
	L 2 -3
	L 2 -4
	L 2 -5
	L 2 -6
	L 1 -6
	L 1 -7
	L 3.553e-15 -7
	L 4.411e-15 -6
	L 5.268e-15 -5
	L 6.126e-15 -4
	L 6.984e-15 -3
	L 1 -3
	L 1 -2
	L 2 -2
	L 2 -3
	L 2 -4
	L 2 -5
	L 2 -6
	L 1 -6
	L 1 -7
	L 2.154e-14 -7
	L 2.215e-14 -6
	L 2.276e-14 -5
	L 1 -5
	L 2 -5
	L 2 -6
	L 3 -6
	L 3 -7
	L 2 -7
	L 1 -7
	L 1 -8
	L 1 -9
	L 4.974e-14 -9
	L 5.635e-14 -10
	L -1 -10
	L -1 -9
	L -1 -8
	L 4.996e-14 -8
	L 1 -8
	L 1 -9
	L 2 -9
	L 2 -10
	L 1 -10
	L 4.929e-14 -10
	L 4.586e-14 -9
	L 4.243e-14 -8
	L 1 -8
	L 1 -7
	L 2 -7
	L 2 -8
	L 2 -9
	L 2 -10
	L 2 -11
	L 1 -11
	L 1 -12
	L 3.908e-14 -12
	L 3.541e-14 -11
	L 3.173e-14 -10
	L 1 -10
	L 2 -10
	L 2 -11
	L 3 -11
	L 3 -12
	L 2 -12
	L 1 -12
	L 3.286e-14 -12
	L -1 -12
	L -1 -11
	L -2 -11
	L -2 -10
	L -1 -10
	L 2.487e-14 -10
	L 2.536e-14 -11
	L 2.585e-14 -12
	L -1 -12
	L -1 -13
	L -2 -13
	L -2 -12
	L -2 -11
	L -3 -11
	L -4 -11
	L -4 -10
	L -5 -10
	L -5 -9
	L -4 -9
	L -3 -9
	L -3 -10
	L -3 -11
	L -4 -11
	L -4 -12
	L -5 -12
	L -5 -11
	L -5 -10
	L -4 -10
	L -3 -10
	L -3 -11
	L -2 -11
	L -2 -12
	L -3 -12
	L -4 -12
	L -5 -12
	L -6 -12
	L -6 -11
	L -7 -11
	L -7 -10
	L -6 -10
	L -5 -10
	L -5 -9
	L -5 -8
	L -4 -8
	L -4 -7
	L -3 -7
	L -3 -8
	L -3 -9
	L -3 -10
	L -3 -11
	L -4 -11
	L -4 -12
	L -5 -12
	L -5 -11
	L -5 -10
	L -4 -10
	L -3 -10
	L -3 -11
	L -2 -11
	L -2 -12
	L -3 -12
	L -4 -12
	L -4 -13
	L -4 -14
	L -5 -14
	L -5 -15
	L -6 -15
	L -6 -14
	L -6 -13
	L -5 -13
	L -4 -13
	L -4 -14
	L -3 -14
	L -3 -15
	L -4 -15
	L -5 -15
	L -5 -14
	L -5 -13
	L -4 -13
	L -4 -12
	L -3 -12
	L -3 -13
	L -3 -14
	L -3 -15
	L -3 -16
	L -4 -16
	L -4 -17
	L -5 -17
	L -5 -16
	L -5 -15
	L -4 -15
	L -3 -15
	L -3 -16
	L -2 -16
	L -2 -17
	L -3 -17
	L -4 -17
	L -5 -17
	L -6 -17
	L -6 -16
	L -7 -16
	L -7 -15
	L -6 -15
	L -5 -15
	L -5 -16
	L -5 -17
	L -6 -17
	L -6 -18
	L -7 -18
	L -7 -17
	L -7 -16
	L -8 -16
	L -9 -16
	L -9 -15
	L -10 -15
	L -10 -14
	L -9 -14
	L -8 -14
	L -8 -15
	L -8 -16
	L -9 -16
	L -9 -17
	L -10 -17
	L -10 -16
	L -10 -15
	L -9 -15
	L -8 -15
	L -8 -16
	L -7 -16
	L -7 -17
	L -8 -17
	L -9 -17
	L -10 -17
	L -11 -17
	L -11 -16
	L -12 -16
	L -12 -15
	L -11 -15
	L -10 -15
	L -10 -16
	L -10 -17
	L -11 -17
	L -11 -18
	L -12 -18
	L -12 -17
	L -12 -16
	L -12 -15
	L -12 -14
	L -11 -14
	L -11 -13
	L -10 -13
	L -10 -14
	L -10 -15
	L -11 -15
	L -12 -15
	L -12 -14
	L -13 -14
	L -13 -13
	L -12 -13
	L -11 -13
	L -11 -12
	L -11 -11
	L -10 -11
	L -10 -10
	L -9 -10
	L -9 -11
	L -9 -12
	L -10 -12
	L -11 -12
	L -11 -11
	L -12 -11
	L -12 -10
	L -11 -10
	L -10 -10
	L -10 -11
	L -10 -12
	L -11 -12
	L -11 -13
	L -12 -13
	L -12 -12
	L -12 -11
	L -12 -10
	L -12 -9
	L -11 -9
	L -11 -8
	L -10 -8
	L -10 -9
	L -10 -10
	L -10 -11
	L -10 -12
	L -11 -12
	L -11 -13
	L -12 -13
	L -12 -12
	L -12 -11
	L -12 -10
	L -12 -9
	L -11 -9
	L -11 -8
	L -10 -8
	L -10 -9
	L -10 -10
	L -11 -10
	L -12 -10
	L -12 -9
	L -13 -9
	L -13 -8
	L -12 -8
	L -11 -8
	L -11 -7
	L -11 -6
	L -10 -6
	L -10 -5
	L -9 -5
	L -9 -6
	L -9 -7
	L -10 -7
	L -11 -7
	L -11 -6
	L -12 -6
	L -12 -5
	L -11 -5
	L -10 -5
	L -10 -6
	L -10 -7
	L -11 -7
	L -11 -8
	L -12 -8
	L -12 -7
	L -12 -6
	L -12 -5
	L -12 -4
	L -11 -4
	L -11 -3
	L -10 -3
	L -10 -4
	L -10 -5
	L -11 -5
	L -12 -5
	L -12 -4
	L -13 -4
	L -13 -3
	L -12 -3
	L -11 -3
	L -10 -3
	L -9 -3
	L -9 -4
	L -8 -4
	L -8 -5
	L -9 -5
	L -10 -5
	L -10 -4
	L -10 -3
	L -9 -3
	L -9 -2
	L -8 -2
	L -8 -3
	L -8 -4
	L -7 -4
	L -6 -4
	L -6 -5
	L -5 -5
	L -5 -6
	L -6 -6
	L -7 -6
	L -7 -5
	L -7 -4
	L -6 -4
	L -6 -3
	L -5 -3
	L -5 -4
	L -5 -5
	L -6 -5
	L -7 -5
	L -7 -4
	L -8 -4
	L -8 -3
	L -7 -3
	L -6 -3
	L -5 -3
	L -4 -3
	L -4 -4
	L -3 -4
	L -3 -5
	L -4 -5
	L -5 -5
	L -6 -5
	L -7 -5
	L -7 -4
	L -8 -4
	L -8 -3
	L -7 -3
	L -6 -3
	L -5 -3
	L -4 -3
	L -4 -4
	L -3 -4
	L -3 -5
	L -4 -5
	L -5 -5
	L -5 -4
	L -5 -3
	L -4 -3
	L -4 -2
	L -3 -2
	L -3 -3
	L -3 -4
	L -2 -4
	L -1 -4
	L -1 -5
	L -7.15e-14 -5
	L -7.199e-14 -6
	L -1 -6
	L -2 -6
	L -2 -5
	L -2 -4
	L -1 -4
	L -1 -3
	L -1.878e-13 -3
	L -1.668e-13 -4
	L -1.457e-13 -5
	L -1 -5
	L -2 -5
	L -2 -4
	L -3 -4
	L -3 -3
	L -2 -3
	L -1 -3
	L -1.528e-13 -3
	L 1 -3
	L 1 -4
	L 2 -4
	L 2 -5
	L 1 -5
	L -1.243e-13 -5
	L -1.209e-13 -4
	L -1.175e-13 -3
	L 1 -3
	L 1 -2
	L 2 -2
	L 2 -3
	L 2 -4
	L 2 -5
	L 2 -6
	L 1 -6
	L 1 -7
	L -2.196e-13 -7
	L -2.377e-13 -6
	L -2.559e-13 -5
	L 1 -5
	L 2 -5
	L 2 -6
	L 3 -6
	L 3 -7
	L 2 -7
	L 1 -7
	L 1 -8
	L 1 -9
	L -1.403e-13 -9
	L -1.114e-13 -10
	L -1 -10
	L -1 -9
	L -1 -8
	L -1.341e-13 -8
	L 1 -8
	L 1 -9
	L 2 -9
	L 2 -10
	L 1 -10
	L -1.468e-13 -10
	L -1.512e-13 -9
	L -1.556e-13 -8
	L 1 -8
	L 1 -7
	L 2 -7
	L 2 -8
	L 2 -9
	L 2 -10
	L 2 -11
	L 1 -11
	L 1 -12
	L -2.264e-13 -12
	L -2.523e-13 -11
	L -2.783e-13 -10
	L -1 -10
	L -2 -10
	L -2 -9
	L -3 -9
	L -3 -8
	L -2 -8
	L -1 -8
	L -3.295e-13 -8
	L 1 -8
	L 1 -9
	L 2 -9
	L 2 -10
	L 1 -10
	L -2.558e-13 -10
	L -2.465e-13 -9
	L -2.372e-13 -8
	L 1 -8
	L 1 -7
	L 2 -7
	L 2 -8
	L 2 -9
	L 3 -9
	L 4 -9
	L 4 -10
	L 5 -10
	L 5 -11
	L 4 -11
	L 3 -11
	L 3 -10
	L 3 -9
	L 4 -9
	L 4 -8
	L 5 -8
	L 5 -9
	L 5 -10
	L 4 -10
	L 3 -10
	L 3 -9
	L 2 -9
	L 2 -8
	L 3 -8
	L 4 -8
	L 5 -8
	L 6 -8
	L 6 -9
	L 7 -9
	L 7 -10
	L 6 -10
	L 5 -10
	L 5 -9
	L 5 -8
	L 6 -8
	L 6 -7
	L 7 -7
	L 7 -8
	L 7 -9
	L 7 -10
	L 7 -11
	L 6 -11
	L 6 -12
	L 5 -12
	L 5 -11
	L 5 -10
	L 6 -10
	L 7 -10
	L 7 -11
	L 8 -11
	L 8 -12
	L 7 -12
	L 6 -12
	L 6 -13
	L 6 -14
	L 5 -14
	L 5 -15
	L 4 -15
	L 4 -14
	L 4 -13
	L 5 -13
	L 6 -13
	L 6 -14
	L 7 -14
	L 7 -15
	L 6 -15
	L 5 -15
	L 5 -14
	L 5 -13
	L 6 -13
	L 6 -12
	L 7 -12
	L 7 -13
	L 7 -14
	L 7 -15
	L 7 -16
	L 6 -16
	L 6 -17
	L 5 -17
	L 5 -16
	L 5 -15
	L 6 -15
	L 7 -15
	L 7 -16
	L 8 -16
	L 8 -17
	L 7 -17
	L 6 -17
	L 5 -17
	L 4 -17
	L 4 -16
	L 3 -16
	L 3 -15
	L 4 -15
	L 5 -15
	L 5 -16
	L 5 -17
	L 4 -17
	L 4 -18
	L 3 -18
	L 3 -17
	L 3 -16
	L 2 -16
	L 1 -16
	L 1 -15
	L -4.796e-14 -15
	L -6.217e-14 -14
	L 1 -14
	L 2 -14
	L 2 -15
	L 2 -16
	L 1 -16
	L 1 -17
	L 1.31e-14 -17
	L 3.418e-14 -16
	L 5.525e-14 -15
	L 1 -15
	L 2 -15
	L 2 -16
	L 3 -16
	L 3 -17
	L 2 -17
	L 1 -17
	L 1.483e-13 -17
	L -1 -17
	L -1 -16
	L -2 -16
	L -2 -15
	L -1 -15
	L 1.474e-13 -15
	L 1 -15
	L 2 -15
	L 2 -16
	L 3 -16
	L 3 -17
	L 2 -17
	L 1 -17
	L 1.696e-13 -17
	L -1 -17
	L -1 -16
	L -2 -16
	L -2 -15
	L -1 -15
	L 1.255e-13 -15
	L 1.014e-13 -16
	L 7.742e-14 -17
	L -1 -17
	L -1 -18
	L -2 -18
	L -2 -17
	L -2 -16
	L -3 -16
	L -4 -16
	L -4 -15
	L -5 -15
	L -5 -14
	L -4 -14
	L -3 -14
	L -3 -15
	L -3 -16
	L -4 -16
	L -4 -17
	L -5 -17
	L -5 -16
	L -5 -15
	L -4 -15
	L -3 -15
	L -3 -16
	L -2 -16
	L -2 -17
	L -3 -17
	L -4 -17
	L -5 -17
	L -6 -17
	L -6 -16
	L -7 -16
	L -7 -15
	L -6 -15
	L -5 -15
	L -5 -16
	L -5 -17
	L -6 -17
	L -6 -18
	L -7 -18
	L -7 -17
	L -7 -16
	L -7 -15
	L -7 -14
	L -6 -14
	L -6 -13
	L -5 -13
	L -5 -14
	L -5 -15
	L -6 -15
	L -7 -15
	L -7 -14
	L -8 -14
	L -8 -13
	L -7 -13
	L -6 -13
	L -6 -12
	L -6 -11
	L -5 -11
	L -5 -10
	L -4 -10
	L -4 -11
	L -4 -12
	L -5 -12
	L -6 -12
	L -6 -11
	L -7 -11
	L -7 -10
	L -6 -10
	L -5 -10
	L -5 -11
	L -5 -12
	L -6 -12
	L -6 -13
	L -7 -13
	L -7 -12
	L -7 -11
	L -7 -10
	L -7 -9
	L -6 -9
	L -6 -8
	L -5 -8
	L -5 -9
	L -5 -10
	L -5 -11
	L -5 -12
	L -6 -12
	L -6 -13
	L -7 -13
	L -7 -12
	L -7 -11
	L -7 -10
	L -7 -9
	L -6 -9
	L -6 -8
	L -5 -8
	L -5 -9
	L -5 -10
	L -6 -10
	L -7 -10
	L -7 -9
	L -8 -9
	L -8 -8
	L -7 -8
	L -6 -8
	L -6 -7
	L -6 -6
	L -5 -6
	L -5 -5
	L -4 -5
	L -4 -6
	L -4 -7
	L -5 -7
	L -6 -7
	L -6 -6
	L -7 -6
	L -7 -5
	L -6 -5
	L -5 -5
	L -5 -6
	L -5 -7
	L -6 -7
	L -6 -8
	L -7 -8
	L -7 -7
	L -7 -6
	L -7 -5
	L -7 -4
	L -6 -4
	L -6 -3
	L -5 -3
	L -5 -4
	L -5 -5
	L -6 -5
	L -7 -5
	L -7 -4
	L -8 -4
	L -8 -3
	L -7 -3
	L -6 -3
	L -5 -3
	L -4 -3
	L -4 -4
	L -3 -4
	L -3 -5
	L -4 -5
	L -5 -5
	L -5 -4
	L -5 -3
	L -4 -3
	L -4 -2
	L -3 -2
	L -3 -3
	L -3 -4
	L -2 -4
	L -1 -4
	L -1 -5
	L -2.225e-13 -5
	L -1.936e-13 -6
	L -1 -6
	L -2 -6
	L -2 -5
	L -2 -4
	L -1 -4
	L -1 -3
	L -3.124e-13 -3
	L -3.188e-13 -4
	L -3.252e-13 -5
	L -1 -5
	L -2 -5
	L -2 -4
	L -3 -4
	L -3 -3
	L -2 -3
	L -1 -3
	L -4.476e-13 -3
	L 1 -3
	L 1 -4
	L 2 -4
	L 2 -5
	L 1 -5
	L -4.174e-13 -5
	L -4.023e-13 -6
	L -3.871e-13 -7
	L -1 -7
	L -1 -8
	L -2 -8
	L -2 -7
	L -2 -6
	L -2 -5
	L -2 -4
	L -1 -4
	L -1 -3
	L -5.012e-13 -3
	L -5.213e-13 -4
	L -5.413e-13 -5
	L -1 -5
	L -2 -5
	L -2 -4
	L -3 -4
	L -3 -3
	L -2 -3
	L -1 -3
	L -1 -2
	L -1 -1
	L -5.04e-13 -1
	L -4.947e-13 -6.879e-13
	L 1 -6.918e-13
	L 1 -1
	L 1 -2
	L -3.781e-13 -2
	L -1 -2
	L -1 -1
	L -2 -1
	L -2 -7.121e-13
	L -1 -6.376e-13
	L -4.028e-13 -5.631e-13
	L -3.798e-13 -1
	L -3.567e-13 -2
	L -1 -2
	L -1 -3
	L -2 -3
	L -2 -2
	L -2 -1
	L -2 -6.199e-13
	L -2 1
	L -1 1
	L -1 2
	L -2.185e-13 2
	L -1.739e-13 1
	L -1.293e-13 -5.416e-13
	L -1 -5.347e-13
	L -2 -5.278e-13
	L -2 1
	L -3 1
	L -3 2
	L -2 2
	L -1 2
	L -2.403e-13 2
	L 1 2
	L 1 1
	L 2 1
	L 2 -5.01e-13
	L 1 -4.589e-13
	L -2.216e-13 -4.167e-13
	L -2.417e-13 1
	L -2.618e-13 2
	L 1 2
	L 1 3
	L 2 3
	L 2 2
	L 2 1
	L 3 1
	L 4 1
	L 4 -3.151e-13
	L 5 -2.896e-13
	L 5 -1
	L 4 -1
	L 3 -1
	L 3 -3.619e-13
	L 3 1
	L 4 1
	L 4 2
	L 5 2
	L 5 1
	L 5 -3.815e-13
	L 4 -4.393e-13
	L 3 -4.971e-13
	L 3 1
	L 2 1
	L 2 2
	L 3 2
	L 4 2
	L 5 2
	L 6 2
	L 6 1
	L 7 1
	L 7 -4.963e-13
	L 6 -5.188e-13
	L 5 -5.413e-13
	L 5 1
	L 5 2
	L 6 2
	L 6 3
	L 7 3
	L 7 2
	L 7 1
	L 7 -4.747e-13
	L 7 -1
	L 6 -1
	L 6 -2
	L 5 -2
	L 5 -1
	L 5 -4.49e-13
	L 6 -3.941e-13
	L 7 -3.392e-13
	L 7 -1
	L 8 -1
	L 8 -2
	L 7 -2
	L 6 -2
	L 6 -3
	L 6 -4
	L 5 -4
	L 5 -5
	L 4 -5
	L 4 -4
	L 4 -3
	L 5 -3
	L 6 -3
	L 6 -4
	L 7 -4
	L 7 -5
	L 6 -5
	L 5 -5
	L 5 -4
	L 5 -3
	L 6 -3
	L 6 -2
	L 7 -2
	L 7 -3
	L 7 -4
	L 7 -5
	L 7 -6
	L 6 -6
	L 6 -7
	L 5 -7
	L 5 -6
	L 5 -5
	L 5 -4
	L 5 -3
	L 6 -3
	L 6 -2
	L 7 -2
	L 7 -3
	L 7 -4
	L 7 -5
	L 7 -6
	L 6 -6
	L 6 -7
	L 5 -7
	L 5 -6
	L 5 -5
	L 6 -5
	L 7 -5
	L 7 -6
	L 8 -6
	L 8 -7
	L 7 -7
	L 6 -7
	L 6 -8
	L 6 -9
	L 5 -9
	L 5 -10
	L 4 -10
	L 4 -9
	L 4 -8
	L 5 -8
	L 6 -8
	L 6 -9
	L 7 -9
	L 7 -10
	L 6 -10
	L 5 -10
	L 5 -9
	L 5 -8
	L 6 -8
	L 6 -7
	L 7 -7
	L 7 -8
	L 7 -9
	L 7 -10
	L 7 -11
	L 6 -11
	L 6 -12
	L 5 -12
	L 5 -11
	L 5 -10
	L 6 -10
	L 7 -10
	L 7 -11
	L 8 -11
	L 8 -12
	L 7 -12
	L 6 -12
	L 5 -12
	L 4 -12
	L 4 -11
	L 3 -11
	L 3 -10
	L 4 -10
	L 5 -10
	L 5 -11
	L 5 -12
	L 4 -12
	L 4 -13
	L 3 -13
	L 3 -12
	L 3 -11
	L 2 -11
	L 1 -11
	L 1 -10
	L -3.946e-13 -10
	L -4.107e-13 -9
	L 1 -9
	L 2 -9
	L 2 -10
	L 2 -11
	L 1 -11
	L 1 -12
	L -3.301e-13 -12
	L -3.678e-13 -11
	L -4.055e-13 -10
	L 1 -10
	L 2 -10
	L 2 -11
	L 3 -11
	L 3 -12
	L 2 -12
	L 1 -12
	L -3.086e-13 -12
	L -1 -12
	L -1 -11
	L -2 -11
	L -2 -10
	L -1 -10
	L -1.994e-13 -10
	L 1 -10
	L 2 -10
	L 2 -11
	L 3 -11
	L 3 -12
	L 2 -12
	L 1 -12
	L -5.906e-14 -12
	L -1 -12
	L -1 -11
	L -2 -11
	L -2 -10
	L -1 -10
	L -2.207e-13 -10
	L -2.428e-13 -11
	L -2.648e-13 -12
	L -1 -12
	L -1 -13
	L -2 -13
	L -2 -12
	L -2 -11
	L -3 -11
	L -4 -11
	L -4 -10
	L -5 -10
	L -5 -9
	L -4 -9
	L -3 -9
	L -3 -10
	L -3 -11
	L -4 -11
	L -4 -12
	L -5 -12
	L -5 -11
	L -5 -10
	L -4 -10
	L -3 -10
	L -3 -11
	L -2 -11
	L -2 -12
	L -3 -12
	L -4 -12
	L -5 -12
	L -6 -12
	L -6 -11
	L -7 -11
	L -7 -10
	L -6 -10
	L -5 -10
	L -5 -11
	L -5 -12
	L -6 -12
	L -6 -13
	L -7 -13
	L -7 -12
	L -7 -11
	L -7 -10
	L -7 -9
	L -6 -9
	L -6 -8
	L -5 -8
	L -5 -9
	L -5 -10
	L -6 -10
	L -7 -10
	L -7 -9
	L -8 -9
	L -8 -8
	L -7 -8
	L -6 -8
	L -6 -7
	L -6 -6
	L -5 -6
	L -5 -5
	L -4 -5
	L -4 -6
	L -4 -7
	L -5 -7
	L -6 -7
	L -6 -6
	L -7 -6
	L -7 -5
	L -6 -5
	L -5 -5
	L -5 -6
	L -5 -7
	L -6 -7
	L -6 -8
	L -7 -8
	L -7 -7
	L -7 -6
	L -7 -5
	L -7 -4
	L -6 -4
	L -6 -3
	L -5 -3
	L -5 -4
	L -5 -5
	L -4 -5
	L -3 -5
	L -3 -6
	L -2 -6
	L -2 -7
	L -3 -7
	L -4 -7
	L -5 -7
	L -6 -7
	L -6 -6
	L -7 -6
	L -7 -5
	L -6 -5
	L -5 -5
	L -5 -6
	L -5 -7
	L -6 -7
	L -6 -8
	L -7 -8
	L -7 -7
	L -7 -6
	L -8 -6
	L -9 -6
	L -9 -5
	L -10 -5
	L -10 -4
	L -9 -4
	L -8 -4
	L -8 -5
	L -8 -6
	L -9 -6
	L -9 -7
	L -10 -7
	L -10 -6
	L -10 -5
	L -9 -5
	L -8 -5
	L -8 -6
	L -7 -6
	L -7 -7
	L -8 -7
	L -9 -7
	L -10 -7
	L -11 -7
	L -11 -6
	L -12 -6
	L -12 -5
	L -11 -5
	L -10 -5
	L -10 -6
	L -10 -7
	L -11 -7
	L -11 -8
	L -12 -8
	L -12 -7
	L -12 -6
	L -12 -5
	L -12 -4
	L -11 -4
	L -11 -3
	L -10 -3
	L -10 -4
	L -10 -5
	L -11 -5
	L -12 -5
	L -12 -4
	L -13 -4
	L -13 -3
	L -12 -3
	L -11 -3
	L -11 -2
	L -11 -1
	L -10 -1
	L -10 -9.959e-13
	L -9 -1.027e-12
	L -9 -1
	L -9 -2
	L -10 -2
	L -11 -2
	L -11 -1
	L -12 -1
	L -12 -1.307e-12
	L -11 -1.317e-12
	L -10 -1.326e-12
	L -10 -1
	L -10 -2
	L -11 -2
	L -11 -3
	L -12 -3
	L -12 -2
	L -12 -1
	L -12 -1.328e-12
	L -12 1
	L -11 1
	L -11 2
	L -10 2
	L -10 1
	L -10 -1.304e-12
	L -11 -1.327e-12
	L -12 -1.349e-12
	L -12 1
	L -13 1
	L -13 2
	L -12 2
	L -11 2
	L -10 2
	L -9 2
	L -9 1
	L -8 1
	L -8 -1.205e-12
	L -9 -1.249e-12
	L -10 -1.293e-12
	L -10 1
	L -10 2
	L -9 2
	L -9 3
	L -8 3
	L -8 2
	L -8 1
	L -7 1
	L -6 1
	L -6 -1.074e-12
	L -5 -1.019e-12
	L -5 -1
	L -6 -1
	L -7 -1
	L -7 -9.23e-13
	L -7 1
	L -6 1
	L -6 2
	L -5 2
	L -5 1
	L -5 -7.703e-13
	L -6 -8.575e-13
	L -7 -9.447e-13
	L -7 1
	L -8 1
	L -8 2
	L -7 2
	L -6 2
	L -5 2
	L -4 2
	L -4 1
	L -3 1
	L -3 -1.111e-12
	L -4 -1.106e-12
	L -5 -1.101e-12
	L -6 -1.096e-12
	L -7 -1.091e-12
	L -7 1
	L -8 1
	L -8 2
	L -7 2
	L -6 2
	L -5 2
	L -4 2
	L -4 1
	L -3 1
	L -3 -1.057e-12
	L -4 -1.074e-12
	L -5 -1.091e-12
	L -5 1
	L -5 2
	L -4 2
	L -4 3
	L -3 3
	L -3 2
	L -3 1
	L -2 1
	L -1 1
	L -1 -9.808e-13
	L -6.768e-13 -9.533e-13
	L -5.871e-13 -1
	L -1 -1
	L -2 -1
	L -2 -1.03e-12
	L -2 1
	L -1 1
	L -1 2
	L -5.471e-13 2
	L -5.496e-13 1
	L -5.52e-13 -9.315e-13
	L -1 -9.913e-13
	L -2 -1.051e-12
	L -2 1
	L -3 1
	L -3 2
	L -2 2
	L -1 2
	L -7.963e-13 2
	L 1 2
	L 1 1
	L 2 1
	L 2 -7.577e-13
	L 1 -7.254e-13
	L -7.581e-13 -6.93e-13
"/>
</svg>
