<svg version="1.1" baseProfile="full" xmlns="http://www.w3.org/2000/svg"
width="640.8" height="1024"
viewBox="-14.74 -25.15 30.26 48.36"
>
<rect x="-14.74" y="-25.15" width="100%" height="100%" fill="white" />
<path stroke="green" stroke-width="0.04" stroke-linecap="round" fill="none"
transform="scale(1 -1)"
d="	M 0 0
	L 6.123e-17 1
	L 0.3827 1.924
	L 0.3827 2.924
	L 0.7654 3.848
	L 1.472 4.555
	L 1.855 5.479
	L 1.855 6.479
	L 1.472 7.403
	L 0.7654 8.11
	L -0.1585 8.492
	L -0.8656 9.2
	L -1.789 9.582
	L -2.497 10.29
	L -2.879 11.21
	L -3.586 11.92
	L -3.969 12.84
	L -4.676 13.55
	L -5.059 14.48
	L -5.059 15.48
	L -4.676 16.4
	L -4.676 17.4
	L -4.294 18.32
	L -3.586 19.03
	L -2.663 19.41
	L -1.663 19.41
	L -0.7386 19.8
	L -0.03153 20.5
	L 0.3512 21.43
	L 1.058 22.13
	L 1.982 22.52
	L 2.689 23.22
	L 3.072 24.15
	M 0 0
	L 1 0
	L 1.924 -0.3827
	L 2.924 -0.3827
	L 3.848 0
	L 4.848 0
	L 5.772 0.3827
	L 6.772 0.3827
	L 7.696 0.7654
	L 8.403 1.472
	L 9.327 1.855
	L 10.33 1.855
	L 11.25 1.472
	L 11.96 0.7654
	L 12.34 -0.1585
	L 13.05 -0.8656
	L 13.43 -1.789
	L 14.14 -2.497
	L 14.52 -3.42
	L 14.52 -4.42
	L 14.14 -5.344
	L 14.14 -6.344
	L 13.75 -7.268
	L 13.05 -7.975
	L 12.66 -8.899
	L 11.96 -9.606
	L 11.57 -10.53
	L 11.57 -11.53
	L 11.96 -12.45
	L 11.96 -13.45
	L 11.57 -14.38
	L 10.87 -15.09
	L 10.49 -16.01
	M 0 0
	L -1 1.225e-16
	L -1.924 0.3827
	L -2.631 1.09
	L -3.014 2.014
	L -3.014 3.014
	L -3.396 3.938
	L -3.396 4.938
	L -3.779 5.861
	L -4.486 6.569
	L -4.869 7.492
	L -4.869 8.492
	L -4.486 9.416
	L -4.486 10.42
	L -4.869 11.34
	L -5.576 12.05
	L -6.5 12.43
	L -7.5 12.43
	L -8.424 12.81
	L -9.424 12.81
	L -10.35 13.2
	L -11.35 13.2
	L -12.27 12.81
	L -12.98 12.11
	L -13.36 11.18
	L -13.36 10.18
	L -13.74 9.258
	L -13.74 8.258
	L -13.36 7.334
	L -13.36 6.334
	L -13.74 5.41
	L -13.74 4.41
	L -13.36 3.486
	M 0 0
	L -1.837e-16 -1
	L -0.3827 -1.924
	L -0.3827 -2.924
	L -0.7654 -3.848
	L -0.7654 -4.848
	L -1.148 -5.772
	L -1.148 -6.772
	L -1.531 -7.696
	L -1.531 -8.696
	L -1.913 -9.619
	L -1.913 -10.62
	L -1.531 -11.54
	L -0.8236 -12.25
	L 0.1003 -12.63
	L 0.8074 -13.34
	L 1.731 -13.72
	L 2.438 -14.43
	L 2.821 -15.35
	L 2.821 -16.35
	L 2.438 -17.28
	L 2.438 -18.28
	L 2.056 -19.2
	L 2.056 -20.2
	L 1.673 -21.13
	L 0.9659 -21.83
	L 0.04199 -22.22
	L -0.958 -22.22
	L -1.882 -21.83
	L -2.882 -21.83
	L -3.806 -21.45
	L -4.806 -21.45
	L -5.73 -21.07
"/>
</svg>
