<svg version="1.1" baseProfile="full" xmlns="http://www.w3.org/2000/svg"
width="221.1" height="1024"
viewBox="-4.923 -57.54 12.64 58.54"
>
<rect x="-4.923" y="-57.54" width="100%" height="100%" fill="white" />
<path stroke="green" stroke-width="0.04" stroke-linecap="round" fill="none"
transform="scale(1 -1)"
d="	M 0 0
	L 6.123e-17 1
	L -0.2079 1.978
	M 6.123e-17 1
	L 1.225e-16 2
	L 0.2079 2.978
	L 0.2079 3.978
	M 0.2079 2.978
	L 0.4158 3.956
	M 1.225e-16 2
	L 1.837e-16 3
	L -0.2079 3.978
	M 1.837e-16 3
	L 2.449e-16 4
	L 0.2079 4.978
	M 2.449e-16 4
	L 3.062e-16 5
	L -0.2079 5.978
	L -0.2079 6.978
	M -0.2079 5.978
	L -0.4158 6.956
	L -0.8226 7.87
	L -1.03 8.848
	M -0.8226 7.87
	L -1.229 8.783
	M -0.4158 6.956
	L -0.6237 7.934
	L -0.6237 8.934
	M -0.6237 7.934
	L -0.8316 8.913
	M 3.062e-16 5
	L 3.674e-16 6
	L 0.2079 6.978
	M 3.674e-16 6
	L 4.286e-16 7
	L -0.2079 7.978
	L -0.2079 8.978
	M -0.2079 7.978
	L -0.4158 8.956
	M 4.286e-16 7
	L 4.899e-16 8
	L -0.2079 8.978
	M 4.899e-16 8
	L 5.511e-16 9
	L 0.2079 9.978
	M 5.511e-16 9
	L 6.123e-16 10
	L 0.2079 10.98
	L 0.2079 11.98
	M 0.2079 10.98
	L 0.4158 11.96
	L 0.4158 12.96
	L 0.2079 13.93
	M 0.4158 12.96
	L 0.4158 13.96
	L 0.6237 14.93
	M 0.4158 13.96
	L 0.4158 14.96
	M 0.4158 11.96
	L 0.6237 12.93
	L 0.6237 13.93
	M 0.6237 12.93
	L 0.8316 13.91
	L 1.238 14.83
	M 0.8316 13.91
	L 1.04 14.89
	M 6.123e-16 10
	L 6.736e-16 11
	L -0.2079 11.98
	M 6.736e-16 11
	L 7.348e-16 12
	L 0.2079 12.98
	M 7.348e-16 12
	L 7.96e-16 13
	L 0.2079 13.98
	L 0.2079 14.98
	M 0.2079 13.98
	L 0.4158 14.96
	L 0.8226 15.87
	M 0.4158 14.96
	L 0.6237 15.93
	M 7.96e-16 13
	L 8.573e-16 14
	L 0.2079 14.98
	M 8.573e-16 14
	L 9.185e-16 15
	L -0.2079 15.98
	L -0.2079 16.98
	M -0.2079 15.98
	L -0.4158 16.96
	L -0.4158 17.96
	L -0.6237 18.93
	M -0.4158 17.96
	L -0.4158 18.96
	M -0.4158 16.96
	L -0.6237 17.93
	L -1.03 18.85
	M -0.6237 17.93
	L -0.8316 18.91
	L -1.238 19.83
	L -1.446 20.8
	M -1.238 19.83
	L -1.645 20.74
	L -2.233 21.55
	L -2.64 22.46
	M -2.233 21.55
	L -2.821 22.36
	M -1.645 20.74
	L -2.052 21.65
	L -2.64 22.46
	M -2.052 21.65
	L -2.459 22.57
	L -2.667 23.54
	M -2.459 22.57
	L -2.865 23.48
	M -0.8316 18.91
	L -1.04 19.89
	L -1.446 20.8
	M -1.04 19.89
	L -1.247 20.87
	L -1.247 21.87
	M -1.247 20.87
	L -1.455 21.85
	L -1.862 22.76
	L -2.45 23.57
	M -1.862 22.76
	L -2.269 23.67
	M -1.455 21.85
	L -1.663 22.83
	L -2.07 23.74
	M -1.663 22.83
	L -1.871 23.8
	L -1.871 24.8
	M -1.871 23.8
	L -2.079 24.78
	L -2.079 25.78
	L -2.287 26.76
	M -2.079 25.78
	L -2.079 26.78
	L -1.871 27.76
	M -2.079 26.78
	L -2.079 27.78
	L -2.287 28.76
	L -2.694 29.67
	M -2.287 28.76
	L -2.495 29.74
	M -2.079 27.78
	L -2.079 28.78
	L -2.287 29.76
	M -2.079 28.78
	L -2.079 29.78
	M -2.079 24.78
	L -2.287 25.76
	L -2.694 26.67
	M -2.287 25.76
	L -2.495 26.74
	L -2.495 27.74
	M -2.495 26.74
	L -2.703 27.72
	L -3.11 28.63
	L -3.697 29.44
	M -3.11 28.63
	L -3.516 29.54
	L -3.724 30.52
	M -3.516 29.54
	L -3.923 30.46
	M -2.703 27.72
	L -2.911 28.69
	L -3.318 29.61
	M -2.911 28.69
	L -3.119 29.67
	M 9.185e-16 15
	L 9.797e-16 16
	L 0.2079 16.98
	M 9.797e-16 16
	L 1.041e-15 17
	L 0.2079 17.98
	L 0.2079 18.98
	M 0.2079 17.98
	L 0.4158 18.96
	L 0.8226 19.87
	M 0.4158 18.96
	L 0.6237 19.93
	M 1.041e-15 17
	L 1.102e-15 18
	L 0.2079 18.98
	M 1.102e-15 18
	L 1.163e-15 19
	L 0.2079 19.98
	L 0.6146 20.89
	M 0.2079 19.98
	L 0.4158 20.96
	L 0.4158 21.96
	L 0.6237 22.93
	M 0.4158 21.96
	L 0.4158 22.96
	M 0.4158 20.96
	L 0.6237 21.93
	L 0.6237 22.93
	M 0.6237 21.93
	L 0.8316 22.91
	L 1.238 23.83
	L 1.446 24.8
	M 1.238 23.83
	L 1.645 24.74
	M 0.8316 22.91
	L 1.04 23.89
	L 1.446 24.8
	M 1.04 23.89
	L 1.247 24.87
	M 1.163e-15 19
	L 1.225e-15 20
	L -0.2079 20.98
	M 1.225e-15 20
	L 1.286e-15 21
	L 0.2079 21.98
	M 1.286e-15 21
	L 1.347e-15 22
	L -0.2079 22.98
	L -0.2079 23.98
	M -0.2079 22.98
	L -0.4158 23.96
	M 1.347e-15 22
	L 1.408e-15 23
	L 0.2079 23.98
	M 1.408e-15 23
	L 1.47e-15 24
	L 0.2079 24.98
	L 0.6146 25.89
	M 0.2079 24.98
	L 0.4158 25.96
	M 1.47e-15 24
	L 1.531e-15 25
	L 0.2079 25.98
	M 1.531e-15 25
	L 1.592e-15 26
	L 0.2079 26.98
	L 0.2079 27.98
	M 0.2079 26.98
	L 0.4158 27.96
	L 0.8226 28.87
	M 0.4158 27.96
	L 0.6237 28.93
	L 1.03 29.85
	L 1.238 30.83
	M 1.03 29.85
	L 1.437 30.76
	M 0.6237 28.93
	L 0.8316 29.91
	L 1.238 30.83
	M 0.8316 29.91
	L 1.04 30.89
	L 1.04 31.89
	L 0.8316 32.87
	M 1.04 31.89
	L 1.04 32.89
	L 1.247 33.87
	M 1.04 32.89
	L 1.04 33.89
	L 1.247 34.87
	L 1.654 35.78
	M 1.247 34.87
	L 1.455 35.85
	M 1.04 33.89
	L 1.04 34.89
	L 1.247 35.87
	M 1.04 34.89
	L 1.04 35.89
	M 1.04 30.89
	L 1.247 31.87
	L 1.654 32.78
	M 1.247 31.87
	L 1.455 32.85
	L 1.455 33.85
	L 1.247 34.83
	M 1.455 33.85
	L 1.455 34.85
	M 1.455 32.85
	L 1.663 33.83
	L 2.07 34.74
	M 1.663 33.83
	L 1.871 34.8
	L 2.278 35.72
	L 2.486 36.7
	M 2.278 35.72
	L 2.685 36.63
	L 3.272 37.44
	M 2.685 36.63
	L 3.091 37.54
	M 1.871 34.8
	L 2.079 35.78
	L 2.079 36.78
	M 2.079 35.78
	L 2.287 36.76
	L 2.694 37.67
	M 2.287 36.76
	L 2.495 37.74
	L 2.902 38.65
	L 3.489 39.46
	M 2.902 38.65
	L 3.308 39.56
	L 3.896 40.37
	L 4.303 41.29
	M 3.896 40.37
	L 4.484 41.18
	M 3.308 39.56
	L 3.715 40.48
	L 3.923 41.46
	M 3.715 40.48
	L 4.122 41.39
	M 2.495 37.74
	L 2.703 38.72
	L 2.703 39.72
	M 2.703 38.72
	L 2.911 39.69
	L 2.911 40.69
	L 2.703 41.67
	M 2.911 40.69
	L 2.911 41.69
	L 3.119 42.67
	M 2.911 41.69
	L 2.911 42.69
	M 2.911 39.69
	L 3.119 40.67
	L 3.119 41.67
	M 3.119 40.67
	L 3.327 41.65
	L 3.733 42.56
	L 3.941 43.54
	M 3.733 42.56
	L 4.14 43.48
	M 3.327 41.65
	L 3.534 42.63
	L 3.941 43.54
	M 3.534 42.63
	L 3.742 43.61
	L 3.742 44.61
	L 3.534 45.58
	M 3.742 44.61
	L 3.742 45.61
	L 3.95 46.58
	M 3.742 45.61
	L 3.742 46.61
	L 3.534 47.58
	L 3.128 48.5
	M 3.534 47.58
	L 3.327 48.56
	L 3.327 49.56
	M 3.327 48.56
	L 3.119 49.54
	M 3.742 46.61
	L 3.742 47.61
	L 3.534 48.58
	M 3.742 47.61
	L 3.742 48.61
	L 3.95 49.58
	M 3.742 48.61
	L 3.742 49.61
	L 3.95 50.58
	L 3.95 51.58
	M 3.95 50.58
	L 4.158 51.56
	L 4.158 52.56
	L 3.95 53.54
	M 4.158 52.56
	L 4.158 53.56
	L 4.366 54.54
	M 4.158 53.56
	L 4.158 54.56
	M 4.158 51.56
	L 4.366 52.54
	L 4.366 53.54
	M 4.366 52.54
	L 4.574 53.52
	M 3.742 49.61
	L 3.742 50.61
	L 3.95 51.58
	M 3.742 50.61
	L 3.742 51.61
	L 3.534 52.58
	L 3.128 53.5
	M 3.534 52.58
	L 3.327 53.56
	L 3.327 54.56
	M 3.327 53.56
	L 3.119 54.54
	M 3.742 51.61
	L 3.742 52.61
	L 3.95 53.58
	M 3.742 52.61
	L 3.742 53.61
	L 3.95 54.58
	L 3.95 55.58
	M 3.95 54.58
	L 4.158 55.56
	L 4.565 56.48
	M 4.158 55.56
	L 4.366 56.54
	M 3.742 53.61
	L 3.742 54.61
	L 3.95 55.58
	M 3.742 54.61
	L 3.742 55.61
	M 3.742 43.61
	L 3.95 44.58
	L 3.95 45.58
	M 3.95 44.58
	L 4.158 45.56
	L 4.158 46.56
	L 3.95 47.54
	M 4.158 46.56
	L 4.158 47.56
	L 4.366 48.54
	M 4.158 47.56
	L 4.158 48.56
	M 4.158 45.56
	L 4.366 46.54
	L 4.366 47.54
	M 4.366 46.54
	L 4.574 47.52
	L 4.981 48.43
	L 5.189 49.41
	M 4.981 48.43
	L 5.388 49.35
	L 5.975 50.16
	L 6.718 50.82
	M 5.975 50.16
	L 6.563 50.96
	M 5.388 49.35
	L 5.794 50.26
	L 6.382 51.07
	M 5.794 50.26
	L 6.201 51.17
	M 4.574 47.52
	L 4.782 48.5
	L 5.189 49.41
	M 4.782 48.5
	L 4.99 49.48
	L 5.397 50.39
	L 5.984 51.2
	M 5.397 50.39
	L 5.803 51.3
	M 4.99 49.48
	L 5.198 50.45
	L 5.198 51.45
	M 5.198 50.45
	L 5.406 51.43
	M 1.592e-15 26
	L 1.653e-15 27
	L -0.2079 27.98
	M 1.653e-15 27
	L 1.715e-15 28
	L 0.2079 28.98
	L 0.6146 29.89
	M 0.2079 28.98
	L 0.4158 29.96
	M 1.715e-15 28
	L 1.776e-15 29
	L 0.2079 29.98
	M 1.776e-15 29
	L 1.837e-15 30
	L 0.2079 30.98
	L 0.2079 31.98
	M 0.2079 30.98
	L 0.4158 31.96
	L 0.8226 32.87
	M 0.4158 31.96
	L 0.6237 32.93
	L 0.6237 33.93
	L 0.4158 34.91
	M 0.6237 33.93
	L 0.6237 34.93
	M 0.6237 32.93
	L 0.8316 33.91
	L 1.238 34.83
	M 0.8316 33.91
	L 1.04 34.89
	L 1.446 35.8
	L 2.034 36.61
	M 1.446 35.8
	L 1.853 36.72
	M 1.04 34.89
	L 1.247 35.87
	L 1.654 36.78
	M 1.247 35.87
	L 1.455 36.85
	M 1.837e-15 30
	L 1.898e-15 31
	L 0.2079 31.98
	M 1.898e-15 31
	L 1.959e-15 32
	L -0.2079 32.98
	L -0.6146 33.89
	M -0.2079 32.98
	L -0.4158 33.96
	M 1.959e-15 32
	L 2.021e-15 33
	L -0.2079 33.98
	M 2.021e-15 33
	L 2.082e-15 34
	L 0.2079 34.98
	L 0.2079 35.98
	M 0.2079 34.98
	L 0.4158 35.96
	M 2.082e-15 34
	L 2.143e-15 35
	L 0.2079 35.98
	M 2.143e-15 35
	L 2.204e-15 36
	L 0.2079 36.98
	L 0.2079 37.98
	M 0.2079 36.98
	L 0.4158 37.96
	L 0.8226 38.87
	M 0.4158 37.96
	L 0.6237 38.93
	L 0.6237 39.93
	L 0.8316 40.91
	M 0.6237 39.93
	L 0.6237 40.93
	M 0.6237 38.93
	L 0.8316 39.91
	L 1.238 40.83
	M 0.8316 39.91
	L 1.04 40.89
	L 1.04 41.89
	L 0.8316 42.87
	M 1.04 41.89
	L 1.04 42.89
	L 1.247 43.87
	M 1.04 42.89
	L 1.04 43.89
	L 0.8316 44.87
	L 0.4249 45.78
	M 0.8316 44.87
	L 0.6237 45.85
	L 0.6237 46.85
	M 0.6237 45.85
	L 0.4158 46.83
	M 1.04 43.89
	L 1.04 44.89
	L 1.247 45.87
	M 1.04 44.89
	L 1.04 45.89
	L 1.247 46.87
	L 1.247 47.87
	M 1.247 46.87
	L 1.455 47.85
	M 1.04 45.89
	L 1.04 46.89
	L 0.8316 47.87
	M 1.04 46.89
	L 1.04 47.89
	L 1.247 48.87
	M 1.04 47.89
	L 1.04 48.89
	M 1.04 40.89
	L 1.247 41.87
	L 1.247 42.87
	M 1.247 41.87
	L 1.455 42.85
	L 1.862 43.76
	M 1.455 42.85
	L 1.663 43.83
	L 1.663 44.83
	L 1.455 45.8
	M 1.663 44.83
	L 1.663 45.83
	L 1.871 46.8
	M 1.663 45.83
	L 1.663 46.83
	M 1.663 43.83
	L 1.871 44.8
	L 1.871 45.8
	M 1.871 44.8
	L 2.079 45.78
	L 2.486 46.7
	M 2.079 45.78
	L 2.287 46.76
	M 2.204e-15 36
	L 2.266e-15 37
	L 0.2079 37.98
	M 2.266e-15 37
	L 2.327e-15 38
	L 0.2079 38.98
	L 0.6146 39.89
	M 0.2079 38.98
	L 0.4158 39.96
	M 2.327e-15 38
	L 2.388e-15 39
	L -0.2079 39.98
	M 2.388e-15 39
	L 2.449e-15 40
	L 0.2079 40.98
	M 2.449e-15 40
	L 2.511e-15 41
	L 0.2079 41.98
	L 0.2079 42.98
	M 0.2079 41.98
	L 0.4158 42.96
	L 0.8226 43.87
	M 0.4158 42.96
	L 0.6237 43.93
	L 0.6237 44.93
	L 0.4158 45.91
	M 0.6237 44.93
	L 0.6237 45.93
	L 0.8316 46.91
	M 0.6237 45.93
	L 0.6237 46.93
	M 0.6237 43.93
	L 0.8316 44.91
	L 0.8316 45.91
	M 0.8316 44.91
	L 1.04 45.89
	L 1.446 46.8
	L 2.034 47.61
	M 1.446 46.8
	L 1.853 47.72
	M 1.04 45.89
	L 1.247 46.87
	L 1.654 47.78
	M 1.247 46.87
	L 1.455 47.85
	M 2.511e-15 41
	L 2.572e-15 42
	L -0.2079 42.98
	M 2.572e-15 42
	L 2.633e-15 43
	L -0.2079 43.98
	L -0.6146 44.89
	M -0.2079 43.98
	L -0.4158 44.96
	L -0.4158 45.96
	M -0.4158 44.96
	L -0.6237 45.93
	M 2.633e-15 43
	L 2.694e-15 44
	L 0.2079 44.98
	M 2.694e-15 44
	L 2.755e-15 45
	L 0.2079 45.98
	L 0.2079 46.98
	M 0.2079 45.98
	L 0.4158 46.96
	L 0.8226 47.87
	M 0.4158 46.96
	L 0.6237 47.93
	M 2.755e-15 45
	L 2.817e-15 46
	L -0.2079 46.98
	M 2.817e-15 46
	L 2.878e-15 47
	L 0.2079 47.98
	M 2.878e-15 47
	L 2.939e-15 48
"/>
</svg>
